<svg width="375" height="124" viewBox="0 0 375 124" fill="none" xmlns="http://www.w3.org/2000/svg">
<rect x="121" y="110" width="133" height="6" rx="3" fill="black"/>
<path fill-rule="evenodd" clip-rule="evenodd" d="M335.998 71.875C333.677 71.875 331.787 73.7593 331.787 76.0837V85.8304C331.787 88.1552 333.672 90.0392 335.998 90.0392C338.319 90.0392 340.209 88.1548 340.209 85.8304V76.0837C340.209 73.759 338.323 71.875 335.998 71.875ZM333.592 76.0781V85.836C333.592 87.1502 334.669 88.2337 335.998 88.2337C337.336 88.2337 338.404 87.1602 338.404 85.836V76.0781C338.404 74.764 337.327 73.6805 335.998 73.6805C334.66 73.6805 333.592 74.7539 333.592 76.0781Z" fill="#50555C"/>
<path d="M336.984 95.007V92.4903C341.578 92.2276 343.547 88.4597 343.547 84.7776V83.08C343.548 83.0667 343.548 83.0534 343.547 83.04L343.547 83.0197C343.547 82.5211 343.14 82.117 342.641 82.117C342.143 82.117 341.749 82.5211 341.749 83.0197V84.7767C341.749 88.4592 340.266 90.9803 336.066 90.9803C332.391 90.9803 330.258 88.4592 330.258 84.7767V83.08C330.258 82.5814 329.854 82.1772 329.355 82.1772C328.857 82.1772 328.453 82.5814 328.453 83.08V84.7776C328.453 88.4638 331.078 92.2276 335.147 92.4903V95.007H331.765C331.273 95.007 330.859 95.4112 330.859 95.9098C330.859 96.4118 331.265 96.8125 331.765 96.8125H340.266C340.757 96.8125 341.184 96.4084 341.184 95.9098C341.184 95.4077 340.766 95.007 340.266 95.007H336.984Z" fill="#50555C"/>
<path fill-rule="evenodd" clip-rule="evenodd" d="M39 98.125C31.7513 98.125 25.875 92.2487 25.875 85C25.875 77.7513 31.7513 71.875 39 71.875C46.2487 71.875 52.125 77.7513 52.125 85C52.125 92.2487 46.2487 98.125 39 98.125ZM39 96.8125C45.5239 96.8125 50.8125 91.5239 50.8125 85C50.8125 78.4761 45.5239 73.1875 39 73.1875C32.4761 73.1875 27.1875 78.4761 27.1875 85C27.1875 91.5239 32.4761 96.8125 39 96.8125ZM38.9845 94.1875C34.3068 94.1875 29.8673 89.7011 29.8673 86.4588C29.8673 84.598 33.9103 86.8375 38.9845 86.8375C44.0586 86.8375 48.1463 84.6011 48.1327 86.4588C48.1098 89.6008 43.6622 94.1875 38.9845 94.1875ZM38.9845 90.0531C43.3337 90.0531 46.3424 88.3718 46.3424 87.1592C46.3424 85.9467 43.3337 87.8822 38.9845 87.8822C34.6352 87.8822 31.6765 86.179 31.6765 87.1592C31.6765 88.1395 34.6352 90.0531 38.9845 90.0531ZM35.0461 82.6703C34.1853 82.6703 33.4875 81.9725 33.4875 81.1117C33.4875 80.2509 34.1853 79.5531 35.0461 79.5531C35.9069 79.5531 36.6047 80.2509 36.6047 81.1117C36.6047 81.9725 35.9069 82.6703 35.0461 82.6703ZM42.9211 82.6703C42.0603 82.6703 41.3625 81.9725 41.3625 81.1117C41.3625 80.2509 42.0603 79.5531 42.9211 79.5531C43.7819 79.5531 44.4797 80.2509 44.4797 81.1117C44.4797 81.9725 43.7819 82.6703 42.9211 82.6703Z" fill="#50555C"/>
<g filter="url(#filter0_d)">
<path d="M3 8C3 5.23858 5.23858 3 8 3H75C77.7614 3 80 5.23858 80 8V41C80 43.7614 77.7614 46 75 46H8C5.23858 46 3 43.7614 3 41V8Z" fill="#AEB3BE"/>
<path d="M32.4409 30H33.8472V18.7266H32.4487L29.4487 20.8828V22.3672L32.3159 20.2891H32.4409V30ZM36.785 30H44.0819V28.7344H38.7381V28.6094L41.3006 25.9609C43.3397 23.8594 43.8944 22.9219 43.8944 21.6328V21.6172C43.8944 19.7969 42.3866 18.4609 40.4178 18.4609C38.2616 18.4609 36.7147 19.8984 36.7069 21.8984L36.7225 21.9062L38.0662 21.9141L38.0741 21.8984C38.0741 20.5703 38.9725 19.6875 40.3241 19.6875C41.6522 19.6875 42.4569 20.5781 42.4569 21.7656V21.7812C42.4569 22.7656 42.035 23.3516 40.5975 24.9062L36.785 29.0312V30ZM49.9572 30.1875C52.215 30.1875 53.8713 28.7969 53.8713 26.9141V26.8984C53.8713 25.2969 52.7541 24.2734 51.1134 24.1328V24.1016C52.5197 23.8047 53.5041 22.8516 53.5041 21.4609V21.4453C53.5041 19.7344 52.09 18.5391 49.9416 18.5391C47.8322 18.5391 46.3791 19.7656 46.1994 21.6016L46.1916 21.6797H47.5431L47.5509 21.6016C47.6681 20.4609 48.6134 19.7578 49.9416 19.7578C51.3166 19.7578 52.09 20.4375 52.09 21.6172V21.6328C52.09 22.7578 51.1525 23.5859 49.8088 23.5859H48.4572V24.7734H49.8713C51.4494 24.7734 52.4416 25.5469 52.4416 26.9297V26.9453C52.4416 28.1406 51.4338 28.9688 49.9572 28.9688C48.4572 28.9688 47.4338 28.2031 47.3244 27.0938L47.3166 27.0156H45.965L45.9728 27.1094C46.1213 28.8906 47.6291 30.1875 49.9572 30.1875Z" fill="black"/>
</g>
<g filter="url(#filter1_d)">
<path d="M85 8C85 5.23858 87.2386 3 90 3H179C181.761 3 184 5.23858 184 8V41C184 43.7614 181.761 46 179 46H90C87.2386 46 85 43.7614 85 41V8Z" fill="white"/>
<path d="M116.925 30.1484C118.839 30.1484 120.3 29.1094 120.3 27.6094V27.5938C120.3 26.3906 119.534 25.7031 117.948 25.3203L116.652 25.0078C115.659 24.7656 115.237 24.4062 115.237 23.8359V23.8203C115.237 23.0781 115.972 22.5625 116.972 22.5625C117.987 22.5625 118.644 23.0234 118.823 23.6875H120.159C119.972 22.3125 118.745 21.4297 116.98 21.4297C115.191 21.4297 113.847 22.4844 113.847 23.8828V23.8906C113.847 25.1016 114.558 25.7891 116.136 26.1641L117.441 26.4766C118.48 26.7266 118.909 27.125 118.909 27.6953V27.7109C118.909 28.4766 118.105 29.0156 116.972 29.0156C115.894 29.0156 115.222 28.5547 114.995 27.8516H113.605C113.761 29.2422 115.05 30.1484 116.925 30.1484ZM122.089 32.8125H123.449V28.6719H123.574C124.035 29.5703 125.042 30.1484 126.199 30.1484C128.339 30.1484 129.73 28.4375 129.73 25.7969V25.7812C129.73 23.1562 128.332 21.4297 126.199 21.4297C125.027 21.4297 124.089 21.9844 123.574 22.9219H123.449V21.5781H122.089V32.8125ZM125.886 28.9453C124.355 28.9453 123.417 27.7422 123.417 25.7969V25.7812C123.417 23.8359 124.355 22.6328 125.886 22.6328C127.425 22.6328 128.339 23.8203 128.339 25.7812V25.7969C128.339 27.7578 127.425 28.9453 125.886 28.9453ZM133.847 30.1484C134.98 30.1484 135.863 29.6562 136.394 28.7578H136.519V30H137.879V24.2344C137.879 22.4844 136.73 21.4297 134.676 21.4297C132.879 21.4297 131.597 22.3203 131.379 23.6406L131.371 23.6875H132.73L132.738 23.6641C132.957 23.0078 133.621 22.6328 134.629 22.6328C135.887 22.6328 136.519 23.1953 136.519 24.2344V25L134.105 25.1484C132.144 25.2656 131.035 26.1328 131.035 27.6328V27.6484C131.035 29.1797 132.246 30.1484 133.847 30.1484ZM132.426 27.6172V27.6016C132.426 26.7656 132.988 26.3125 134.269 26.2344L136.519 26.0938V26.8594C136.519 28.0625 135.512 28.9688 134.129 28.9688C133.152 28.9688 132.426 28.4688 132.426 27.6172ZM143.488 30.1484C145.512 30.1484 146.645 29.0625 146.988 27.5391L147.004 27.4531L145.66 27.4609L145.645 27.5078C145.332 28.4453 144.613 28.9453 143.481 28.9453C141.981 28.9453 141.012 27.7031 141.012 25.7656V25.75C141.012 23.8516 141.965 22.6328 143.481 22.6328C144.692 22.6328 145.442 23.3047 145.653 24.1328L145.66 24.1562H147.012L147.004 24.1094C146.754 22.6094 145.528 21.4297 143.481 21.4297C141.121 21.4297 139.621 23.1328 139.621 25.75V25.7656C139.621 28.4375 141.129 30.1484 143.488 30.1484ZM152.114 30.1484C154.098 30.1484 155.301 29.0234 155.59 27.8828L155.606 27.8203H154.247L154.215 27.8906C153.989 28.3984 153.286 28.9375 152.145 28.9375C150.645 28.9375 149.684 27.9219 149.645 26.1797H155.708V25.6484C155.708 23.1328 154.317 21.4297 152.028 21.4297C149.739 21.4297 148.254 23.2109 148.254 25.8125V25.8203C148.254 28.4609 149.708 30.1484 152.114 30.1484ZM152.02 22.6406C153.262 22.6406 154.184 23.4297 154.325 25.0938H149.668C149.817 23.4922 150.77 22.6406 152.02 22.6406Z" fill="black"/>
</g>
<g filter="url(#filter2_d)">
<path d="M191 8C191 5.23858 193.239 3 196 3H226C228.761 3 231 5.23858 231 8V41C231 43.7614 228.761 46 226 46H196C193.239 46 191 43.7614 191 41V8Z" fill="white"/>
<path fill-rule="evenodd" clip-rule="evenodd" d="M210.27 21.1875C208.57 21.1875 207.469 22.6289 207.469 24.8438C207.469 27.0469 208.559 28.4766 210.258 28.4766C211.992 28.4766 213.105 27.0234 213.105 24.7852C213.105 22.582 212.016 21.1875 210.27 21.1875ZM210.645 15C216.117 15 220.02 18.5273 220.02 23.7188C220.02 27.4453 218.473 29.8359 215.895 29.8359C214.5 29.8359 213.398 28.9922 213.223 27.6797H213.141C212.613 29.0156 211.523 29.7539 210.07 29.7539C207.656 29.7539 206.016 27.7617 206.016 24.8086C206.016 21.9258 207.68 19.9336 210.07 19.9336C211.43 19.9336 212.613 20.6719 213.047 21.8203H213.129V20.168H214.488V26.8711C214.488 27.9375 215.051 28.6406 216.117 28.6406C217.676 28.6406 218.742 26.8477 218.742 23.6953C218.742 19.2188 215.379 16.1602 210.539 16.1602C205.77 16.1602 202.289 19.7578 202.289 24.7734C202.289 30.1523 205.875 33.3633 210.773 33.3633C212.355 33.3633 213.867 33.1641 214.664 32.8477V34.0078C213.715 34.3359 212.332 34.5234 210.762 34.5234C205.078 34.5234 201 30.8672 201 24.7266C201 18.9727 204.996 15 210.645 15Z" fill="black"/>
</g>
<g filter="url(#filter3_d)">
<path d="M238 8C238 5.23858 240.239 3 243 3H273C275.761 3 278 5.23858 278 8V41C278 43.7614 275.761 46 273 46H243C240.239 46 238 43.7614 238 41V8Z" fill="white"/>
<path d="M258.16 30.0781C258.722 30.0781 259.176 29.6172 259.176 29.0625C259.176 28.5 258.722 28.0469 258.16 28.0469C257.605 28.0469 257.144 28.5 257.144 29.0625C257.144 29.6172 257.605 30.0781 258.16 30.0781Z" fill="black"/>
</g>
<g filter="url(#filter4_d)">
<path d="M285 8C285 5.23858 287.239 3 290 3H367C369.761 3 372 5.23858 372 8V41C372 43.7614 369.761 46 367 46H290C287.239 46 285 43.7614 285 41V8Z" fill="#0F77F0"/>
<path d="M307.851 30H309.21V24.7812C309.21 23.5469 310.132 22.7266 311.429 22.7266C311.726 22.7266 311.983 22.7578 312.265 22.8047V21.4844C312.132 21.4609 311.843 21.4297 311.585 21.4297C310.444 21.4297 309.655 21.9453 309.335 22.8281H309.21V21.5781H307.851V30ZM316.827 30.1484C318.812 30.1484 320.015 29.0234 320.304 27.8828L320.32 27.8203H318.96L318.929 27.8906C318.702 28.3984 317.999 28.9375 316.859 28.9375C315.359 28.9375 314.398 27.9219 314.359 26.1797H320.421V25.6484C320.421 23.1328 319.031 21.4297 316.742 21.4297C314.452 21.4297 312.968 23.2109 312.968 25.8125V25.8203C312.968 28.4609 314.421 30.1484 316.827 30.1484ZM316.734 22.6406C317.976 22.6406 318.898 23.4297 319.038 25.0938H314.382C314.531 23.4922 315.484 22.6406 316.734 22.6406ZM325.203 30.0625C325.468 30.0625 325.726 30.0312 325.992 29.9844V28.8281C325.742 28.8516 325.609 28.8594 325.367 28.8594C324.492 28.8594 324.148 28.4609 324.148 27.4688V22.7031H325.992V21.5781H324.148V19.3984H322.742V21.5781H321.414V22.7031H322.742V27.8125C322.742 29.4219 323.468 30.0625 325.203 30.0625ZM330.523 30.1484C331.758 30.1484 332.609 29.6406 333.023 28.7422H333.148V30H334.508V21.5781H333.148V26.5625C333.148 28.0391 332.359 28.9453 330.875 28.9453C329.531 28.9453 328.984 28.2188 328.984 26.7031V21.5781H327.625V27.0312C327.625 29.0234 328.609 30.1484 330.523 30.1484ZM336.727 30H338.086V24.7812C338.086 23.5469 339.008 22.7266 340.305 22.7266C340.602 22.7266 340.86 22.7578 341.141 22.8047V21.4844C341.008 21.4609 340.719 21.4297 340.461 21.4297C339.321 21.4297 338.532 21.9453 338.211 22.8281H338.086V21.5781H336.727V30ZM342.657 30H344.016V25.0156C344.016 23.5391 344.868 22.6328 346.212 22.6328C347.555 22.6328 348.18 23.3594 348.18 24.875V30H349.54V24.5469C349.54 22.5469 348.485 21.4297 346.594 21.4297C345.352 21.4297 344.563 21.9531 344.141 22.8438H344.016V21.5781H342.657V30Z" fill="white"/>
</g>
<defs>
<filter id="filter0_d" x="3" y="3" width="77" height="44" filterUnits="userSpaceOnUse" color-interpolation-filters="sRGB">
<feFlood flood-opacity="0" result="BackgroundImageFix"/>
<feColorMatrix in="SourceAlpha" type="matrix" values="0 0 0 0 0 0 0 0 0 0 0 0 0 0 0 0 0 0 127 0" result="hardAlpha"/>
<feOffset dy="1"/>
<feColorMatrix type="matrix" values="0 0 0 0 0 0 0 0 0 0 0 0 0 0 0 0 0 0 0.3 0"/>
<feBlend mode="normal" in2="BackgroundImageFix" result="effect1_dropShadow"/>
<feBlend mode="normal" in="SourceGraphic" in2="effect1_dropShadow" result="shape"/>
</filter>
<filter id="filter1_d" x="85" y="3" width="99" height="44" filterUnits="userSpaceOnUse" color-interpolation-filters="sRGB">
<feFlood flood-opacity="0" result="BackgroundImageFix"/>
<feColorMatrix in="SourceAlpha" type="matrix" values="0 0 0 0 0 0 0 0 0 0 0 0 0 0 0 0 0 0 127 0" result="hardAlpha"/>
<feOffset dy="1"/>
<feColorMatrix type="matrix" values="0 0 0 0 0 0 0 0 0 0 0 0 0 0 0 0 0 0 0.3 0"/>
<feBlend mode="normal" in2="BackgroundImageFix" result="effect1_dropShadow"/>
<feBlend mode="normal" in="SourceGraphic" in2="effect1_dropShadow" result="shape"/>
</filter>
<filter id="filter2_d" x="191" y="3" width="40" height="44" filterUnits="userSpaceOnUse" color-interpolation-filters="sRGB">
<feFlood flood-opacity="0" result="BackgroundImageFix"/>
<feColorMatrix in="SourceAlpha" type="matrix" values="0 0 0 0 0 0 0 0 0 0 0 0 0 0 0 0 0 0 127 0" result="hardAlpha"/>
<feOffset dy="1"/>
<feColorMatrix type="matrix" values="0 0 0 0 0 0 0 0 0 0 0 0 0 0 0 0 0 0 0.3 0"/>
<feBlend mode="normal" in2="BackgroundImageFix" result="effect1_dropShadow"/>
<feBlend mode="normal" in="SourceGraphic" in2="effect1_dropShadow" result="shape"/>
</filter>
<filter id="filter3_d" x="238" y="3" width="40" height="44" filterUnits="userSpaceOnUse" color-interpolation-filters="sRGB">
<feFlood flood-opacity="0" result="BackgroundImageFix"/>
<feColorMatrix in="SourceAlpha" type="matrix" values="0 0 0 0 0 0 0 0 0 0 0 0 0 0 0 0 0 0 127 0" result="hardAlpha"/>
<feOffset dy="1"/>
<feColorMatrix type="matrix" values="0 0 0 0 0 0 0 0 0 0 0 0 0 0 0 0 0 0 0.3 0"/>
<feBlend mode="normal" in2="BackgroundImageFix" result="effect1_dropShadow"/>
<feBlend mode="normal" in="SourceGraphic" in2="effect1_dropShadow" result="shape"/>
</filter>
<filter id="filter4_d" x="285" y="3" width="87" height="44" filterUnits="userSpaceOnUse" color-interpolation-filters="sRGB">
<feFlood flood-opacity="0" result="BackgroundImageFix"/>
<feColorMatrix in="SourceAlpha" type="matrix" values="0 0 0 0 0 0 0 0 0 0 0 0 0 0 0 0 0 0 127 0" result="hardAlpha"/>
<feOffset dy="1"/>
<feColorMatrix type="matrix" values="0 0 0 0 0 0 0 0 0 0 0 0 0 0 0 0 0 0 0.3 0"/>
<feBlend mode="normal" in2="BackgroundImageFix" result="effect1_dropShadow"/>
<feBlend mode="normal" in="SourceGraphic" in2="effect1_dropShadow" result="shape"/>
</filter>
</defs>
</svg>
