<svg width="375" height="124" viewBox="0 0 375 124" fill="none" xmlns="http://www.w3.org/2000/svg">
<rect x="121" y="110" width="133" height="6" rx="3" fill="black"/>
<path fill-rule="evenodd" clip-rule="evenodd" d="M335.998 71.875C333.677 71.875 331.787 73.7593 331.787 76.0837V85.8304C331.787 88.1552 333.672 90.0392 335.998 90.0392C338.319 90.0392 340.209 88.1548 340.209 85.8304V76.0837C340.209 73.759 338.323 71.875 335.998 71.875ZM333.592 76.0781V85.836C333.592 87.1502 334.669 88.2337 335.998 88.2337C337.336 88.2337 338.404 87.1602 338.404 85.836V76.0781C338.404 74.764 337.327 73.6805 335.998 73.6805C334.66 73.6805 333.592 74.7539 333.592 76.0781Z" fill="#50555C"/>
<path d="M336.984 95.007V92.4903C341.578 92.2276 343.547 88.4597 343.547 84.7776V83.08C343.548 83.0667 343.548 83.0534 343.547 83.04L343.547 83.0197C343.547 82.5211 343.14 82.117 342.641 82.117C342.143 82.117 341.749 82.5211 341.749 83.0197V84.7767C341.749 88.4592 340.266 90.9803 336.066 90.9803C332.391 90.9803 330.258 88.4592 330.258 84.7767V83.08C330.258 82.5814 329.854 82.1772 329.355 82.1772C328.857 82.1772 328.453 82.5814 328.453 83.08V84.7776C328.453 88.4638 331.078 92.2276 335.147 92.4903V95.007H331.765C331.273 95.007 330.859 95.4112 330.859 95.9098C330.859 96.4118 331.265 96.8125 331.765 96.8125H340.266C340.757 96.8125 341.184 96.4084 341.184 95.9098C341.184 95.4077 340.766 95.007 340.266 95.007H336.984Z" fill="#50555C"/>
<path fill-rule="evenodd" clip-rule="evenodd" d="M39 98.125C31.7513 98.125 25.875 92.2487 25.875 85C25.875 77.7513 31.7513 71.875 39 71.875C46.2487 71.875 52.125 77.7513 52.125 85C52.125 92.2487 46.2487 98.125 39 98.125ZM39 96.8125C45.5239 96.8125 50.8125 91.5239 50.8125 85C50.8125 78.4761 45.5239 73.1875 39 73.1875C32.4761 73.1875 27.1875 78.4761 27.1875 85C27.1875 91.5239 32.4761 96.8125 39 96.8125ZM38.9845 94.1875C34.3068 94.1875 29.8673 89.7011 29.8673 86.4588C29.8673 84.598 33.9103 86.8375 38.9845 86.8375C44.0586 86.8375 48.1463 84.6011 48.1327 86.4588C48.1098 89.6008 43.6622 94.1875 38.9845 94.1875ZM38.9845 90.0531C43.3337 90.0531 46.3424 88.3718 46.3424 87.1592C46.3424 85.9467 43.3337 87.8822 38.9845 87.8822C34.6352 87.8822 31.6765 86.179 31.6765 87.1592C31.6765 88.1395 34.6352 90.0531 38.9845 90.0531ZM35.0461 82.6703C34.1853 82.6703 33.4875 81.9725 33.4875 81.1117C33.4875 80.2509 34.1853 79.5531 35.0461 79.5531C35.9069 79.5531 36.6047 80.2509 36.6047 81.1117C36.6047 81.9725 35.9069 82.6703 35.0461 82.6703ZM42.9211 82.6703C42.0603 82.6703 41.3625 81.9725 41.3625 81.1117C41.3625 80.2509 42.0603 79.5531 42.9211 79.5531C43.7819 79.5531 44.4797 80.2509 44.4797 81.1117C44.4797 81.9725 43.7819 82.6703 42.9211 82.6703Z" fill="#50555C"/>
<g filter="url(#filter0_d)">
<path d="M96 8C96 5.23858 98.2386 3 101 3H273C275.761 3 278 5.23858 278 8V41C278 43.7614 275.761 46 273 46H101C98.2386 46 96 43.7614 96 41V8Z" fill="white"/>
<path d="M169.425 30.1484C171.339 30.1484 172.8 29.1094 172.8 27.6094V27.5938C172.8 26.3906 172.034 25.7031 170.448 25.3203L169.152 25.0078C168.159 24.7656 167.738 24.4062 167.738 23.8359V23.8203C167.738 23.0781 168.472 22.5625 169.472 22.5625C170.488 22.5625 171.144 23.0234 171.323 23.6875H172.659C172.472 22.3125 171.245 21.4297 169.48 21.4297C167.691 21.4297 166.347 22.4844 166.347 23.8828V23.8906C166.347 25.1016 167.058 25.7891 168.636 26.1641L169.941 26.4766C170.98 26.7266 171.409 27.125 171.409 27.6953V27.7109C171.409 28.4766 170.605 29.0156 169.472 29.0156C168.394 29.0156 167.722 28.5547 167.495 27.8516H166.105C166.261 29.2422 167.55 30.1484 169.425 30.1484ZM174.589 32.8125H175.949V28.6719H176.074C176.535 29.5703 177.543 30.1484 178.699 30.1484C180.839 30.1484 182.23 28.4375 182.23 25.7969V25.7812C182.23 23.1562 180.832 21.4297 178.699 21.4297C177.527 21.4297 176.589 21.9844 176.074 22.9219H175.949V21.5781H174.589V32.8125ZM178.386 28.9453C176.855 28.9453 175.918 27.7422 175.918 25.7969V25.7812C175.918 23.8359 176.855 22.6328 178.386 22.6328C179.925 22.6328 180.839 23.8203 180.839 25.7812V25.7969C180.839 27.7578 179.925 28.9453 178.386 28.9453ZM186.348 30.1484C187.48 30.1484 188.363 29.6562 188.894 28.7578H189.019V30H190.379V24.2344C190.379 22.4844 189.23 21.4297 187.176 21.4297C185.379 21.4297 184.098 22.3203 183.879 23.6406L183.871 23.6875H185.23L185.238 23.6641C185.457 23.0078 186.121 22.6328 187.129 22.6328C188.387 22.6328 189.019 23.1953 189.019 24.2344V25L186.605 25.1484C184.644 25.2656 183.535 26.1328 183.535 27.6328V27.6484C183.535 29.1797 184.746 30.1484 186.348 30.1484ZM184.926 27.6172V27.6016C184.926 26.7656 185.488 26.3125 186.769 26.2344L189.019 26.0938V26.8594C189.019 28.0625 188.012 28.9688 186.629 28.9688C185.652 28.9688 184.926 28.4688 184.926 27.6172ZM195.988 30.1484C198.012 30.1484 199.145 29.0625 199.488 27.5391L199.504 27.4531L198.16 27.4609L198.145 27.5078C197.832 28.4453 197.113 28.9453 195.981 28.9453C194.481 28.9453 193.512 27.7031 193.512 25.7656V25.75C193.512 23.8516 194.465 22.6328 195.981 22.6328C197.192 22.6328 197.942 23.3047 198.153 24.1328L198.16 24.1562H199.512L199.504 24.1094C199.254 22.6094 198.028 21.4297 195.981 21.4297C193.621 21.4297 192.121 23.1328 192.121 25.75V25.7656C192.121 28.4375 193.629 30.1484 195.988 30.1484ZM204.614 30.1484C206.598 30.1484 207.801 29.0234 208.09 27.8828L208.106 27.8203H206.747L206.715 27.8906C206.489 28.3984 205.786 28.9375 204.645 28.9375C203.145 28.9375 202.184 27.9219 202.145 26.1797H208.208V25.6484C208.208 23.1328 206.817 21.4297 204.528 21.4297C202.239 21.4297 200.754 23.2109 200.754 25.8125V25.8203C200.754 28.4609 202.208 30.1484 204.614 30.1484ZM204.52 22.6406C205.762 22.6406 206.684 23.4297 206.825 25.0938H202.168C202.317 23.4922 203.27 22.6406 204.52 22.6406Z" fill="black"/>
</g>
<g filter="url(#filter1_d)">
<path d="M285 8C285 5.23858 287.239 3 290 3H367C369.761 3 372 5.23858 372 8V41C372 43.7614 369.761 46 367 46H290C287.239 46 285 43.7614 285 41V8Z" fill="#0F77F0"/>
<path d="M307.851 30H309.21V24.7812C309.21 23.5469 310.132 22.7266 311.429 22.7266C311.726 22.7266 311.983 22.7578 312.265 22.8047V21.4844C312.132 21.4609 311.843 21.4297 311.585 21.4297C310.444 21.4297 309.655 21.9453 309.335 22.8281H309.21V21.5781H307.851V30ZM316.827 30.1484C318.812 30.1484 320.015 29.0234 320.304 27.8828L320.32 27.8203H318.96L318.929 27.8906C318.702 28.3984 317.999 28.9375 316.859 28.9375C315.359 28.9375 314.398 27.9219 314.359 26.1797H320.421V25.6484C320.421 23.1328 319.031 21.4297 316.742 21.4297C314.452 21.4297 312.968 23.2109 312.968 25.8125V25.8203C312.968 28.4609 314.421 30.1484 316.827 30.1484ZM316.734 22.6406C317.976 22.6406 318.898 23.4297 319.038 25.0938H314.382C314.531 23.4922 315.484 22.6406 316.734 22.6406ZM325.203 30.0625C325.468 30.0625 325.726 30.0312 325.992 29.9844V28.8281C325.742 28.8516 325.609 28.8594 325.367 28.8594C324.492 28.8594 324.148 28.4609 324.148 27.4688V22.7031H325.992V21.5781H324.148V19.3984H322.742V21.5781H321.414V22.7031H322.742V27.8125C322.742 29.4219 323.468 30.0625 325.203 30.0625ZM330.523 30.1484C331.758 30.1484 332.609 29.6406 333.023 28.7422H333.148V30H334.508V21.5781H333.148V26.5625C333.148 28.0391 332.359 28.9453 330.875 28.9453C329.531 28.9453 328.984 28.2188 328.984 26.7031V21.5781H327.625V27.0312C327.625 29.0234 328.609 30.1484 330.523 30.1484ZM336.727 30H338.086V24.7812C338.086 23.5469 339.008 22.7266 340.305 22.7266C340.602 22.7266 340.86 22.7578 341.141 22.8047V21.4844C341.008 21.4609 340.719 21.4297 340.461 21.4297C339.321 21.4297 338.532 21.9453 338.211 22.8281H338.086V21.5781H336.727V30ZM342.657 30H344.016V25.0156C344.016 23.5391 344.868 22.6328 346.212 22.6328C347.555 22.6328 348.18 23.3594 348.18 24.875V30H349.54V24.5469C349.54 22.5469 348.485 21.4297 346.594 21.4297C345.352 21.4297 344.563 21.9531 344.141 22.8438H344.016V21.5781H342.657V30Z" fill="white"/>
</g>
<g filter="url(#filter2_d)">
<path d="M3 8C3 5.23858 5.23858 3 8 3H85C87.7614 3 90 5.23858 90 8V41C90 43.7614 87.7614 46 85 46H8C5.23858 46 3 43.7614 3 41V8Z" fill="#AEB3BE"/>
<path d="M37.4409 30H38.8472V18.7266H37.4487L34.4487 20.8828V22.3672L37.3159 20.2891H37.4409V30ZM41.785 30H49.0819V28.7344H43.7381V28.6094L46.3006 25.9609C48.3397 23.8594 48.8944 22.9219 48.8944 21.6328V21.6172C48.8944 19.7969 47.3866 18.4609 45.4178 18.4609C43.2616 18.4609 41.7147 19.8984 41.7069 21.8984L41.7225 21.9062L43.0662 21.9141L43.0741 21.8984C43.0741 20.5703 43.9725 19.6875 45.3241 19.6875C46.6522 19.6875 47.4569 20.5781 47.4569 21.7656V21.7812C47.4569 22.7656 47.035 23.3516 45.5975 24.9062L41.785 29.0312V30ZM54.9572 30.1875C57.215 30.1875 58.8713 28.7969 58.8713 26.9141V26.8984C58.8713 25.2969 57.7541 24.2734 56.1134 24.1328V24.1016C57.5197 23.8047 58.5041 22.8516 58.5041 21.4609V21.4453C58.5041 19.7344 57.09 18.5391 54.9416 18.5391C52.8322 18.5391 51.3791 19.7656 51.1994 21.6016L51.1916 21.6797H52.5431L52.5509 21.6016C52.6681 20.4609 53.6134 19.7578 54.9416 19.7578C56.3166 19.7578 57.09 20.4375 57.09 21.6172V21.6328C57.09 22.7578 56.1525 23.5859 54.8088 23.5859H53.4572V24.7734H54.8713C56.4494 24.7734 57.4416 25.5469 57.4416 26.9297V26.9453C57.4416 28.1406 56.4338 28.9688 54.9572 28.9688C53.4572 28.9688 52.4338 28.2031 52.3244 27.0938L52.3166 27.0156H50.965L50.9728 27.1094C51.1213 28.8906 52.6291 30.1875 54.9572 30.1875Z" fill="black"/>
</g>
<defs>
<filter id="filter0_d" x="96" y="3" width="182" height="44" filterUnits="userSpaceOnUse" color-interpolation-filters="sRGB">
<feFlood flood-opacity="0" result="BackgroundImageFix"/>
<feColorMatrix in="SourceAlpha" type="matrix" values="0 0 0 0 0 0 0 0 0 0 0 0 0 0 0 0 0 0 127 0" result="hardAlpha"/>
<feOffset dy="1"/>
<feColorMatrix type="matrix" values="0 0 0 0 0 0 0 0 0 0 0 0 0 0 0 0 0 0 0.3 0"/>
<feBlend mode="normal" in2="BackgroundImageFix" result="effect1_dropShadow"/>
<feBlend mode="normal" in="SourceGraphic" in2="effect1_dropShadow" result="shape"/>
</filter>
<filter id="filter1_d" x="285" y="3" width="87" height="44" filterUnits="userSpaceOnUse" color-interpolation-filters="sRGB">
<feFlood flood-opacity="0" result="BackgroundImageFix"/>
<feColorMatrix in="SourceAlpha" type="matrix" values="0 0 0 0 0 0 0 0 0 0 0 0 0 0 0 0 0 0 127 0" result="hardAlpha"/>
<feOffset dy="1"/>
<feColorMatrix type="matrix" values="0 0 0 0 0 0 0 0 0 0 0 0 0 0 0 0 0 0 0.3 0"/>
<feBlend mode="normal" in2="BackgroundImageFix" result="effect1_dropShadow"/>
<feBlend mode="normal" in="SourceGraphic" in2="effect1_dropShadow" result="shape"/>
</filter>
<filter id="filter2_d" x="3" y="3" width="87" height="44" filterUnits="userSpaceOnUse" color-interpolation-filters="sRGB">
<feFlood flood-opacity="0" result="BackgroundImageFix"/>
<feColorMatrix in="SourceAlpha" type="matrix" values="0 0 0 0 0 0 0 0 0 0 0 0 0 0 0 0 0 0 127 0" result="hardAlpha"/>
<feOffset dy="1"/>
<feColorMatrix type="matrix" values="0 0 0 0 0 0 0 0 0 0 0 0 0 0 0 0 0 0 0.3 0"/>
<feBlend mode="normal" in2="BackgroundImageFix" result="effect1_dropShadow"/>
<feBlend mode="normal" in="SourceGraphic" in2="effect1_dropShadow" result="shape"/>
</filter>
</defs>
</svg>
