<svg width="375" height="124" viewBox="0 0 375 124" fill="none" xmlns="http://www.w3.org/2000/svg">
<rect x="121" y="110" width="133" height="6" rx="3" fill="black"/>
<path fill-rule="evenodd" clip-rule="evenodd" d="M335.998 71.875C333.677 71.875 331.787 73.7593 331.787 76.0837V85.8304C331.787 88.1552 333.672 90.0392 335.998 90.0392C338.319 90.0392 340.209 88.1548 340.209 85.8304V76.0837C340.209 73.759 338.323 71.875 335.998 71.875ZM333.592 76.0781V85.836C333.592 87.1502 334.669 88.2337 335.998 88.2337C337.336 88.2337 338.404 87.1602 338.404 85.836V76.0781C338.404 74.764 337.327 73.6805 335.998 73.6805C334.66 73.6805 333.592 74.7539 333.592 76.0781Z" fill="#50555C"/>
<path d="M336.984 95.007V92.4903C341.578 92.2276 343.547 88.4597 343.547 84.7776V83.08C343.548 83.0667 343.548 83.0534 343.547 83.04L343.547 83.0197C343.547 82.5211 343.14 82.117 342.641 82.117C342.143 82.117 341.749 82.5211 341.749 83.0197V84.7767C341.749 88.4592 340.266 90.9803 336.066 90.9803C332.391 90.9803 330.258 88.4592 330.258 84.7767V83.08C330.258 82.5814 329.854 82.1772 329.355 82.1772C328.857 82.1772 328.453 82.5814 328.453 83.08V84.7776C328.453 88.4638 331.078 92.2276 335.147 92.4903V95.007H331.765C331.273 95.007 330.859 95.4112 330.859 95.9098C330.859 96.4118 331.265 96.8125 331.765 96.8125H340.266C340.757 96.8125 341.184 96.4084 341.184 95.9098C341.184 95.4077 340.766 95.007 340.266 95.007H336.984Z" fill="#50555C"/>
<path fill-rule="evenodd" clip-rule="evenodd" d="M39 98.125C31.7513 98.125 25.875 92.2487 25.875 85C25.875 77.7513 31.7513 71.875 39 71.875C46.2487 71.875 52.125 77.7513 52.125 85C52.125 92.2487 46.2487 98.125 39 98.125ZM39 96.8125C45.5239 96.8125 50.8125 91.5239 50.8125 85C50.8125 78.4761 45.5239 73.1875 39 73.1875C32.4761 73.1875 27.1875 78.4761 27.1875 85C27.1875 91.5239 32.4761 96.8125 39 96.8125ZM38.9845 94.1875C34.3068 94.1875 29.8673 89.7011 29.8673 86.4588C29.8673 84.598 33.9103 86.8375 38.9845 86.8375C44.0586 86.8375 48.1463 84.6011 48.1327 86.4588C48.1098 89.6008 43.6622 94.1875 38.9845 94.1875ZM38.9845 90.0531C43.3337 90.0531 46.3424 88.3718 46.3424 87.1592C46.3424 85.9467 43.3337 87.8822 38.9845 87.8822C34.6352 87.8822 31.6765 86.179 31.6765 87.1592C31.6765 88.1395 34.6352 90.0531 38.9845 90.0531ZM35.0461 82.6703C34.1853 82.6703 33.4875 81.9725 33.4875 81.1117C33.4875 80.2509 34.1853 79.5531 35.0461 79.5531C35.9069 79.5531 36.6047 80.2509 36.6047 81.1117C36.6047 81.9725 35.9069 82.6703 35.0461 82.6703ZM42.9211 82.6703C42.0603 82.6703 41.3625 81.9725 41.3625 81.1117C41.3625 80.2509 42.0603 79.5531 42.9211 79.5531C43.7819 79.5531 44.4797 80.2509 44.4797 81.1117C44.4797 81.9725 43.7819 82.6703 42.9211 82.6703Z" fill="#50555C"/>
<g filter="url(#filter0_d)">
<path d="M3 8C3 5.23858 5.23858 3 8 3H75C77.7614 3 80 5.23858 80 8V41C80 43.7614 77.7614 46 75 46H8C5.23858 46 3 43.7614 3 41V8Z" fill="#AEB3BE"/>
<path d="M32.4409 30H33.8472V18.7266H32.4487L29.4487 20.8828V22.3672L32.3159 20.2891H32.4409V30ZM36.785 30H44.0819V28.7344H38.7381V28.6094L41.3006 25.9609C43.3397 23.8594 43.8944 22.9219 43.8944 21.6328V21.6172C43.8944 19.7969 42.3866 18.4609 40.4178 18.4609C38.2616 18.4609 36.7147 19.8984 36.7069 21.8984L36.7225 21.9062L38.0662 21.9141L38.0741 21.8984C38.0741 20.5703 38.9725 19.6875 40.3241 19.6875C41.6522 19.6875 42.4569 20.5781 42.4569 21.7656V21.7812C42.4569 22.7656 42.035 23.3516 40.5975 24.9062L36.785 29.0312V30ZM49.9572 30.1875C52.215 30.1875 53.8713 28.7969 53.8713 26.9141V26.8984C53.8713 25.2969 52.7541 24.2734 51.1134 24.1328V24.1016C52.5197 23.8047 53.5041 22.8516 53.5041 21.4609V21.4453C53.5041 19.7344 52.09 18.5391 49.9416 18.5391C47.8322 18.5391 46.3791 19.7656 46.1994 21.6016L46.1916 21.6797H47.5431L47.5509 21.6016C47.6681 20.4609 48.6134 19.7578 49.9416 19.7578C51.3166 19.7578 52.09 20.4375 52.09 21.6172V21.6328C52.09 22.7578 51.1525 23.5859 49.8088 23.5859H48.4572V24.7734H49.8713C51.4494 24.7734 52.4416 25.5469 52.4416 26.9297V26.9453C52.4416 28.1406 51.4338 28.9688 49.9572 28.9688C48.4572 28.9688 47.4338 28.2031 47.3244 27.0938L47.3166 27.0156H45.965L45.9728 27.1094C46.1213 28.8906 47.6291 30.1875 49.9572 30.1875Z" fill="black"/>
</g>
<g filter="url(#filter1_d)">
<path d="M85 8C85 5.23858 87.2386 3 90 3H139.667C142.428 3 144.667 5.23858 144.667 8V41C144.667 43.7614 142.428 46 139.667 46H90C87.2386 46 85 43.7614 85 41V8Z" fill="white"/>
<path d="M115.16 30.0781C115.722 30.0781 116.176 29.6172 116.176 29.0625C116.176 28.5 115.722 28.0469 115.16 28.0469C114.605 28.0469 114.144 28.5 114.144 29.0625C114.144 29.6172 114.605 30.0781 115.16 30.0781Z" fill="black"/>
</g>
<g filter="url(#filter2_d)">
<path d="M151.667 8C151.667 5.23858 153.905 3 156.667 3H206.333C209.095 3 211.333 5.23858 211.333 8V41C211.333 43.7614 209.095 46 206.333 46H156.667C153.905 46 151.667 43.7614 151.667 41V8Z" fill="white"/>
<path d="M184.256 18.2344H182.952L179.389 32.8125H180.694L184.256 18.2344Z" fill="black"/>
</g>
<g filter="url(#filter3_d)">
<path d="M218.333 8C218.333 5.23858 220.572 3 223.333 3H273C275.761 3 278 5.23858 278 8V41C278 43.7614 275.761 46 273 46H223.333C220.572 46 218.333 43.7614 218.333 41V8Z" fill="white"/>
<path d="M232.966 30.0781C233.528 30.0781 233.981 29.6172 233.981 29.0625C233.981 28.5 233.528 28.0469 232.966 28.0469C232.411 28.0469 231.95 28.5 231.95 29.0625C231.95 29.6172 232.411 30.0781 232.966 30.0781ZM239.419 30.1484C241.442 30.1484 242.575 29.0625 242.919 27.5391L242.935 27.4531L241.591 27.4609L241.575 27.5078C241.263 28.4453 240.544 28.9453 239.411 28.9453C237.911 28.9453 236.942 27.7031 236.942 25.7656V25.75C236.942 23.8516 237.896 22.6328 239.411 22.6328C240.622 22.6328 241.372 23.3047 241.583 24.1328L241.591 24.1562H242.942L242.935 24.1094C242.685 22.6094 241.458 21.4297 239.411 21.4297C237.052 21.4297 235.552 23.1328 235.552 25.75V25.7656C235.552 28.4375 237.06 30.1484 239.419 30.1484ZM248.068 30.1484C250.466 30.1484 251.951 28.4922 251.951 25.7969V25.7812C251.951 23.0781 250.466 21.4297 248.068 21.4297C245.669 21.4297 244.185 23.0781 244.185 25.7812V25.7969C244.185 28.4922 245.669 30.1484 248.068 30.1484ZM248.068 28.9453C246.474 28.9453 245.576 27.7812 245.576 25.7969V25.7812C245.576 23.7891 246.474 22.6328 248.068 22.6328C249.661 22.6328 250.56 23.7891 250.56 25.7812V25.7969C250.56 27.7812 249.661 28.9453 248.068 28.9453ZM253.74 30H255.099V24.7812C255.099 23.5938 255.935 22.6328 257.037 22.6328C258.099 22.6328 258.787 23.2812 258.787 24.2812V30H260.146V24.5859C260.146 23.5156 260.92 22.6328 262.091 22.6328C263.279 22.6328 263.849 23.25 263.849 24.4922V30H265.209V24.1797C265.209 22.4141 264.248 21.4297 262.529 21.4297C261.365 21.4297 260.404 22.0156 259.951 22.9062H259.826C259.435 22.0312 258.638 21.4297 257.498 21.4297C256.396 21.4297 255.599 21.9531 255.224 22.8594H255.099V21.5781H253.74V30Z" fill="black"/>
</g>
<g filter="url(#filter4_d)">
<path d="M285 8C285 5.23858 287.239 3 290 3H367C369.761 3 372 5.23858 372 8V41C372 43.7614 369.761 46 367 46H290C287.239 46 285 43.7614 285 41V8Z" fill="#0F77F0"/>
<path d="M324.226 30.2656C327.109 30.2656 329.015 28.4219 329.015 25.6406V24.2656H324.445V25.5H327.609V25.7734C327.609 27.6797 326.25 28.9688 324.234 28.9688C321.968 28.9688 320.554 27.2031 320.554 24.3672V24.3516C320.554 21.5547 321.992 19.7578 324.226 19.7578C325.906 19.7578 327.039 20.5547 327.5 22.0078L327.523 22.0859H328.945L328.929 22.0078C328.484 19.8672 326.726 18.4609 324.226 18.4609C321.14 18.4609 319.117 20.7969 319.117 24.3516V24.3672C319.117 27.9688 321.109 30.2656 324.226 30.2656ZM334.477 30.1484C336.875 30.1484 338.359 28.4922 338.359 25.7969V25.7812C338.359 23.0781 336.875 21.4297 334.477 21.4297C332.078 21.4297 330.594 23.0781 330.594 25.7812V25.7969C330.594 28.4922 332.078 30.1484 334.477 30.1484ZM334.477 28.9453C332.883 28.9453 331.984 27.7812 331.984 25.7969V25.7812C331.984 23.7891 332.883 22.6328 334.477 22.6328C336.07 22.6328 336.969 23.7891 336.969 25.7812V25.7969C336.969 27.7812 336.07 28.9453 334.477 28.9453Z" fill="white"/>
</g>
<defs>
<filter id="filter0_d" x="3" y="3" width="77" height="44" filterUnits="userSpaceOnUse" color-interpolation-filters="sRGB">
<feFlood flood-opacity="0" result="BackgroundImageFix"/>
<feColorMatrix in="SourceAlpha" type="matrix" values="0 0 0 0 0 0 0 0 0 0 0 0 0 0 0 0 0 0 127 0" result="hardAlpha"/>
<feOffset dy="1"/>
<feColorMatrix type="matrix" values="0 0 0 0 0 0 0 0 0 0 0 0 0 0 0 0 0 0 0.3 0"/>
<feBlend mode="normal" in2="BackgroundImageFix" result="effect1_dropShadow"/>
<feBlend mode="normal" in="SourceGraphic" in2="effect1_dropShadow" result="shape"/>
</filter>
<filter id="filter1_d" x="85" y="3" width="59.6667" height="44" filterUnits="userSpaceOnUse" color-interpolation-filters="sRGB">
<feFlood flood-opacity="0" result="BackgroundImageFix"/>
<feColorMatrix in="SourceAlpha" type="matrix" values="0 0 0 0 0 0 0 0 0 0 0 0 0 0 0 0 0 0 127 0" result="hardAlpha"/>
<feOffset dy="1"/>
<feColorMatrix type="matrix" values="0 0 0 0 0 0 0 0 0 0 0 0 0 0 0 0 0 0 0.3 0"/>
<feBlend mode="normal" in2="BackgroundImageFix" result="effect1_dropShadow"/>
<feBlend mode="normal" in="SourceGraphic" in2="effect1_dropShadow" result="shape"/>
</filter>
<filter id="filter2_d" x="151.667" y="3" width="59.6667" height="44" filterUnits="userSpaceOnUse" color-interpolation-filters="sRGB">
<feFlood flood-opacity="0" result="BackgroundImageFix"/>
<feColorMatrix in="SourceAlpha" type="matrix" values="0 0 0 0 0 0 0 0 0 0 0 0 0 0 0 0 0 0 127 0" result="hardAlpha"/>
<feOffset dy="1"/>
<feColorMatrix type="matrix" values="0 0 0 0 0 0 0 0 0 0 0 0 0 0 0 0 0 0 0.3 0"/>
<feBlend mode="normal" in2="BackgroundImageFix" result="effect1_dropShadow"/>
<feBlend mode="normal" in="SourceGraphic" in2="effect1_dropShadow" result="shape"/>
</filter>
<filter id="filter3_d" x="218.333" y="3" width="59.6667" height="44" filterUnits="userSpaceOnUse" color-interpolation-filters="sRGB">
<feFlood flood-opacity="0" result="BackgroundImageFix"/>
<feColorMatrix in="SourceAlpha" type="matrix" values="0 0 0 0 0 0 0 0 0 0 0 0 0 0 0 0 0 0 127 0" result="hardAlpha"/>
<feOffset dy="1"/>
<feColorMatrix type="matrix" values="0 0 0 0 0 0 0 0 0 0 0 0 0 0 0 0 0 0 0.3 0"/>
<feBlend mode="normal" in2="BackgroundImageFix" result="effect1_dropShadow"/>
<feBlend mode="normal" in="SourceGraphic" in2="effect1_dropShadow" result="shape"/>
</filter>
<filter id="filter4_d" x="285" y="3" width="87" height="44" filterUnits="userSpaceOnUse" color-interpolation-filters="sRGB">
<feFlood flood-opacity="0" result="BackgroundImageFix"/>
<feColorMatrix in="SourceAlpha" type="matrix" values="0 0 0 0 0 0 0 0 0 0 0 0 0 0 0 0 0 0 127 0" result="hardAlpha"/>
<feOffset dy="1"/>
<feColorMatrix type="matrix" values="0 0 0 0 0 0 0 0 0 0 0 0 0 0 0 0 0 0 0.3 0"/>
<feBlend mode="normal" in2="BackgroundImageFix" result="effect1_dropShadow"/>
<feBlend mode="normal" in="SourceGraphic" in2="effect1_dropShadow" result="shape"/>
</filter>
</defs>
</svg>
