<svg width="375" height="216" viewBox="0 0 375 216" fill="none" xmlns="http://www.w3.org/2000/svg">
<g filter="url(#filter0_b)">
<rect width="375" height="216" fill="#CED2D9" fill-opacity="0.7"/>
</g>
<g filter="url(#filter1_d)">
<rect x="129" y="167" width="117" height="46" rx="5" fill="white"/>
<path d="M187.738 198.415C191.632 198.415 193.976 194.863 193.976 189.199V189.174C193.976 183.51 191.632 179.97 187.738 179.97C183.844 179.97 181.524 183.51 181.524 189.174V189.199C181.524 194.863 183.844 198.415 187.738 198.415ZM187.738 196.499C185.211 196.499 183.734 193.691 183.734 189.199V189.174C183.734 184.682 185.211 181.899 187.738 181.899C190.265 181.899 191.766 184.682 191.766 189.174V189.199C191.766 193.691 190.265 196.499 187.738 196.499Z" fill="black"/>
</g>
<g filter="url(#filter2_d)">
<path d="M6 11C6 8.23858 8.23858 6 11 6H118C120.761 6 123 8.23858 123 11V47C123 49.7614 120.761 52 118 52H11C8.23858 52 6 49.7614 6 47V11Z" fill="white"/>
</g>
<path d="M65.2261 30H67.4233V12.3853H65.2383L60.5508 15.7544V18.0737L65.0308 14.8267H65.2261V30Z" fill="black"/>
<g filter="url(#filter3_d)">
<path d="M129 11C129 8.23858 131.239 6 134 6H241C243.761 6 246 8.23858 246 11V47C246 49.7614 243.761 52 241 52H134C131.239 52 129 49.7614 129 47V11Z" fill="white"/>
</g>
<path d="M174.467 45H176.014L176.537 43.291H179.022L179.545 45H181.097L178.646 37.9541H176.913L174.467 45ZM177.738 39.3604H177.826L178.685 42.1875H176.874L177.738 39.3604ZM183.994 45H187.158C188.662 45 189.594 44.2236 189.594 42.9883V42.9785C189.594 42.0752 188.916 41.377 187.983 41.3037V41.2158C188.706 41.1084 189.257 40.459 189.257 39.7168V39.707C189.257 38.623 188.442 37.9541 187.075 37.9541H183.994V45ZM186.699 39.0479C187.402 39.0479 187.807 39.3896 187.807 39.9609V39.9707C187.807 40.5518 187.373 40.8838 186.577 40.8838H185.468V39.0479H186.699ZM186.748 41.8555C187.617 41.8555 188.09 42.207 188.09 42.8613V42.8711C188.09 43.54 187.631 43.9014 186.782 43.9014H185.468V41.8555H186.748ZM195.621 45.1807C197.32 45.1807 198.526 44.1748 198.677 42.7002L198.682 42.6465H197.246L197.237 42.6855C197.08 43.4375 196.47 43.9307 195.625 43.9307C194.512 43.9307 193.824 42.9932 193.824 41.4795V41.4697C193.824 39.9561 194.512 39.0234 195.621 39.0234C196.46 39.0234 197.09 39.5605 197.242 40.3516V40.3857H198.677V40.3271C198.54 38.8379 197.29 37.7734 195.621 37.7734C193.575 37.7734 192.315 39.1846 192.315 41.4697V41.4795C192.315 43.7646 193.579 45.1807 195.621 45.1807Z" fill="black"/>
<path d="M182.671 30H194.073V28.0225H185.723V27.8271L189.727 23.689C192.913 20.4053 193.78 18.9404 193.78 16.9263V16.9019C193.78 14.0576 191.424 11.9702 188.348 11.9702C184.979 11.9702 182.562 14.2163 182.549 17.3413L182.574 17.3535L184.673 17.3657L184.686 17.3413C184.686 15.2661 186.089 13.8867 188.201 13.8867C190.276 13.8867 191.534 15.2783 191.534 17.1338V17.1582C191.534 18.6963 190.875 19.6118 188.628 22.041L182.671 28.4863V30Z" fill="black"/>
<g filter="url(#filter4_d)">
<path d="M252 11C252 8.23858 254.239 6 257 6H364C366.761 6 369 8.23858 369 11V47C369 49.7614 366.761 52 364 52H257C254.239 52 252 49.7614 252 47V11Z" fill="white"/>
</g>
<path d="M298.966 45H301.739C303.848 45 305.045 43.7109 305.045 41.4355V41.4258C305.045 39.2188 303.834 37.9541 301.739 37.9541H298.966V45ZM300.44 43.7842V39.1699H301.505C302.784 39.1699 303.541 40 303.541 41.4502V41.46C303.541 42.9639 302.808 43.7842 301.505 43.7842H300.44ZM308.146 45H312.814V43.7842H309.621V42.002H312.633V40.8691H309.621V39.1699H312.814V37.9541H308.146V45ZM316.067 45H317.541V42.2266H320.408V41.0596H317.541V39.1699H320.681V37.9541H316.067V45Z" fill="black"/>
<path d="M310.872 30.293C314.4 30.293 316.988 28.1201 316.988 25.1782V25.1538C316.988 22.6514 315.242 21.0522 312.679 20.8325V20.7837C314.876 20.3198 316.414 18.8306 316.414 16.6577V16.6333C316.414 13.96 314.205 12.0923 310.848 12.0923C307.552 12.0923 305.281 14.0088 305 16.8774L304.988 16.9995H307.1L307.112 16.8774C307.295 15.0952 308.772 13.9966 310.848 13.9966C312.996 13.9966 314.205 15.0586 314.205 16.9019V16.9263C314.205 18.6841 312.74 19.978 310.64 19.978H308.528V21.8335H310.738C313.204 21.8335 314.754 23.042 314.754 25.2026V25.2271C314.754 27.0947 313.179 28.3887 310.872 28.3887C308.528 28.3887 306.929 27.1924 306.758 25.459L306.746 25.3369H304.634L304.646 25.4834C304.878 28.2666 307.234 30.293 310.872 30.293Z" fill="black"/>
<g filter="url(#filter5_d)">
<path d="M6 64C6 61.2386 8.23858 59 11 59H118C120.761 59 123 61.2386 123 64V101C123 103.761 120.761 106 118 106H11C8.23858 106 6 103.761 6 101V64Z" fill="white"/>
</g>
<path d="M56.5594 99.1807C58.4832 99.1807 59.6844 98.0088 59.6844 96.1387V95.2451H56.7254V96.3193H58.2488L58.2439 96.4512C58.2146 97.3398 57.5506 97.9307 56.5838 97.9307C55.4217 97.9307 54.6844 96.9883 54.6844 95.46V95.4502C54.6844 93.9512 55.3875 93.0234 56.5252 93.0234C57.3504 93.0234 57.951 93.4385 58.1512 94.1367L58.1609 94.1855H59.6258L59.616 94.1367C59.4061 92.7305 58.1902 91.7734 56.5252 91.7734C54.4744 91.7734 53.1805 93.2041 53.1805 95.4648V95.4746C53.1805 97.7695 54.4646 99.1807 56.5594 99.1807ZM62.8004 99H64.275V96.0312H67.4488V99H68.9234V91.9541H67.4488V94.8154H64.275V91.9541H62.8004V99ZM72.3324 99H73.807V91.9541H72.3324V99Z" fill="black"/>
<path d="M66.7153 84H68.8638V80.3501H71.3662V78.3848H68.8638V66.3853H65.6777C63.2119 70.0596 60.5142 74.3564 58.1338 78.3481V80.3501H66.7153V84ZM60.3799 78.397V78.2505C62.2964 75.0156 64.6035 71.3779 66.5811 68.4238H66.7275V78.397H60.3799Z" fill="black"/>
<g filter="url(#filter6_d)">
<path d="M129 64C129 61.2386 131.239 59 134 59H241C243.761 59 246 61.2386 246 64V101C246 103.761 243.761 106 241 106H134C131.239 106 129 103.761 129 101V64Z" fill="white"/>
</g>
<path d="M178.168 99.1807C179.691 99.1807 180.575 98.3164 180.575 96.832V91.9541H179.1V96.8223C179.1 97.5303 178.773 97.9062 178.148 97.9062C177.572 97.9062 177.25 97.5254 177.221 96.9834V96.9541H175.79V96.9932C175.829 98.3164 176.713 99.1807 178.168 99.1807ZM183.989 99H185.463V96.8467L186.162 96.0068L188.208 99H189.975L187.226 95.04L189.795 91.9541H188.154L185.551 95.1182H185.463V91.9541H183.989V99ZM192.788 99H197.398V97.7842H194.263V91.9541H192.788V99Z" fill="black"/>
<path d="M188.274 84.415C191.851 84.415 194.402 81.937 194.402 78.3848V78.3604C194.402 74.9546 192.022 72.4766 188.714 72.4766C187.115 72.4766 185.735 73.1235 184.954 74.3076H184.759L185.357 68.3506H193.426V66.3853H183.624L182.696 76.5049H184.6C184.82 76.0898 185.101 75.748 185.406 75.4551C186.163 74.7349 187.164 74.3809 188.335 74.3809C190.618 74.3809 192.254 76.0532 192.254 78.397V78.4214C192.254 80.8018 190.643 82.4741 188.299 82.4741C186.236 82.4741 184.71 81.1313 184.502 79.4468L184.49 79.3491H182.378L182.391 79.4834C182.647 82.3032 184.991 84.415 188.274 84.415Z" fill="black"/>
<g filter="url(#filter7_d)">
<path d="M252 64C252 61.2386 254.239 59 257 59H364C366.761 59 369 61.2386 369 64V101C369 103.761 366.761 106 364 106H257C254.239 106 252 103.761 252 101V64Z" fill="white"/>
</g>
<path d="M296.49 99H297.804V94.2051H297.901L299.708 99H300.631L302.437 94.2051H302.535V99H303.848V91.9541H302.159L300.216 97.1104H300.128L298.179 91.9541H296.49V99ZM307.262 99H308.673V94.4932H308.752L312.013 99H313.234V91.9541H311.823V96.4414H311.745L308.493 91.9541H307.262V99ZM319.729 99.1807C321.809 99.1807 323.118 97.7549 323.118 95.4795V95.4697C323.118 93.1943 321.804 91.7734 319.729 91.7734C317.654 91.7734 316.335 93.1895 316.335 95.4697V95.4795C316.335 97.7549 317.634 99.1807 319.729 99.1807ZM319.729 97.9307C318.567 97.9307 317.839 96.9688 317.839 95.4795V95.4697C317.839 93.9756 318.581 93.0234 319.729 93.0234C320.871 93.0234 321.614 93.9756 321.614 95.4697V95.4795C321.614 96.9688 320.876 97.9307 319.729 97.9307Z" fill="black"/>
<path d="M310.982 84.415C314.534 84.415 317.146 81.8638 317.146 78.3481V78.3237C317.146 74.9424 314.681 72.4277 311.373 72.4277C308.992 72.4277 307.332 73.7095 306.685 75.1499H306.453C306.502 71.2925 307.784 67.9355 311.104 67.9355C312.886 67.9355 314.119 68.8511 314.656 70.3281L314.705 70.4624H316.915L316.878 70.3037C316.28 67.7036 314.083 65.9702 311.128 65.9702C306.856 65.9702 304.354 69.4858 304.354 75.4917V75.5161C304.354 82.1445 307.759 84.415 310.982 84.415ZM306.978 78.3237V78.3115C306.978 76.0166 308.711 74.3442 310.994 74.3442C313.277 74.3442 314.937 76.0288 314.937 78.3726V78.397C314.937 80.6797 313.167 82.4741 310.958 82.4741C308.724 82.4741 306.978 80.6431 306.978 78.3237Z" fill="black"/>
<g filter="url(#filter8_d)">
<path d="M6 118C6 115.239 8.23858 113 11 113H118C120.761 113 123 115.239 123 118V155C123 157.761 120.761 160 118 160H11C8.23858 160 6 157.761 6 155V118Z" fill="white"/>
</g>
<path d="M47.7992 153H49.2738V150.778H50.7045C52.1889 150.778 53.1801 149.821 53.1801 148.371V148.361C53.1801 146.911 52.1889 145.954 50.7045 145.954H47.7992V153ZM50.3432 147.121C51.1879 147.121 51.6859 147.565 51.6859 148.366V148.376C51.6859 149.177 51.1879 149.626 50.3432 149.626H49.2738V147.121H50.3432ZM59.3186 153.181C59.7727 153.181 60.1926 153.112 60.5686 152.98L61.1057 153.698H62.4777L61.5305 152.434C62.2824 151.799 62.7072 150.778 62.7072 149.479V149.47C62.7072 147.194 61.3937 145.773 59.3186 145.773C57.2434 145.773 55.925 147.189 55.925 149.47V149.479C55.925 151.755 57.2238 153.181 59.3186 153.181ZM59.3186 151.931C58.1564 151.931 57.4289 150.969 57.4289 149.479V149.47C57.4289 147.976 58.1711 147.023 59.3186 147.023C60.4611 147.023 61.2033 147.976 61.2033 149.47V149.479C61.2033 150.241 61.008 150.861 60.6662 151.291L60.2121 150.681H58.84L59.7434 151.882C59.6066 151.916 59.465 151.931 59.3186 151.931ZM65.8086 153H67.2832V150.422H68.4893L69.8027 153H71.4727L69.9883 150.202C70.7939 149.885 71.2627 149.108 71.2627 148.205V148.195C71.2627 146.809 70.3447 145.954 68.7432 145.954H65.8086V153ZM67.2832 149.348V147.106H68.5625C69.2998 147.106 69.7539 147.546 69.7539 148.225V148.234C69.7539 148.928 69.3193 149.348 68.582 149.348H67.2832ZM76.9715 153.181C78.7293 153.181 79.8133 152.297 79.8133 150.9V150.896C79.8133 149.797 79.1639 149.201 77.6746 148.894L76.9275 148.742C76.0975 148.571 75.7557 148.298 75.7557 147.839V147.834C75.7557 147.307 76.2391 146.975 76.9666 146.97C77.7088 146.97 78.1971 147.321 78.2801 147.824L78.2898 147.883H79.6766L79.6717 147.819C79.5789 146.643 78.6121 145.773 76.9666 145.773C75.4041 145.773 74.2811 146.638 74.2811 147.946V147.951C74.2811 149.021 74.9109 149.704 76.3758 150.002L77.118 150.153C77.992 150.334 78.3387 150.593 78.3387 151.057V151.062C78.3387 151.604 77.7967 151.979 77.0105 151.979C76.1853 151.979 75.6141 151.623 75.5603 151.096L75.5555 151.047H74.1346L74.1395 151.125C74.2225 152.375 75.2869 153.181 76.9715 153.181Z" fill="black"/>
<path d="M60.3311 138H62.6382L70.4751 122.424V120.385H58.8174V122.351H68.2412V122.521L60.3311 138Z" fill="black"/>
<g filter="url(#filter9_d)">
<path d="M129 118C129 115.239 131.239 113 134 113H241C243.761 113 246 115.239 246 118V155C246 157.761 243.761 160 241 160H134C131.239 160 129 157.761 129 155V118Z" fill="white"/>
</g>
<path d="M176.801 153H178.275V147.17H180.389V145.954H174.686V147.17H176.801V153ZM186.342 153.181C188.159 153.181 189.292 152.131 189.292 150.568V145.954H187.817V150.437C187.817 151.35 187.29 151.931 186.342 151.931C185.395 151.931 184.863 151.35 184.863 150.437V145.954H183.388V150.568C183.388 152.136 184.536 153.181 186.342 153.181ZM194.546 153H196.363L198.711 145.954H197.051L195.498 151.359H195.411L193.853 145.954H192.198L194.546 153Z" fill="black"/>
<path d="M187.75 138.293C191.485 138.293 194.146 136.193 194.146 133.239V133.215C194.146 131.042 192.621 129.235 190.362 128.71V128.662C192.291 128.063 193.512 126.599 193.512 124.743V124.719C193.512 122.058 191.083 120.092 187.75 120.092C184.417 120.092 181.988 122.058 181.988 124.719V124.743C181.988 126.599 183.209 128.063 185.138 128.662V128.71C182.879 129.235 181.354 131.042 181.354 133.215V133.239C181.354 136.193 184.015 138.293 187.75 138.293ZM187.75 127.844C185.626 127.844 184.173 126.635 184.173 124.926V124.902C184.173 123.193 185.626 121.984 187.75 121.984C189.874 121.984 191.327 123.193 191.327 124.902V124.926C191.327 126.635 189.874 127.844 187.75 127.844ZM187.75 136.376C185.321 136.376 183.587 135.009 183.587 133.105V133.081C183.587 131.152 185.309 129.772 187.75 129.772C190.191 129.772 191.913 131.152 191.913 133.081V133.105C191.913 135.009 190.179 136.376 187.75 136.376Z" fill="black"/>
<g filter="url(#filter10_d)">
<path d="M252 118C252 115.239 254.239 113 257 113H364C366.761 113 369 115.239 369 118V155C369 157.761 366.761 160 364 160H257C254.239 160 252 157.761 252 155V118Z" fill="white"/>
</g>
<path d="M293.78 153H295.171L296.49 148.254H296.568L297.901 153H299.283L301.153 145.954H299.629L298.54 150.988H298.462L297.154 145.954H295.909L294.624 150.988H294.546L293.448 145.954H291.914L293.78 153ZM303.712 153H305.304L306.842 150.529H306.891L308.434 153H310.113L307.838 149.479V149.46L310.148 145.954H308.497L307.013 148.493H306.954L305.46 145.954H303.722L305.948 149.436V149.45L303.712 153ZM315.08 153H316.555V150.368L319.011 145.954H317.414L315.866 148.918H315.778L314.226 145.954H312.629L315.08 150.368V153ZM321.717 153H327.156V151.784H323.523V151.696L327.058 146.911V145.954H321.8V147.17H325.262V147.258L321.717 152.038V153Z" fill="black"/>
<path d="M310.518 119.97C306.966 119.97 304.354 122.521 304.354 126.037V126.062C304.354 129.443 306.819 131.958 310.127 131.958C312.508 131.958 314.168 130.676 314.815 129.235H315.047C314.998 133.093 313.716 136.45 310.396 136.45C308.614 136.45 307.381 135.534 306.844 134.057L306.795 133.923H304.585L304.622 134.082C305.22 136.682 307.417 138.415 310.372 138.415C314.644 138.415 317.146 134.899 317.146 128.894V128.869C317.146 122.241 313.741 119.97 310.518 119.97ZM310.506 130.041C308.223 130.041 306.563 128.356 306.563 126.013V125.988C306.563 123.706 308.333 121.911 310.542 121.911C312.776 121.911 314.522 123.742 314.522 126.062V126.074C314.522 128.369 312.789 130.041 310.506 130.041Z" fill="black"/>
<path d="M312.214 186.525C311.922 186.232 311.922 185.757 312.214 185.464C312.507 185.172 312.982 185.172 313.275 185.464L315.75 187.939L318.225 185.464C318.518 185.172 318.993 185.172 319.286 185.464C319.578 185.757 319.578 186.232 319.286 186.525L316.811 189L319.286 191.475C319.578 191.768 319.578 192.243 319.286 192.536C318.993 192.828 318.518 192.828 318.225 192.536L315.75 190.061L313.275 192.536C312.982 192.828 312.507 192.828 312.214 192.536C311.922 192.243 311.922 191.768 312.214 191.475L314.689 189L312.214 186.525Z" fill="black"/>
<path fill-rule="evenodd" clip-rule="evenodd" d="M309.121 181.379L301.5 189L309.121 196.621C309.684 197.184 310.447 197.5 311.243 197.5H321.5C323.157 197.5 324.5 196.157 324.5 194.5V183.5C324.5 181.843 323.157 180.5 321.5 180.5H311.243C310.447 180.5 309.684 180.816 309.121 181.379ZM321.5 196.2H311.243C310.792 196.2 310.359 196.021 310.041 195.702L303.339 189L310.041 182.298C310.359 181.979 310.792 181.8 311.243 181.8H321.5C322.439 181.8 323.2 182.561 323.2 183.5V194.5C323.2 195.439 322.439 196.2 321.5 196.2Z" fill="black"/>
<path fill-rule="evenodd" clip-rule="evenodd" d="M42 193V187H36V186H42V180H43V186H49V187H43V193H42ZM56.8169 191.879L59.6335 187H54V186H59.6343L56.8169 181.12L57.6829 180.62L60.4998 185.5L63.3169 180.62L64.1829 181.12L61.3655 186H67V187H61.3662L64.1829 191.879L63.3169 192.379L60.5 187.5L57.6829 192.379L56.8169 191.879ZM76 194V189H72V188H76V185H72V184H76V181H77V184H80V181H81V184H85V185H81V188H85V189H81V194H80V189H77V194H76ZM80 188V185H77V188H80Z" fill="black"/>
<defs>
<filter id="filter0_b" x="-70" y="-70" width="515" height="356" filterUnits="userSpaceOnUse" color-interpolation-filters="sRGB">
<feFlood flood-opacity="0" result="BackgroundImageFix"/>
<feGaussianBlur in="BackgroundImage" stdDeviation="35"/>
<feComposite in2="SourceAlpha" operator="in" result="effect1_backgroundBlur"/>
<feBlend mode="normal" in="SourceGraphic" in2="effect1_backgroundBlur" result="shape"/>
</filter>
<filter id="filter1_d" x="129" y="167" width="117" height="47" filterUnits="userSpaceOnUse" color-interpolation-filters="sRGB">
<feFlood flood-opacity="0" result="BackgroundImageFix"/>
<feColorMatrix in="SourceAlpha" type="matrix" values="0 0 0 0 0 0 0 0 0 0 0 0 0 0 0 0 0 0 127 0" result="hardAlpha"/>
<feOffset dy="1"/>
<feColorMatrix type="matrix" values="0 0 0 0 0 0 0 0 0 0 0 0 0 0 0 0 0 0 0.35 0"/>
<feBlend mode="normal" in2="BackgroundImageFix" result="effect1_dropShadow"/>
<feBlend mode="normal" in="SourceGraphic" in2="effect1_dropShadow" result="shape"/>
</filter>
<filter id="filter2_d" x="6" y="6" width="117" height="47" filterUnits="userSpaceOnUse" color-interpolation-filters="sRGB">
<feFlood flood-opacity="0" result="BackgroundImageFix"/>
<feColorMatrix in="SourceAlpha" type="matrix" values="0 0 0 0 0 0 0 0 0 0 0 0 0 0 0 0 0 0 127 0" result="hardAlpha"/>
<feOffset dy="1"/>
<feColorMatrix type="matrix" values="0 0 0 0 0 0 0 0 0 0 0 0 0 0 0 0 0 0 0.3 0"/>
<feBlend mode="normal" in2="BackgroundImageFix" result="effect1_dropShadow"/>
<feBlend mode="normal" in="SourceGraphic" in2="effect1_dropShadow" result="shape"/>
</filter>
<filter id="filter3_d" x="129" y="6" width="117" height="47" filterUnits="userSpaceOnUse" color-interpolation-filters="sRGB">
<feFlood flood-opacity="0" result="BackgroundImageFix"/>
<feColorMatrix in="SourceAlpha" type="matrix" values="0 0 0 0 0 0 0 0 0 0 0 0 0 0 0 0 0 0 127 0" result="hardAlpha"/>
<feOffset dy="1"/>
<feColorMatrix type="matrix" values="0 0 0 0 0 0 0 0 0 0 0 0 0 0 0 0 0 0 0.3 0"/>
<feBlend mode="normal" in2="BackgroundImageFix" result="effect1_dropShadow"/>
<feBlend mode="normal" in="SourceGraphic" in2="effect1_dropShadow" result="shape"/>
</filter>
<filter id="filter4_d" x="252" y="6" width="117" height="47" filterUnits="userSpaceOnUse" color-interpolation-filters="sRGB">
<feFlood flood-opacity="0" result="BackgroundImageFix"/>
<feColorMatrix in="SourceAlpha" type="matrix" values="0 0 0 0 0 0 0 0 0 0 0 0 0 0 0 0 0 0 127 0" result="hardAlpha"/>
<feOffset dy="1"/>
<feColorMatrix type="matrix" values="0 0 0 0 0 0 0 0 0 0 0 0 0 0 0 0 0 0 0.3 0"/>
<feBlend mode="normal" in2="BackgroundImageFix" result="effect1_dropShadow"/>
<feBlend mode="normal" in="SourceGraphic" in2="effect1_dropShadow" result="shape"/>
</filter>
<filter id="filter5_d" x="6" y="59" width="117" height="48" filterUnits="userSpaceOnUse" color-interpolation-filters="sRGB">
<feFlood flood-opacity="0" result="BackgroundImageFix"/>
<feColorMatrix in="SourceAlpha" type="matrix" values="0 0 0 0 0 0 0 0 0 0 0 0 0 0 0 0 0 0 127 0" result="hardAlpha"/>
<feOffset dy="1"/>
<feColorMatrix type="matrix" values="0 0 0 0 0 0 0 0 0 0 0 0 0 0 0 0 0 0 0.3 0"/>
<feBlend mode="normal" in2="BackgroundImageFix" result="effect1_dropShadow"/>
<feBlend mode="normal" in="SourceGraphic" in2="effect1_dropShadow" result="shape"/>
</filter>
<filter id="filter6_d" x="129" y="59" width="117" height="48" filterUnits="userSpaceOnUse" color-interpolation-filters="sRGB">
<feFlood flood-opacity="0" result="BackgroundImageFix"/>
<feColorMatrix in="SourceAlpha" type="matrix" values="0 0 0 0 0 0 0 0 0 0 0 0 0 0 0 0 0 0 127 0" result="hardAlpha"/>
<feOffset dy="1"/>
<feColorMatrix type="matrix" values="0 0 0 0 0 0 0 0 0 0 0 0 0 0 0 0 0 0 0.3 0"/>
<feBlend mode="normal" in2="BackgroundImageFix" result="effect1_dropShadow"/>
<feBlend mode="normal" in="SourceGraphic" in2="effect1_dropShadow" result="shape"/>
</filter>
<filter id="filter7_d" x="252" y="59" width="117" height="48" filterUnits="userSpaceOnUse" color-interpolation-filters="sRGB">
<feFlood flood-opacity="0" result="BackgroundImageFix"/>
<feColorMatrix in="SourceAlpha" type="matrix" values="0 0 0 0 0 0 0 0 0 0 0 0 0 0 0 0 0 0 127 0" result="hardAlpha"/>
<feOffset dy="1"/>
<feColorMatrix type="matrix" values="0 0 0 0 0 0 0 0 0 0 0 0 0 0 0 0 0 0 0.3 0"/>
<feBlend mode="normal" in2="BackgroundImageFix" result="effect1_dropShadow"/>
<feBlend mode="normal" in="SourceGraphic" in2="effect1_dropShadow" result="shape"/>
</filter>
<filter id="filter8_d" x="6" y="113" width="117" height="48" filterUnits="userSpaceOnUse" color-interpolation-filters="sRGB">
<feFlood flood-opacity="0" result="BackgroundImageFix"/>
<feColorMatrix in="SourceAlpha" type="matrix" values="0 0 0 0 0 0 0 0 0 0 0 0 0 0 0 0 0 0 127 0" result="hardAlpha"/>
<feOffset dy="1"/>
<feColorMatrix type="matrix" values="0 0 0 0 0 0 0 0 0 0 0 0 0 0 0 0 0 0 0.3 0"/>
<feBlend mode="normal" in2="BackgroundImageFix" result="effect1_dropShadow"/>
<feBlend mode="normal" in="SourceGraphic" in2="effect1_dropShadow" result="shape"/>
</filter>
<filter id="filter9_d" x="129" y="113" width="117" height="48" filterUnits="userSpaceOnUse" color-interpolation-filters="sRGB">
<feFlood flood-opacity="0" result="BackgroundImageFix"/>
<feColorMatrix in="SourceAlpha" type="matrix" values="0 0 0 0 0 0 0 0 0 0 0 0 0 0 0 0 0 0 127 0" result="hardAlpha"/>
<feOffset dy="1"/>
<feColorMatrix type="matrix" values="0 0 0 0 0 0 0 0 0 0 0 0 0 0 0 0 0 0 0.3 0"/>
<feBlend mode="normal" in2="BackgroundImageFix" result="effect1_dropShadow"/>
<feBlend mode="normal" in="SourceGraphic" in2="effect1_dropShadow" result="shape"/>
</filter>
<filter id="filter10_d" x="252" y="113" width="117" height="48" filterUnits="userSpaceOnUse" color-interpolation-filters="sRGB">
<feFlood flood-opacity="0" result="BackgroundImageFix"/>
<feColorMatrix in="SourceAlpha" type="matrix" values="0 0 0 0 0 0 0 0 0 0 0 0 0 0 0 0 0 0 127 0" result="hardAlpha"/>
<feOffset dy="1"/>
<feColorMatrix type="matrix" values="0 0 0 0 0 0 0 0 0 0 0 0 0 0 0 0 0 0 0.3 0"/>
<feBlend mode="normal" in2="BackgroundImageFix" result="effect1_dropShadow"/>
<feBlend mode="normal" in="SourceGraphic" in2="effect1_dropShadow" result="shape"/>
</filter>
</defs>
</svg>
