<svg width="667" height="184" viewBox="0 0 667 184" fill="none" xmlns="http://www.w3.org/2000/svg">
<g filter="url(#filter0_b)">
<rect width="667" height="184" fill="white" fill-opacity="0.4"/>
<rect width="667" height="184" fill="black" fill-opacity="0.82"/>
</g>
<g clip-path="url(#clip0)">
<g filter="url(#filter1_d)">
<path d="M76 11C76 8.23858 78.2386 6 81 6H239C241.761 6 244 8.23858 244 11V31C244 33.7614 241.761 36 239 36H81C78.2386 36 76 33.7614 76 31V11Z" fill="#646464"/>
</g>
<path d="M160.014 30H162.387V10.9761H160.027L154.965 14.6147V17.1196L159.803 13.6128H160.014V30Z" fill="white"/>
<path d="M180.109 25.1807C182.033 25.1807 183.234 24.0088 183.234 22.1387V21.2451H180.275V22.3193H181.799L181.794 22.4512C181.765 23.3398 181.101 23.9307 180.134 23.9307C178.972 23.9307 178.234 22.9883 178.234 21.46V21.4502C178.234 19.9512 178.938 19.0234 180.075 19.0234C180.9 19.0234 181.501 19.4385 181.701 20.1367L181.711 20.1855H183.176L183.166 20.1367C182.956 18.7305 181.74 17.7734 180.075 17.7734C178.024 17.7734 176.73 19.2041 176.73 21.4648V21.4746C176.73 23.7695 178.015 25.1807 180.109 25.1807ZM186.65 25H188.125V22.0312H191.299V25H192.773V17.9541H191.299V20.8154H188.125V17.9541H186.65V25ZM196.482 25H197.957V17.9541H196.482V25Z" fill="white"/>
</g>
<g clip-path="url(#clip1)">
<g filter="url(#filter2_d)">
<path d="M250 11C250 8.23858 252.239 6 255 6H413C415.761 6 418 8.23858 418 11V31C418 33.7614 415.761 36 413 36H255C252.239 36 250 33.7614 250 31V11Z" fill="#646464"/>
</g>
<path d="M327.475 30H339.789V27.8643H330.771V27.6533L335.095 23.1841C338.536 19.6377 339.472 18.0557 339.472 15.8804V15.854C339.472 12.7822 336.928 10.5278 333.605 10.5278C329.967 10.5278 327.356 12.9536 327.343 16.3286L327.37 16.3418L329.637 16.355L329.65 16.3286C329.65 14.0874 331.167 12.5977 333.447 12.5977C335.688 12.5977 337.046 14.1006 337.046 16.1045V16.1309C337.046 17.792 336.334 18.7808 333.909 21.4043L327.475 28.3652V30Z" fill="white"/>
<path d="M348.517 25H350.064L350.587 23.291H353.072L353.595 25H355.147L352.696 17.9541H350.963L348.517 25ZM351.788 19.3604H351.876L352.735 22.1875H350.924L351.788 19.3604ZM358.344 25H361.508C363.012 25 363.944 24.2236 363.944 22.9883V22.9785C363.944 22.0752 363.266 21.377 362.333 21.3037V21.2158C363.056 21.1084 363.607 20.459 363.607 19.7168V19.707C363.607 18.623 362.792 17.9541 361.425 17.9541H358.344V25ZM361.049 19.0479C361.752 19.0479 362.157 19.3896 362.157 19.9609V19.9707C362.157 20.5518 361.723 20.8838 360.927 20.8838H359.818V19.0479H361.049ZM361.098 21.8555C361.967 21.8555 362.44 22.207 362.44 22.8613V22.8711C362.44 23.54 361.981 23.9014 361.132 23.9014H359.818V21.8555H361.098ZM370.271 25.1807C371.97 25.1807 373.176 24.1748 373.327 22.7002L373.332 22.6465H371.896L371.887 22.6855C371.73 23.4375 371.12 23.9307 370.275 23.9307C369.162 23.9307 368.474 22.9932 368.474 21.4795V21.4697C368.474 19.9561 369.162 19.0234 370.271 19.0234C371.11 19.0234 371.74 19.5605 371.892 20.3516V20.3857H373.327V20.3271C373.19 18.8379 371.94 17.7734 370.271 17.7734C368.225 17.7734 366.965 19.1846 366.965 21.4697V21.4795C366.965 23.7646 368.229 25.1807 370.271 25.1807Z" fill="white"/>
</g>
<g clip-path="url(#clip2)">
<g filter="url(#filter3_d)">
<path d="M424 11C424 8.23858 426.239 6 429 6H587C589.761 6 592 8.23858 592 11V31C592 33.7614 589.761 36 587 36H429C426.239 36 424 33.7614 424 31V11Z" fill="#646464"/>
</g>
<path d="M507.632 30.3164C511.442 30.3164 514.237 27.9697 514.237 24.7925V24.7661C514.237 22.0635 512.352 20.3364 509.583 20.0991V20.0464C511.956 19.5454 513.617 17.937 513.617 15.5903V15.564C513.617 12.6768 511.231 10.6597 507.605 10.6597C504.046 10.6597 501.594 12.7295 501.291 15.8276L501.277 15.9595H503.558L503.571 15.8276C503.769 13.9028 505.364 12.7163 507.605 12.7163C509.926 12.7163 511.231 13.8633 511.231 15.854V15.8804C511.231 17.7788 509.649 19.1763 507.381 19.1763H505.101V21.1802H507.487C510.15 21.1802 511.824 22.4854 511.824 24.8188V24.8452C511.824 26.8623 510.124 28.2598 507.632 28.2598C505.101 28.2598 503.374 26.9678 503.189 25.0957L503.176 24.9639H500.895L500.908 25.1221C501.159 28.1279 503.703 30.3164 507.632 30.3164Z" fill="white"/>
<path d="M524.016 25H526.789C528.898 25 530.095 23.7109 530.095 21.4355V21.4258C530.095 19.2188 528.884 17.9541 526.789 17.9541H524.016V25ZM525.49 23.7842V19.1699H526.555C527.834 19.1699 528.591 20 528.591 21.4502V21.46C528.591 22.9639 527.858 23.7842 526.555 23.7842H525.49ZM533.496 25H538.164V23.7842H534.971V22.002H537.983V20.8691H534.971V19.1699H538.164V17.9541H533.496V25ZM541.717 25H543.191V22.2266H546.058V21.0596H543.191V19.1699H546.331V17.9541H541.717V25Z" fill="white"/>
</g>
<g clip-path="url(#clip3)">
<g filter="url(#filter4_d)">
<path d="M76 48C76 45.2386 78.2386 43 81 43H239C241.761 43 244 45.2386 244 48V69C244 71.7614 241.761 74 239 74H81C78.2386 74 76 71.7614 76 69V48Z" fill="#646464"/>
</g>
<path d="M161.123 67H163.443V63.0581H166.146V60.9355H163.443V47.9761H160.002C157.339 51.9443 154.425 56.585 151.854 60.896V63.0581H161.123V67ZM154.28 60.9487V60.7905C156.35 57.2969 158.842 53.3682 160.978 50.1777H161.136V60.9487H154.28Z" fill="white"/>
<path d="M180.109 62.1807C182.033 62.1807 183.234 61.0088 183.234 59.1387V58.2451H180.275V59.3193H181.799L181.794 59.4512C181.765 60.3398 181.101 60.9307 180.134 60.9307C178.972 60.9307 178.234 59.9883 178.234 58.46V58.4502C178.234 56.9512 178.938 56.0234 180.075 56.0234C180.9 56.0234 181.501 56.4385 181.701 57.1367L181.711 57.1855H183.176L183.166 57.1367C182.956 55.7305 181.74 54.7734 180.075 54.7734C178.024 54.7734 176.73 56.2041 176.73 58.4648V58.4746C176.73 60.7695 178.015 62.1807 180.109 62.1807ZM186.65 62H188.125V59.0312H191.299V62H192.773V54.9541H191.299V57.8154H188.125V54.9541H186.65V62ZM196.482 62H197.957V54.9541H196.482V62Z" fill="white"/>
</g>
<g clip-path="url(#clip4)">
<g filter="url(#filter5_d)">
<path d="M250 48C250 45.2386 252.239 43 255 43H413C415.761 43 418 45.2386 418 48V69C418 71.7614 415.761 74 413 74H255C252.239 74 250 71.7614 250 69V48Z" fill="#646464"/>
</g>
<path d="M333.526 67.4482C337.389 67.4482 340.145 64.772 340.145 60.9355V60.9092C340.145 57.231 337.574 54.5547 334.001 54.5547C332.274 54.5547 330.784 55.2534 329.94 56.5322H329.729L330.375 50.0986H339.09V47.9761H328.503L327.501 58.9053H329.558C329.795 58.457 330.099 58.0879 330.428 57.7715C331.246 56.9937 332.327 56.6113 333.592 56.6113C336.058 56.6113 337.824 58.4175 337.824 60.9487V60.9751C337.824 63.5459 336.084 65.3521 333.553 65.3521C331.325 65.3521 329.677 63.9019 329.453 62.0825L329.439 61.9771H327.159L327.172 62.1221C327.449 65.1675 329.98 67.4482 333.526 67.4482Z" fill="white"/>
<path d="M352.218 62.1807C353.741 62.1807 354.625 61.3164 354.625 59.832V54.9541H353.15V59.8223C353.15 60.5303 352.823 60.9062 352.198 60.9062C351.622 60.9062 351.3 60.5254 351.271 59.9834V59.9541H349.84V59.9932C349.879 61.3164 350.763 62.1807 352.218 62.1807ZM358.339 62H359.813V59.8467L360.512 59.0068L362.558 62H364.325L361.576 58.04L364.145 54.9541H362.504L359.901 58.1182H359.813V54.9541H358.339V62ZM367.438 62H372.048V60.7842H368.913V54.9541H367.438V62Z" fill="white"/>
</g>
<g clip-path="url(#clip5)">
<g filter="url(#filter6_d)">
<path d="M424 48C424 45.2386 426.239 43 429 43H587C589.761 43 592 45.2386 592 48V69C592 71.7614 589.761 74 587 74H429C426.239 74 424 71.7614 424 69V48Z" fill="#646464"/>
</g>
<path d="M507.25 67.4482C511.087 67.4482 513.908 64.6929 513.908 60.896V60.8696C513.908 57.2178 511.245 54.502 507.672 54.502C505.102 54.502 503.309 55.8862 502.61 57.4419H502.359C502.412 53.2759 503.796 49.6504 507.382 49.6504C509.307 49.6504 510.639 50.6392 511.219 52.2344L511.271 52.3794H513.658L513.618 52.208C512.972 49.3999 510.599 47.5278 507.409 47.5278C502.794 47.5278 500.092 51.3247 500.092 57.811V57.8374C500.092 64.9961 503.77 67.4482 507.25 67.4482ZM502.926 60.8696V60.8564C502.926 58.3779 504.798 56.5718 507.264 56.5718C509.729 56.5718 511.522 58.3911 511.522 60.9224V60.9487C511.522 63.4141 509.61 65.3521 507.224 65.3521C504.812 65.3521 502.926 63.3745 502.926 60.8696Z" fill="white"/>
<path d="M522.04 62H523.354V57.2051H523.451L525.258 62H526.181L527.987 57.2051H528.085V62H529.398V54.9541H527.709L525.766 60.1104H525.678L523.729 54.9541H522.04V62ZM533.112 62H534.523V57.4932H534.602L537.863 62H539.084V54.9541H537.673V59.4414H537.595L534.343 54.9541H533.112V62ZM545.879 62.1807C547.959 62.1807 549.268 60.7549 549.268 58.4795V58.4697C549.268 56.1943 547.954 54.7734 545.879 54.7734C543.804 54.7734 542.485 56.1895 542.485 58.4697V58.4795C542.485 60.7549 543.784 62.1807 545.879 62.1807ZM545.879 60.9307C544.717 60.9307 543.989 59.9688 543.989 58.4795V58.4697C543.989 56.9756 544.731 56.0234 545.879 56.0234C547.021 56.0234 547.764 56.9756 547.764 58.4697V58.4795C547.764 59.9688 547.026 60.9307 545.879 60.9307Z" fill="white"/>
</g>
<g clip-path="url(#clip6)">
<g filter="url(#filter7_d)">
<path d="M76 86C76 83.2386 78.2386 81 81 81H239C241.761 81 244 83.2386 244 86V106C244 108.761 241.761 111 239 111H81C78.2386 111 76 108.761 76 106V86Z" fill="#646464"/>
</g>
<path d="M154.228 105H156.719L165.183 88.1777V85.9761H152.593V88.0986H162.771V88.2832L154.228 105Z" fill="white"/>
<path d="M171.199 100H172.674V97.7783H174.104C175.589 97.7783 176.58 96.8213 176.58 95.3711V95.3613C176.58 93.9111 175.589 92.9541 174.104 92.9541H171.199V100ZM173.743 94.1211C174.588 94.1211 175.086 94.5654 175.086 95.3662V95.376C175.086 96.1768 174.588 96.626 173.743 96.626H172.674V94.1211H173.743ZM183.019 100.181C183.473 100.181 183.893 100.112 184.269 99.9805L184.806 100.698H186.178L185.23 99.4336C185.982 98.7988 186.407 97.7783 186.407 96.4795V96.4697C186.407 94.1943 185.094 92.7734 183.019 92.7734C180.943 92.7734 179.625 94.1895 179.625 96.4697V96.4795C179.625 98.7549 180.924 100.181 183.019 100.181ZM183.019 98.9307C181.856 98.9307 181.129 97.9688 181.129 96.4795V96.4697C181.129 94.9756 181.871 94.0234 183.019 94.0234C184.161 94.0234 184.903 94.9756 184.903 96.4697V96.4795C184.903 97.2412 184.708 97.8613 184.366 98.291L183.912 97.6807H182.54L183.443 98.8818C183.307 98.916 183.165 98.9307 183.019 98.9307ZM189.809 100H191.283V97.4219H192.489L193.803 100H195.473L193.988 97.2021C194.794 96.8848 195.263 96.1084 195.263 95.2051V95.1953C195.263 93.8086 194.345 92.9541 192.743 92.9541H189.809V100ZM191.283 96.3477V94.1064H192.562C193.3 94.1064 193.754 94.5459 193.754 95.2246V95.2344C193.754 95.9277 193.319 96.3477 192.582 96.3477H191.283ZM201.271 100.181C203.029 100.181 204.113 99.2969 204.113 97.9004V97.8955C204.113 96.7969 203.464 96.2012 201.975 95.8936L201.228 95.7422C200.397 95.5713 200.056 95.2979 200.056 94.8389V94.834C200.056 94.3066 200.539 93.9746 201.267 93.9697C202.009 93.9697 202.497 94.3213 202.58 94.8242L202.59 94.8828H203.977L203.972 94.8193C203.879 93.6426 202.912 92.7734 201.267 92.7734C199.704 92.7734 198.581 93.6377 198.581 94.9463V94.9512C198.581 96.0205 199.211 96.7041 200.676 97.002L201.418 97.1533C202.292 97.334 202.639 97.5928 202.639 98.0566V98.0615C202.639 98.6035 202.097 98.9795 201.311 98.9795C200.485 98.9795 199.914 98.623 199.86 98.0957L199.855 98.0469H198.435L198.439 98.125C198.522 99.375 199.587 100.181 201.271 100.181Z" fill="white"/>
</g>
<g clip-path="url(#clip7)">
<g filter="url(#filter8_d)">
<path d="M250 86C250 83.2386 252.239 81 255 81H413C415.761 81 418 83.2386 418 86V106C418 108.761 415.761 111 413 111H255C252.239 111 250 108.761 250 106V86Z" fill="#646464"/>
</g>
<path d="M333 105.316C337.034 105.316 339.908 103.049 339.908 99.8584V99.832C339.908 97.4854 338.26 95.5342 335.821 94.9673V94.9146C337.904 94.2686 339.223 92.6865 339.223 90.6826V90.6562C339.223 87.7822 336.599 85.6597 333 85.6597C329.401 85.6597 326.777 87.7822 326.777 90.6562V90.6826C326.777 92.6865 328.096 94.2686 330.179 94.9146V94.9673C327.74 95.5342 326.092 97.4854 326.092 99.832V99.8584C326.092 103.049 328.966 105.316 333 105.316ZM333 94.0312C330.706 94.0312 329.137 92.7261 329.137 90.8804V90.854C329.137 89.0083 330.706 87.7031 333 87.7031C335.294 87.7031 336.863 89.0083 336.863 90.854V90.8804C336.863 92.7261 335.294 94.0312 333 94.0312ZM333 103.247C330.376 103.247 328.504 101.77 328.504 99.7134V99.687C328.504 97.604 330.363 96.1143 333 96.1143C335.637 96.1143 337.496 97.604 337.496 99.687V99.7134C337.496 101.77 335.624 103.247 333 103.247Z" fill="white"/>
<path d="M350.851 100H352.325V94.1699H354.439V92.9541H348.736V94.1699H350.851V100ZM360.692 100.181C362.509 100.181 363.642 99.1309 363.642 97.5684V92.9541H362.167V97.4365C362.167 98.3496 361.64 98.9307 360.692 98.9307C359.745 98.9307 359.213 98.3496 359.213 97.4365V92.9541H357.738V97.5684C357.738 99.1357 358.886 100.181 360.692 100.181ZM369.196 100H371.013L373.361 92.9541H371.701L370.148 98.3594H370.061L368.503 92.9541H366.848L369.196 100Z" fill="white"/>
</g>
<g clip-path="url(#clip8)">
<g filter="url(#filter9_d)">
<path d="M424 86C424 83.2386 426.239 81 429 81H587C589.761 81 592 83.2386 592 86V106C592 108.761 589.761 111 587 111H429C426.239 111 424 108.761 424 106V86Z" fill="#646464"/>
</g>
<path d="M506.75 85.5278C502.913 85.5278 500.092 88.2832 500.092 92.0801V92.1064C500.092 95.7583 502.755 98.4741 506.328 98.4741C508.898 98.4741 510.691 97.0898 511.39 95.5342H511.641C511.588 99.7002 510.204 103.326 506.618 103.326C504.693 103.326 503.361 102.337 502.781 100.742L502.729 100.597H500.342L500.382 100.768C501.028 103.576 503.401 105.448 506.591 105.448C511.206 105.448 513.908 101.651 513.908 95.165V95.1387C513.908 87.98 510.23 85.5278 506.75 85.5278ZM506.736 96.4043C504.271 96.4043 502.478 94.585 502.478 92.0537V92.0273C502.478 89.562 504.39 87.624 506.776 87.624C509.188 87.624 511.074 89.6016 511.074 92.1064V92.1196C511.074 94.5981 509.202 96.4043 506.736 96.4043Z" fill="white"/>
<path d="M518.68 100H520.071L521.39 95.2539H521.468L522.801 100H524.183L526.053 92.9541H524.529L523.44 97.9883H523.362L522.054 92.9541H520.809L519.524 97.9883H519.446L518.348 92.9541H516.814L518.68 100ZM528.912 100H530.504L532.042 97.5293H532.091L533.634 100H535.313L533.038 96.4795V96.46L535.348 92.9541H533.697L532.213 95.4932H532.154L530.66 92.9541H528.922L531.148 96.4355V96.4502L528.912 100ZM540.58 100H542.055V97.3682L544.511 92.9541H542.914L541.366 95.918H541.278L539.726 92.9541H538.129L540.58 97.3682V100ZM547.517 100H552.956V98.7842H549.323V98.6963L552.858 93.9111V92.9541H547.6V94.1699H551.062V94.2578L547.517 99.0381V100Z" fill="white"/>
</g>
<g clip-path="url(#clip9)">
<g filter="url(#filter10_d)">
<path d="M250 124C250 121.239 252.239 119 255 119H413C415.761 119 418 121.239 418 124V144C418 146.761 415.761 149 413 149H255C252.239 149 250 146.761 250 144V124Z" fill="#646464"/>
</g>
<path d="M332.987 143.448C337.192 143.448 339.724 139.612 339.724 133.495V133.468C339.724 127.351 337.192 123.528 332.987 123.528C328.781 123.528 326.276 127.351 326.276 133.468V133.495C326.276 139.612 328.781 143.448 332.987 143.448ZM332.987 141.378C330.258 141.378 328.663 138.346 328.663 133.495V133.468C328.663 128.617 330.258 125.611 332.987 125.611C335.716 125.611 337.337 128.617 337.337 133.468V133.495C337.337 138.346 335.716 141.378 332.987 141.378Z" fill="white"/>
<path d="M354.109 138.181C356.033 138.181 357.234 137.009 357.234 135.139V134.245H354.275V135.319H355.799L355.794 135.451C355.765 136.34 355.101 136.931 354.134 136.931C352.972 136.931 352.234 135.988 352.234 134.46V134.45C352.234 132.951 352.938 132.023 354.075 132.023C354.9 132.023 355.501 132.438 355.701 133.137L355.711 133.186H357.176L357.166 133.137C356.956 131.73 355.74 130.773 354.075 130.773C352.024 130.773 350.73 132.204 350.73 134.465V134.475C350.73 136.77 352.015 138.181 354.109 138.181ZM360.65 138H362.125V135.031H365.299V138H366.773V130.954H365.299V133.815H362.125V130.954H360.65V138ZM370.482 138H371.957V130.954H370.482V138Z" fill="white"/>
</g>
<path d="M510.214 130.525C509.922 130.232 509.922 129.757 510.214 129.464C510.507 129.172 510.982 129.172 511.275 129.464L513.75 131.939L516.225 129.464C516.518 129.172 516.993 129.172 517.286 129.464C517.578 129.757 517.578 130.232 517.286 130.525L514.811 133L517.286 135.475C517.578 135.768 517.578 136.243 517.286 136.536C516.993 136.828 516.518 136.828 516.225 136.536L513.75 134.061L511.275 136.536C510.982 136.828 510.507 136.828 510.214 136.536C509.922 136.243 509.922 135.768 510.214 135.475L512.689 133L510.214 130.525Z" fill="white"/>
<path fill-rule="evenodd" clip-rule="evenodd" d="M507.121 125.379L499.5 133L507.121 140.621C507.684 141.184 508.447 141.5 509.243 141.5H519.5C521.157 141.5 522.5 140.157 522.5 138.5V127.5C522.5 125.843 521.157 124.5 519.5 124.5H509.243C508.447 124.5 507.684 124.816 507.121 125.379ZM519.5 140.2H509.243C508.792 140.2 508.359 140.021 508.041 139.702L501.339 133L508.041 126.298C508.359 125.979 508.792 125.8 509.243 125.8H519.5C520.439 125.8 521.2 126.561 521.2 127.5V138.5C521.2 139.439 520.439 140.2 519.5 140.2Z" fill="white"/>
<path fill-rule="evenodd" clip-rule="evenodd" d="M138 137V131H132V130H138V124H139V130H145V131H139V137H138ZM152.817 135.879L155.634 131H150V130H155.634L152.817 125.12L153.683 124.62L156.5 129.5L159.317 124.62L160.183 125.12L157.365 130H163V131H157.366L160.183 135.879L159.317 136.379L156.5 131.5L153.683 136.379L152.817 135.879ZM172 138V133H168V132H172V129H168V128H172V125H173V128H176V125H177V128H181V129H177V132H181V133H177V138H176V133H173V138H172ZM176 132V129H173V132H176Z" fill="white"/>
<rect x="231" y="171" width="208" height="5" rx="2.5" fill="white"/>
<defs>
<filter id="filter0_b" x="-70" y="-70" width="807" height="324" filterUnits="userSpaceOnUse" color-interpolation-filters="sRGB">
<feFlood flood-opacity="0" result="BackgroundImageFix"/>
<feGaussianBlur in="BackgroundImage" stdDeviation="35"/>
<feComposite in2="SourceAlpha" operator="in" result="effect1_backgroundBlur"/>
<feBlend mode="normal" in="SourceGraphic" in2="effect1_backgroundBlur" result="shape"/>
</filter>
<filter id="filter1_d" x="76" y="6" width="168" height="31" filterUnits="userSpaceOnUse" color-interpolation-filters="sRGB">
<feFlood flood-opacity="0" result="BackgroundImageFix"/>
<feColorMatrix in="SourceAlpha" type="matrix" values="0 0 0 0 0 0 0 0 0 0 0 0 0 0 0 0 0 0 127 0" result="hardAlpha"/>
<feOffset dy="1"/>
<feColorMatrix type="matrix" values="0 0 0 0 0 0 0 0 0 0 0 0 0 0 0 0 0 0 0.3 0"/>
<feBlend mode="normal" in2="BackgroundImageFix" result="effect1_dropShadow"/>
<feBlend mode="normal" in="SourceGraphic" in2="effect1_dropShadow" result="shape"/>
</filter>
<filter id="filter2_d" x="250" y="6" width="168" height="31" filterUnits="userSpaceOnUse" color-interpolation-filters="sRGB">
<feFlood flood-opacity="0" result="BackgroundImageFix"/>
<feColorMatrix in="SourceAlpha" type="matrix" values="0 0 0 0 0 0 0 0 0 0 0 0 0 0 0 0 0 0 127 0" result="hardAlpha"/>
<feOffset dy="1"/>
<feColorMatrix type="matrix" values="0 0 0 0 0 0 0 0 0 0 0 0 0 0 0 0 0 0 0.3 0"/>
<feBlend mode="normal" in2="BackgroundImageFix" result="effect1_dropShadow"/>
<feBlend mode="normal" in="SourceGraphic" in2="effect1_dropShadow" result="shape"/>
</filter>
<filter id="filter3_d" x="424" y="6" width="168" height="31" filterUnits="userSpaceOnUse" color-interpolation-filters="sRGB">
<feFlood flood-opacity="0" result="BackgroundImageFix"/>
<feColorMatrix in="SourceAlpha" type="matrix" values="0 0 0 0 0 0 0 0 0 0 0 0 0 0 0 0 0 0 127 0" result="hardAlpha"/>
<feOffset dy="1"/>
<feColorMatrix type="matrix" values="0 0 0 0 0 0 0 0 0 0 0 0 0 0 0 0 0 0 0.3 0"/>
<feBlend mode="normal" in2="BackgroundImageFix" result="effect1_dropShadow"/>
<feBlend mode="normal" in="SourceGraphic" in2="effect1_dropShadow" result="shape"/>
</filter>
<filter id="filter4_d" x="76" y="43" width="168" height="32" filterUnits="userSpaceOnUse" color-interpolation-filters="sRGB">
<feFlood flood-opacity="0" result="BackgroundImageFix"/>
<feColorMatrix in="SourceAlpha" type="matrix" values="0 0 0 0 0 0 0 0 0 0 0 0 0 0 0 0 0 0 127 0" result="hardAlpha"/>
<feOffset dy="1"/>
<feColorMatrix type="matrix" values="0 0 0 0 0 0 0 0 0 0 0 0 0 0 0 0 0 0 0.3 0"/>
<feBlend mode="normal" in2="BackgroundImageFix" result="effect1_dropShadow"/>
<feBlend mode="normal" in="SourceGraphic" in2="effect1_dropShadow" result="shape"/>
</filter>
<filter id="filter5_d" x="250" y="43" width="168" height="32" filterUnits="userSpaceOnUse" color-interpolation-filters="sRGB">
<feFlood flood-opacity="0" result="BackgroundImageFix"/>
<feColorMatrix in="SourceAlpha" type="matrix" values="0 0 0 0 0 0 0 0 0 0 0 0 0 0 0 0 0 0 127 0" result="hardAlpha"/>
<feOffset dy="1"/>
<feColorMatrix type="matrix" values="0 0 0 0 0 0 0 0 0 0 0 0 0 0 0 0 0 0 0.3 0"/>
<feBlend mode="normal" in2="BackgroundImageFix" result="effect1_dropShadow"/>
<feBlend mode="normal" in="SourceGraphic" in2="effect1_dropShadow" result="shape"/>
</filter>
<filter id="filter6_d" x="424" y="43" width="168" height="32" filterUnits="userSpaceOnUse" color-interpolation-filters="sRGB">
<feFlood flood-opacity="0" result="BackgroundImageFix"/>
<feColorMatrix in="SourceAlpha" type="matrix" values="0 0 0 0 0 0 0 0 0 0 0 0 0 0 0 0 0 0 127 0" result="hardAlpha"/>
<feOffset dy="1"/>
<feColorMatrix type="matrix" values="0 0 0 0 0 0 0 0 0 0 0 0 0 0 0 0 0 0 0.3 0"/>
<feBlend mode="normal" in2="BackgroundImageFix" result="effect1_dropShadow"/>
<feBlend mode="normal" in="SourceGraphic" in2="effect1_dropShadow" result="shape"/>
</filter>
<filter id="filter7_d" x="76" y="81" width="168" height="31" filterUnits="userSpaceOnUse" color-interpolation-filters="sRGB">
<feFlood flood-opacity="0" result="BackgroundImageFix"/>
<feColorMatrix in="SourceAlpha" type="matrix" values="0 0 0 0 0 0 0 0 0 0 0 0 0 0 0 0 0 0 127 0" result="hardAlpha"/>
<feOffset dy="1"/>
<feColorMatrix type="matrix" values="0 0 0 0 0 0 0 0 0 0 0 0 0 0 0 0 0 0 0.3 0"/>
<feBlend mode="normal" in2="BackgroundImageFix" result="effect1_dropShadow"/>
<feBlend mode="normal" in="SourceGraphic" in2="effect1_dropShadow" result="shape"/>
</filter>
<filter id="filter8_d" x="250" y="81" width="168" height="31" filterUnits="userSpaceOnUse" color-interpolation-filters="sRGB">
<feFlood flood-opacity="0" result="BackgroundImageFix"/>
<feColorMatrix in="SourceAlpha" type="matrix" values="0 0 0 0 0 0 0 0 0 0 0 0 0 0 0 0 0 0 127 0" result="hardAlpha"/>
<feOffset dy="1"/>
<feColorMatrix type="matrix" values="0 0 0 0 0 0 0 0 0 0 0 0 0 0 0 0 0 0 0.3 0"/>
<feBlend mode="normal" in2="BackgroundImageFix" result="effect1_dropShadow"/>
<feBlend mode="normal" in="SourceGraphic" in2="effect1_dropShadow" result="shape"/>
</filter>
<filter id="filter9_d" x="424" y="81" width="168" height="31" filterUnits="userSpaceOnUse" color-interpolation-filters="sRGB">
<feFlood flood-opacity="0" result="BackgroundImageFix"/>
<feColorMatrix in="SourceAlpha" type="matrix" values="0 0 0 0 0 0 0 0 0 0 0 0 0 0 0 0 0 0 127 0" result="hardAlpha"/>
<feOffset dy="1"/>
<feColorMatrix type="matrix" values="0 0 0 0 0 0 0 0 0 0 0 0 0 0 0 0 0 0 0.3 0"/>
<feBlend mode="normal" in2="BackgroundImageFix" result="effect1_dropShadow"/>
<feBlend mode="normal" in="SourceGraphic" in2="effect1_dropShadow" result="shape"/>
</filter>
<filter id="filter10_d" x="250" y="119" width="168" height="31" filterUnits="userSpaceOnUse" color-interpolation-filters="sRGB">
<feFlood flood-opacity="0" result="BackgroundImageFix"/>
<feColorMatrix in="SourceAlpha" type="matrix" values="0 0 0 0 0 0 0 0 0 0 0 0 0 0 0 0 0 0 127 0" result="hardAlpha"/>
<feOffset dy="1"/>
<feColorMatrix type="matrix" values="0 0 0 0 0 0 0 0 0 0 0 0 0 0 0 0 0 0 0.3 0"/>
<feBlend mode="normal" in2="BackgroundImageFix" result="effect1_dropShadow"/>
<feBlend mode="normal" in="SourceGraphic" in2="effect1_dropShadow" result="shape"/>
</filter>
<clipPath id="clip0">
<path d="M76 11C76 8.23858 78.2386 6 81 6H239C241.761 6 244 8.23858 244 11V31C244 33.7614 241.761 36 239 36H81C78.2386 36 76 33.7614 76 31V11Z" fill="white"/>
</clipPath>
<clipPath id="clip1">
<path d="M250 11C250 8.23858 252.239 6 255 6H413C415.761 6 418 8.23858 418 11V31C418 33.7614 415.761 36 413 36H255C252.239 36 250 33.7614 250 31V11Z" fill="white"/>
</clipPath>
<clipPath id="clip2">
<path d="M424 11C424 8.23858 426.239 6 429 6H587C589.761 6 592 8.23858 592 11V31C592 33.7614 589.761 36 587 36H429C426.239 36 424 33.7614 424 31V11Z" fill="white"/>
</clipPath>
<clipPath id="clip3">
<path d="M76 48C76 45.2386 78.2386 43 81 43H239C241.761 43 244 45.2386 244 48V69C244 71.7614 241.761 74 239 74H81C78.2386 74 76 71.7614 76 69V48Z" fill="white"/>
</clipPath>
<clipPath id="clip4">
<path d="M250 48C250 45.2386 252.239 43 255 43H413C415.761 43 418 45.2386 418 48V69C418 71.7614 415.761 74 413 74H255C252.239 74 250 71.7614 250 69V48Z" fill="white"/>
</clipPath>
<clipPath id="clip5">
<path d="M424 48C424 45.2386 426.239 43 429 43H587C589.761 43 592 45.2386 592 48V69C592 71.7614 589.761 74 587 74H429C426.239 74 424 71.7614 424 69V48Z" fill="white"/>
</clipPath>
<clipPath id="clip6">
<path d="M76 86C76 83.2386 78.2386 81 81 81H239C241.761 81 244 83.2386 244 86V106C244 108.761 241.761 111 239 111H81C78.2386 111 76 108.761 76 106V86Z" fill="white"/>
</clipPath>
<clipPath id="clip7">
<path d="M250 86C250 83.2386 252.239 81 255 81H413C415.761 81 418 83.2386 418 86V106C418 108.761 415.761 111 413 111H255C252.239 111 250 108.761 250 106V86Z" fill="white"/>
</clipPath>
<clipPath id="clip8">
<path d="M424 86C424 83.2386 426.239 81 429 81H587C589.761 81 592 83.2386 592 86V106C592 108.761 589.761 111 587 111H429C426.239 111 424 108.761 424 106V86Z" fill="white"/>
</clipPath>
<clipPath id="clip9">
<path d="M250 124C250 121.239 252.239 119 255 119H413C415.761 119 418 121.239 418 124V144C418 146.761 415.761 149 413 149H255C252.239 149 250 146.761 250 144V124Z" fill="white"/>
</clipPath>
</defs>
</svg>
