<svg width="662" height="162" viewBox="0 0 662 162" fill="none" xmlns="http://www.w3.org/2000/svg">
<g filter="url(#filter0_b)">
<rect width="662" height="162" fill="white" fill-opacity="0.4"/>
<rect width="662" height="162" fill="black" fill-opacity="0.82"/>
</g>
<g clip-path="url(#clip0)">
<g filter="url(#filter1_d)">
<path d="M75 11C75 8.23858 77.2386 6 80 6H236C238.761 6 241 8.23858 241 11V34C241 36.7614 238.761 39 236 39H80C77.2386 39 75 36.7614 75 34V11Z" fill="#646464"/>
</g>
<path d="M158.014 30H160.387V10.9761H158.027L152.965 14.6147V17.1196L157.803 13.6128H158.014V30Z" fill="white"/>
<path d="M178.109 25.1807C180.033 25.1807 181.234 24.0088 181.234 22.1387V21.2451H178.275V22.3193H179.799L179.794 22.4512C179.765 23.3398 179.101 23.9307 178.134 23.9307C176.972 23.9307 176.234 22.9883 176.234 21.46V21.4502C176.234 19.9512 176.938 19.0234 178.075 19.0234C178.9 19.0234 179.501 19.4385 179.701 20.1367L179.711 20.1855H181.176L181.166 20.1367C180.956 18.7305 179.74 17.7734 178.075 17.7734C176.024 17.7734 174.73 19.2041 174.73 21.4648V21.4746C174.73 23.7695 176.015 25.1807 178.109 25.1807ZM184.65 25H186.125V22.0312H189.299V25H190.773V17.9541H189.299V20.8154H186.125V17.9541H184.65V25ZM194.482 25H195.957V17.9541H194.482V25Z" fill="white"/>
</g>
<g clip-path="url(#clip1)">
<g filter="url(#filter2_d)">
<path d="M247 11C247 8.23858 249.239 6 252 6H410C412.761 6 415 8.23858 415 11V34C415 36.7614 412.761 39 410 39H252C249.239 39 247 36.7614 247 34V11Z" fill="#646464"/>
</g>
<path d="M324.475 30H336.789V27.8643H327.771V27.6533L332.095 23.1841C335.536 19.6377 336.472 18.0557 336.472 15.8804V15.854C336.472 12.7822 333.928 10.5278 330.605 10.5278C326.967 10.5278 324.356 12.9536 324.343 16.3286L324.37 16.3418L326.637 16.355L326.65 16.3286C326.65 14.0874 328.167 12.5977 330.447 12.5977C332.688 12.5977 334.046 14.1006 334.046 16.1045V16.1309C334.046 17.792 333.334 18.7808 330.909 21.4043L324.475 28.3652V30Z" fill="white"/>
<path d="M345.517 25H347.064L347.587 23.291H350.072L350.595 25H352.147L349.696 17.9541H347.963L345.517 25ZM348.788 19.3604H348.876L349.735 22.1875H347.924L348.788 19.3604ZM355.344 25H358.508C360.012 25 360.944 24.2236 360.944 22.9883V22.9785C360.944 22.0752 360.266 21.377 359.333 21.3037V21.2158C360.056 21.1084 360.607 20.459 360.607 19.7168V19.707C360.607 18.623 359.792 17.9541 358.425 17.9541H355.344V25ZM358.049 19.0479C358.752 19.0479 359.157 19.3896 359.157 19.9609V19.9707C359.157 20.5518 358.723 20.8838 357.927 20.8838H356.818V19.0479H358.049ZM358.098 21.8555C358.967 21.8555 359.44 22.207 359.44 22.8613V22.8711C359.44 23.54 358.981 23.9014 358.132 23.9014H356.818V21.8555H358.098ZM367.271 25.1807C368.97 25.1807 370.176 24.1748 370.327 22.7002L370.332 22.6465H368.896L368.887 22.6855C368.73 23.4375 368.12 23.9307 367.275 23.9307C366.162 23.9307 365.474 22.9932 365.474 21.4795V21.4697C365.474 19.9561 366.162 19.0234 367.271 19.0234C368.11 19.0234 368.74 19.5605 368.892 20.3516V20.3857H370.327V20.3271C370.19 18.8379 368.94 17.7734 367.271 17.7734C365.225 17.7734 363.965 19.1846 363.965 21.4697V21.4795C363.965 23.7646 365.229 25.1807 367.271 25.1807Z" fill="white"/>
</g>
<g clip-path="url(#clip2)">
<g filter="url(#filter3_d)">
<path d="M421 11C421 8.23858 423.239 6 426 6H581C583.761 6 586 8.23858 586 11V34C586 36.7614 583.761 39 581 39H426C423.239 39 421 36.7614 421 34V11Z" fill="#646464"/>
</g>
<path d="M503.632 30.3164C507.442 30.3164 510.237 27.9697 510.237 24.7925V24.7661C510.237 22.0635 508.352 20.3364 505.583 20.0991V20.0464C507.956 19.5454 509.617 17.937 509.617 15.5903V15.564C509.617 12.6768 507.231 10.6597 503.605 10.6597C500.046 10.6597 497.594 12.7295 497.291 15.8276L497.277 15.9595H499.558L499.571 15.8276C499.769 13.9028 501.364 12.7163 503.605 12.7163C505.926 12.7163 507.231 13.8633 507.231 15.854V15.8804C507.231 17.7788 505.649 19.1763 503.381 19.1763H501.101V21.1802H503.487C506.15 21.1802 507.824 22.4854 507.824 24.8188V24.8452C507.824 26.8623 506.124 28.2598 503.632 28.2598C501.101 28.2598 499.374 26.9678 499.189 25.0957L499.176 24.9639H496.895L496.908 25.1221C497.159 28.1279 499.703 30.3164 503.632 30.3164Z" fill="white"/>
<path d="M520.016 25H522.789C524.898 25 526.095 23.7109 526.095 21.4355V21.4258C526.095 19.2188 524.884 17.9541 522.789 17.9541H520.016V25ZM521.49 23.7842V19.1699H522.555C523.834 19.1699 524.591 20 524.591 21.4502V21.46C524.591 22.9639 523.858 23.7842 522.555 23.7842H521.49ZM529.496 25H534.164V23.7842H530.971V22.002H533.983V20.8691H530.971V19.1699H534.164V17.9541H529.496V25ZM537.717 25H539.191V22.2266H542.058V21.0596H539.191V19.1699H542.331V17.9541H537.717V25Z" fill="white"/>
</g>
<g clip-path="url(#clip3)">
<g filter="url(#filter4_d)">
<path d="M75 51C75 48.2386 77.2386 46 80 46H236C238.761 46 241 48.2386 241 51V74C241 76.7614 238.761 79 236 79H80C77.2386 79 75 76.7614 75 74V51Z" fill="#646464"/>
</g>
<path d="M159.123 70H161.443V66.0581H164.146V63.9355H161.443V50.9761H158.002C155.339 54.9443 152.425 59.585 149.854 63.896V66.0581H159.123V70ZM152.28 63.9487V63.7905C154.35 60.2969 156.842 56.3682 158.978 53.1777H159.136V63.9487H152.28Z" fill="white"/>
<path d="M178.109 65.1807C180.033 65.1807 181.234 64.0088 181.234 62.1387V61.2451H178.275V62.3193H179.799L179.794 62.4512C179.765 63.3398 179.101 63.9307 178.134 63.9307C176.972 63.9307 176.234 62.9883 176.234 61.46V61.4502C176.234 59.9512 176.938 59.0234 178.075 59.0234C178.9 59.0234 179.501 59.4385 179.701 60.1367L179.711 60.1855H181.176L181.166 60.1367C180.956 58.7305 179.74 57.7734 178.075 57.7734C176.024 57.7734 174.73 59.2041 174.73 61.4648V61.4746C174.73 63.7695 176.015 65.1807 178.109 65.1807ZM184.65 65H186.125V62.0312H189.299V65H190.773V57.9541H189.299V60.8154H186.125V57.9541H184.65V65ZM194.482 65H195.957V57.9541H194.482V65Z" fill="white"/>
</g>
<g clip-path="url(#clip4)">
<g filter="url(#filter5_d)">
<path d="M247 51C247 48.2386 249.239 46 252 46H410C412.761 46 415 48.2386 415 51V74C415 76.7614 412.761 79 410 79H252C249.239 79 247 76.7614 247 74V51Z" fill="#646464"/>
</g>
<path d="M330.526 70.4482C334.389 70.4482 337.145 67.772 337.145 63.9355V63.9092C337.145 60.231 334.574 57.5547 331.001 57.5547C329.274 57.5547 327.784 58.2534 326.94 59.5322H326.729L327.375 53.0986H336.09V50.9761H325.503L324.501 61.9053H326.558C326.795 61.457 327.099 61.0879 327.428 60.7715C328.246 59.9937 329.327 59.6113 330.592 59.6113C333.058 59.6113 334.824 61.4175 334.824 63.9487V63.9751C334.824 66.5459 333.084 68.3521 330.553 68.3521C328.325 68.3521 326.677 66.9019 326.453 65.0825L326.439 64.9771H324.159L324.172 65.1221C324.449 68.1675 326.98 70.4482 330.526 70.4482Z" fill="white"/>
<path d="M349.218 65.1807C350.741 65.1807 351.625 64.3164 351.625 62.832V57.9541H350.15V62.8223C350.15 63.5303 349.823 63.9062 349.198 63.9062C348.622 63.9062 348.3 63.5254 348.271 62.9834V62.9541H346.84V62.9932C346.879 64.3164 347.763 65.1807 349.218 65.1807ZM355.339 65H356.813V62.8467L357.512 62.0068L359.558 65H361.325L358.576 61.04L361.145 57.9541H359.504L356.901 61.1182H356.813V57.9541H355.339V65ZM364.438 65H369.048V63.7842H365.913V57.9541H364.438V65Z" fill="white"/>
</g>
<g clip-path="url(#clip5)">
<g filter="url(#filter6_d)">
<path d="M421 51C421 48.2386 423.239 46 426 46H581C583.761 46 586 48.2386 586 51V74C586 76.7614 583.761 79 581 79H426C423.239 79 421 76.7614 421 74V51Z" fill="#646464"/>
</g>
<path d="M505.123 70H507.443V66.0581H510.146V63.9355H507.443V50.9761H504.002C501.339 54.9443 498.425 59.585 495.854 63.896V66.0581H505.123V70ZM498.28 63.9487V63.7905C500.35 60.2969 502.842 56.3682 504.978 53.1777H505.136V63.9487H498.28Z" fill="white"/>
<path d="M524.109 65.1807C526.033 65.1807 527.234 64.0088 527.234 62.1387V61.2451H524.275V62.3193H525.799L525.794 62.4512C525.765 63.3398 525.101 63.9307 524.134 63.9307C522.972 63.9307 522.234 62.9883 522.234 61.46V61.4502C522.234 59.9512 522.938 59.0234 524.075 59.0234C524.9 59.0234 525.501 59.4385 525.701 60.1367L525.711 60.1855H527.176L527.166 60.1367C526.956 58.7305 525.74 57.7734 524.075 57.7734C522.024 57.7734 520.73 59.2041 520.73 61.4648V61.4746C520.73 63.7695 522.015 65.1807 524.109 65.1807ZM530.65 65H532.125V62.0312H535.299V65H536.773V57.9541H535.299V60.8154H532.125V57.9541H530.65V65ZM540.482 65H541.957V57.9541H540.482V65Z" fill="white"/>
</g>
<g clip-path="url(#clip6)">
<g filter="url(#filter7_d)">
<path d="M75 91C75 88.2386 77.2386 86 80 86H236C238.761 86 241 88.2386 241 91V114C241 116.761 238.761 119 236 119H80C77.2386 119 75 116.761 75 114V91Z" fill="#646464"/>
</g>
<path d="M152.228 110H154.719L163.183 93.1777V90.9761H150.593V93.0986H160.771V93.2832L152.228 110Z" fill="white"/>
<path d="M169.199 105H170.674V102.778H172.104C173.589 102.778 174.58 101.821 174.58 100.371V100.361C174.58 98.9111 173.589 97.9541 172.104 97.9541H169.199V105ZM171.743 99.1211C172.588 99.1211 173.086 99.5654 173.086 100.366V100.376C173.086 101.177 172.588 101.626 171.743 101.626H170.674V99.1211H171.743ZM181.019 105.181C181.473 105.181 181.893 105.112 182.269 104.98L182.806 105.698H184.178L183.23 104.434C183.982 103.799 184.407 102.778 184.407 101.479V101.47C184.407 99.1943 183.094 97.7734 181.019 97.7734C178.943 97.7734 177.625 99.1895 177.625 101.47V101.479C177.625 103.755 178.924 105.181 181.019 105.181ZM181.019 103.931C179.856 103.931 179.129 102.969 179.129 101.479V101.47C179.129 99.9756 179.871 99.0234 181.019 99.0234C182.161 99.0234 182.903 99.9756 182.903 101.47V101.479C182.903 102.241 182.708 102.861 182.366 103.291L181.912 102.681H180.54L181.443 103.882C181.307 103.916 181.165 103.931 181.019 103.931ZM187.809 105H189.283V102.422H190.489L191.803 105H193.473L191.988 102.202C192.794 101.885 193.263 101.108 193.263 100.205V100.195C193.263 98.8086 192.345 97.9541 190.743 97.9541H187.809V105ZM189.283 101.348V99.1064H190.562C191.3 99.1064 191.754 99.5459 191.754 100.225V100.234C191.754 100.928 191.319 101.348 190.582 101.348H189.283ZM199.271 105.181C201.029 105.181 202.113 104.297 202.113 102.9V102.896C202.113 101.797 201.464 101.201 199.975 100.894L199.228 100.742C198.397 100.571 198.056 100.298 198.056 99.8389V99.834C198.056 99.3066 198.539 98.9746 199.267 98.9697C200.009 98.9697 200.497 99.3213 200.58 99.8242L200.59 99.8828H201.977L201.972 99.8193C201.879 98.6426 200.912 97.7734 199.267 97.7734C197.704 97.7734 196.581 98.6377 196.581 99.9463V99.9512C196.581 101.021 197.211 101.704 198.676 102.002L199.418 102.153C200.292 102.334 200.639 102.593 200.639 103.057V103.062C200.639 103.604 200.097 103.979 199.311 103.979C198.485 103.979 197.914 103.623 197.86 103.096L197.855 103.047H196.435L196.439 103.125C196.522 104.375 197.587 105.181 199.271 105.181Z" fill="white"/>
</g>
<g clip-path="url(#clip7)">
<g filter="url(#filter8_d)">
<path d="M247 91C247 88.2386 249.239 86 252 86H410C412.761 86 415 88.2386 415 91V114C415 116.761 412.761 119 410 119H252C249.239 119 247 116.761 247 114V91Z" fill="#646464"/>
</g>
<path d="M330 110.316C334.034 110.316 336.908 108.049 336.908 104.858V104.832C336.908 102.485 335.26 100.534 332.821 99.9673V99.9146C334.904 99.2686 336.223 97.6865 336.223 95.6826V95.6562C336.223 92.7822 333.599 90.6597 330 90.6597C326.401 90.6597 323.777 92.7822 323.777 95.6562V95.6826C323.777 97.6865 325.096 99.2686 327.179 99.9146V99.9673C324.74 100.534 323.092 102.485 323.092 104.832V104.858C323.092 108.049 325.966 110.316 330 110.316ZM330 99.0312C327.706 99.0312 326.137 97.7261 326.137 95.8804V95.854C326.137 94.0083 327.706 92.7031 330 92.7031C332.294 92.7031 333.863 94.0083 333.863 95.854V95.8804C333.863 97.7261 332.294 99.0312 330 99.0312ZM330 108.247C327.376 108.247 325.504 106.77 325.504 104.713V104.687C325.504 102.604 327.363 101.114 330 101.114C332.637 101.114 334.496 102.604 334.496 104.687V104.713C334.496 106.77 332.624 108.247 330 108.247Z" fill="white"/>
<path d="M347.851 105H349.325V99.1699H351.439V97.9541H345.736V99.1699H347.851V105ZM357.692 105.181C359.509 105.181 360.642 104.131 360.642 102.568V97.9541H359.167V102.437C359.167 103.35 358.64 103.931 357.692 103.931C356.745 103.931 356.213 103.35 356.213 102.437V97.9541H354.738V102.568C354.738 104.136 355.886 105.181 357.692 105.181ZM366.196 105H368.013L370.361 97.9541H368.701L367.148 103.359H367.061L365.503 97.9541H363.848L366.196 105Z" fill="white"/>
</g>
<g clip-path="url(#clip8)">
<g filter="url(#filter9_d)">
<path d="M421 91C421 88.2386 423.239 86 426 86H581C583.761 86 586 88.2386 586 91V114C586 116.761 583.761 119 581 119H426C423.239 119 421 116.761 421 114V91Z" fill="#646464"/>
</g>
<path d="M502.75 90.5278C498.913 90.5278 496.092 93.2832 496.092 97.0801V97.1064C496.092 100.758 498.755 103.474 502.328 103.474C504.898 103.474 506.691 102.09 507.39 100.534H507.641C507.588 104.7 506.204 108.326 502.618 108.326C500.693 108.326 499.361 107.337 498.781 105.742L498.729 105.597H496.342L496.382 105.768C497.028 108.576 499.401 110.448 502.591 110.448C507.206 110.448 509.908 106.651 509.908 100.165V100.139C509.908 92.98 506.23 90.5278 502.75 90.5278ZM502.736 101.404C500.271 101.404 498.478 99.585 498.478 97.0537V97.0273C498.478 94.562 500.39 92.624 502.776 92.624C505.188 92.624 507.074 94.6016 507.074 97.1064V97.1196C507.074 99.5981 505.202 101.404 502.736 101.404Z" fill="white"/>
<path d="M514.68 105H516.071L517.39 100.254H517.468L518.801 105H520.183L522.053 97.9541H520.529L519.44 102.988H519.362L518.054 97.9541H516.809L515.524 102.988H515.446L514.348 97.9541H512.814L514.68 105ZM524.912 105H526.504L528.042 102.529H528.091L529.634 105H531.313L529.038 101.479V101.46L531.348 97.9541H529.697L528.213 100.493H528.154L526.66 97.9541H524.922L527.148 101.436V101.45L524.912 105ZM536.58 105H538.055V102.368L540.511 97.9541H538.914L537.366 100.918H537.278L535.726 97.9541H534.129L536.58 102.368V105ZM543.517 105H548.956V103.784H545.323V103.696L548.858 98.9111V97.9541H543.6V99.1699H547.062V99.2578L543.517 104.038V105Z" fill="white"/>
</g>
<g clip-path="url(#clip9)">
<g filter="url(#filter10_d)">
<path d="M247 131C247 128.239 249.239 126 252 126H410C412.761 126 415 128.239 415 131V154C415 156.761 412.761 159 410 159H252C249.239 159 247 156.761 247 154V131Z" fill="#646464"/>
</g>
<path d="M329.987 150.448C334.192 150.448 336.724 146.612 336.724 140.495V140.468C336.724 134.351 334.192 130.528 329.987 130.528C325.781 130.528 323.276 134.351 323.276 140.468V140.495C323.276 146.612 325.781 150.448 329.987 150.448ZM329.987 148.378C327.258 148.378 325.663 145.346 325.663 140.495V140.468C325.663 135.617 327.258 132.611 329.987 132.611C332.716 132.611 334.337 135.617 334.337 140.468V140.495C334.337 145.346 332.716 148.378 329.987 148.378Z" fill="white"/>
<path d="M351.109 145.181C353.033 145.181 354.234 144.009 354.234 142.139V141.245H351.275V142.319H352.799L352.794 142.451C352.765 143.34 352.101 143.931 351.134 143.931C349.972 143.931 349.234 142.988 349.234 141.46V141.45C349.234 139.951 349.938 139.023 351.075 139.023C351.9 139.023 352.501 139.438 352.701 140.137L352.711 140.186H354.176L354.166 140.137C353.956 138.73 352.74 137.773 351.075 137.773C349.024 137.773 347.73 139.204 347.73 141.465V141.475C347.73 143.77 349.015 145.181 351.109 145.181ZM357.65 145H359.125V142.031H362.299V145H363.773V137.954H362.299V140.815H359.125V137.954H357.65V145ZM367.482 145H368.957V137.954H367.482V145Z" fill="white"/>
</g>
<path d="M505.214 139.525C504.922 139.232 504.922 138.757 505.214 138.464C505.507 138.172 505.982 138.172 506.275 138.464L508.75 140.939L511.225 138.464C511.518 138.172 511.993 138.172 512.286 138.464C512.578 138.757 512.578 139.232 512.286 139.525L509.811 142L512.286 144.475C512.578 144.768 512.578 145.243 512.286 145.536C511.993 145.828 511.518 145.828 511.225 145.536L508.75 143.061L506.275 145.536C505.982 145.828 505.507 145.828 505.214 145.536C504.922 145.243 504.922 144.768 505.214 144.475L507.689 142L505.214 139.525Z" fill="white"/>
<path fill-rule="evenodd" clip-rule="evenodd" d="M502.121 134.379L494.5 142L502.121 149.621C502.684 150.184 503.447 150.5 504.243 150.5H514.5C516.157 150.5 517.5 149.157 517.5 147.5V136.5C517.5 134.843 516.157 133.5 514.5 133.5H504.243C503.447 133.5 502.684 133.816 502.121 134.379ZM514.5 149.2H504.243C503.792 149.2 503.359 149.021 503.041 148.702L496.339 142L503.041 135.298C503.359 134.979 503.792 134.8 504.243 134.8H514.5C515.439 134.8 516.2 135.561 516.2 136.5V147.5C516.2 148.439 515.439 149.2 514.5 149.2Z" fill="white"/>
<path fill-rule="evenodd" clip-rule="evenodd" d="M140 146V140H134V139H140V133H141V139H147V140H141V146H140ZM154.817 144.879L157.634 140H152V139H157.634L154.817 134.12L155.683 133.62L158.5 138.5L161.317 133.62L162.183 134.12L159.365 139H165V140H159.366L162.183 144.879L161.317 145.379L158.5 140.5L155.683 145.379L154.817 144.879ZM174 147V142H170V141H174V138H170V137H174V134H175V137H178V134H179V137H183V138H179V141H183V142H179V147H178V142H175V147H174ZM178 141V138H175V141H178Z" fill="white"/>
<defs>
<filter id="filter0_b" x="-70" y="-70" width="802" height="302" filterUnits="userSpaceOnUse" color-interpolation-filters="sRGB">
<feFlood flood-opacity="0" result="BackgroundImageFix"/>
<feGaussianBlur in="BackgroundImage" stdDeviation="35"/>
<feComposite in2="SourceAlpha" operator="in" result="effect1_backgroundBlur"/>
<feBlend mode="normal" in="SourceGraphic" in2="effect1_backgroundBlur" result="shape"/>
</filter>
<filter id="filter1_d" x="75" y="6" width="166" height="34" filterUnits="userSpaceOnUse" color-interpolation-filters="sRGB">
<feFlood flood-opacity="0" result="BackgroundImageFix"/>
<feColorMatrix in="SourceAlpha" type="matrix" values="0 0 0 0 0 0 0 0 0 0 0 0 0 0 0 0 0 0 127 0" result="hardAlpha"/>
<feOffset dy="1"/>
<feColorMatrix type="matrix" values="0 0 0 0 0 0 0 0 0 0 0 0 0 0 0 0 0 0 0.3 0"/>
<feBlend mode="normal" in2="BackgroundImageFix" result="effect1_dropShadow"/>
<feBlend mode="normal" in="SourceGraphic" in2="effect1_dropShadow" result="shape"/>
</filter>
<filter id="filter2_d" x="247" y="6" width="168" height="34" filterUnits="userSpaceOnUse" color-interpolation-filters="sRGB">
<feFlood flood-opacity="0" result="BackgroundImageFix"/>
<feColorMatrix in="SourceAlpha" type="matrix" values="0 0 0 0 0 0 0 0 0 0 0 0 0 0 0 0 0 0 127 0" result="hardAlpha"/>
<feOffset dy="1"/>
<feColorMatrix type="matrix" values="0 0 0 0 0 0 0 0 0 0 0 0 0 0 0 0 0 0 0.3 0"/>
<feBlend mode="normal" in2="BackgroundImageFix" result="effect1_dropShadow"/>
<feBlend mode="normal" in="SourceGraphic" in2="effect1_dropShadow" result="shape"/>
</filter>
<filter id="filter3_d" x="421" y="6" width="165" height="34" filterUnits="userSpaceOnUse" color-interpolation-filters="sRGB">
<feFlood flood-opacity="0" result="BackgroundImageFix"/>
<feColorMatrix in="SourceAlpha" type="matrix" values="0 0 0 0 0 0 0 0 0 0 0 0 0 0 0 0 0 0 127 0" result="hardAlpha"/>
<feOffset dy="1"/>
<feColorMatrix type="matrix" values="0 0 0 0 0 0 0 0 0 0 0 0 0 0 0 0 0 0 0.3 0"/>
<feBlend mode="normal" in2="BackgroundImageFix" result="effect1_dropShadow"/>
<feBlend mode="normal" in="SourceGraphic" in2="effect1_dropShadow" result="shape"/>
</filter>
<filter id="filter4_d" x="75" y="46" width="166" height="34" filterUnits="userSpaceOnUse" color-interpolation-filters="sRGB">
<feFlood flood-opacity="0" result="BackgroundImageFix"/>
<feColorMatrix in="SourceAlpha" type="matrix" values="0 0 0 0 0 0 0 0 0 0 0 0 0 0 0 0 0 0 127 0" result="hardAlpha"/>
<feOffset dy="1"/>
<feColorMatrix type="matrix" values="0 0 0 0 0 0 0 0 0 0 0 0 0 0 0 0 0 0 0.3 0"/>
<feBlend mode="normal" in2="BackgroundImageFix" result="effect1_dropShadow"/>
<feBlend mode="normal" in="SourceGraphic" in2="effect1_dropShadow" result="shape"/>
</filter>
<filter id="filter5_d" x="247" y="46" width="168" height="34" filterUnits="userSpaceOnUse" color-interpolation-filters="sRGB">
<feFlood flood-opacity="0" result="BackgroundImageFix"/>
<feColorMatrix in="SourceAlpha" type="matrix" values="0 0 0 0 0 0 0 0 0 0 0 0 0 0 0 0 0 0 127 0" result="hardAlpha"/>
<feOffset dy="1"/>
<feColorMatrix type="matrix" values="0 0 0 0 0 0 0 0 0 0 0 0 0 0 0 0 0 0 0.3 0"/>
<feBlend mode="normal" in2="BackgroundImageFix" result="effect1_dropShadow"/>
<feBlend mode="normal" in="SourceGraphic" in2="effect1_dropShadow" result="shape"/>
</filter>
<filter id="filter6_d" x="421" y="46" width="165" height="34" filterUnits="userSpaceOnUse" color-interpolation-filters="sRGB">
<feFlood flood-opacity="0" result="BackgroundImageFix"/>
<feColorMatrix in="SourceAlpha" type="matrix" values="0 0 0 0 0 0 0 0 0 0 0 0 0 0 0 0 0 0 127 0" result="hardAlpha"/>
<feOffset dy="1"/>
<feColorMatrix type="matrix" values="0 0 0 0 0 0 0 0 0 0 0 0 0 0 0 0 0 0 0.3 0"/>
<feBlend mode="normal" in2="BackgroundImageFix" result="effect1_dropShadow"/>
<feBlend mode="normal" in="SourceGraphic" in2="effect1_dropShadow" result="shape"/>
</filter>
<filter id="filter7_d" x="75" y="86" width="166" height="34" filterUnits="userSpaceOnUse" color-interpolation-filters="sRGB">
<feFlood flood-opacity="0" result="BackgroundImageFix"/>
<feColorMatrix in="SourceAlpha" type="matrix" values="0 0 0 0 0 0 0 0 0 0 0 0 0 0 0 0 0 0 127 0" result="hardAlpha"/>
<feOffset dy="1"/>
<feColorMatrix type="matrix" values="0 0 0 0 0 0 0 0 0 0 0 0 0 0 0 0 0 0 0.3 0"/>
<feBlend mode="normal" in2="BackgroundImageFix" result="effect1_dropShadow"/>
<feBlend mode="normal" in="SourceGraphic" in2="effect1_dropShadow" result="shape"/>
</filter>
<filter id="filter8_d" x="247" y="86" width="168" height="34" filterUnits="userSpaceOnUse" color-interpolation-filters="sRGB">
<feFlood flood-opacity="0" result="BackgroundImageFix"/>
<feColorMatrix in="SourceAlpha" type="matrix" values="0 0 0 0 0 0 0 0 0 0 0 0 0 0 0 0 0 0 127 0" result="hardAlpha"/>
<feOffset dy="1"/>
<feColorMatrix type="matrix" values="0 0 0 0 0 0 0 0 0 0 0 0 0 0 0 0 0 0 0.3 0"/>
<feBlend mode="normal" in2="BackgroundImageFix" result="effect1_dropShadow"/>
<feBlend mode="normal" in="SourceGraphic" in2="effect1_dropShadow" result="shape"/>
</filter>
<filter id="filter9_d" x="421" y="86" width="165" height="34" filterUnits="userSpaceOnUse" color-interpolation-filters="sRGB">
<feFlood flood-opacity="0" result="BackgroundImageFix"/>
<feColorMatrix in="SourceAlpha" type="matrix" values="0 0 0 0 0 0 0 0 0 0 0 0 0 0 0 0 0 0 127 0" result="hardAlpha"/>
<feOffset dy="1"/>
<feColorMatrix type="matrix" values="0 0 0 0 0 0 0 0 0 0 0 0 0 0 0 0 0 0 0.3 0"/>
<feBlend mode="normal" in2="BackgroundImageFix" result="effect1_dropShadow"/>
<feBlend mode="normal" in="SourceGraphic" in2="effect1_dropShadow" result="shape"/>
</filter>
<filter id="filter10_d" x="247" y="126" width="168" height="34" filterUnits="userSpaceOnUse" color-interpolation-filters="sRGB">
<feFlood flood-opacity="0" result="BackgroundImageFix"/>
<feColorMatrix in="SourceAlpha" type="matrix" values="0 0 0 0 0 0 0 0 0 0 0 0 0 0 0 0 0 0 127 0" result="hardAlpha"/>
<feOffset dy="1"/>
<feColorMatrix type="matrix" values="0 0 0 0 0 0 0 0 0 0 0 0 0 0 0 0 0 0 0.3 0"/>
<feBlend mode="normal" in2="BackgroundImageFix" result="effect1_dropShadow"/>
<feBlend mode="normal" in="SourceGraphic" in2="effect1_dropShadow" result="shape"/>
</filter>
<clipPath id="clip0">
<path d="M75 11C75 8.23858 77.2386 6 80 6H236C238.761 6 241 8.23858 241 11V34C241 36.7614 238.761 39 236 39H80C77.2386 39 75 36.7614 75 34V11Z" fill="white"/>
</clipPath>
<clipPath id="clip1">
<path d="M247 11C247 8.23858 249.239 6 252 6H410C412.761 6 415 8.23858 415 11V34C415 36.7614 412.761 39 410 39H252C249.239 39 247 36.7614 247 34V11Z" fill="white"/>
</clipPath>
<clipPath id="clip2">
<path d="M421 11C421 8.23858 423.239 6 426 6H581C583.761 6 586 8.23858 586 11V34C586 36.7614 583.761 39 581 39H426C423.239 39 421 36.7614 421 34V11Z" fill="white"/>
</clipPath>
<clipPath id="clip3">
<path d="M75 51C75 48.2386 77.2386 46 80 46H236C238.761 46 241 48.2386 241 51V74C241 76.7614 238.761 79 236 79H80C77.2386 79 75 76.7614 75 74V51Z" fill="white"/>
</clipPath>
<clipPath id="clip4">
<path d="M247 51C247 48.2386 249.239 46 252 46H410C412.761 46 415 48.2386 415 51V74C415 76.7614 412.761 79 410 79H252C249.239 79 247 76.7614 247 74V51Z" fill="white"/>
</clipPath>
<clipPath id="clip5">
<path d="M421 51C421 48.2386 423.239 46 426 46H581C583.761 46 586 48.2386 586 51V74C586 76.7614 583.761 79 581 79H426C423.239 79 421 76.7614 421 74V51Z" fill="white"/>
</clipPath>
<clipPath id="clip6">
<path d="M75 91C75 88.2386 77.2386 86 80 86H236C238.761 86 241 88.2386 241 91V114C241 116.761 238.761 119 236 119H80C77.2386 119 75 116.761 75 114V91Z" fill="white"/>
</clipPath>
<clipPath id="clip7">
<path d="M247 91C247 88.2386 249.239 86 252 86H410C412.761 86 415 88.2386 415 91V114C415 116.761 412.761 119 410 119H252C249.239 119 247 116.761 247 114V91Z" fill="white"/>
</clipPath>
<clipPath id="clip8">
<path d="M421 91C421 88.2386 423.239 86 426 86H581C583.761 86 586 88.2386 586 91V114C586 116.761 583.761 119 581 119H426C423.239 119 421 116.761 421 114V91Z" fill="white"/>
</clipPath>
<clipPath id="clip9">
<path d="M247 131C247 128.239 249.239 126 252 126H410C412.761 126 415 128.239 415 131V154C415 156.761 412.761 159 410 159H252C249.239 159 247 156.761 247 154V131Z" fill="white"/>
</clipPath>
</defs>
</svg>
