<svg width="667" height="162" viewBox="0 0 667 162" fill="none" xmlns="http://www.w3.org/2000/svg">
<g filter="url(#filter0_b)">
<rect width="667" height="162" fill="#CED2D9" fill-opacity="0.7"/>
</g>
<g filter="url(#filter1_d)">
<path d="M78 11C78 8.23858 80.2386 6 83 6H239C241.761 6 244 8.23858 244 11V34C244 36.7614 241.761 39 239 39H83C80.2386 39 78 36.7614 78 34V11Z" fill="white"/>
</g>
<path d="M161.014 29H163.387V9.97607H161.027L155.965 13.6147V16.1196L160.803 12.6128H161.014V29Z" fill="black"/>
<g filter="url(#filter2_d)">
<path d="M250 11C250 8.23858 252.239 6 255 6H413C415.761 6 418 8.23858 418 11V34C418 36.7614 415.761 39 413 39H255C252.239 39 250 36.7614 250 34V11Z" fill="white"/>
</g>
<path d="M327.475 29H339.789V26.8643H330.771V26.6533L335.095 22.1841C338.536 18.6377 339.472 17.0557 339.472 14.8804V14.854C339.472 11.7822 336.928 9.52783 333.605 9.52783C329.967 9.52783 327.356 11.9536 327.343 15.3286L327.37 15.3418L329.637 15.355L329.65 15.3286C329.65 13.0874 331.167 11.5977 333.447 11.5977C335.688 11.5977 337.046 13.1006 337.046 15.1045V15.1309C337.046 16.792 336.334 17.7808 333.909 20.4043L327.475 27.3652V29Z" fill="black"/>
<path d="M350.352 23H351.899L352.422 21.291H354.907L355.43 23H356.982L354.531 15.9541H352.798L350.352 23ZM353.623 17.3604H353.711L354.57 20.1875H352.759L353.623 17.3604ZM360.179 23H363.343C364.847 23 365.779 22.2236 365.779 20.9883V20.9785C365.779 20.0752 365.101 19.377 364.168 19.3037V19.2158C364.891 19.1084 365.442 18.459 365.442 17.7168V17.707C365.442 16.623 364.627 15.9541 363.26 15.9541H360.179V23ZM362.884 17.0479C363.587 17.0479 363.992 17.3896 363.992 17.9609V17.9707C363.992 18.5518 363.558 18.8838 362.762 18.8838H361.653V17.0479H362.884ZM362.933 19.8555C363.802 19.8555 364.275 20.207 364.275 20.8613V20.8711C364.275 21.54 363.816 21.9014 362.967 21.9014H361.653V19.8555H362.933ZM372.105 23.1807C373.805 23.1807 375.011 22.1748 375.162 20.7002L375.167 20.6465H373.731L373.722 20.6855C373.565 21.4375 372.955 21.9307 372.11 21.9307C370.997 21.9307 370.309 20.9932 370.309 19.4795V19.4697C370.309 17.9561 370.997 17.0234 372.105 17.0234C372.945 17.0234 373.575 17.5605 373.727 18.3516V18.3857H375.162V18.3271C375.025 16.8379 373.775 15.7734 372.105 15.7734C370.06 15.7734 368.8 17.1846 368.8 19.4697V19.4795C368.8 21.7646 370.064 23.1807 372.105 23.1807Z" fill="black"/>
<g filter="url(#filter3_d)">
<path d="M424 11C424 8.23858 426.239 6 429 6H584C586.761 6 589 8.23858 589 11V34C589 36.7614 586.761 39 584 39H429C426.239 39 424 36.7614 424 34V11Z" fill="white"/>
</g>
<path d="M506.632 29.3164C510.442 29.3164 513.237 26.9697 513.237 23.7925V23.7661C513.237 21.0635 511.352 19.3364 508.583 19.0991V19.0464C510.956 18.5454 512.617 16.937 512.617 14.5903V14.564C512.617 11.6768 510.231 9.65967 506.605 9.65967C503.046 9.65967 500.594 11.7295 500.291 14.8276L500.277 14.9595H502.558L502.571 14.8276C502.769 12.9028 504.364 11.7163 506.605 11.7163C508.926 11.7163 510.231 12.8633 510.231 14.854V14.8804C510.231 16.7788 508.649 18.1763 506.381 18.1763H504.101V20.1802H506.487C509.15 20.1802 510.824 21.4854 510.824 23.8188V23.8452C510.824 25.8623 509.124 27.2598 506.632 27.2598C504.101 27.2598 502.374 25.9678 502.189 24.0957L502.176 23.9639H499.895L499.908 24.1221C500.159 27.1279 502.703 29.3164 506.632 29.3164Z" fill="black"/>
<path d="M523.854 23H526.628C528.737 23 529.934 21.7109 529.934 19.4355V19.4258C529.934 17.2188 528.723 15.9541 526.628 15.9541H523.854V23ZM525.329 21.7842V17.1699H526.394C527.673 17.1699 528.43 18 528.43 19.4502V19.46C528.43 20.9639 527.697 21.7842 526.394 21.7842H525.329ZM533.335 23H538.003V21.7842H534.81V20.002H537.822V18.8691H534.81V17.1699H538.003V15.9541H533.335V23ZM541.556 23H543.03V20.2266H545.896V19.0596H543.03V17.1699H546.17V15.9541H541.556V23Z" fill="black"/>
<g filter="url(#filter4_d)">
<path d="M78 51C78 48.2386 80.2386 46 83 46H239C241.761 46 244 48.2386 244 51V74C244 76.7614 241.761 79 239 79H83C80.2386 79 78 76.7614 78 74V51Z" fill="white"/>
</g>
<path d="M162.123 69H164.443V65.0581H167.146V62.9355H164.443V49.9761H161.002C158.339 53.9443 155.425 58.585 152.854 62.896V65.0581H162.123V69ZM155.28 62.9487V62.7905C157.35 59.2969 159.842 55.3682 161.978 52.1777H162.136V62.9487H155.28Z" fill="black"/>
<path d="M180.921 63.1807C182.845 63.1807 184.046 62.0088 184.046 60.1387V59.2451H181.087V60.3193H182.61L182.605 60.4512C182.576 61.3398 181.912 61.9307 180.945 61.9307C179.783 61.9307 179.046 60.9883 179.046 59.46V59.4502C179.046 57.9512 179.749 57.0234 180.887 57.0234C181.712 57.0234 182.312 57.4385 182.513 58.1367L182.522 58.1855H183.987L183.978 58.1367C183.768 56.7305 182.552 55.7734 180.887 55.7734C178.836 55.7734 177.542 57.2041 177.542 59.4648V59.4746C177.542 61.7695 178.826 63.1807 180.921 63.1807ZM187.462 63H188.937V60.0312H192.11V63H193.585V55.9541H192.11V58.8154H188.937V55.9541H187.462V63ZM197.294 63H198.769V55.9541H197.294V63Z" fill="black"/>
<g filter="url(#filter5_d)">
<path d="M250 51C250 48.2386 252.239 46 255 46H413C415.761 46 418 48.2386 418 51V74C418 76.7614 415.761 79 413 79H255C252.239 79 250 76.7614 250 74V51Z" fill="white"/>
</g>
<path d="M333.526 69.4482C337.389 69.4482 340.145 66.772 340.145 62.9355V62.9092C340.145 59.231 337.574 56.5547 334.001 56.5547C332.274 56.5547 330.784 57.2534 329.94 58.5322H329.729L330.375 52.0986H339.09V49.9761H328.503L327.501 60.9053H329.558C329.795 60.457 330.099 60.0879 330.428 59.7715C331.246 58.9937 332.327 58.6113 333.592 58.6113C336.058 58.6113 337.824 60.4175 337.824 62.9487V62.9751C337.824 65.5459 336.084 67.3521 333.553 67.3521C331.325 67.3521 329.677 65.9019 329.453 64.0825L329.439 63.9771H327.159L327.172 64.1221C327.449 67.1675 329.98 69.4482 333.526 69.4482Z" fill="black"/>
<path d="M352.749 63.1807C354.272 63.1807 355.156 62.3164 355.156 60.832V55.9541H353.682V60.8223C353.682 61.5303 353.354 61.9062 352.729 61.9062C352.153 61.9062 351.831 61.5254 351.802 60.9834V60.9541H350.371V60.9932C350.41 62.3164 351.294 63.1807 352.749 63.1807ZM358.87 63H360.345V60.8467L361.043 60.0068L363.089 63H364.856L362.107 59.04L364.676 55.9541H363.035L360.433 59.1182H360.345V55.9541H358.87V63ZM367.97 63H372.579V61.7842H369.444V55.9541H367.97V63Z" fill="black"/>
<g filter="url(#filter6_d)">
<path d="M424 51C424 48.2386 426.239 46 429 46H584C586.761 46 589 48.2386 589 51V74C589 76.7614 586.761 79 584 79H429C426.239 79 424 76.7614 424 74V51Z" fill="white"/>
</g>
<path d="M506.25 69.4482C510.087 69.4482 512.908 66.6929 512.908 62.896V62.8696C512.908 59.2178 510.245 56.502 506.672 56.502C504.102 56.502 502.309 57.8862 501.61 59.4419H501.359C501.412 55.2759 502.796 51.6504 506.382 51.6504C508.307 51.6504 509.639 52.6392 510.219 54.2344L510.271 54.3794H512.658L512.618 54.208C511.972 51.3999 509.599 49.5278 506.409 49.5278C501.794 49.5278 499.092 53.3247 499.092 59.811V59.8374C499.092 66.9961 502.77 69.4482 506.25 69.4482ZM501.926 62.8696V62.8564C501.926 60.3779 503.798 58.5718 506.264 58.5718C508.729 58.5718 510.522 60.3911 510.522 62.9224V62.9487C510.522 65.4141 508.61 67.3521 506.224 67.3521C503.812 67.3521 501.926 65.3745 501.926 62.8696Z" fill="black"/>
<path d="M523.854 63H525.168V58.2051H525.266L527.072 63H527.995L529.802 58.2051H529.899V63H531.213V55.9541H529.523L527.58 61.1104H527.492L525.544 55.9541H523.854V63ZM534.927 63H536.338V58.4932H536.416L539.678 63H540.898V55.9541H539.487V60.4414H539.409L536.157 55.9541H534.927V63ZM547.693 63.1807C549.773 63.1807 551.082 61.7549 551.082 59.4795V59.4697C551.082 57.1943 549.769 55.7734 547.693 55.7734C545.618 55.7734 544.3 57.1895 544.3 59.4697V59.4795C544.3 61.7549 545.599 63.1807 547.693 63.1807ZM547.693 61.9307C546.531 61.9307 545.804 60.9688 545.804 59.4795V59.4697C545.804 57.9756 546.546 57.0234 547.693 57.0234C548.836 57.0234 549.578 57.9756 549.578 59.4697V59.4795C549.578 60.9688 548.841 61.9307 547.693 61.9307Z" fill="black"/>
<g filter="url(#filter7_d)">
<path d="M78 91C78 88.2386 80.2386 86 83 86H239C241.761 86 244 88.2386 244 91V114C244 116.761 241.761 119 239 119H83C80.2386 119 78 116.761 78 114V91Z" fill="white"/>
</g>
<path d="M155.228 109H157.719L166.183 92.1777V89.9761H153.593V92.0986H163.771V92.2832L155.228 109Z" fill="black"/>
<path d="M177.854 103H179.329V100.778H180.76C182.244 100.778 183.235 99.8213 183.235 98.3711V98.3613C183.235 96.9111 182.244 95.9541 180.76 95.9541H177.854V103ZM180.398 97.1211C181.243 97.1211 181.741 97.5654 181.741 98.3662V98.376C181.741 99.1768 181.243 99.626 180.398 99.626H179.329V97.1211H180.398ZM189.674 103.181C190.128 103.181 190.548 103.112 190.924 102.98L191.461 103.698H192.833L191.886 102.434C192.638 101.799 193.062 100.778 193.062 99.4795V99.4697C193.062 97.1943 191.749 95.7734 189.674 95.7734C187.599 95.7734 186.28 97.1895 186.28 99.4697V99.4795C186.28 101.755 187.579 103.181 189.674 103.181ZM189.674 101.931C188.512 101.931 187.784 100.969 187.784 99.4795V99.4697C187.784 97.9756 188.526 97.0234 189.674 97.0234C190.816 97.0234 191.559 97.9756 191.559 99.4697V99.4795C191.559 100.241 191.363 100.861 191.021 101.291L190.567 100.681H189.195L190.099 101.882C189.962 101.916 189.82 101.931 189.674 101.931ZM196.464 103H197.938V100.422H199.145L200.458 103H202.128L200.644 100.202C201.449 99.8848 201.918 99.1084 201.918 98.2051V98.1953C201.918 96.8086 201 95.9541 199.398 95.9541H196.464V103ZM197.938 99.3477V97.1064H199.218C199.955 97.1064 200.409 97.5459 200.409 98.2246V98.2344C200.409 98.9277 199.975 99.3477 199.237 99.3477H197.938ZM207.927 103.181C209.685 103.181 210.769 102.297 210.769 100.9V100.896C210.769 99.7969 210.119 99.2012 208.63 98.8936L207.883 98.7422C207.053 98.5713 206.711 98.2979 206.711 97.8389V97.834C206.711 97.3066 207.194 96.9746 207.922 96.9697C208.664 96.9697 209.152 97.3213 209.235 97.8242L209.245 97.8828H210.632L210.627 97.8193C210.534 96.6426 209.567 95.7734 207.922 95.7734C206.359 95.7734 205.236 96.6377 205.236 97.9463V97.9512C205.236 99.0205 205.866 99.7041 207.331 100.002L208.073 100.153C208.947 100.334 209.294 100.593 209.294 101.057V101.062C209.294 101.604 208.752 101.979 207.966 101.979C207.141 101.979 206.569 101.623 206.516 101.096L206.511 101.047H205.09L205.095 101.125C205.178 102.375 206.242 103.181 207.927 103.181Z" fill="black"/>
<g filter="url(#filter8_d)">
<path d="M250 91C250 88.2386 252.239 86 255 86H413C415.761 86 418 88.2386 418 91V114C418 116.761 415.761 119 413 119H255C252.239 119 250 116.761 250 114V91Z" fill="white"/>
</g>
<path d="M333 109.316C337.034 109.316 339.908 107.049 339.908 103.858V103.832C339.908 101.485 338.26 99.5342 335.821 98.9673V98.9146C337.904 98.2686 339.223 96.6865 339.223 94.6826V94.6562C339.223 91.7822 336.599 89.6597 333 89.6597C329.401 89.6597 326.777 91.7822 326.777 94.6562V94.6826C326.777 96.6865 328.096 98.2686 330.179 98.9146V98.9673C327.74 99.5342 326.092 101.485 326.092 103.832V103.858C326.092 107.049 328.966 109.316 333 109.316ZM333 98.0312C330.706 98.0312 329.137 96.7261 329.137 94.8804V94.854C329.137 93.0083 330.706 91.7031 333 91.7031C335.294 91.7031 336.863 93.0083 336.863 94.854V94.8804C336.863 96.7261 335.294 98.0312 333 98.0312ZM333 107.247C330.376 107.247 328.504 105.77 328.504 103.713V103.687C328.504 101.604 330.363 100.114 333 100.114C335.637 100.114 337.496 101.604 337.496 103.687V103.713C337.496 105.77 335.624 107.247 333 107.247Z" fill="black"/>
<path d="M352.563 103H354.038V97.1699H356.152V95.9541H350.449V97.1699H352.563V103ZM362.405 103.181C364.222 103.181 365.354 102.131 365.354 100.568V95.9541H363.88V100.437C363.88 101.35 363.353 101.931 362.405 101.931C361.458 101.931 360.926 101.35 360.926 100.437V95.9541H359.451V100.568C359.451 102.136 360.599 103.181 362.405 103.181ZM370.909 103H372.726L375.074 95.9541H373.414L371.861 101.359H371.773L370.216 95.9541H368.561L370.909 103Z" fill="black"/>
<g filter="url(#filter9_d)">
<path d="M424 91C424 88.2386 426.239 86 429 86H584C586.761 86 589 88.2386 589 91V114C589 116.761 586.761 119 584 119H429C426.239 119 424 116.761 424 114V91Z" fill="white"/>
</g>
<path d="M505.75 89.5278C501.913 89.5278 499.092 92.2832 499.092 96.0801V96.1064C499.092 99.7583 501.755 102.474 505.328 102.474C507.898 102.474 509.691 101.09 510.39 99.5342H510.641C510.588 103.7 509.204 107.326 505.618 107.326C503.693 107.326 502.361 106.337 501.781 104.742L501.729 104.597H499.342L499.382 104.768C500.028 107.576 502.401 109.448 505.591 109.448C510.206 109.448 512.908 105.651 512.908 99.165V99.1387C512.908 91.98 509.23 89.5278 505.75 89.5278ZM505.736 100.404C503.271 100.404 501.478 98.585 501.478 96.0537V96.0273C501.478 93.562 503.39 91.624 505.776 91.624C508.188 91.624 510.074 93.6016 510.074 96.1064V96.1196C510.074 98.5981 508.202 100.404 505.736 100.404Z" fill="black"/>
<path d="M525.295 103H526.687L528.005 98.2539H528.083L529.416 103H530.798L532.668 95.9541H531.145L530.056 100.988H529.978L528.669 95.9541H527.424L526.14 100.988H526.062L524.963 95.9541H523.43L525.295 103ZM535.527 103H537.119L538.657 100.529H538.706L540.249 103H541.929L539.653 99.4795V99.46L541.963 95.9541H540.312L538.828 98.4932H538.77L537.275 95.9541H535.537L537.764 99.4355V99.4502L535.527 103ZM547.195 103H548.67V100.368L551.126 95.9541H549.529L547.981 98.918H547.894L546.341 95.9541H544.744L547.195 100.368V103ZM554.132 103H559.571V101.784H555.938V101.696L559.474 96.9111V95.9541H554.215V97.1699H557.677V97.2578L554.132 102.038V103Z" fill="black"/>
<g filter="url(#filter10_d)">
<path d="M250 131C250 128.239 252.239 126 255 126H413C415.761 126 418 128.239 418 131V154C418 156.761 415.761 159 413 159H255C252.239 159 250 156.761 250 154V131Z" fill="white"/>
</g>
<path d="M332.987 149.448C337.192 149.448 339.724 145.612 339.724 139.495V139.468C339.724 133.351 337.192 129.528 332.987 129.528C328.781 129.528 326.276 133.351 326.276 139.468V139.495C326.276 145.612 328.781 149.448 332.987 149.448ZM332.987 147.378C330.258 147.378 328.663 144.346 328.663 139.495V139.468C328.663 134.617 330.258 131.611 332.987 131.611C335.716 131.611 337.337 134.617 337.337 139.468V139.495C337.337 144.346 335.716 147.378 332.987 147.378Z" fill="black"/>
<path d="M508.214 139.525C507.922 139.232 507.922 138.757 508.214 138.464C508.507 138.172 508.982 138.172 509.275 138.464L511.75 140.939L514.225 138.464C514.518 138.172 514.993 138.172 515.286 138.464C515.578 138.757 515.578 139.232 515.286 139.525L512.811 142L515.286 144.475C515.578 144.768 515.578 145.243 515.286 145.536C514.993 145.828 514.518 145.828 514.225 145.536L511.75 143.061L509.275 145.536C508.982 145.828 508.507 145.828 508.214 145.536C507.922 145.243 507.922 144.768 508.214 144.475L510.689 142L508.214 139.525Z" fill="black"/>
<path fill-rule="evenodd" clip-rule="evenodd" d="M505.121 134.379L497.5 142L505.121 149.621C505.684 150.184 506.447 150.5 507.243 150.5H517.5C519.157 150.5 520.5 149.157 520.5 147.5V136.5C520.5 134.843 519.157 133.5 517.5 133.5H507.243C506.447 133.5 505.684 133.816 505.121 134.379ZM517.5 149.2H507.243C506.792 149.2 506.359 149.021 506.041 148.702L499.339 142L506.041 135.298C506.359 134.979 506.792 134.8 507.243 134.8H517.5C518.439 134.8 519.2 135.561 519.2 136.5V147.5C519.2 148.439 518.439 149.2 517.5 149.2Z" fill="black"/>
<path fill-rule="evenodd" clip-rule="evenodd" d="M143 146V140H137V139H143V133H144V139H150V140H144V146H143ZM157.817 144.879L160.634 140H155V139H160.634L157.817 134.12L158.683 133.62L161.5 138.5L164.317 133.62L165.183 134.12L162.365 139H168V140H162.366L165.183 144.879L164.317 145.379L161.5 140.5L158.683 145.379L157.817 144.879ZM177 147V142H173V141H177V138H173V137H177V134H178V137H181V134H182V137H186V138H182V141H186V142H182V147H181V142H178V147H177ZM181 141V138H178V141H181Z" fill="black"/>
<defs>
<filter id="filter0_b" x="-70" y="-70" width="807" height="302" filterUnits="userSpaceOnUse" color-interpolation-filters="sRGB">
<feFlood flood-opacity="0" result="BackgroundImageFix"/>
<feGaussianBlur in="BackgroundImage" stdDeviation="35"/>
<feComposite in2="SourceAlpha" operator="in" result="effect1_backgroundBlur"/>
<feBlend mode="normal" in="SourceGraphic" in2="effect1_backgroundBlur" result="shape"/>
</filter>
<filter id="filter1_d" x="78" y="6" width="166" height="34" filterUnits="userSpaceOnUse" color-interpolation-filters="sRGB">
<feFlood flood-opacity="0" result="BackgroundImageFix"/>
<feColorMatrix in="SourceAlpha" type="matrix" values="0 0 0 0 0 0 0 0 0 0 0 0 0 0 0 0 0 0 127 0" result="hardAlpha"/>
<feOffset dy="1"/>
<feColorMatrix type="matrix" values="0 0 0 0 0 0 0 0 0 0 0 0 0 0 0 0 0 0 0.3 0"/>
<feBlend mode="normal" in2="BackgroundImageFix" result="effect1_dropShadow"/>
<feBlend mode="normal" in="SourceGraphic" in2="effect1_dropShadow" result="shape"/>
</filter>
<filter id="filter2_d" x="250" y="6" width="168" height="34" filterUnits="userSpaceOnUse" color-interpolation-filters="sRGB">
<feFlood flood-opacity="0" result="BackgroundImageFix"/>
<feColorMatrix in="SourceAlpha" type="matrix" values="0 0 0 0 0 0 0 0 0 0 0 0 0 0 0 0 0 0 127 0" result="hardAlpha"/>
<feOffset dy="1"/>
<feColorMatrix type="matrix" values="0 0 0 0 0 0 0 0 0 0 0 0 0 0 0 0 0 0 0.3 0"/>
<feBlend mode="normal" in2="BackgroundImageFix" result="effect1_dropShadow"/>
<feBlend mode="normal" in="SourceGraphic" in2="effect1_dropShadow" result="shape"/>
</filter>
<filter id="filter3_d" x="424" y="6" width="165" height="34" filterUnits="userSpaceOnUse" color-interpolation-filters="sRGB">
<feFlood flood-opacity="0" result="BackgroundImageFix"/>
<feColorMatrix in="SourceAlpha" type="matrix" values="0 0 0 0 0 0 0 0 0 0 0 0 0 0 0 0 0 0 127 0" result="hardAlpha"/>
<feOffset dy="1"/>
<feColorMatrix type="matrix" values="0 0 0 0 0 0 0 0 0 0 0 0 0 0 0 0 0 0 0.3 0"/>
<feBlend mode="normal" in2="BackgroundImageFix" result="effect1_dropShadow"/>
<feBlend mode="normal" in="SourceGraphic" in2="effect1_dropShadow" result="shape"/>
</filter>
<filter id="filter4_d" x="78" y="46" width="166" height="34" filterUnits="userSpaceOnUse" color-interpolation-filters="sRGB">
<feFlood flood-opacity="0" result="BackgroundImageFix"/>
<feColorMatrix in="SourceAlpha" type="matrix" values="0 0 0 0 0 0 0 0 0 0 0 0 0 0 0 0 0 0 127 0" result="hardAlpha"/>
<feOffset dy="1"/>
<feColorMatrix type="matrix" values="0 0 0 0 0 0 0 0 0 0 0 0 0 0 0 0 0 0 0.3 0"/>
<feBlend mode="normal" in2="BackgroundImageFix" result="effect1_dropShadow"/>
<feBlend mode="normal" in="SourceGraphic" in2="effect1_dropShadow" result="shape"/>
</filter>
<filter id="filter5_d" x="250" y="46" width="168" height="34" filterUnits="userSpaceOnUse" color-interpolation-filters="sRGB">
<feFlood flood-opacity="0" result="BackgroundImageFix"/>
<feColorMatrix in="SourceAlpha" type="matrix" values="0 0 0 0 0 0 0 0 0 0 0 0 0 0 0 0 0 0 127 0" result="hardAlpha"/>
<feOffset dy="1"/>
<feColorMatrix type="matrix" values="0 0 0 0 0 0 0 0 0 0 0 0 0 0 0 0 0 0 0.3 0"/>
<feBlend mode="normal" in2="BackgroundImageFix" result="effect1_dropShadow"/>
<feBlend mode="normal" in="SourceGraphic" in2="effect1_dropShadow" result="shape"/>
</filter>
<filter id="filter6_d" x="424" y="46" width="165" height="34" filterUnits="userSpaceOnUse" color-interpolation-filters="sRGB">
<feFlood flood-opacity="0" result="BackgroundImageFix"/>
<feColorMatrix in="SourceAlpha" type="matrix" values="0 0 0 0 0 0 0 0 0 0 0 0 0 0 0 0 0 0 127 0" result="hardAlpha"/>
<feOffset dy="1"/>
<feColorMatrix type="matrix" values="0 0 0 0 0 0 0 0 0 0 0 0 0 0 0 0 0 0 0.3 0"/>
<feBlend mode="normal" in2="BackgroundImageFix" result="effect1_dropShadow"/>
<feBlend mode="normal" in="SourceGraphic" in2="effect1_dropShadow" result="shape"/>
</filter>
<filter id="filter7_d" x="78" y="86" width="166" height="34" filterUnits="userSpaceOnUse" color-interpolation-filters="sRGB">
<feFlood flood-opacity="0" result="BackgroundImageFix"/>
<feColorMatrix in="SourceAlpha" type="matrix" values="0 0 0 0 0 0 0 0 0 0 0 0 0 0 0 0 0 0 127 0" result="hardAlpha"/>
<feOffset dy="1"/>
<feColorMatrix type="matrix" values="0 0 0 0 0 0 0 0 0 0 0 0 0 0 0 0 0 0 0.3 0"/>
<feBlend mode="normal" in2="BackgroundImageFix" result="effect1_dropShadow"/>
<feBlend mode="normal" in="SourceGraphic" in2="effect1_dropShadow" result="shape"/>
</filter>
<filter id="filter8_d" x="250" y="86" width="168" height="34" filterUnits="userSpaceOnUse" color-interpolation-filters="sRGB">
<feFlood flood-opacity="0" result="BackgroundImageFix"/>
<feColorMatrix in="SourceAlpha" type="matrix" values="0 0 0 0 0 0 0 0 0 0 0 0 0 0 0 0 0 0 127 0" result="hardAlpha"/>
<feOffset dy="1"/>
<feColorMatrix type="matrix" values="0 0 0 0 0 0 0 0 0 0 0 0 0 0 0 0 0 0 0.3 0"/>
<feBlend mode="normal" in2="BackgroundImageFix" result="effect1_dropShadow"/>
<feBlend mode="normal" in="SourceGraphic" in2="effect1_dropShadow" result="shape"/>
</filter>
<filter id="filter9_d" x="424" y="86" width="165" height="34" filterUnits="userSpaceOnUse" color-interpolation-filters="sRGB">
<feFlood flood-opacity="0" result="BackgroundImageFix"/>
<feColorMatrix in="SourceAlpha" type="matrix" values="0 0 0 0 0 0 0 0 0 0 0 0 0 0 0 0 0 0 127 0" result="hardAlpha"/>
<feOffset dy="1"/>
<feColorMatrix type="matrix" values="0 0 0 0 0 0 0 0 0 0 0 0 0 0 0 0 0 0 0.3 0"/>
<feBlend mode="normal" in2="BackgroundImageFix" result="effect1_dropShadow"/>
<feBlend mode="normal" in="SourceGraphic" in2="effect1_dropShadow" result="shape"/>
</filter>
<filter id="filter10_d" x="250" y="126" width="168" height="34" filterUnits="userSpaceOnUse" color-interpolation-filters="sRGB">
<feFlood flood-opacity="0" result="BackgroundImageFix"/>
<feColorMatrix in="SourceAlpha" type="matrix" values="0 0 0 0 0 0 0 0 0 0 0 0 0 0 0 0 0 0 127 0" result="hardAlpha"/>
<feOffset dy="1"/>
<feColorMatrix type="matrix" values="0 0 0 0 0 0 0 0 0 0 0 0 0 0 0 0 0 0 0.3 0"/>
<feBlend mode="normal" in2="BackgroundImageFix" result="effect1_dropShadow"/>
<feBlend mode="normal" in="SourceGraphic" in2="effect1_dropShadow" result="shape"/>
</filter>
</defs>
</svg>
