<svg width="667" height="184" viewBox="0 0 667 184" fill="none" xmlns="http://www.w3.org/2000/svg">
<g filter="url(#filter0_b)">
<rect width="667" height="184" fill="#CED2D9" fill-opacity="0.7"/>
</g>
<g filter="url(#filter1_d)">
<path d="M76 11C76 8.23858 78.2386 6 81 6H239C241.761 6 244 8.23858 244 11V31C244 33.7614 241.761 36 239 36H81C78.2386 36 76 33.7614 76 31V11Z" fill="white"/>
</g>
<path d="M160.014 29H162.387V9.97607H160.027L154.965 13.6147V16.1196L159.803 12.6128H160.014V29Z" fill="black"/>
<g filter="url(#filter2_d)">
<path d="M250 11C250 8.23858 252.239 6 255 6H413C415.761 6 418 8.23858 418 11V31C418 33.7614 415.761 36 413 36H255C252.239 36 250 33.7614 250 31V11Z" fill="white"/>
</g>
<path d="M327.475 29H339.789V26.8643H330.771V26.6533L335.095 22.1841C338.536 18.6377 339.472 17.0557 339.472 14.8804V14.854C339.472 11.7822 336.928 9.52783 333.605 9.52783C329.967 9.52783 327.356 11.9536 327.343 15.3286L327.37 15.3418L329.637 15.355L329.65 15.3286C329.65 13.0874 331.167 11.5977 333.447 11.5977C335.688 11.5977 337.046 13.1006 337.046 15.1045V15.1309C337.046 16.792 336.334 17.7808 333.909 20.4043L327.475 27.3652V29Z" fill="black"/>
<path d="M350.352 23H351.899L352.422 21.291H354.907L355.43 23H356.982L354.531 15.9541H352.798L350.352 23ZM353.623 17.3604H353.711L354.57 20.1875H352.759L353.623 17.3604ZM360.179 23H363.343C364.847 23 365.779 22.2236 365.779 20.9883V20.9785C365.779 20.0752 365.101 19.377 364.168 19.3037V19.2158C364.891 19.1084 365.442 18.459 365.442 17.7168V17.707C365.442 16.623 364.627 15.9541 363.26 15.9541H360.179V23ZM362.884 17.0479C363.587 17.0479 363.992 17.3896 363.992 17.9609V17.9707C363.992 18.5518 363.558 18.8838 362.762 18.8838H361.653V17.0479H362.884ZM362.933 19.8555C363.802 19.8555 364.275 20.207 364.275 20.8613V20.8711C364.275 21.54 363.816 21.9014 362.967 21.9014H361.653V19.8555H362.933ZM372.105 23.1807C373.805 23.1807 375.011 22.1748 375.162 20.7002L375.167 20.6465H373.731L373.722 20.6855C373.565 21.4375 372.955 21.9307 372.11 21.9307C370.997 21.9307 370.309 20.9932 370.309 19.4795V19.4697C370.309 17.9561 370.997 17.0234 372.105 17.0234C372.945 17.0234 373.575 17.5605 373.727 18.3516V18.3857H375.162V18.3271C375.025 16.8379 373.775 15.7734 372.105 15.7734C370.06 15.7734 368.8 17.1846 368.8 19.4697V19.4795C368.8 21.7646 370.064 23.1807 372.105 23.1807Z" fill="black"/>
<g filter="url(#filter3_d)">
<path d="M424 11C424 8.23858 426.239 6 429 6H587C589.761 6 592 8.23858 592 11V31C592 33.7614 589.761 36 587 36H429C426.239 36 424 33.7614 424 31V11Z" fill="white"/>
</g>
<path d="M507.632 29.3164C511.442 29.3164 514.237 26.9697 514.237 23.7925V23.7661C514.237 21.0635 512.352 19.3364 509.583 19.0991V19.0464C511.956 18.5454 513.617 16.937 513.617 14.5903V14.564C513.617 11.6768 511.231 9.65967 507.605 9.65967C504.046 9.65967 501.594 11.7295 501.291 14.8276L501.277 14.9595H503.558L503.571 14.8276C503.769 12.9028 505.364 11.7163 507.605 11.7163C509.926 11.7163 511.231 12.8633 511.231 14.854V14.8804C511.231 16.7788 509.649 18.1763 507.381 18.1763H505.101V20.1802H507.487C510.15 20.1802 511.824 21.4854 511.824 23.8188V23.8452C511.824 25.8623 510.124 27.2598 507.632 27.2598C505.101 27.2598 503.374 25.9678 503.189 24.0957L503.176 23.9639H500.895L500.908 24.1221C501.159 27.1279 503.703 29.3164 507.632 29.3164Z" fill="black"/>
<path d="M524.854 23H527.628C529.737 23 530.934 21.7109 530.934 19.4355V19.4258C530.934 17.2188 529.723 15.9541 527.628 15.9541H524.854V23ZM526.329 21.7842V17.1699H527.394C528.673 17.1699 529.43 18 529.43 19.4502V19.46C529.43 20.9639 528.697 21.7842 527.394 21.7842H526.329ZM534.335 23H539.003V21.7842H535.81V20.002H538.822V18.8691H535.81V17.1699H539.003V15.9541H534.335V23ZM542.556 23H544.03V20.2266H546.896V19.0596H544.03V17.1699H547.17V15.9541H542.556V23Z" fill="black"/>
<g filter="url(#filter4_d)">
<path d="M76 48C76 45.2386 78.2386 43 81 43H239C241.761 43 244 45.2386 244 48V69C244 71.7614 241.761 74 239 74H81C78.2386 74 76 71.7614 76 69V48Z" fill="white"/>
</g>
<path d="M161.123 66H163.443V62.0581H166.146V59.9355H163.443V46.9761H160.002C157.339 50.9443 154.425 55.585 151.854 59.896V62.0581H161.123V66ZM154.28 59.9487V59.7905C156.35 56.2969 158.842 52.3682 160.978 49.1777H161.136V59.9487H154.28Z" fill="black"/>
<path d="M179.921 60.1807C181.845 60.1807 183.046 59.0088 183.046 57.1387V56.2451H180.087V57.3193H181.61L181.605 57.4512C181.576 58.3398 180.912 58.9307 179.945 58.9307C178.783 58.9307 178.046 57.9883 178.046 56.46V56.4502C178.046 54.9512 178.749 54.0234 179.887 54.0234C180.712 54.0234 181.312 54.4385 181.513 55.1367L181.522 55.1855H182.987L182.978 55.1367C182.768 53.7305 181.552 52.7734 179.887 52.7734C177.836 52.7734 176.542 54.2041 176.542 56.4648V56.4746C176.542 58.7695 177.826 60.1807 179.921 60.1807ZM186.462 60H187.937V57.0312H191.11V60H192.585V52.9541H191.11V55.8154H187.937V52.9541H186.462V60ZM196.294 60H197.769V52.9541H196.294V60Z" fill="black"/>
<g filter="url(#filter5_d)">
<path d="M250 48C250 45.2386 252.239 43 255 43H413C415.761 43 418 45.2386 418 48V69C418 71.7614 415.761 74 413 74H255C252.239 74 250 71.7614 250 69V48Z" fill="white"/>
</g>
<path d="M333.526 66.4482C337.389 66.4482 340.145 63.772 340.145 59.9355V59.9092C340.145 56.231 337.574 53.5547 334.001 53.5547C332.274 53.5547 330.784 54.2534 329.94 55.5322H329.729L330.375 49.0986H339.09V46.9761H328.503L327.501 57.9053H329.558C329.795 57.457 330.099 57.0879 330.428 56.7715C331.246 55.9937 332.327 55.6113 333.592 55.6113C336.058 55.6113 337.824 57.4175 337.824 59.9487V59.9751C337.824 62.5459 336.084 64.3521 333.553 64.3521C331.325 64.3521 329.677 62.9019 329.453 61.0825L329.439 60.9771H327.159L327.172 61.1221C327.449 64.1675 329.98 66.4482 333.526 66.4482Z" fill="black"/>
<path d="M352.749 60.1807C354.272 60.1807 355.156 59.3164 355.156 57.832V52.9541H353.682V57.8223C353.682 58.5303 353.354 58.9062 352.729 58.9062C352.153 58.9062 351.831 58.5254 351.802 57.9834V57.9541H350.371V57.9932C350.41 59.3164 351.294 60.1807 352.749 60.1807ZM358.87 60H360.345V57.8467L361.043 57.0068L363.089 60H364.856L362.107 56.04L364.676 52.9541H363.035L360.433 56.1182H360.345V52.9541H358.87V60ZM367.97 60H372.579V58.7842H369.444V52.9541H367.97V60Z" fill="black"/>
<g filter="url(#filter6_d)">
<path d="M424 48C424 45.2386 426.239 43 429 43H587C589.761 43 592 45.2386 592 48V69C592 71.7614 589.761 74 587 74H429C426.239 74 424 71.7614 424 69V48Z" fill="white"/>
</g>
<path d="M507.25 66.4482C511.087 66.4482 513.908 63.6929 513.908 59.896V59.8696C513.908 56.2178 511.245 53.502 507.672 53.502C505.102 53.502 503.309 54.8862 502.61 56.4419H502.359C502.412 52.2759 503.796 48.6504 507.382 48.6504C509.307 48.6504 510.639 49.6392 511.219 51.2344L511.271 51.3794H513.658L513.618 51.208C512.972 48.3999 510.599 46.5278 507.409 46.5278C502.794 46.5278 500.092 50.3247 500.092 56.811V56.8374C500.092 63.9961 503.77 66.4482 507.25 66.4482ZM502.926 59.8696V59.8564C502.926 57.3779 504.798 55.5718 507.264 55.5718C509.729 55.5718 511.522 57.3911 511.522 59.9224V59.9487C511.522 62.4141 509.61 64.3521 507.224 64.3521C504.812 64.3521 502.926 62.3745 502.926 59.8696Z" fill="black"/>
<path d="M524.854 60H526.168V55.2051H526.266L528.072 60H528.995L530.802 55.2051H530.899V60H532.213V52.9541H530.523L528.58 58.1104H528.492L526.544 52.9541H524.854V60ZM535.927 60H537.338V55.4932H537.416L540.678 60H541.898V52.9541H540.487V57.4414H540.409L537.157 52.9541H535.927V60ZM548.693 60.1807C550.773 60.1807 552.082 58.7549 552.082 56.4795V56.4697C552.082 54.1943 550.769 52.7734 548.693 52.7734C546.618 52.7734 545.3 54.1895 545.3 56.4697V56.4795C545.3 58.7549 546.599 60.1807 548.693 60.1807ZM548.693 58.9307C547.531 58.9307 546.804 57.9688 546.804 56.4795V56.4697C546.804 54.9756 547.546 54.0234 548.693 54.0234C549.836 54.0234 550.578 54.9756 550.578 56.4697V56.4795C550.578 57.9688 549.841 58.9307 548.693 58.9307Z" fill="black"/>
<g filter="url(#filter7_d)">
<path d="M76 86C76 83.2386 78.2386 81 81 81H239C241.761 81 244 83.2386 244 86V106C244 108.761 241.761 111 239 111H81C78.2386 111 76 108.761 76 106V86Z" fill="white"/>
</g>
<path d="M154.228 104H156.719L165.183 87.1777V84.9761H152.593V87.0986H162.771V87.2832L154.228 104Z" fill="black"/>
<path d="M176.854 98H178.329V95.7783H179.76C181.244 95.7783 182.235 94.8213 182.235 93.3711V93.3613C182.235 91.9111 181.244 90.9541 179.76 90.9541H176.854V98ZM179.398 92.1211C180.243 92.1211 180.741 92.5654 180.741 93.3662V93.376C180.741 94.1768 180.243 94.626 179.398 94.626H178.329V92.1211H179.398ZM188.674 98.1807C189.128 98.1807 189.548 98.1123 189.924 97.9805L190.461 98.6982H191.833L190.886 97.4336C191.638 96.7988 192.062 95.7783 192.062 94.4795V94.4697C192.062 92.1943 190.749 90.7734 188.674 90.7734C186.599 90.7734 185.28 92.1895 185.28 94.4697V94.4795C185.28 96.7549 186.579 98.1807 188.674 98.1807ZM188.674 96.9307C187.512 96.9307 186.784 95.9688 186.784 94.4795V94.4697C186.784 92.9756 187.526 92.0234 188.674 92.0234C189.816 92.0234 190.559 92.9756 190.559 94.4697V94.4795C190.559 95.2412 190.363 95.8613 190.021 96.291L189.567 95.6807H188.195L189.099 96.8818C188.962 96.916 188.82 96.9307 188.674 96.9307ZM195.464 98H196.938V95.4219H198.145L199.458 98H201.128L199.644 95.2021C200.449 94.8848 200.918 94.1084 200.918 93.2051V93.1953C200.918 91.8086 200 90.9541 198.398 90.9541H195.464V98ZM196.938 94.3477V92.1064H198.218C198.955 92.1064 199.409 92.5459 199.409 93.2246V93.2344C199.409 93.9277 198.975 94.3477 198.237 94.3477H196.938ZM206.927 98.1807C208.685 98.1807 209.769 97.2969 209.769 95.9004V95.8955C209.769 94.7969 209.119 94.2012 207.63 93.8936L206.883 93.7422C206.053 93.5713 205.711 93.2979 205.711 92.8389V92.834C205.711 92.3066 206.194 91.9746 206.922 91.9697C207.664 91.9697 208.152 92.3213 208.235 92.8242L208.245 92.8828H209.632L209.627 92.8193C209.534 91.6426 208.567 90.7734 206.922 90.7734C205.359 90.7734 204.236 91.6377 204.236 92.9463V92.9512C204.236 94.0205 204.866 94.7041 206.331 95.002L207.073 95.1533C207.947 95.334 208.294 95.5928 208.294 96.0566V96.0615C208.294 96.6035 207.752 96.9795 206.966 96.9795C206.141 96.9795 205.569 96.623 205.516 96.0957L205.511 96.0469H204.09L204.095 96.125C204.178 97.375 205.242 98.1807 206.927 98.1807Z" fill="black"/>
<g filter="url(#filter8_d)">
<path d="M250 86C250 83.2386 252.239 81 255 81H413C415.761 81 418 83.2386 418 86V106C418 108.761 415.761 111 413 111H255C252.239 111 250 108.761 250 106V86Z" fill="white"/>
</g>
<path d="M333 104.316C337.034 104.316 339.908 102.049 339.908 98.8584V98.832C339.908 96.4854 338.26 94.5342 335.821 93.9673V93.9146C337.904 93.2686 339.223 91.6865 339.223 89.6826V89.6562C339.223 86.7822 336.599 84.6597 333 84.6597C329.401 84.6597 326.777 86.7822 326.777 89.6562V89.6826C326.777 91.6865 328.096 93.2686 330.179 93.9146V93.9673C327.74 94.5342 326.092 96.4854 326.092 98.832V98.8584C326.092 102.049 328.966 104.316 333 104.316ZM333 93.0312C330.706 93.0312 329.137 91.7261 329.137 89.8804V89.854C329.137 88.0083 330.706 86.7031 333 86.7031C335.294 86.7031 336.863 88.0083 336.863 89.854V89.8804C336.863 91.7261 335.294 93.0312 333 93.0312ZM333 102.247C330.376 102.247 328.504 100.77 328.504 98.7134V98.687C328.504 96.604 330.363 95.1143 333 95.1143C335.637 95.1143 337.496 96.604 337.496 98.687V98.7134C337.496 100.77 335.624 102.247 333 102.247Z" fill="black"/>
<path d="M352.563 98H354.038V92.1699H356.152V90.9541H350.449V92.1699H352.563V98ZM362.405 98.1807C364.222 98.1807 365.354 97.1309 365.354 95.5684V90.9541H363.88V95.4365C363.88 96.3496 363.353 96.9307 362.405 96.9307C361.458 96.9307 360.926 96.3496 360.926 95.4365V90.9541H359.451V95.5684C359.451 97.1357 360.599 98.1807 362.405 98.1807ZM370.909 98H372.726L375.074 90.9541H373.414L371.861 96.3594H371.773L370.216 90.9541H368.561L370.909 98Z" fill="black"/>
<g filter="url(#filter9_d)">
<path d="M424 86C424 83.2386 426.239 81 429 81H587C589.761 81 592 83.2386 592 86V106C592 108.761 589.761 111 587 111H429C426.239 111 424 108.761 424 106V86Z" fill="white"/>
</g>
<path d="M506.75 84.5278C502.913 84.5278 500.092 87.2832 500.092 91.0801V91.1064C500.092 94.7583 502.755 97.4741 506.328 97.4741C508.898 97.4741 510.691 96.0898 511.39 94.5342H511.641C511.588 98.7002 510.204 102.326 506.618 102.326C504.693 102.326 503.361 101.337 502.781 99.7417L502.729 99.5967H500.342L500.382 99.7681C501.028 102.576 503.401 104.448 506.591 104.448C511.206 104.448 513.908 100.651 513.908 94.165V94.1387C513.908 86.98 510.23 84.5278 506.75 84.5278ZM506.736 95.4043C504.271 95.4043 502.478 93.585 502.478 91.0537V91.0273C502.478 88.562 504.39 86.624 506.776 86.624C509.188 86.624 511.074 88.6016 511.074 91.1064V91.1196C511.074 93.5981 509.202 95.4043 506.736 95.4043Z" fill="black"/>
<path d="M526.295 98H527.687L529.005 93.2539H529.083L530.416 98H531.798L533.668 90.9541H532.145L531.056 95.9883H530.978L529.669 90.9541H528.424L527.14 95.9883H527.062L525.963 90.9541H524.43L526.295 98ZM536.527 98H538.119L539.657 95.5293H539.706L541.249 98H542.929L540.653 94.4795V94.46L542.963 90.9541H541.312L539.828 93.4932H539.77L538.275 90.9541H536.537L538.764 94.4355V94.4502L536.527 98ZM548.195 98H549.67V95.3682L552.126 90.9541H550.529L548.981 93.918H548.894L547.341 90.9541H545.744L548.195 95.3682V98ZM555.132 98H560.571V96.7842H556.938V96.6963L560.474 91.9111V90.9541H555.215V92.1699H558.677V92.2578L555.132 97.0381V98Z" fill="black"/>
<g filter="url(#filter10_d)">
<path d="M250 124C250 121.239 252.239 119 255 119H413C415.761 119 418 121.239 418 124V144C418 146.761 415.761 149 413 149H255C252.239 149 250 146.761 250 144V124Z" fill="white"/>
</g>
<path d="M332.987 142.448C337.192 142.448 339.724 138.612 339.724 132.495V132.468C339.724 126.351 337.192 122.528 332.987 122.528C328.781 122.528 326.276 126.351 326.276 132.468V132.495C326.276 138.612 328.781 142.448 332.987 142.448ZM332.987 140.378C330.258 140.378 328.663 137.346 328.663 132.495V132.468C328.663 127.617 330.258 124.611 332.987 124.611C335.716 124.611 337.337 127.617 337.337 132.468V132.495C337.337 137.346 335.716 140.378 332.987 140.378Z" fill="black"/>
<path d="M510.214 130.525C509.922 130.232 509.922 129.757 510.214 129.464C510.507 129.172 510.982 129.172 511.275 129.464L513.75 131.939L516.225 129.464C516.518 129.172 516.993 129.172 517.286 129.464C517.578 129.757 517.578 130.232 517.286 130.525L514.811 133L517.286 135.475C517.578 135.768 517.578 136.243 517.286 136.536C516.993 136.828 516.518 136.828 516.225 136.536L513.75 134.061L511.275 136.536C510.982 136.828 510.507 136.828 510.214 136.536C509.922 136.243 509.922 135.768 510.214 135.475L512.689 133L510.214 130.525Z" fill="black"/>
<path fill-rule="evenodd" clip-rule="evenodd" d="M507.121 125.379L499.5 133L507.121 140.621C507.684 141.184 508.447 141.5 509.243 141.5H519.5C521.157 141.5 522.5 140.157 522.5 138.5V127.5C522.5 125.843 521.157 124.5 519.5 124.5H509.243C508.447 124.5 507.684 124.816 507.121 125.379ZM519.5 140.2H509.243C508.792 140.2 508.359 140.021 508.041 139.702L501.339 133L508.041 126.298C508.359 125.979 508.792 125.8 509.243 125.8H519.5C520.439 125.8 521.2 126.561 521.2 127.5V138.5C521.2 139.439 520.439 140.2 519.5 140.2Z" fill="black"/>
<path fill-rule="evenodd" clip-rule="evenodd" d="M138 137V131H132V130H138V124H139V130H145V131H139V137H138ZM152.817 135.879L155.634 131H150V130H155.634L152.817 125.12L153.683 124.62L156.5 129.5L159.317 124.62L160.183 125.12L157.365 130H163V131H157.366L160.183 135.879L159.317 136.379L156.5 131.5L153.683 136.379L152.817 135.879ZM172 138V133H168V132H172V129H168V128H172V125H173V128H176V125H177V128H181V129H177V132H181V133H177V138H176V133H173V138H172ZM176 132V129H173V132H176Z" fill="black"/>
<rect x="231" y="171" width="208" height="5" rx="2.5" fill="black"/>
<defs>
<filter id="filter0_b" x="-70" y="-70" width="807" height="324" filterUnits="userSpaceOnUse" color-interpolation-filters="sRGB">
<feFlood flood-opacity="0" result="BackgroundImageFix"/>
<feGaussianBlur in="BackgroundImage" stdDeviation="35"/>
<feComposite in2="SourceAlpha" operator="in" result="effect1_backgroundBlur"/>
<feBlend mode="normal" in="SourceGraphic" in2="effect1_backgroundBlur" result="shape"/>
</filter>
<filter id="filter1_d" x="76" y="6" width="168" height="31" filterUnits="userSpaceOnUse" color-interpolation-filters="sRGB">
<feFlood flood-opacity="0" result="BackgroundImageFix"/>
<feColorMatrix in="SourceAlpha" type="matrix" values="0 0 0 0 0 0 0 0 0 0 0 0 0 0 0 0 0 0 127 0" result="hardAlpha"/>
<feOffset dy="1"/>
<feColorMatrix type="matrix" values="0 0 0 0 0 0 0 0 0 0 0 0 0 0 0 0 0 0 0.3 0"/>
<feBlend mode="normal" in2="BackgroundImageFix" result="effect1_dropShadow"/>
<feBlend mode="normal" in="SourceGraphic" in2="effect1_dropShadow" result="shape"/>
</filter>
<filter id="filter2_d" x="250" y="6" width="168" height="31" filterUnits="userSpaceOnUse" color-interpolation-filters="sRGB">
<feFlood flood-opacity="0" result="BackgroundImageFix"/>
<feColorMatrix in="SourceAlpha" type="matrix" values="0 0 0 0 0 0 0 0 0 0 0 0 0 0 0 0 0 0 127 0" result="hardAlpha"/>
<feOffset dy="1"/>
<feColorMatrix type="matrix" values="0 0 0 0 0 0 0 0 0 0 0 0 0 0 0 0 0 0 0.3 0"/>
<feBlend mode="normal" in2="BackgroundImageFix" result="effect1_dropShadow"/>
<feBlend mode="normal" in="SourceGraphic" in2="effect1_dropShadow" result="shape"/>
</filter>
<filter id="filter3_d" x="424" y="6" width="168" height="31" filterUnits="userSpaceOnUse" color-interpolation-filters="sRGB">
<feFlood flood-opacity="0" result="BackgroundImageFix"/>
<feColorMatrix in="SourceAlpha" type="matrix" values="0 0 0 0 0 0 0 0 0 0 0 0 0 0 0 0 0 0 127 0" result="hardAlpha"/>
<feOffset dy="1"/>
<feColorMatrix type="matrix" values="0 0 0 0 0 0 0 0 0 0 0 0 0 0 0 0 0 0 0.3 0"/>
<feBlend mode="normal" in2="BackgroundImageFix" result="effect1_dropShadow"/>
<feBlend mode="normal" in="SourceGraphic" in2="effect1_dropShadow" result="shape"/>
</filter>
<filter id="filter4_d" x="76" y="43" width="168" height="32" filterUnits="userSpaceOnUse" color-interpolation-filters="sRGB">
<feFlood flood-opacity="0" result="BackgroundImageFix"/>
<feColorMatrix in="SourceAlpha" type="matrix" values="0 0 0 0 0 0 0 0 0 0 0 0 0 0 0 0 0 0 127 0" result="hardAlpha"/>
<feOffset dy="1"/>
<feColorMatrix type="matrix" values="0 0 0 0 0 0 0 0 0 0 0 0 0 0 0 0 0 0 0.3 0"/>
<feBlend mode="normal" in2="BackgroundImageFix" result="effect1_dropShadow"/>
<feBlend mode="normal" in="SourceGraphic" in2="effect1_dropShadow" result="shape"/>
</filter>
<filter id="filter5_d" x="250" y="43" width="168" height="32" filterUnits="userSpaceOnUse" color-interpolation-filters="sRGB">
<feFlood flood-opacity="0" result="BackgroundImageFix"/>
<feColorMatrix in="SourceAlpha" type="matrix" values="0 0 0 0 0 0 0 0 0 0 0 0 0 0 0 0 0 0 127 0" result="hardAlpha"/>
<feOffset dy="1"/>
<feColorMatrix type="matrix" values="0 0 0 0 0 0 0 0 0 0 0 0 0 0 0 0 0 0 0.3 0"/>
<feBlend mode="normal" in2="BackgroundImageFix" result="effect1_dropShadow"/>
<feBlend mode="normal" in="SourceGraphic" in2="effect1_dropShadow" result="shape"/>
</filter>
<filter id="filter6_d" x="424" y="43" width="168" height="32" filterUnits="userSpaceOnUse" color-interpolation-filters="sRGB">
<feFlood flood-opacity="0" result="BackgroundImageFix"/>
<feColorMatrix in="SourceAlpha" type="matrix" values="0 0 0 0 0 0 0 0 0 0 0 0 0 0 0 0 0 0 127 0" result="hardAlpha"/>
<feOffset dy="1"/>
<feColorMatrix type="matrix" values="0 0 0 0 0 0 0 0 0 0 0 0 0 0 0 0 0 0 0.3 0"/>
<feBlend mode="normal" in2="BackgroundImageFix" result="effect1_dropShadow"/>
<feBlend mode="normal" in="SourceGraphic" in2="effect1_dropShadow" result="shape"/>
</filter>
<filter id="filter7_d" x="76" y="81" width="168" height="31" filterUnits="userSpaceOnUse" color-interpolation-filters="sRGB">
<feFlood flood-opacity="0" result="BackgroundImageFix"/>
<feColorMatrix in="SourceAlpha" type="matrix" values="0 0 0 0 0 0 0 0 0 0 0 0 0 0 0 0 0 0 127 0" result="hardAlpha"/>
<feOffset dy="1"/>
<feColorMatrix type="matrix" values="0 0 0 0 0 0 0 0 0 0 0 0 0 0 0 0 0 0 0.3 0"/>
<feBlend mode="normal" in2="BackgroundImageFix" result="effect1_dropShadow"/>
<feBlend mode="normal" in="SourceGraphic" in2="effect1_dropShadow" result="shape"/>
</filter>
<filter id="filter8_d" x="250" y="81" width="168" height="31" filterUnits="userSpaceOnUse" color-interpolation-filters="sRGB">
<feFlood flood-opacity="0" result="BackgroundImageFix"/>
<feColorMatrix in="SourceAlpha" type="matrix" values="0 0 0 0 0 0 0 0 0 0 0 0 0 0 0 0 0 0 127 0" result="hardAlpha"/>
<feOffset dy="1"/>
<feColorMatrix type="matrix" values="0 0 0 0 0 0 0 0 0 0 0 0 0 0 0 0 0 0 0.3 0"/>
<feBlend mode="normal" in2="BackgroundImageFix" result="effect1_dropShadow"/>
<feBlend mode="normal" in="SourceGraphic" in2="effect1_dropShadow" result="shape"/>
</filter>
<filter id="filter9_d" x="424" y="81" width="168" height="31" filterUnits="userSpaceOnUse" color-interpolation-filters="sRGB">
<feFlood flood-opacity="0" result="BackgroundImageFix"/>
<feColorMatrix in="SourceAlpha" type="matrix" values="0 0 0 0 0 0 0 0 0 0 0 0 0 0 0 0 0 0 127 0" result="hardAlpha"/>
<feOffset dy="1"/>
<feColorMatrix type="matrix" values="0 0 0 0 0 0 0 0 0 0 0 0 0 0 0 0 0 0 0.3 0"/>
<feBlend mode="normal" in2="BackgroundImageFix" result="effect1_dropShadow"/>
<feBlend mode="normal" in="SourceGraphic" in2="effect1_dropShadow" result="shape"/>
</filter>
<filter id="filter10_d" x="250" y="119" width="168" height="31" filterUnits="userSpaceOnUse" color-interpolation-filters="sRGB">
<feFlood flood-opacity="0" result="BackgroundImageFix"/>
<feColorMatrix in="SourceAlpha" type="matrix" values="0 0 0 0 0 0 0 0 0 0 0 0 0 0 0 0 0 0 127 0" result="hardAlpha"/>
<feOffset dy="1"/>
<feColorMatrix type="matrix" values="0 0 0 0 0 0 0 0 0 0 0 0 0 0 0 0 0 0 0.3 0"/>
<feBlend mode="normal" in2="BackgroundImageFix" result="effect1_dropShadow"/>
<feBlend mode="normal" in="SourceGraphic" in2="effect1_dropShadow" result="shape"/>
</filter>
</defs>
</svg>
