<svg width="203" height="81" viewBox="0 0 203 81" fill="none" xmlns="http://www.w3.org/2000/svg">
<g filter="url(#filter0_d)">
<path d="M0 9C0 4.02944 4.02944 0 9 0H194C198.971 0 203 4.02944 203 9V71C203 75.9706 198.971 80 194 80H8.99999C4.02943 80 0 75.9706 0 71V9Z" fill="#0F77F0"/>
<path d="M154.496 64.1855C156.889 64.1855 158.715 62.8867 158.715 61.0117V60.9922C158.715 59.4883 157.758 58.6289 155.775 58.1504L154.154 57.7598C152.914 57.457 152.387 57.0078 152.387 56.2949V56.2754C152.387 55.3477 153.305 54.7031 154.555 54.7031C155.824 54.7031 156.645 55.2793 156.869 56.1094H158.539C158.305 54.3906 156.771 53.2871 154.564 53.2871C152.328 53.2871 150.648 54.6055 150.648 56.3535V56.3633C150.648 57.877 151.537 58.7363 153.51 59.2051L155.141 59.5957C156.439 59.9082 156.977 60.4062 156.977 61.1191V61.1387C156.977 62.0957 155.971 62.7695 154.555 62.7695C153.207 62.7695 152.367 62.1934 152.084 61.3145H150.346C150.541 63.0527 152.152 64.1855 154.496 64.1855ZM160.849 64H162.548V57.7695C162.548 55.9238 163.613 54.791 165.293 54.791C166.972 54.791 167.754 55.6992 167.754 57.5938V64H169.453V57.1836C169.453 54.6836 168.134 53.2871 165.771 53.2871C164.218 53.2871 163.232 53.9414 162.705 55.0547H162.548V49.293H160.849V64ZM172.827 51.4414C173.472 51.4414 173.999 50.9141 173.999 50.2695C173.999 49.625 173.472 49.0977 172.827 49.0977C172.183 49.0977 171.655 49.625 171.655 50.2695C171.655 50.9141 172.183 51.4414 172.827 51.4414ZM171.968 64H173.667V53.4727H171.968V64ZM176.973 64H178.673V54.8789H181.065V53.4727H178.673V52.3496C178.673 51.1973 179.161 50.6016 180.372 50.6016C180.675 50.6016 180.958 50.6113 181.163 50.6504V49.293C180.811 49.2246 180.44 49.1953 180.03 49.1953C178.028 49.1953 176.973 50.2012 176.973 52.3008V53.4727H175.225V54.8789H176.973V64ZM186.657 64.0781C186.989 64.0781 187.311 64.0391 187.643 63.9805V62.5352C187.33 62.5645 187.164 62.5742 186.862 62.5742C185.768 62.5742 185.338 62.0762 185.338 60.8359V54.8789H187.643V53.4727H185.338V50.748H183.58V53.4727H181.92V54.8789H183.58V61.2656C183.58 63.2773 184.489 64.0781 186.657 64.0781Z" fill="white"/>
</g>
<defs>
<filter id="filter0_d" x="0" y="0" width="203" height="81" filterUnits="userSpaceOnUse" color-interpolation-filters="sRGB">
<feFlood flood-opacity="0" result="BackgroundImageFix"/>
<feColorMatrix in="SourceAlpha" type="matrix" values="0 0 0 0 0 0 0 0 0 0 0 0 0 0 0 0 0 0 127 0" result="hardAlpha"/>
<feOffset dy="1"/>
<feColorMatrix type="matrix" values="0 0 0 0 0 0 0 0 0 0 0 0 0 0 0 0 0 0 0.3 0"/>
<feBlend mode="normal" in2="BackgroundImageFix" result="effect1_dropShadow"/>
<feBlend mode="normal" in="SourceGraphic" in2="effect1_dropShadow" result="shape"/>
</filter>
</defs>
</svg>
