<svg width="76" height="76" viewBox="0 0 76 76" fill="none" xmlns="http://www.w3.org/2000/svg">
<g filter="url(#filter0_d)">
<path d="M0 9C0 4.02944 4.02944 0 9 0H67C71.9706 0 76 4.02944 76 9V66C76 70.9706 71.9706 75 67 75H9C4.02944 75 0 70.9706 0 66V9Z" fill="#0F77F0"/>
<path d="M15.3102 44.1025C16.0484 44.1025 16.6432 43.4976 16.6432 42.7695C16.6432 42.0312 16.0484 41.4365 15.3102 41.4365C14.5821 41.4365 13.9771 42.0312 13.9771 42.7695C13.9771 43.4976 14.5821 44.1025 15.3102 44.1025ZM19.0377 33.0693H20.7911C20.9039 31.603 21.8882 30.6904 23.4366 30.6904C24.9644 30.6904 25.9488 31.6235 25.9488 32.895C25.9488 33.9922 25.4874 34.6382 24.2979 35.3662C22.8931 36.207 22.2369 37.1299 22.2471 38.4834V39.4268H24.0416V38.7603C24.0416 37.6836 24.4107 37.1094 25.7129 36.3403C27.0254 35.5508 27.856 34.4126 27.856 32.8027C27.856 30.6904 26.0923 29.0908 23.5084 29.0908C20.627 29.0908 19.1504 30.8545 19.0377 33.0693ZM23.2828 44.1846C24.1133 44.1846 24.6978 43.5898 24.6978 42.7593C24.6978 41.9185 24.1133 41.3237 23.2828 41.3237C22.4522 41.3237 21.8575 41.9185 21.8575 42.7593C21.8575 43.5898 22.4522 44.1846 23.2828 44.1846ZM33.9624 44H35.8081V29.2036H33.9727L30.0352 32.0337V33.9819L33.7984 31.2544H33.9624V44ZM39.9253 33.377H41.7095C41.7095 31.6235 42.8887 30.4648 44.6626 30.4648C46.4057 30.4648 47.4619 31.6338 47.4619 33.2026C47.4619 34.5049 46.9082 35.2739 45.0215 37.3145L40.0176 42.7285V44H49.5947V42.3389H42.581V42.1748L45.9443 38.6987C48.6103 35.9404 49.3486 34.71 49.3486 33.0078C49.3486 30.6084 47.3696 28.855 44.7856 28.855C41.9555 28.855 39.9253 30.7417 39.9253 33.377ZM55.6088 37.1812H57.4443C59.5258 37.1812 60.8076 38.2476 60.8076 39.96C60.8076 41.6211 59.4233 42.7388 57.475 42.7388C55.5678 42.7388 54.2348 41.7441 54.0707 40.1855H52.2866C52.4199 42.6978 54.4911 44.3486 57.4955 44.3486C60.4384 44.3486 62.7045 42.4927 62.7045 40.0112C62.7045 37.9502 61.433 36.6479 59.5156 36.3403V36.1763C61.0331 35.7354 62.1406 34.5562 62.1508 32.772C62.1611 30.7007 60.4794 28.855 57.5571 28.855C54.5629 28.855 52.7275 30.6289 52.5429 33.0386H54.3373C54.4911 31.3774 55.6498 30.4648 57.434 30.4648C59.2182 30.4648 60.2744 31.5928 60.2744 32.9771C60.2744 34.5151 59.0644 35.6021 57.3622 35.6021H55.6088V37.1812Z" fill="white"/>
</g>
<defs>
<filter id="filter0_d" x="0" y="0" width="76" height="76" filterUnits="userSpaceOnUse" color-interpolation-filters="sRGB">
<feFlood flood-opacity="0" result="BackgroundImageFix"/>
<feColorMatrix in="SourceAlpha" type="matrix" values="0 0 0 0 0 0 0 0 0 0 0 0 0 0 0 0 0 0 127 0" result="hardAlpha"/>
<feOffset dy="1"/>
<feColorMatrix type="matrix" values="0 0 0 0 0 0 0 0 0 0 0 0 0 0 0 0 0 0 0.3 0"/>
<feBlend mode="normal" in2="BackgroundImageFix" result="effect1_dropShadow"/>
<feBlend mode="normal" in="SourceGraphic" in2="effect1_dropShadow" result="shape"/>
</filter>
</defs>
</svg>
