<svg width="667" height="179" viewBox="0 0 667 179" fill="none" xmlns="http://www.w3.org/2000/svg">
<g filter="url(#filter0_b)">
<rect width="667" height="179" fill="#CED2D9" fill-opacity="0.9"/>
<g filter="url(#filter1_b)">
<g filter="url(#filter2_d)">
<path d="M155 91C155 88.2386 157.239 86 160 86H196C198.761 86 201 88.2386 201 91V114C201 116.761 198.761 119 196 119H160C157.239 119 155 116.761 155 114V91Z" fill="white"/>
<path d="M173.195 110H182.793V108.699H175.059V108.559L182.77 98.5625V97.3789H173.207V98.6797H180.93V98.8203L173.195 108.828V110Z" fill="black"/>
</g>
<g filter="url(#filter3_d)">
<path d="M207 91C207 88.2386 209.239 86 212 86H248C250.761 86 253 88.2386 253 91V114C253 116.761 250.761 119 248 119H212C209.239 119 207 116.761 207 114V91Z" fill="white"/>
<path d="M224.703 110H226.461L229.906 104.844H230.047L233.48 110H235.32L230.844 103.59L235.273 97.3789H233.504L230.105 102.418H229.953L226.52 97.3789H224.68L229.156 103.648L224.703 110Z" fill="black"/>
</g>
<g filter="url(#filter4_d)">
<path d="M259 91C259 88.2386 261.239 86 264 86H300C302.761 86 305 88.2386 305 91V114C305 116.761 302.761 119 300 119H264C261.239 119 259 116.761 259 114V91Z" fill="white"/>
<path d="M282.328 110.211C285.211 110.211 286.969 108.676 287.461 106.449L287.484 106.355L285.938 106.367L285.914 106.426C285.469 107.949 284.18 108.828 282.316 108.828C279.82 108.828 278.215 106.801 278.215 103.66V103.637C278.215 100.531 279.809 98.5508 282.316 98.5508C284.25 98.5508 285.562 99.6172 285.938 101.07L285.949 101.105L287.484 101.094V101.047C287.098 98.832 285.211 97.168 282.316 97.168C278.836 97.168 276.633 99.6992 276.633 103.637V103.66C276.633 107.656 278.848 110.211 282.328 110.211Z" fill="black"/>
</g>
<g filter="url(#filter5_d)">
<path d="M311 91C311 88.2386 313.239 86 316 86H352C354.761 86 357 88.2386 357 91V114C357 116.761 354.761 119 352 119H316C313.239 119 311 116.761 311 114V91Z" fill="white"/>
<path d="M333.18 110H334.82L339.531 97.3789H337.879L334.07 108.324H333.93L330.109 97.3789H328.469L333.18 110Z" fill="black"/>
</g>
<g filter="url(#filter6_d)">
<path d="M363 91C363 88.2386 365.239 86 368 86H404C406.761 86 409 88.2386 409 91V114C409 116.761 406.761 119 404 119H368C365.239 119 363 116.761 363 114V91Z" fill="white"/>
<path d="M386.691 110.211C389.879 110.211 392 107.598 392 103.695V103.672C392 99.7461 389.891 97.168 386.691 97.168C384.781 97.168 383.152 98.1992 382.461 99.8281H382.309V92.3516H380.762V110H382.309V107.48H382.461C383.188 109.18 384.758 110.211 386.691 110.211ZM386.375 108.828C383.891 108.828 382.285 106.801 382.285 103.695V103.672C382.285 100.566 383.891 98.5508 386.375 98.5508C388.859 98.5508 390.418 100.531 390.418 103.66V103.684C390.418 106.824 388.859 108.828 386.375 108.828Z" fill="black"/>
</g>
<g filter="url(#filter7_d)">
<path d="M415 91C415 88.2386 417.239 86 420 86H456C458.761 86 461 88.2386 461 91V114C461 116.761 458.761 119 456 119H420C417.239 119 415 116.761 415 114V91Z" fill="white"/>
<path d="M432.996 110H434.543V102.5C434.543 100.121 436.055 98.5508 438.281 98.5508C440.473 98.5508 441.562 99.7812 441.562 102.184V110H443.109V101.797C443.109 98.8555 441.504 97.168 438.691 97.168C436.723 97.168 435.363 98.0703 434.695 99.5938H434.543V97.3789H432.996V110Z" fill="black"/>
</g>
<g filter="url(#filter8_d)">
<path d="M467 91C467 88.2386 469.239 86 472 86H508C510.761 86 513 88.2386 513 91V114C513 116.761 510.761 119 508 119H472C469.239 119 467 116.761 467 114V91Z" fill="white"/>
<path d="M481.598 110H483.145V102.254C483.145 100.191 484.551 98.5508 486.379 98.5508C488.125 98.5508 489.273 99.7344 489.273 101.551V110H490.82V101.996C490.82 100.039 492.121 98.5508 494.066 98.5508C495.965 98.5508 496.961 99.6523 496.961 101.715V110H498.52V101.363C498.52 98.6914 497.055 97.168 494.523 97.168C492.707 97.168 491.23 98.1406 490.586 99.6523H490.434C489.895 98.1406 488.629 97.168 486.859 97.168C485.137 97.168 483.836 98.0938 483.297 99.6055H483.145V97.3789H481.598V110Z" fill="black"/>
</g>
<g filter="url(#filter9_d)">
<path d="M102 51C102 48.2386 104.239 46 107 46H144C146.761 46 149 48.2386 149 51V74C149 76.7614 146.761 79 144 79H107C104.239 79 102 76.7614 102 74V51Z" fill="white"/>
<path d="M124.363 70.2109C126.227 70.2109 127.738 69.332 128.488 67.832H128.629V70H130.188V61.375C130.188 58.7148 128.465 57.168 125.512 57.168C122.898 57.168 120.988 58.457 120.66 60.4727L120.648 60.5195H122.207L122.219 60.4961C122.547 59.2422 123.754 58.5508 125.465 58.5508C127.504 58.5508 128.629 59.5352 128.629 61.3867V62.5703L124.691 62.8281C121.773 63.0273 120.145 64.3047 120.145 66.4961V66.5195C120.145 68.7695 121.926 70.2109 124.363 70.2109ZM121.727 66.4961V66.4727C121.727 65.043 122.758 64.2344 124.902 64.0938L128.629 63.8359V65.3008C128.629 67.3047 126.918 68.8516 124.656 68.8516C122.957 68.8516 121.727 67.9375 121.727 66.4961Z" fill="black"/>
</g>
<g filter="url(#filter10_d)">
<path d="M155 51C155 48.2386 157.239 46 160 46H195C197.761 46 200 48.2386 200 51V74C200 76.7614 197.761 79 195 79H160C157.239 79 155 76.7614 155 74V51Z" fill="white"/>
<path d="M177.523 70.2109C180.277 70.2109 182.398 68.6875 182.398 66.5195V66.4961C182.398 64.6797 181.215 63.6953 178.777 63.1094L177.031 62.6992C175.355 62.3008 174.582 61.7031 174.582 60.6719V60.6484C174.582 59.3945 175.883 58.4688 177.535 58.4688C179.211 58.4688 180.383 59.2656 180.664 60.4375H182.188C181.895 58.4453 180.09 57.168 177.547 57.168C175.004 57.168 173 58.6797 173 60.7188V60.7305C173 62.5 174.09 63.4727 176.434 64.0234L178.191 64.4453C180.031 64.8789 180.816 65.5234 180.816 66.6133V66.6367C180.816 67.9492 179.422 68.8984 177.57 68.8984C175.742 68.8984 174.535 68.0898 174.195 66.8359H172.602C172.859 68.8984 174.77 70.2109 177.523 70.2109Z" fill="black"/>
</g>
<g filter="url(#filter11_d)">
<path d="M206 51C206 48.2386 208.239 46 211 46H248C250.761 46 253 48.2386 253 51V74C253 76.7614 250.761 79 248 79H211C208.239 79 206 76.7614 206 74V51Z" fill="white"/>
<path d="M228.82 70.2109C230.766 70.2109 232.324 69.1797 233.062 67.4805H233.203V70H234.762V52.3516H233.203V59.8398H233.062C232.359 58.2109 230.73 57.168 228.82 57.168C225.621 57.168 223.488 59.7695 223.488 63.6836V63.707C223.488 67.5977 225.633 70.2109 228.82 70.2109ZM229.148 68.8281C226.652 68.8281 225.07 66.8242 225.07 63.6953V63.6719C225.07 60.5547 226.652 58.5508 229.148 58.5508C231.633 58.5508 233.238 60.5664 233.238 63.6719V63.6953C233.238 66.8125 231.633 68.8281 229.148 68.8281Z" fill="black"/>
</g>
<g filter="url(#filter12_d)">
<path d="M259 51C259 48.2386 261.239 46 264 46H300C302.761 46 305 48.2386 305 51V74C305 76.7614 302.761 79 300 79H264C261.239 79 259 76.7614 259 74V51Z" fill="white"/>
<path d="M280.617 70H282.176V58.6797H285.129V57.3789H282.176V55.7969C282.176 54.332 282.844 53.5352 284.297 53.5352C284.66 53.5352 285.012 53.5586 285.246 53.5938V52.3398C284.859 52.2695 284.473 52.2344 284.016 52.2344C281.812 52.2344 280.617 53.418 280.617 55.7617V57.3789H278.52V58.6797H280.617V70Z" fill="black"/>
</g>
<g filter="url(#filter13_d)">
<path d="M311 51C311 48.2386 313.239 46 316 46H352C354.761 46 357 48.2386 357 51V74C357 76.7614 354.761 79 352 79H316C313.239 79 311 76.7614 311 74V51Z" fill="white"/>
<path d="M333.824 74.4062C337.141 74.4062 339.309 72.6016 339.309 69.8477V57.3789H337.75V59.9336H337.645C336.918 58.2461 335.359 57.168 333.414 57.168C330.156 57.168 328.07 59.7461 328.07 63.3555V63.3789C328.07 67 330.145 69.543 333.391 69.543C335.324 69.543 336.871 68.582 337.621 66.918H337.773V69.7422C337.773 71.7812 336.262 73.0234 333.824 73.0234C331.902 73.0234 330.59 72.2617 330.309 71.1602L330.297 71.1484H328.691L328.68 71.1602C329.008 73.1172 330.93 74.4062 333.824 74.4062ZM333.695 68.1602C331.176 68.1602 329.652 66.2031 329.652 63.3789V63.3555C329.652 60.5312 331.176 58.5508 333.695 58.5508C336.191 58.5508 337.797 60.5547 337.797 63.3789V63.4023C337.797 66.2266 336.227 68.1602 333.695 68.1602Z" fill="black"/>
</g>
<g filter="url(#filter14_d)">
<path d="M363 51C363 48.2386 365.239 46 368 46H404C406.761 46 409 48.2386 409 51V74C409 76.7614 406.761 79 404 79H368C365.239 79 363 76.7614 363 74V51Z" fill="white"/>
<path d="M381.055 70H382.602V62.5C382.602 60.1211 384.113 58.5508 386.34 58.5508C388.52 58.5508 389.621 59.7812 389.621 62.1836V70H391.168V61.7969C391.168 58.8555 389.562 57.168 386.75 57.168C384.781 57.168 383.422 58.0586 382.754 59.5938H382.602V52.3516H381.055V70Z" fill="black"/>
</g>
<g filter="url(#filter15_d)">
<path d="M415 51C415 48.2386 417.239 46 420 46H457C459.761 46 462 48.2386 462 51V74C462 76.7614 459.761 79 457 79H420C417.239 79 415 76.7614 415 74V51Z" fill="white"/>
<path d="M438.488 54.7539C439.121 54.7539 439.637 54.25 439.637 53.6172C439.637 52.9844 439.121 52.4805 438.488 52.4805C437.867 52.4805 437.352 52.9844 437.352 53.6172C437.352 54.25 437.867 54.7539 438.488 54.7539ZM435.711 74.3008C438.09 74.3008 439.262 73.2695 439.262 70.7969V57.3789H437.715V70.832C437.715 72.3438 437.117 72.918 435.676 72.918H435.43V74.3008H435.711Z" fill="black"/>
</g>
<g filter="url(#filter16_d)">
<path d="M468 51C468 48.2386 470.239 46 473 46H508C510.761 46 513 48.2386 513 51V74C513 76.7614 510.761 79 508 79H473C470.239 79 468 76.7614 468 74V51Z" fill="white"/>
<path d="M486.199 70H487.746V65.1016L489.164 63.7656L494.25 70H496.219L490.277 62.7227L495.961 57.3789H494.039L487.898 63.2852H487.746V52.3516H486.199V70Z" fill="black"/>
</g>
<g filter="url(#filter17_d)">
<path d="M519 51C519 48.2386 521.239 46 524 46H561C563.761 46 566 48.2386 566 51V74C566 76.7614 563.761 79 561 79H524C521.239 79 519 76.7614 519 74V51Z" fill="white"/>
<path d="M541.727 70H543.273V52.3516H541.727V70Z" fill="black"/>
</g>
<g filter="url(#filter18_d)">
<path d="M76 11C76 8.23858 78.2386 6 81 6H117C119.761 6 122 8.23858 122 11V34C122 36.7614 119.761 39 117 39H81C78.2386 39 76 36.7614 76 34V11Z" fill="white"/>
<path d="M102.773 34.1836H104.32V17.3789H102.773V19.957H102.656C101.883 18.2461 100.277 17.168 98.3789 17.168C95.1797 17.168 93.0703 19.7578 93.0703 23.6719V23.6953C93.0703 27.6094 95.1914 30.2109 98.3789 30.2109C100.336 30.2109 101.93 29.2266 102.621 27.5977H102.773V34.1836ZM98.707 28.8281C96.2227 28.8281 94.6523 26.8359 94.6523 23.707V23.6836C94.6523 20.543 96.2227 18.5508 98.6953 18.5508C101.18 18.5508 102.809 20.5781 102.809 23.6836V23.6953C102.809 26.7891 101.18 28.8281 98.707 28.8281Z" fill="black"/>
</g>
<g filter="url(#filter19_d)">
<path d="M129 11C129 8.23858 131.239 6 134 6H168C170.761 6 173 8.23858 173 11V34C173 36.7614 170.761 39 168 39H134C131.239 39 129 36.7614 129 34V11Z" fill="white"/>
<path d="M146.184 30H147.801L150.906 19.5234H151.059L154.164 30H155.793L159.391 17.3789H157.844L155.02 28.0898H154.879L151.762 17.3789H150.227L147.109 28.0898H146.969L144.168 17.3789H142.609L146.184 30Z" fill="black"/>
</g>
<g filter="url(#filter20_d)">
<path d="M180 11C180 8.23858 182.239 6 185 6H221C223.761 6 226 8.23858 226 11V34C226 36.7614 223.761 39 221 39H185C182.239 39 180 36.7614 180 34V11Z" fill="white"/>
<path d="M203.188 30.2109C205.977 30.2109 207.816 28.6875 208.309 26.9766L208.344 26.8828H206.785L206.738 26.9648C206.328 27.9492 205.062 28.8164 203.223 28.8164C200.715 28.8164 199.098 27.0469 199.051 24.0938H208.531V23.4375C208.531 19.6992 206.445 17.168 203.059 17.168C199.672 17.168 197.469 19.7695 197.469 23.707V23.7305C197.469 27.6914 199.648 30.2109 203.188 30.2109ZM203.059 18.5508C205.227 18.5508 206.785 20.0273 206.961 22.8281H199.062C199.262 20.0977 200.879 18.5508 203.059 18.5508Z" fill="black"/>
</g>
<g filter="url(#filter21_d)">
<path d="M233 11C233 8.23858 235.239 6 238 6H273C275.761 6 278 8.23858 278 11V34C278 36.7614 275.761 39 273 39H238C235.239 39 233 36.7614 233 34V11Z" fill="white"/>
<path d="M253.004 30H254.551V22.125C254.551 20.0859 256.004 18.6445 257.973 18.6445C258.453 18.6445 258.863 18.6914 259.32 18.8086V17.2852C259.016 17.2148 258.594 17.168 258.137 17.168C256.426 17.168 255.195 18.0117 254.703 19.4531H254.551V17.3789H253.004V30Z" fill="black"/>
</g>
<g filter="url(#filter22_d)">
<path d="M285 11C285 8.23858 287.239 6 290 6H325C327.761 6 330 8.23858 330 11V34C330 36.7614 327.761 39 325 39H290C287.239 39 285 36.7614 285 34V11Z" fill="white"/>
<path d="M309.41 30.082C309.785 30.082 310.137 30.0469 310.488 29.9883V28.6523C310.172 28.6875 309.938 28.6992 309.586 28.6992C308.156 28.6992 307.605 28.0547 307.605 26.5078V18.6797H310.488V17.3789H307.605V14.0977H306V17.3789H303.973V18.6797H306V26.8594C306 29.1562 306.996 30.082 309.41 30.082Z" fill="black"/>
</g>
<g filter="url(#filter23_d)">
<path d="M337 11C337 8.23858 339.239 6 342 6H378C380.761 6 383 8.23858 383 11V34C383 36.7614 380.761 39 378 39H342C339.239 39 337 36.7614 337 34V11Z" fill="white"/>
<path d="M356.52 34.3594C358.547 34.3594 359.508 33.5742 360.434 31.1016L365.531 17.3789H363.891L360.094 28.3242H359.93L356.121 17.3789H354.457L359.191 30.082L358.875 31.0312C358.359 32.543 357.645 33.0586 356.473 33.0586C356.262 33.0586 356.016 33.0586 355.828 33.0234V34.3125C356.051 34.3477 356.309 34.3594 356.52 34.3594Z" fill="black"/>
</g>
<g filter="url(#filter24_d)">
<path d="M390 11C390 8.23858 392.239 6 395 6H430C432.761 6 435 8.23858 435 11V34C435 36.7614 432.761 39 430 39H395C392.239 39 390 36.7614 390 34V11Z" fill="white"/>
<path d="M411.82 30.2109C413.777 30.2109 415.195 29.3203 415.816 27.7969H415.957V30H417.504V17.3789H415.957V24.8789C415.957 27.2695 414.551 28.8281 412.195 28.8281C410.027 28.8281 408.938 27.5508 408.938 25.1953V17.3789H407.391V25.582C407.391 28.4766 408.984 30.2109 411.82 30.2109Z" fill="black"/>
</g>
<g filter="url(#filter25_d)">
<path d="M442 11C442 8.23858 444.239 6 447 6H483C485.761 6 488 8.23858 488 11V34C488 36.7614 485.761 39 483 39H447C444.239 39 442 36.7614 442 34V11Z" fill="white"/>
<path d="M465.012 14.7539C465.633 14.7539 466.148 14.25 466.148 13.6172C466.148 12.9844 465.633 12.4805 465.012 12.4805C464.379 12.4805 463.863 12.9844 463.863 13.6172C463.863 14.25 464.379 14.7539 465.012 14.7539ZM464.227 30H465.773V17.3789H464.227V30Z" fill="black"/>
</g>
<g filter="url(#filter26_d)">
<path d="M495 11C495 8.23858 497.239 6 500 6H534C536.761 6 539 8.23858 539 11V34C539 36.7614 536.761 39 534 39H500C497.239 39 495 36.7614 495 34V11Z" fill="white"/>
<path d="M517 30.2109C520.527 30.2109 522.742 27.7148 522.742 23.6953V23.6719C522.742 19.6523 520.527 17.168 517 17.168C513.473 17.168 511.27 19.6523 511.27 23.6719V23.6953C511.27 27.7148 513.473 30.2109 517 30.2109ZM517 28.8281C514.398 28.8281 512.852 26.8828 512.852 23.6953V23.6719C512.852 20.4844 514.398 18.5508 517 18.5508C519.602 18.5508 521.148 20.4844 521.148 23.6719V23.6953C521.148 26.8828 519.602 28.8281 517 28.8281Z" fill="black"/>
</g>
<g filter="url(#filter27_d)">
<path d="M546 11C546 8.23858 548.239 6 551 6H587C589.761 6 592 8.23858 592 11V34C592 36.7614 589.761 39 587 39H551C548.239 39 546 36.7614 546 34V11Z" fill="white"/>
<path d="M563.691 34.1836H565.238V27.5391H565.391C566.082 29.168 567.711 30.2109 569.621 30.2109C572.82 30.2109 574.965 27.6094 574.965 23.6953V23.6719C574.965 19.7812 572.82 17.168 569.621 17.168C567.688 17.168 566.129 18.1992 565.391 19.8867H565.238V17.3789H563.691V34.1836ZM569.305 28.8281C566.82 28.8281 565.215 26.8125 565.215 23.6953V23.6719C565.215 20.5664 566.82 18.5508 569.305 18.5508C571.801 18.5508 573.383 20.5547 573.383 23.6719V23.6953C573.383 26.8242 571.801 28.8281 569.305 28.8281Z" fill="black"/>
</g>
<g filter="url(#filter28_d)">
<path d="M528 91C528 88.2386 530.239 86 533 86H586C588.761 86 591 88.2386 591 91V113C591 115.761 588.761 118 586 118H533C530.239 118 528 115.761 528 113V91Z" fill="#AEB3BE"/>
<path d="M559.214 99.5251C558.922 99.2322 558.922 98.7574 559.214 98.4645C559.507 98.1716 559.982 98.1716 560.275 98.4645L562.75 100.939L565.225 98.4645C565.518 98.1716 565.993 98.1716 566.286 98.4645C566.578 98.7573 566.578 99.2322 566.286 99.5251L563.811 102L566.286 104.475C566.578 104.768 566.578 105.243 566.286 105.536C565.993 105.828 565.518 105.828 565.225 105.536L562.75 103.061L560.275 105.536C559.982 105.828 559.507 105.828 559.214 105.536C558.922 105.243 558.922 104.768 559.214 104.475L561.689 102L559.214 99.5251Z" fill="black"/>
<path fill-rule="evenodd" clip-rule="evenodd" d="M556.121 94.3787L548.5 102L556.121 109.621C556.684 110.184 557.447 110.5 558.243 110.5H568.5C570.157 110.5 571.5 109.157 571.5 107.5V96.5C571.5 94.8431 570.157 93.5 568.5 93.5H558.243C557.447 93.5 556.684 93.8161 556.121 94.3787ZM568.5 109.2H558.243C557.792 109.2 557.359 109.021 557.041 108.702L550.339 102L557.041 95.2979C557.359 94.9791 557.792 94.8 558.243 94.8H568.5C569.439 94.8 570.2 95.5611 570.2 96.5V107.5C570.2 108.439 569.439 109.2 568.5 109.2Z" fill="black"/>
</g>
<g filter="url(#filter29_d)">
<path d="M76 91C76 88.2386 78.2386 86 81 86H134C136.761 86 139 88.2386 139 91V114C139 116.761 136.761 119 134 119H81C78.2386 119 76 116.761 76 114V91Z" fill="#AEB3BE"/>
<path fill-rule="evenodd" clip-rule="evenodd" d="M105.036 103.242V109.249H110.963V103.242H114.874L108 96.1442L101.126 103.242H105.036ZM107.641 94.5021C107.838 94.2994 108.162 94.2994 108.359 94.5021L117.358 103.795C117.665 104.112 117.441 104.643 116.999 104.643H112.362V110.15C112.362 110.426 112.139 110.65 111.863 110.65H104.137C103.861 110.65 103.637 110.426 103.637 110.15V104.643H99.0007C98.5592 104.643 98.3346 104.112 98.642 103.795L107.641 94.5021Z" fill="black"/>
</g>
</g>
<path fill-rule="evenodd" clip-rule="evenodd" d="M37 153.125C29.7513 153.125 23.875 147.249 23.875 140C23.875 132.751 29.7513 126.875 37 126.875C44.2487 126.875 50.125 132.751 50.125 140C50.125 147.249 44.2487 153.125 37 153.125ZM37 151.812C43.5239 151.812 48.8125 146.524 48.8125 140C48.8125 133.476 43.5239 128.188 37 128.188C30.4761 128.188 25.1875 133.476 25.1875 140C25.1875 146.524 30.4761 151.812 37 151.812ZM36.9845 149.188C32.3068 149.188 27.8673 144.701 27.8673 141.459C27.8673 139.598 31.9103 141.837 36.9845 141.837C42.0586 141.837 46.1463 139.601 46.1327 141.459C46.1098 144.601 41.6622 149.188 36.9845 149.188ZM36.9845 145.053C41.3337 145.053 44.3424 143.372 44.3424 142.159C44.3424 140.947 41.3337 142.882 36.9845 142.882C32.6352 142.882 29.6765 141.179 29.6765 142.159C29.6765 143.139 32.6352 145.053 36.9845 145.053ZM33.0461 137.67C32.1853 137.67 31.4875 136.972 31.4875 136.112C31.4875 135.251 32.1853 134.553 33.0461 134.553C33.9069 134.553 34.6047 135.251 34.6047 136.112C34.6047 136.972 33.9069 137.67 33.0461 137.67ZM40.9211 137.67C40.0603 137.67 39.3625 136.972 39.3625 136.112C39.3625 135.251 40.0603 134.553 40.9211 134.553C41.7819 134.553 42.4797 135.251 42.4797 136.112C42.4797 136.972 41.7819 137.67 40.9211 137.67Z" fill="#50555C"/>
<path fill-rule="evenodd" clip-rule="evenodd" d="M629.998 126.875C627.677 126.875 625.787 128.759 625.787 131.084V140.83C625.787 143.155 627.672 145.039 629.998 145.039C632.319 145.039 634.209 143.155 634.209 140.83V131.084C634.209 128.759 632.323 126.875 629.998 126.875ZM627.592 131.078V140.836C627.592 142.15 628.669 143.234 629.998 143.234C631.336 143.234 632.404 142.16 632.404 140.836V131.078C632.404 129.764 631.327 128.68 629.998 128.68C628.66 128.68 627.592 129.754 627.592 131.078Z" fill="#50555C"/>
<path d="M630.984 150.007V147.49C635.578 147.228 637.547 143.46 637.547 139.778V138.08C637.548 138.067 637.548 138.053 637.547 138.04L637.547 138.02C637.547 137.521 637.14 137.117 636.641 137.117C636.143 137.117 635.749 137.521 635.749 138.02V139.777C635.749 143.459 634.266 145.98 630.066 145.98C626.391 145.98 624.258 143.459 624.258 139.777V138.08C624.258 137.581 623.854 137.177 623.355 137.177C622.857 137.177 622.453 137.581 622.453 138.08V139.778C622.453 143.464 625.078 147.228 629.147 147.49V150.007H625.765C625.273 150.007 624.859 150.411 624.859 150.91C624.859 151.412 625.265 151.812 625.765 151.812H634.266C634.757 151.812 635.184 151.408 635.184 150.91C635.184 150.408 634.766 150.007 634.266 150.007H630.984Z" fill="#50555C"/>
<rect x="230" y="166" width="208" height="5" rx="2.5" fill="black"/>
<g filter="url(#filter30_d)">
<path d="M211 131C211 128.239 213.239 126 216 126H454C456.761 126 459 128.239 459 131V152C459 154.761 456.761 157 454 157H216C213.239 157 211 154.761 211 152V131Z" fill="white"/>
<path d="M317.425 147.148C319.339 147.148 320.8 146.109 320.8 144.609V144.594C320.8 143.391 320.034 142.703 318.448 142.32L317.152 142.008C316.159 141.766 315.738 141.406 315.738 140.836V140.82C315.738 140.078 316.472 139.562 317.472 139.562C318.488 139.562 319.144 140.023 319.323 140.688H320.659C320.472 139.312 319.245 138.43 317.48 138.43C315.691 138.43 314.347 139.484 314.347 140.883V140.891C314.347 142.102 315.058 142.789 316.636 143.164L317.941 143.477C318.98 143.727 319.409 144.125 319.409 144.695V144.711C319.409 145.477 318.605 146.016 317.472 146.016C316.394 146.016 315.722 145.555 315.495 144.852H314.105C314.261 146.242 315.55 147.148 317.425 147.148ZM322.589 149.812H323.949V145.672H324.074C324.535 146.57 325.543 147.148 326.699 147.148C328.839 147.148 330.23 145.438 330.23 142.797V142.781C330.23 140.156 328.832 138.43 326.699 138.43C325.527 138.43 324.589 138.984 324.074 139.922H323.949V138.578H322.589V149.812ZM326.386 145.945C324.855 145.945 323.918 144.742 323.918 142.797V142.781C323.918 140.836 324.855 139.633 326.386 139.633C327.925 139.633 328.839 140.82 328.839 142.781V142.797C328.839 144.758 327.925 145.945 326.386 145.945ZM334.348 147.148C335.48 147.148 336.363 146.656 336.894 145.758H337.019V147H338.379V141.234C338.379 139.484 337.23 138.43 335.176 138.43C333.379 138.43 332.098 139.32 331.879 140.641L331.871 140.688H333.23L333.238 140.664C333.457 140.008 334.121 139.633 335.129 139.633C336.387 139.633 337.019 140.195 337.019 141.234V142L334.605 142.148C332.644 142.266 331.535 143.133 331.535 144.633V144.648C331.535 146.18 332.746 147.148 334.348 147.148ZM332.926 144.617V144.602C332.926 143.766 333.488 143.312 334.769 143.234L337.019 143.094V143.859C337.019 145.062 336.012 145.969 334.629 145.969C333.652 145.969 332.926 145.469 332.926 144.617ZM343.988 147.148C346.012 147.148 347.145 146.062 347.488 144.539L347.504 144.453L346.16 144.461L346.145 144.508C345.832 145.445 345.113 145.945 343.981 145.945C342.481 145.945 341.512 144.703 341.512 142.766V142.75C341.512 140.852 342.465 139.633 343.981 139.633C345.192 139.633 345.942 140.305 346.152 141.133L346.16 141.156H347.512L347.504 141.109C347.254 139.609 346.027 138.43 343.981 138.43C341.621 138.43 340.121 140.133 340.121 142.75V142.766C340.121 145.438 341.629 147.148 343.988 147.148ZM352.614 147.148C354.598 147.148 355.801 146.023 356.09 144.883L356.106 144.82H354.747L354.715 144.891C354.489 145.398 353.786 145.938 352.645 145.938C351.145 145.938 350.184 144.922 350.145 143.18H356.208V142.648C356.208 140.133 354.817 138.43 352.528 138.43C350.239 138.43 348.754 140.211 348.754 142.812V142.82C348.754 145.461 350.208 147.148 352.614 147.148ZM352.52 139.641C353.762 139.641 354.684 140.43 354.825 142.094H350.168C350.317 140.492 351.27 139.641 352.52 139.641Z" fill="black"/>
</g>
<g filter="url(#filter31_d)">
<path d="M466 131C466 128.239 468.239 126 471 126H586C588.761 126 591 128.239 591 131V152C591 154.761 588.761 157 586 157H471C468.239 157 466 154.761 466 152V131Z" fill="#AEB3BE"/>
<path d="M507.851 147H509.21V141.781C509.21 140.547 510.132 139.727 511.429 139.727C511.726 139.727 511.983 139.758 512.265 139.805V138.484C512.132 138.461 511.843 138.43 511.585 138.43C510.444 138.43 509.655 138.945 509.335 139.828H509.21V138.578H507.851V147ZM516.827 147.148C518.812 147.148 520.015 146.023 520.304 144.883L520.32 144.82H518.96L518.929 144.891C518.702 145.398 517.999 145.938 516.859 145.938C515.359 145.938 514.398 144.922 514.359 143.18H520.421V142.648C520.421 140.133 519.031 138.43 516.742 138.43C514.452 138.43 512.968 140.211 512.968 142.812V142.82C512.968 145.461 514.421 147.148 516.827 147.148ZM516.734 139.641C517.976 139.641 518.898 140.43 519.038 142.094H514.382C514.531 140.492 515.484 139.641 516.734 139.641ZM525.203 147.062C525.468 147.062 525.726 147.031 525.992 146.984V145.828C525.742 145.852 525.609 145.859 525.367 145.859C524.492 145.859 524.148 145.461 524.148 144.469V139.703H525.992V138.578H524.148V136.398H522.742V138.578H521.414V139.703H522.742V144.812C522.742 146.422 523.468 147.062 525.203 147.062ZM530.523 147.148C531.758 147.148 532.609 146.641 533.023 145.742H533.148V147H534.508V138.578H533.148V143.562C533.148 145.039 532.359 145.945 530.875 145.945C529.531 145.945 528.984 145.219 528.984 143.703V138.578H527.625V144.031C527.625 146.023 528.609 147.148 530.523 147.148ZM536.727 147H538.086V141.781C538.086 140.547 539.008 139.727 540.305 139.727C540.602 139.727 540.86 139.758 541.141 139.805V138.484C541.008 138.461 540.719 138.43 540.461 138.43C539.321 138.43 538.532 138.945 538.211 139.828H538.086V138.578H536.727V147ZM542.657 147H544.016V142.016C544.016 140.539 544.868 139.633 546.212 139.633C547.555 139.633 548.18 140.359 548.18 141.875V147H549.54V141.547C549.54 139.547 548.485 138.43 546.594 138.43C545.352 138.43 544.563 138.953 544.141 139.844H544.016V138.578H542.657V147Z" fill="black"/>
</g>
<g filter="url(#filter32_d)">
<path d="M76 131C76 128.239 78.2386 126 81 126H198C200.761 126 203 128.239 203 131V152C203 154.761 200.761 157 198 157H81C78.2386 157 76 154.761 76 152V131Z" fill="#AEB3BE"/>
<path d="M130.441 147H131.847V135.727H130.449L127.449 137.883V139.367L130.316 137.289H130.441V147ZM134.785 147H142.082V145.734H136.738V145.609L139.301 142.961C141.34 140.859 141.894 139.922 141.894 138.633V138.617C141.894 136.797 140.387 135.461 138.418 135.461C136.262 135.461 134.715 136.898 134.707 138.898L134.722 138.906L136.066 138.914L136.074 138.898C136.074 137.57 136.972 136.688 138.324 136.688C139.652 136.688 140.457 137.578 140.457 138.766V138.781C140.457 139.766 140.035 140.352 138.597 141.906L134.785 146.031V147ZM147.957 147.188C150.215 147.188 151.871 145.797 151.871 143.914V143.898C151.871 142.297 150.754 141.273 149.113 141.133V141.102C150.52 140.805 151.504 139.852 151.504 138.461V138.445C151.504 136.734 150.09 135.539 147.942 135.539C145.832 135.539 144.379 136.766 144.199 138.602L144.192 138.68H145.543L145.551 138.602C145.668 137.461 146.613 136.758 147.942 136.758C149.317 136.758 150.09 137.438 150.09 138.617V138.633C150.09 139.758 149.152 140.586 147.809 140.586H146.457V141.773H147.871C149.449 141.773 150.442 142.547 150.442 143.93V143.945C150.442 145.141 149.434 145.969 147.957 145.969C146.457 145.969 145.434 145.203 145.324 144.094L145.317 144.016H143.965L143.973 144.109C144.121 145.891 145.629 147.188 147.957 147.188Z" fill="black"/>
</g>
</g>
<defs>
<filter id="filter0_b" x="-70" y="-70" width="807" height="319" filterUnits="userSpaceOnUse" color-interpolation-filters="sRGB">
<feFlood flood-opacity="0" result="BackgroundImageFix"/>
<feGaussianBlur in="BackgroundImage" stdDeviation="35"/>
<feComposite in2="SourceAlpha" operator="in" result="effect1_backgroundBlur"/>
<feBlend mode="normal" in="SourceGraphic" in2="effect1_backgroundBlur" result="shape"/>
</filter>
<filter id="filter1_b" x="3" y="-70" width="661" height="263" filterUnits="userSpaceOnUse" color-interpolation-filters="sRGB">
<feFlood flood-opacity="0" result="BackgroundImageFix"/>
<feGaussianBlur in="BackgroundImage" stdDeviation="35"/>
<feComposite in2="SourceAlpha" operator="in" result="effect1_backgroundBlur"/>
<feBlend mode="normal" in="SourceGraphic" in2="effect1_backgroundBlur" result="shape"/>
</filter>
<filter id="filter2_d" x="155" y="86" width="46" height="34" filterUnits="userSpaceOnUse" color-interpolation-filters="sRGB">
<feFlood flood-opacity="0" result="BackgroundImageFix"/>
<feColorMatrix in="SourceAlpha" type="matrix" values="0 0 0 0 0 0 0 0 0 0 0 0 0 0 0 0 0 0 127 0" result="hardAlpha"/>
<feOffset dy="1"/>
<feColorMatrix type="matrix" values="0 0 0 0 0 0 0 0 0 0 0 0 0 0 0 0 0 0 0.3 0"/>
<feBlend mode="normal" in2="BackgroundImageFix" result="effect1_dropShadow"/>
<feBlend mode="normal" in="SourceGraphic" in2="effect1_dropShadow" result="shape"/>
</filter>
<filter id="filter3_d" x="207" y="86" width="46" height="34" filterUnits="userSpaceOnUse" color-interpolation-filters="sRGB">
<feFlood flood-opacity="0" result="BackgroundImageFix"/>
<feColorMatrix in="SourceAlpha" type="matrix" values="0 0 0 0 0 0 0 0 0 0 0 0 0 0 0 0 0 0 127 0" result="hardAlpha"/>
<feOffset dy="1"/>
<feColorMatrix type="matrix" values="0 0 0 0 0 0 0 0 0 0 0 0 0 0 0 0 0 0 0.3 0"/>
<feBlend mode="normal" in2="BackgroundImageFix" result="effect1_dropShadow"/>
<feBlend mode="normal" in="SourceGraphic" in2="effect1_dropShadow" result="shape"/>
</filter>
<filter id="filter4_d" x="259" y="86" width="46" height="34" filterUnits="userSpaceOnUse" color-interpolation-filters="sRGB">
<feFlood flood-opacity="0" result="BackgroundImageFix"/>
<feColorMatrix in="SourceAlpha" type="matrix" values="0 0 0 0 0 0 0 0 0 0 0 0 0 0 0 0 0 0 127 0" result="hardAlpha"/>
<feOffset dy="1"/>
<feColorMatrix type="matrix" values="0 0 0 0 0 0 0 0 0 0 0 0 0 0 0 0 0 0 0.3 0"/>
<feBlend mode="normal" in2="BackgroundImageFix" result="effect1_dropShadow"/>
<feBlend mode="normal" in="SourceGraphic" in2="effect1_dropShadow" result="shape"/>
</filter>
<filter id="filter5_d" x="311" y="86" width="46" height="34" filterUnits="userSpaceOnUse" color-interpolation-filters="sRGB">
<feFlood flood-opacity="0" result="BackgroundImageFix"/>
<feColorMatrix in="SourceAlpha" type="matrix" values="0 0 0 0 0 0 0 0 0 0 0 0 0 0 0 0 0 0 127 0" result="hardAlpha"/>
<feOffset dy="1"/>
<feColorMatrix type="matrix" values="0 0 0 0 0 0 0 0 0 0 0 0 0 0 0 0 0 0 0.3 0"/>
<feBlend mode="normal" in2="BackgroundImageFix" result="effect1_dropShadow"/>
<feBlend mode="normal" in="SourceGraphic" in2="effect1_dropShadow" result="shape"/>
</filter>
<filter id="filter6_d" x="363" y="86" width="46" height="34" filterUnits="userSpaceOnUse" color-interpolation-filters="sRGB">
<feFlood flood-opacity="0" result="BackgroundImageFix"/>
<feColorMatrix in="SourceAlpha" type="matrix" values="0 0 0 0 0 0 0 0 0 0 0 0 0 0 0 0 0 0 127 0" result="hardAlpha"/>
<feOffset dy="1"/>
<feColorMatrix type="matrix" values="0 0 0 0 0 0 0 0 0 0 0 0 0 0 0 0 0 0 0.3 0"/>
<feBlend mode="normal" in2="BackgroundImageFix" result="effect1_dropShadow"/>
<feBlend mode="normal" in="SourceGraphic" in2="effect1_dropShadow" result="shape"/>
</filter>
<filter id="filter7_d" x="415" y="86" width="46" height="34" filterUnits="userSpaceOnUse" color-interpolation-filters="sRGB">
<feFlood flood-opacity="0" result="BackgroundImageFix"/>
<feColorMatrix in="SourceAlpha" type="matrix" values="0 0 0 0 0 0 0 0 0 0 0 0 0 0 0 0 0 0 127 0" result="hardAlpha"/>
<feOffset dy="1"/>
<feColorMatrix type="matrix" values="0 0 0 0 0 0 0 0 0 0 0 0 0 0 0 0 0 0 0.3 0"/>
<feBlend mode="normal" in2="BackgroundImageFix" result="effect1_dropShadow"/>
<feBlend mode="normal" in="SourceGraphic" in2="effect1_dropShadow" result="shape"/>
</filter>
<filter id="filter8_d" x="467" y="86" width="46" height="34" filterUnits="userSpaceOnUse" color-interpolation-filters="sRGB">
<feFlood flood-opacity="0" result="BackgroundImageFix"/>
<feColorMatrix in="SourceAlpha" type="matrix" values="0 0 0 0 0 0 0 0 0 0 0 0 0 0 0 0 0 0 127 0" result="hardAlpha"/>
<feOffset dy="1"/>
<feColorMatrix type="matrix" values="0 0 0 0 0 0 0 0 0 0 0 0 0 0 0 0 0 0 0.3 0"/>
<feBlend mode="normal" in2="BackgroundImageFix" result="effect1_dropShadow"/>
<feBlend mode="normal" in="SourceGraphic" in2="effect1_dropShadow" result="shape"/>
</filter>
<filter id="filter9_d" x="102" y="46" width="47" height="34" filterUnits="userSpaceOnUse" color-interpolation-filters="sRGB">
<feFlood flood-opacity="0" result="BackgroundImageFix"/>
<feColorMatrix in="SourceAlpha" type="matrix" values="0 0 0 0 0 0 0 0 0 0 0 0 0 0 0 0 0 0 127 0" result="hardAlpha"/>
<feOffset dy="1"/>
<feColorMatrix type="matrix" values="0 0 0 0 0 0 0 0 0 0 0 0 0 0 0 0 0 0 0.3 0"/>
<feBlend mode="normal" in2="BackgroundImageFix" result="effect1_dropShadow"/>
<feBlend mode="normal" in="SourceGraphic" in2="effect1_dropShadow" result="shape"/>
</filter>
<filter id="filter10_d" x="155" y="46" width="45" height="34" filterUnits="userSpaceOnUse" color-interpolation-filters="sRGB">
<feFlood flood-opacity="0" result="BackgroundImageFix"/>
<feColorMatrix in="SourceAlpha" type="matrix" values="0 0 0 0 0 0 0 0 0 0 0 0 0 0 0 0 0 0 127 0" result="hardAlpha"/>
<feOffset dy="1"/>
<feColorMatrix type="matrix" values="0 0 0 0 0 0 0 0 0 0 0 0 0 0 0 0 0 0 0.3 0"/>
<feBlend mode="normal" in2="BackgroundImageFix" result="effect1_dropShadow"/>
<feBlend mode="normal" in="SourceGraphic" in2="effect1_dropShadow" result="shape"/>
</filter>
<filter id="filter11_d" x="206" y="46" width="47" height="34" filterUnits="userSpaceOnUse" color-interpolation-filters="sRGB">
<feFlood flood-opacity="0" result="BackgroundImageFix"/>
<feColorMatrix in="SourceAlpha" type="matrix" values="0 0 0 0 0 0 0 0 0 0 0 0 0 0 0 0 0 0 127 0" result="hardAlpha"/>
<feOffset dy="1"/>
<feColorMatrix type="matrix" values="0 0 0 0 0 0 0 0 0 0 0 0 0 0 0 0 0 0 0.3 0"/>
<feBlend mode="normal" in2="BackgroundImageFix" result="effect1_dropShadow"/>
<feBlend mode="normal" in="SourceGraphic" in2="effect1_dropShadow" result="shape"/>
</filter>
<filter id="filter12_d" x="259" y="46" width="46" height="34" filterUnits="userSpaceOnUse" color-interpolation-filters="sRGB">
<feFlood flood-opacity="0" result="BackgroundImageFix"/>
<feColorMatrix in="SourceAlpha" type="matrix" values="0 0 0 0 0 0 0 0 0 0 0 0 0 0 0 0 0 0 127 0" result="hardAlpha"/>
<feOffset dy="1"/>
<feColorMatrix type="matrix" values="0 0 0 0 0 0 0 0 0 0 0 0 0 0 0 0 0 0 0.3 0"/>
<feBlend mode="normal" in2="BackgroundImageFix" result="effect1_dropShadow"/>
<feBlend mode="normal" in="SourceGraphic" in2="effect1_dropShadow" result="shape"/>
</filter>
<filter id="filter13_d" x="311" y="46" width="46" height="34" filterUnits="userSpaceOnUse" color-interpolation-filters="sRGB">
<feFlood flood-opacity="0" result="BackgroundImageFix"/>
<feColorMatrix in="SourceAlpha" type="matrix" values="0 0 0 0 0 0 0 0 0 0 0 0 0 0 0 0 0 0 127 0" result="hardAlpha"/>
<feOffset dy="1"/>
<feColorMatrix type="matrix" values="0 0 0 0 0 0 0 0 0 0 0 0 0 0 0 0 0 0 0.3 0"/>
<feBlend mode="normal" in2="BackgroundImageFix" result="effect1_dropShadow"/>
<feBlend mode="normal" in="SourceGraphic" in2="effect1_dropShadow" result="shape"/>
</filter>
<filter id="filter14_d" x="363" y="46" width="46" height="34" filterUnits="userSpaceOnUse" color-interpolation-filters="sRGB">
<feFlood flood-opacity="0" result="BackgroundImageFix"/>
<feColorMatrix in="SourceAlpha" type="matrix" values="0 0 0 0 0 0 0 0 0 0 0 0 0 0 0 0 0 0 127 0" result="hardAlpha"/>
<feOffset dy="1"/>
<feColorMatrix type="matrix" values="0 0 0 0 0 0 0 0 0 0 0 0 0 0 0 0 0 0 0.3 0"/>
<feBlend mode="normal" in2="BackgroundImageFix" result="effect1_dropShadow"/>
<feBlend mode="normal" in="SourceGraphic" in2="effect1_dropShadow" result="shape"/>
</filter>
<filter id="filter15_d" x="415" y="46" width="47" height="34" filterUnits="userSpaceOnUse" color-interpolation-filters="sRGB">
<feFlood flood-opacity="0" result="BackgroundImageFix"/>
<feColorMatrix in="SourceAlpha" type="matrix" values="0 0 0 0 0 0 0 0 0 0 0 0 0 0 0 0 0 0 127 0" result="hardAlpha"/>
<feOffset dy="1"/>
<feColorMatrix type="matrix" values="0 0 0 0 0 0 0 0 0 0 0 0 0 0 0 0 0 0 0.3 0"/>
<feBlend mode="normal" in2="BackgroundImageFix" result="effect1_dropShadow"/>
<feBlend mode="normal" in="SourceGraphic" in2="effect1_dropShadow" result="shape"/>
</filter>
<filter id="filter16_d" x="468" y="46" width="45" height="34" filterUnits="userSpaceOnUse" color-interpolation-filters="sRGB">
<feFlood flood-opacity="0" result="BackgroundImageFix"/>
<feColorMatrix in="SourceAlpha" type="matrix" values="0 0 0 0 0 0 0 0 0 0 0 0 0 0 0 0 0 0 127 0" result="hardAlpha"/>
<feOffset dy="1"/>
<feColorMatrix type="matrix" values="0 0 0 0 0 0 0 0 0 0 0 0 0 0 0 0 0 0 0.3 0"/>
<feBlend mode="normal" in2="BackgroundImageFix" result="effect1_dropShadow"/>
<feBlend mode="normal" in="SourceGraphic" in2="effect1_dropShadow" result="shape"/>
</filter>
<filter id="filter17_d" x="519" y="46" width="47" height="34" filterUnits="userSpaceOnUse" color-interpolation-filters="sRGB">
<feFlood flood-opacity="0" result="BackgroundImageFix"/>
<feColorMatrix in="SourceAlpha" type="matrix" values="0 0 0 0 0 0 0 0 0 0 0 0 0 0 0 0 0 0 127 0" result="hardAlpha"/>
<feOffset dy="1"/>
<feColorMatrix type="matrix" values="0 0 0 0 0 0 0 0 0 0 0 0 0 0 0 0 0 0 0.3 0"/>
<feBlend mode="normal" in2="BackgroundImageFix" result="effect1_dropShadow"/>
<feBlend mode="normal" in="SourceGraphic" in2="effect1_dropShadow" result="shape"/>
</filter>
<filter id="filter18_d" x="76" y="6" width="46" height="34" filterUnits="userSpaceOnUse" color-interpolation-filters="sRGB">
<feFlood flood-opacity="0" result="BackgroundImageFix"/>
<feColorMatrix in="SourceAlpha" type="matrix" values="0 0 0 0 0 0 0 0 0 0 0 0 0 0 0 0 0 0 127 0" result="hardAlpha"/>
<feOffset dy="1"/>
<feColorMatrix type="matrix" values="0 0 0 0 0 0 0 0 0 0 0 0 0 0 0 0 0 0 0.3 0"/>
<feBlend mode="normal" in2="BackgroundImageFix" result="effect1_dropShadow"/>
<feBlend mode="normal" in="SourceGraphic" in2="effect1_dropShadow" result="shape"/>
</filter>
<filter id="filter19_d" x="129" y="6" width="44" height="34" filterUnits="userSpaceOnUse" color-interpolation-filters="sRGB">
<feFlood flood-opacity="0" result="BackgroundImageFix"/>
<feColorMatrix in="SourceAlpha" type="matrix" values="0 0 0 0 0 0 0 0 0 0 0 0 0 0 0 0 0 0 127 0" result="hardAlpha"/>
<feOffset dy="1"/>
<feColorMatrix type="matrix" values="0 0 0 0 0 0 0 0 0 0 0 0 0 0 0 0 0 0 0.3 0"/>
<feBlend mode="normal" in2="BackgroundImageFix" result="effect1_dropShadow"/>
<feBlend mode="normal" in="SourceGraphic" in2="effect1_dropShadow" result="shape"/>
</filter>
<filter id="filter20_d" x="180" y="6" width="46" height="34" filterUnits="userSpaceOnUse" color-interpolation-filters="sRGB">
<feFlood flood-opacity="0" result="BackgroundImageFix"/>
<feColorMatrix in="SourceAlpha" type="matrix" values="0 0 0 0 0 0 0 0 0 0 0 0 0 0 0 0 0 0 127 0" result="hardAlpha"/>
<feOffset dy="1"/>
<feColorMatrix type="matrix" values="0 0 0 0 0 0 0 0 0 0 0 0 0 0 0 0 0 0 0.3 0"/>
<feBlend mode="normal" in2="BackgroundImageFix" result="effect1_dropShadow"/>
<feBlend mode="normal" in="SourceGraphic" in2="effect1_dropShadow" result="shape"/>
</filter>
<filter id="filter21_d" x="233" y="6" width="45" height="34" filterUnits="userSpaceOnUse" color-interpolation-filters="sRGB">
<feFlood flood-opacity="0" result="BackgroundImageFix"/>
<feColorMatrix in="SourceAlpha" type="matrix" values="0 0 0 0 0 0 0 0 0 0 0 0 0 0 0 0 0 0 127 0" result="hardAlpha"/>
<feOffset dy="1"/>
<feColorMatrix type="matrix" values="0 0 0 0 0 0 0 0 0 0 0 0 0 0 0 0 0 0 0.3 0"/>
<feBlend mode="normal" in2="BackgroundImageFix" result="effect1_dropShadow"/>
<feBlend mode="normal" in="SourceGraphic" in2="effect1_dropShadow" result="shape"/>
</filter>
<filter id="filter22_d" x="285" y="6" width="45" height="34" filterUnits="userSpaceOnUse" color-interpolation-filters="sRGB">
<feFlood flood-opacity="0" result="BackgroundImageFix"/>
<feColorMatrix in="SourceAlpha" type="matrix" values="0 0 0 0 0 0 0 0 0 0 0 0 0 0 0 0 0 0 127 0" result="hardAlpha"/>
<feOffset dy="1"/>
<feColorMatrix type="matrix" values="0 0 0 0 0 0 0 0 0 0 0 0 0 0 0 0 0 0 0.3 0"/>
<feBlend mode="normal" in2="BackgroundImageFix" result="effect1_dropShadow"/>
<feBlend mode="normal" in="SourceGraphic" in2="effect1_dropShadow" result="shape"/>
</filter>
<filter id="filter23_d" x="337" y="6" width="46" height="34" filterUnits="userSpaceOnUse" color-interpolation-filters="sRGB">
<feFlood flood-opacity="0" result="BackgroundImageFix"/>
<feColorMatrix in="SourceAlpha" type="matrix" values="0 0 0 0 0 0 0 0 0 0 0 0 0 0 0 0 0 0 127 0" result="hardAlpha"/>
<feOffset dy="1"/>
<feColorMatrix type="matrix" values="0 0 0 0 0 0 0 0 0 0 0 0 0 0 0 0 0 0 0.3 0"/>
<feBlend mode="normal" in2="BackgroundImageFix" result="effect1_dropShadow"/>
<feBlend mode="normal" in="SourceGraphic" in2="effect1_dropShadow" result="shape"/>
</filter>
<filter id="filter24_d" x="390" y="6" width="45" height="34" filterUnits="userSpaceOnUse" color-interpolation-filters="sRGB">
<feFlood flood-opacity="0" result="BackgroundImageFix"/>
<feColorMatrix in="SourceAlpha" type="matrix" values="0 0 0 0 0 0 0 0 0 0 0 0 0 0 0 0 0 0 127 0" result="hardAlpha"/>
<feOffset dy="1"/>
<feColorMatrix type="matrix" values="0 0 0 0 0 0 0 0 0 0 0 0 0 0 0 0 0 0 0.3 0"/>
<feBlend mode="normal" in2="BackgroundImageFix" result="effect1_dropShadow"/>
<feBlend mode="normal" in="SourceGraphic" in2="effect1_dropShadow" result="shape"/>
</filter>
<filter id="filter25_d" x="442" y="6" width="46" height="34" filterUnits="userSpaceOnUse" color-interpolation-filters="sRGB">
<feFlood flood-opacity="0" result="BackgroundImageFix"/>
<feColorMatrix in="SourceAlpha" type="matrix" values="0 0 0 0 0 0 0 0 0 0 0 0 0 0 0 0 0 0 127 0" result="hardAlpha"/>
<feOffset dy="1"/>
<feColorMatrix type="matrix" values="0 0 0 0 0 0 0 0 0 0 0 0 0 0 0 0 0 0 0.3 0"/>
<feBlend mode="normal" in2="BackgroundImageFix" result="effect1_dropShadow"/>
<feBlend mode="normal" in="SourceGraphic" in2="effect1_dropShadow" result="shape"/>
</filter>
<filter id="filter26_d" x="495" y="6" width="44" height="34" filterUnits="userSpaceOnUse" color-interpolation-filters="sRGB">
<feFlood flood-opacity="0" result="BackgroundImageFix"/>
<feColorMatrix in="SourceAlpha" type="matrix" values="0 0 0 0 0 0 0 0 0 0 0 0 0 0 0 0 0 0 127 0" result="hardAlpha"/>
<feOffset dy="1"/>
<feColorMatrix type="matrix" values="0 0 0 0 0 0 0 0 0 0 0 0 0 0 0 0 0 0 0.3 0"/>
<feBlend mode="normal" in2="BackgroundImageFix" result="effect1_dropShadow"/>
<feBlend mode="normal" in="SourceGraphic" in2="effect1_dropShadow" result="shape"/>
</filter>
<filter id="filter27_d" x="546" y="6" width="46" height="34" filterUnits="userSpaceOnUse" color-interpolation-filters="sRGB">
<feFlood flood-opacity="0" result="BackgroundImageFix"/>
<feColorMatrix in="SourceAlpha" type="matrix" values="0 0 0 0 0 0 0 0 0 0 0 0 0 0 0 0 0 0 127 0" result="hardAlpha"/>
<feOffset dy="1"/>
<feColorMatrix type="matrix" values="0 0 0 0 0 0 0 0 0 0 0 0 0 0 0 0 0 0 0.3 0"/>
<feBlend mode="normal" in2="BackgroundImageFix" result="effect1_dropShadow"/>
<feBlend mode="normal" in="SourceGraphic" in2="effect1_dropShadow" result="shape"/>
</filter>
<filter id="filter28_d" x="528" y="86" width="63" height="33" filterUnits="userSpaceOnUse" color-interpolation-filters="sRGB">
<feFlood flood-opacity="0" result="BackgroundImageFix"/>
<feColorMatrix in="SourceAlpha" type="matrix" values="0 0 0 0 0 0 0 0 0 0 0 0 0 0 0 0 0 0 127 0" result="hardAlpha"/>
<feOffset dy="1"/>
<feColorMatrix type="matrix" values="0 0 0 0 0 0 0 0 0 0 0 0 0 0 0 0 0 0 0.3 0"/>
<feBlend mode="normal" in2="BackgroundImageFix" result="effect1_dropShadow"/>
<feBlend mode="normal" in="SourceGraphic" in2="effect1_dropShadow" result="shape"/>
</filter>
<filter id="filter29_d" x="76" y="86" width="63" height="34" filterUnits="userSpaceOnUse" color-interpolation-filters="sRGB">
<feFlood flood-opacity="0" result="BackgroundImageFix"/>
<feColorMatrix in="SourceAlpha" type="matrix" values="0 0 0 0 0 0 0 0 0 0 0 0 0 0 0 0 0 0 127 0" result="hardAlpha"/>
<feOffset dy="1"/>
<feColorMatrix type="matrix" values="0 0 0 0 0 0 0 0 0 0 0 0 0 0 0 0 0 0 0.3 0"/>
<feBlend mode="normal" in2="BackgroundImageFix" result="effect1_dropShadow"/>
<feBlend mode="normal" in="SourceGraphic" in2="effect1_dropShadow" result="shape"/>
</filter>
<filter id="filter30_d" x="211" y="126" width="248" height="32" filterUnits="userSpaceOnUse" color-interpolation-filters="sRGB">
<feFlood flood-opacity="0" result="BackgroundImageFix"/>
<feColorMatrix in="SourceAlpha" type="matrix" values="0 0 0 0 0 0 0 0 0 0 0 0 0 0 0 0 0 0 127 0" result="hardAlpha"/>
<feOffset dy="1"/>
<feColorMatrix type="matrix" values="0 0 0 0 0 0 0 0 0 0 0 0 0 0 0 0 0 0 0.3 0"/>
<feBlend mode="normal" in2="BackgroundImageFix" result="effect1_dropShadow"/>
<feBlend mode="normal" in="SourceGraphic" in2="effect1_dropShadow" result="shape"/>
</filter>
<filter id="filter31_d" x="466" y="126" width="125" height="32" filterUnits="userSpaceOnUse" color-interpolation-filters="sRGB">
<feFlood flood-opacity="0" result="BackgroundImageFix"/>
<feColorMatrix in="SourceAlpha" type="matrix" values="0 0 0 0 0 0 0 0 0 0 0 0 0 0 0 0 0 0 127 0" result="hardAlpha"/>
<feOffset dy="1"/>
<feColorMatrix type="matrix" values="0 0 0 0 0 0 0 0 0 0 0 0 0 0 0 0 0 0 0.3 0"/>
<feBlend mode="normal" in2="BackgroundImageFix" result="effect1_dropShadow"/>
<feBlend mode="normal" in="SourceGraphic" in2="effect1_dropShadow" result="shape"/>
</filter>
<filter id="filter32_d" x="76" y="126" width="127" height="32" filterUnits="userSpaceOnUse" color-interpolation-filters="sRGB">
<feFlood flood-opacity="0" result="BackgroundImageFix"/>
<feColorMatrix in="SourceAlpha" type="matrix" values="0 0 0 0 0 0 0 0 0 0 0 0 0 0 0 0 0 0 127 0" result="hardAlpha"/>
<feOffset dy="1"/>
<feColorMatrix type="matrix" values="0 0 0 0 0 0 0 0 0 0 0 0 0 0 0 0 0 0 0.3 0"/>
<feBlend mode="normal" in2="BackgroundImageFix" result="effect1_dropShadow"/>
<feBlend mode="normal" in="SourceGraphic" in2="effect1_dropShadow" result="shape"/>
</filter>
</defs>
</svg>
