<svg width="154" height="63" viewBox="0 0 154 63" fill="none" xmlns="http://www.w3.org/2000/svg">
<g filter="url(#filter0_d)">
<path d="M0 9C0 4.02944 4.02944 0 9 0H145C149.971 0 154 4.02944 154 9V53C154 57.9706 149.971 62 145 62H9C4.02944 62 0 57.9706 0 53V9Z" fill="#3F3F3F"/>
<path d="M111.672 48.1577C113.705 48.1577 115.258 47.0537 115.258 45.46V45.4434C115.258 44.165 114.444 43.4346 112.759 43.0278L111.381 42.6958C110.327 42.4385 109.879 42.0566 109.879 41.4507V41.4341C109.879 40.6455 110.659 40.0977 111.721 40.0977C112.801 40.0977 113.498 40.5874 113.689 41.293H115.108C114.909 39.832 113.606 38.894 111.73 38.894C109.829 38.894 108.401 40.0146 108.401 41.5005V41.5088C108.401 42.7954 109.157 43.5259 110.833 43.9243L112.22 44.2563C113.324 44.522 113.78 44.9453 113.78 45.5513V45.5679C113.78 46.3813 112.925 46.9541 111.721 46.9541C110.576 46.9541 109.862 46.4644 109.621 45.7173H108.144C108.31 47.1948 109.679 48.1577 111.672 48.1577ZM117.242 48H118.686V42.7041C118.686 41.1353 119.591 40.1724 121.019 40.1724C122.446 40.1724 123.11 40.9443 123.11 42.5547V48H124.555V42.2061C124.555 40.0811 123.434 38.894 121.425 38.894C120.106 38.894 119.267 39.4502 118.819 40.3965H118.686V35.499H117.242V48ZM127.593 37.3252C128.141 37.3252 128.589 36.877 128.589 36.3291C128.589 35.7812 128.141 35.333 127.593 35.333C127.045 35.333 126.597 35.7812 126.597 36.3291C126.597 36.877 127.045 37.3252 127.593 37.3252ZM126.863 48H128.307V39.0518H126.863V48ZM131.287 48H132.732V40.2471H134.765V39.0518H132.732V38.0972C132.732 37.1177 133.147 36.6113 134.176 36.6113C134.433 36.6113 134.674 36.6196 134.848 36.6528V35.499C134.55 35.4409 134.234 35.416 133.886 35.416C132.184 35.416 131.287 36.271 131.287 38.0557V39.0518H129.802V40.2471H131.287V48ZM139.688 48.0664C139.97 48.0664 140.244 48.0332 140.527 47.9834V46.7549C140.261 46.7798 140.12 46.7881 139.862 46.7881C138.933 46.7881 138.568 46.3647 138.568 45.3105V40.2471H140.527V39.0518H138.568V36.7358H137.073V39.0518H135.662V40.2471H137.073V45.6758C137.073 47.3857 137.845 48.0664 139.688 48.0664Z" fill="white"/>
</g>
<defs>
<filter id="filter0_d" x="0" y="0" width="154" height="63" filterUnits="userSpaceOnUse" color-interpolation-filters="sRGB">
<feFlood flood-opacity="0" result="BackgroundImageFix"/>
<feColorMatrix in="SourceAlpha" type="matrix" values="0 0 0 0 0 0 0 0 0 0 0 0 0 0 0 0 0 0 127 0" result="hardAlpha"/>
<feOffset dy="1"/>
<feColorMatrix type="matrix" values="0 0 0 0 0 0 0 0 0 0 0 0 0 0 0 0 0 0 0.3 0"/>
<feBlend mode="normal" in2="BackgroundImageFix" result="effect1_dropShadow"/>
<feBlend mode="normal" in="SourceGraphic" in2="effect1_dropShadow" result="shape"/>
</filter>
</defs>
</svg>
