<svg width="667" height="162" viewBox="0 0 667 162" fill="none" xmlns="http://www.w3.org/2000/svg">
<g filter="url(#filter0_b)">
<rect width="667" height="162" fill="#CED2D9" fill-opacity="0.9"/>
<g filter="url(#filter1_b)">
<g filter="url(#filter2_d)">
<path d="M155 91C155 88.2386 157.239 86 160 86H196C198.761 86 201 88.2386 201 91V114C201 116.761 198.761 119 196 119H160C157.239 119 155 116.761 155 114V91Z" fill="white"/>
<path d="M173.195 110H182.793V108.699H175.059V108.559L182.77 98.5625V97.3789H173.207V98.6797H180.93V98.8203L173.195 108.828V110Z" fill="black"/>
</g>
<g filter="url(#filter3_d)">
<path d="M207 91C207 88.2386 209.239 86 212 86H248C250.761 86 253 88.2386 253 91V114C253 116.761 250.761 119 248 119H212C209.239 119 207 116.761 207 114V91Z" fill="white"/>
<path d="M224.703 110H226.461L229.906 104.844H230.047L233.48 110H235.32L230.844 103.59L235.273 97.3789H233.504L230.105 102.418H229.953L226.52 97.3789H224.68L229.156 103.648L224.703 110Z" fill="black"/>
</g>
<g filter="url(#filter4_d)">
<path d="M259 91C259 88.2386 261.239 86 264 86H300C302.761 86 305 88.2386 305 91V114C305 116.761 302.761 119 300 119H264C261.239 119 259 116.761 259 114V91Z" fill="white"/>
<path d="M282.328 110.211C285.211 110.211 286.969 108.676 287.461 106.449L287.484 106.355L285.938 106.367L285.914 106.426C285.469 107.949 284.18 108.828 282.316 108.828C279.82 108.828 278.215 106.801 278.215 103.66V103.637C278.215 100.531 279.809 98.5508 282.316 98.5508C284.25 98.5508 285.562 99.6172 285.938 101.07L285.949 101.105L287.484 101.094V101.047C287.098 98.832 285.211 97.168 282.316 97.168C278.836 97.168 276.633 99.6992 276.633 103.637V103.66C276.633 107.656 278.848 110.211 282.328 110.211Z" fill="black"/>
</g>
<g filter="url(#filter5_d)">
<path d="M311 91C311 88.2386 313.239 86 316 86H352C354.761 86 357 88.2386 357 91V114C357 116.761 354.761 119 352 119H316C313.239 119 311 116.761 311 114V91Z" fill="white"/>
<path d="M333.18 110H334.82L339.531 97.3789H337.879L334.07 108.324H333.93L330.109 97.3789H328.469L333.18 110Z" fill="black"/>
</g>
<g filter="url(#filter6_d)">
<path d="M363 91C363 88.2386 365.239 86 368 86H404C406.761 86 409 88.2386 409 91V114C409 116.761 406.761 119 404 119H368C365.239 119 363 116.761 363 114V91Z" fill="white"/>
<path d="M386.691 110.211C389.879 110.211 392 107.598 392 103.695V103.672C392 99.7461 389.891 97.168 386.691 97.168C384.781 97.168 383.152 98.1992 382.461 99.8281H382.309V92.3516H380.762V110H382.309V107.48H382.461C383.188 109.18 384.758 110.211 386.691 110.211ZM386.375 108.828C383.891 108.828 382.285 106.801 382.285 103.695V103.672C382.285 100.566 383.891 98.5508 386.375 98.5508C388.859 98.5508 390.418 100.531 390.418 103.66V103.684C390.418 106.824 388.859 108.828 386.375 108.828Z" fill="black"/>
</g>
<g filter="url(#filter7_d)">
<path d="M415 91C415 88.2386 417.239 86 420 86H456C458.761 86 461 88.2386 461 91V114C461 116.761 458.761 119 456 119H420C417.239 119 415 116.761 415 114V91Z" fill="white"/>
<path d="M432.996 110H434.543V102.5C434.543 100.121 436.055 98.5508 438.281 98.5508C440.473 98.5508 441.562 99.7812 441.562 102.184V110H443.109V101.797C443.109 98.8555 441.504 97.168 438.691 97.168C436.723 97.168 435.363 98.0703 434.695 99.5938H434.543V97.3789H432.996V110Z" fill="black"/>
</g>
<g filter="url(#filter8_d)">
<path d="M467 91C467 88.2386 469.239 86 472 86H508C510.761 86 513 88.2386 513 91V114C513 116.761 510.761 119 508 119H472C469.239 119 467 116.761 467 114V91Z" fill="white"/>
<path d="M481.598 110H483.145V102.254C483.145 100.191 484.551 98.5508 486.379 98.5508C488.125 98.5508 489.273 99.7344 489.273 101.551V110H490.82V101.996C490.82 100.039 492.121 98.5508 494.066 98.5508C495.965 98.5508 496.961 99.6523 496.961 101.715V110H498.52V101.363C498.52 98.6914 497.055 97.168 494.523 97.168C492.707 97.168 491.23 98.1406 490.586 99.6523H490.434C489.895 98.1406 488.629 97.168 486.859 97.168C485.137 97.168 483.836 98.0938 483.297 99.6055H483.145V97.3789H481.598V110Z" fill="black"/>
</g>
<g filter="url(#filter9_d)">
<path d="M102 51C102 48.2386 104.239 46 107 46H144C146.761 46 149 48.2386 149 51V74C149 76.7614 146.761 79 144 79H107C104.239 79 102 76.7614 102 74V51Z" fill="white"/>
<path d="M124.363 70.2109C126.227 70.2109 127.738 69.332 128.488 67.832H128.629V70H130.188V61.375C130.188 58.7148 128.465 57.168 125.512 57.168C122.898 57.168 120.988 58.457 120.66 60.4727L120.648 60.5195H122.207L122.219 60.4961C122.547 59.2422 123.754 58.5508 125.465 58.5508C127.504 58.5508 128.629 59.5352 128.629 61.3867V62.5703L124.691 62.8281C121.773 63.0273 120.145 64.3047 120.145 66.4961V66.5195C120.145 68.7695 121.926 70.2109 124.363 70.2109ZM121.727 66.4961V66.4727C121.727 65.043 122.758 64.2344 124.902 64.0938L128.629 63.8359V65.3008C128.629 67.3047 126.918 68.8516 124.656 68.8516C122.957 68.8516 121.727 67.9375 121.727 66.4961Z" fill="black"/>
</g>
<g filter="url(#filter10_d)">
<path d="M155 51C155 48.2386 157.239 46 160 46H195C197.761 46 200 48.2386 200 51V74C200 76.7614 197.761 79 195 79H160C157.239 79 155 76.7614 155 74V51Z" fill="white"/>
<path d="M177.523 70.2109C180.277 70.2109 182.398 68.6875 182.398 66.5195V66.4961C182.398 64.6797 181.215 63.6953 178.777 63.1094L177.031 62.6992C175.355 62.3008 174.582 61.7031 174.582 60.6719V60.6484C174.582 59.3945 175.883 58.4688 177.535 58.4688C179.211 58.4688 180.383 59.2656 180.664 60.4375H182.188C181.895 58.4453 180.09 57.168 177.547 57.168C175.004 57.168 173 58.6797 173 60.7188V60.7305C173 62.5 174.09 63.4727 176.434 64.0234L178.191 64.4453C180.031 64.8789 180.816 65.5234 180.816 66.6133V66.6367C180.816 67.9492 179.422 68.8984 177.57 68.8984C175.742 68.8984 174.535 68.0898 174.195 66.8359H172.602C172.859 68.8984 174.77 70.2109 177.523 70.2109Z" fill="black"/>
</g>
<g filter="url(#filter11_d)">
<path d="M206 51C206 48.2386 208.239 46 211 46H248C250.761 46 253 48.2386 253 51V74C253 76.7614 250.761 79 248 79H211C208.239 79 206 76.7614 206 74V51Z" fill="white"/>
<path d="M228.82 70.2109C230.766 70.2109 232.324 69.1797 233.062 67.4805H233.203V70H234.762V52.3516H233.203V59.8398H233.062C232.359 58.2109 230.73 57.168 228.82 57.168C225.621 57.168 223.488 59.7695 223.488 63.6836V63.707C223.488 67.5977 225.633 70.2109 228.82 70.2109ZM229.148 68.8281C226.652 68.8281 225.07 66.8242 225.07 63.6953V63.6719C225.07 60.5547 226.652 58.5508 229.148 58.5508C231.633 58.5508 233.238 60.5664 233.238 63.6719V63.6953C233.238 66.8125 231.633 68.8281 229.148 68.8281Z" fill="black"/>
</g>
<g filter="url(#filter12_d)">
<path d="M259 51C259 48.2386 261.239 46 264 46H300C302.761 46 305 48.2386 305 51V74C305 76.7614 302.761 79 300 79H264C261.239 79 259 76.7614 259 74V51Z" fill="white"/>
<path d="M280.617 70H282.176V58.6797H285.129V57.3789H282.176V55.7969C282.176 54.332 282.844 53.5352 284.297 53.5352C284.66 53.5352 285.012 53.5586 285.246 53.5938V52.3398C284.859 52.2695 284.473 52.2344 284.016 52.2344C281.812 52.2344 280.617 53.418 280.617 55.7617V57.3789H278.52V58.6797H280.617V70Z" fill="black"/>
</g>
<g filter="url(#filter13_d)">
<path d="M311 51C311 48.2386 313.239 46 316 46H352C354.761 46 357 48.2386 357 51V74C357 76.7614 354.761 79 352 79H316C313.239 79 311 76.7614 311 74V51Z" fill="white"/>
<path d="M333.824 74.4062C337.141 74.4062 339.309 72.6016 339.309 69.8477V57.3789H337.75V59.9336H337.645C336.918 58.2461 335.359 57.168 333.414 57.168C330.156 57.168 328.07 59.7461 328.07 63.3555V63.3789C328.07 67 330.145 69.543 333.391 69.543C335.324 69.543 336.871 68.582 337.621 66.918H337.773V69.7422C337.773 71.7812 336.262 73.0234 333.824 73.0234C331.902 73.0234 330.59 72.2617 330.309 71.1602L330.297 71.1484H328.691L328.68 71.1602C329.008 73.1172 330.93 74.4062 333.824 74.4062ZM333.695 68.1602C331.176 68.1602 329.652 66.2031 329.652 63.3789V63.3555C329.652 60.5312 331.176 58.5508 333.695 58.5508C336.191 58.5508 337.797 60.5547 337.797 63.3789V63.4023C337.797 66.2266 336.227 68.1602 333.695 68.1602Z" fill="black"/>
</g>
<g filter="url(#filter14_d)">
<path d="M363 51C363 48.2386 365.239 46 368 46H404C406.761 46 409 48.2386 409 51V74C409 76.7614 406.761 79 404 79H368C365.239 79 363 76.7614 363 74V51Z" fill="white"/>
<path d="M381.055 70H382.602V62.5C382.602 60.1211 384.113 58.5508 386.34 58.5508C388.52 58.5508 389.621 59.7812 389.621 62.1836V70H391.168V61.7969C391.168 58.8555 389.562 57.168 386.75 57.168C384.781 57.168 383.422 58.0586 382.754 59.5938H382.602V52.3516H381.055V70Z" fill="black"/>
</g>
<g filter="url(#filter15_d)">
<path d="M415 51C415 48.2386 417.239 46 420 46H457C459.761 46 462 48.2386 462 51V74C462 76.7614 459.761 79 457 79H420C417.239 79 415 76.7614 415 74V51Z" fill="white"/>
<path d="M438.488 54.7539C439.121 54.7539 439.637 54.25 439.637 53.6172C439.637 52.9844 439.121 52.4805 438.488 52.4805C437.867 52.4805 437.352 52.9844 437.352 53.6172C437.352 54.25 437.867 54.7539 438.488 54.7539ZM435.711 74.3008C438.09 74.3008 439.262 73.2695 439.262 70.7969V57.3789H437.715V70.832C437.715 72.3438 437.117 72.918 435.676 72.918H435.43V74.3008H435.711Z" fill="black"/>
</g>
<g filter="url(#filter16_d)">
<path d="M468 51C468 48.2386 470.239 46 473 46H508C510.761 46 513 48.2386 513 51V74C513 76.7614 510.761 79 508 79H473C470.239 79 468 76.7614 468 74V51Z" fill="white"/>
<path d="M486.199 70H487.746V65.1016L489.164 63.7656L494.25 70H496.219L490.277 62.7227L495.961 57.3789H494.039L487.898 63.2852H487.746V52.3516H486.199V70Z" fill="black"/>
</g>
<g filter="url(#filter17_d)">
<path d="M519 51C519 48.2386 521.239 46 524 46H561C563.761 46 566 48.2386 566 51V74C566 76.7614 563.761 79 561 79H524C521.239 79 519 76.7614 519 74V51Z" fill="white"/>
<path d="M541.727 70H543.273V52.3516H541.727V70Z" fill="black"/>
</g>
<g filter="url(#filter18_d)">
<path d="M76 11C76 8.23858 78.2386 6 81 6H117C119.761 6 122 8.23858 122 11V34C122 36.7614 119.761 39 117 39H81C78.2386 39 76 36.7614 76 34V11Z" fill="white"/>
<path d="M102.773 34.1836H104.32V17.3789H102.773V19.957H102.656C101.883 18.2461 100.277 17.168 98.3789 17.168C95.1797 17.168 93.0703 19.7578 93.0703 23.6719V23.6953C93.0703 27.6094 95.1914 30.2109 98.3789 30.2109C100.336 30.2109 101.93 29.2266 102.621 27.5977H102.773V34.1836ZM98.707 28.8281C96.2227 28.8281 94.6523 26.8359 94.6523 23.707V23.6836C94.6523 20.543 96.2227 18.5508 98.6953 18.5508C101.18 18.5508 102.809 20.5781 102.809 23.6836V23.6953C102.809 26.7891 101.18 28.8281 98.707 28.8281Z" fill="black"/>
</g>
<g filter="url(#filter19_d)">
<path d="M129 11C129 8.23858 131.239 6 134 6H168C170.761 6 173 8.23858 173 11V34C173 36.7614 170.761 39 168 39H134C131.239 39 129 36.7614 129 34V11Z" fill="white"/>
<path d="M146.184 30H147.801L150.906 19.5234H151.059L154.164 30H155.793L159.391 17.3789H157.844L155.02 28.0898H154.879L151.762 17.3789H150.227L147.109 28.0898H146.969L144.168 17.3789H142.609L146.184 30Z" fill="black"/>
</g>
<g filter="url(#filter20_d)">
<path d="M180 11C180 8.23858 182.239 6 185 6H221C223.761 6 226 8.23858 226 11V34C226 36.7614 223.761 39 221 39H185C182.239 39 180 36.7614 180 34V11Z" fill="white"/>
<path d="M203.188 30.2109C205.977 30.2109 207.816 28.6875 208.309 26.9766L208.344 26.8828H206.785L206.738 26.9648C206.328 27.9492 205.062 28.8164 203.223 28.8164C200.715 28.8164 199.098 27.0469 199.051 24.0938H208.531V23.4375C208.531 19.6992 206.445 17.168 203.059 17.168C199.672 17.168 197.469 19.7695 197.469 23.707V23.7305C197.469 27.6914 199.648 30.2109 203.188 30.2109ZM203.059 18.5508C205.227 18.5508 206.785 20.0273 206.961 22.8281H199.062C199.262 20.0977 200.879 18.5508 203.059 18.5508Z" fill="black"/>
</g>
<g filter="url(#filter21_d)">
<path d="M233 11C233 8.23858 235.239 6 238 6H273C275.761 6 278 8.23858 278 11V34C278 36.7614 275.761 39 273 39H238C235.239 39 233 36.7614 233 34V11Z" fill="white"/>
<path d="M253.004 30H254.551V22.125C254.551 20.0859 256.004 18.6445 257.973 18.6445C258.453 18.6445 258.863 18.6914 259.32 18.8086V17.2852C259.016 17.2148 258.594 17.168 258.137 17.168C256.426 17.168 255.195 18.0117 254.703 19.4531H254.551V17.3789H253.004V30Z" fill="black"/>
</g>
<g filter="url(#filter22_d)">
<path d="M285 11C285 8.23858 287.239 6 290 6H325C327.761 6 330 8.23858 330 11V34C330 36.7614 327.761 39 325 39H290C287.239 39 285 36.7614 285 34V11Z" fill="white"/>
<path d="M309.41 30.082C309.785 30.082 310.137 30.0469 310.488 29.9883V28.6523C310.172 28.6875 309.938 28.6992 309.586 28.6992C308.156 28.6992 307.605 28.0547 307.605 26.5078V18.6797H310.488V17.3789H307.605V14.0977H306V17.3789H303.973V18.6797H306V26.8594C306 29.1562 306.996 30.082 309.41 30.082Z" fill="black"/>
</g>
<g filter="url(#filter23_d)">
<path d="M337 11C337 8.23858 339.239 6 342 6H378C380.761 6 383 8.23858 383 11V34C383 36.7614 380.761 39 378 39H342C339.239 39 337 36.7614 337 34V11Z" fill="white"/>
<path d="M356.52 34.3594C358.547 34.3594 359.508 33.5742 360.434 31.1016L365.531 17.3789H363.891L360.094 28.3242H359.93L356.121 17.3789H354.457L359.191 30.082L358.875 31.0312C358.359 32.543 357.645 33.0586 356.473 33.0586C356.262 33.0586 356.016 33.0586 355.828 33.0234V34.3125C356.051 34.3477 356.309 34.3594 356.52 34.3594Z" fill="black"/>
</g>
<g filter="url(#filter24_d)">
<path d="M390 11C390 8.23858 392.239 6 395 6H430C432.761 6 435 8.23858 435 11V34C435 36.7614 432.761 39 430 39H395C392.239 39 390 36.7614 390 34V11Z" fill="white"/>
<path d="M411.82 30.2109C413.777 30.2109 415.195 29.3203 415.816 27.7969H415.957V30H417.504V17.3789H415.957V24.8789C415.957 27.2695 414.551 28.8281 412.195 28.8281C410.027 28.8281 408.938 27.5508 408.938 25.1953V17.3789H407.391V25.582C407.391 28.4766 408.984 30.2109 411.82 30.2109Z" fill="black"/>
</g>
<g filter="url(#filter25_d)">
<path d="M442 11C442 8.23858 444.239 6 447 6H483C485.761 6 488 8.23858 488 11V34C488 36.7614 485.761 39 483 39H447C444.239 39 442 36.7614 442 34V11Z" fill="white"/>
<path d="M465.012 14.7539C465.633 14.7539 466.148 14.25 466.148 13.6172C466.148 12.9844 465.633 12.4805 465.012 12.4805C464.379 12.4805 463.863 12.9844 463.863 13.6172C463.863 14.25 464.379 14.7539 465.012 14.7539ZM464.227 30H465.773V17.3789H464.227V30Z" fill="black"/>
</g>
<g filter="url(#filter26_d)">
<path d="M495 11C495 8.23858 497.239 6 500 6H534C536.761 6 539 8.23858 539 11V34C539 36.7614 536.761 39 534 39H500C497.239 39 495 36.7614 495 34V11Z" fill="white"/>
<path d="M517 30.2109C520.527 30.2109 522.742 27.7148 522.742 23.6953V23.6719C522.742 19.6523 520.527 17.168 517 17.168C513.473 17.168 511.27 19.6523 511.27 23.6719V23.6953C511.27 27.7148 513.473 30.2109 517 30.2109ZM517 28.8281C514.398 28.8281 512.852 26.8828 512.852 23.6953V23.6719C512.852 20.4844 514.398 18.5508 517 18.5508C519.602 18.5508 521.148 20.4844 521.148 23.6719V23.6953C521.148 26.8828 519.602 28.8281 517 28.8281Z" fill="black"/>
</g>
<g filter="url(#filter27_d)">
<path d="M546 11C546 8.23858 548.239 6 551 6H587C589.761 6 592 8.23858 592 11V34C592 36.7614 589.761 39 587 39H551C548.239 39 546 36.7614 546 34V11Z" fill="white"/>
<path d="M563.691 34.1836H565.238V27.5391H565.391C566.082 29.168 567.711 30.2109 569.621 30.2109C572.82 30.2109 574.965 27.6094 574.965 23.6953V23.6719C574.965 19.7812 572.82 17.168 569.621 17.168C567.688 17.168 566.129 18.1992 565.391 19.8867H565.238V17.3789H563.691V34.1836ZM569.305 28.8281C566.82 28.8281 565.215 26.8125 565.215 23.6953V23.6719C565.215 20.5664 566.82 18.5508 569.305 18.5508C571.801 18.5508 573.383 20.5547 573.383 23.6719V23.6953C573.383 26.8242 571.801 28.8281 569.305 28.8281Z" fill="black"/>
</g>
<g filter="url(#filter28_d)">
<path d="M528 91C528 88.2386 530.239 86 533 86H586C588.761 86 591 88.2386 591 91V113C591 115.761 588.761 118 586 118H533C530.239 118 528 115.761 528 113V91Z" fill="#AEB3BE"/>
<path d="M559.214 99.5251C558.922 99.2322 558.922 98.7574 559.214 98.4645C559.507 98.1716 559.982 98.1716 560.275 98.4645L562.75 100.939L565.225 98.4645C565.518 98.1716 565.993 98.1716 566.286 98.4645C566.578 98.7573 566.578 99.2322 566.286 99.5251L563.811 102L566.286 104.475C566.578 104.768 566.578 105.243 566.286 105.536C565.993 105.828 565.518 105.828 565.225 105.536L562.75 103.061L560.275 105.536C559.982 105.828 559.507 105.828 559.214 105.536C558.922 105.243 558.922 104.768 559.214 104.475L561.689 102L559.214 99.5251Z" fill="black"/>
<path fill-rule="evenodd" clip-rule="evenodd" d="M556.121 94.3787L548.5 102L556.121 109.621C556.684 110.184 557.447 110.5 558.243 110.5H568.5C570.157 110.5 571.5 109.157 571.5 107.5V96.5C571.5 94.8431 570.157 93.5 568.5 93.5H558.243C557.447 93.5 556.684 93.8161 556.121 94.3787ZM568.5 109.2H558.243C557.792 109.2 557.359 109.021 557.041 108.702L550.339 102L557.041 95.2979C557.359 94.9791 557.792 94.8 558.243 94.8H568.5C569.439 94.8 570.2 95.5611 570.2 96.5V107.5C570.2 108.439 569.439 109.2 568.5 109.2Z" fill="black"/>
</g>
<g filter="url(#filter29_d)">
<path d="M76 91C76 88.2386 78.2386 86 81 86H134C136.761 86 139 88.2386 139 91V114C139 116.761 136.761 119 134 119H81C78.2386 119 76 116.761 76 114V91Z" fill="#AEB3BE"/>
<path fill-rule="evenodd" clip-rule="evenodd" d="M105.036 103.242V109.249H110.963V103.242H114.874L108 96.1442L101.126 103.242H105.036ZM107.641 94.5021C107.838 94.2994 108.162 94.2994 108.359 94.5021L117.358 103.795C117.665 104.112 117.441 104.643 116.999 104.643H112.362V110.15C112.362 110.426 112.139 110.65 111.863 110.65H104.137C103.861 110.65 103.637 110.426 103.637 110.15V104.643H99.0007C98.5592 104.643 98.3346 104.112 98.642 103.795L107.641 94.5021Z" fill="black"/>
</g>
</g>
<g filter="url(#filter30_d)">
<path d="M133 131C133 128.239 135.239 126 138 126H178C180.761 126 183 128.239 183 131V154C183 156.761 180.761 159 178 159H138C135.239 159 133 156.761 133 154V131Z" fill="#AEB3BE"/>
<path fill-rule="evenodd" clip-rule="evenodd" d="M158 153C152.477 153 148 148.523 148 143C148 137.477 152.477 133 158 133C163.523 133 168 137.477 168 143C168 148.523 163.523 153 158 153ZM158 152C162.971 152 167 147.971 167 143C167 138.029 162.971 134 158 134C153.029 134 149 138.029 149 143C149 147.971 153.029 152 158 152ZM157.988 150C154.424 150 151.042 146.582 151.042 144.111C151.042 142.694 154.122 144.4 157.988 144.4C161.854 144.4 164.969 142.696 164.958 144.111C164.941 146.505 161.552 150 157.988 150ZM157.988 146.85C161.302 146.85 163.594 145.569 163.594 144.645C163.594 143.721 161.302 145.196 157.988 145.196C154.674 145.196 152.42 143.898 152.42 144.645C152.42 145.392 154.674 146.85 157.988 146.85ZM154.988 141.225C154.332 141.225 153.8 140.693 153.8 140.037C153.8 139.382 154.332 138.85 154.988 138.85C155.643 138.85 156.175 139.382 156.175 140.037C156.175 140.693 155.643 141.225 154.988 141.225ZM160.988 141.225C160.332 141.225 159.8 140.693 159.8 140.037C159.8 139.382 160.332 138.85 160.988 138.85C161.643 138.85 162.175 139.382 162.175 140.037C162.175 140.693 161.643 141.225 160.988 141.225Z" fill="black"/>
</g>
<g filter="url(#filter31_d)">
<path d="M247 131C247 128.239 249.239 126 252 126H472C474.761 126 477 128.239 477 131V154C477 156.761 474.761 159 472 159H252C249.239 159 247 156.761 247 154V131Z" fill="white"/>
<path d="M344.425 148.148C346.339 148.148 347.8 147.109 347.8 145.609V145.594C347.8 144.391 347.034 143.703 345.448 143.32L344.152 143.008C343.159 142.766 342.738 142.406 342.738 141.836V141.82C342.738 141.078 343.472 140.562 344.472 140.562C345.488 140.562 346.144 141.023 346.323 141.688H347.659C347.472 140.312 346.245 139.43 344.48 139.43C342.691 139.43 341.347 140.484 341.347 141.883V141.891C341.347 143.102 342.058 143.789 343.636 144.164L344.941 144.477C345.98 144.727 346.409 145.125 346.409 145.695V145.711C346.409 146.477 345.605 147.016 344.472 147.016C343.394 147.016 342.722 146.555 342.495 145.852H341.105C341.261 147.242 342.55 148.148 344.425 148.148ZM349.589 150.812H350.949V146.672H351.074C351.535 147.57 352.543 148.148 353.699 148.148C355.839 148.148 357.23 146.438 357.23 143.797V143.781C357.23 141.156 355.832 139.43 353.699 139.43C352.527 139.43 351.589 139.984 351.074 140.922H350.949V139.578H349.589V150.812ZM353.386 146.945C351.855 146.945 350.918 145.742 350.918 143.797V143.781C350.918 141.836 351.855 140.633 353.386 140.633C354.925 140.633 355.839 141.82 355.839 143.781V143.797C355.839 145.758 354.925 146.945 353.386 146.945ZM361.348 148.148C362.48 148.148 363.363 147.656 363.894 146.758H364.019V148H365.379V142.234C365.379 140.484 364.23 139.43 362.176 139.43C360.379 139.43 359.098 140.32 358.879 141.641L358.871 141.688H360.23L360.238 141.664C360.457 141.008 361.121 140.633 362.129 140.633C363.387 140.633 364.019 141.195 364.019 142.234V143L361.605 143.148C359.644 143.266 358.535 144.133 358.535 145.633V145.648C358.535 147.18 359.746 148.148 361.348 148.148ZM359.926 145.617V145.602C359.926 144.766 360.488 144.312 361.769 144.234L364.019 144.094V144.859C364.019 146.062 363.012 146.969 361.629 146.969C360.652 146.969 359.926 146.469 359.926 145.617ZM370.988 148.148C373.012 148.148 374.145 147.062 374.488 145.539L374.504 145.453L373.16 145.461L373.145 145.508C372.832 146.445 372.113 146.945 370.981 146.945C369.481 146.945 368.512 145.703 368.512 143.766V143.75C368.512 141.852 369.465 140.633 370.981 140.633C372.192 140.633 372.942 141.305 373.153 142.133L373.16 142.156H374.512L374.504 142.109C374.254 140.609 373.028 139.43 370.981 139.43C368.621 139.43 367.121 141.133 367.121 143.75V143.766C367.121 146.438 368.629 148.148 370.988 148.148ZM379.614 148.148C381.598 148.148 382.801 147.023 383.09 145.883L383.106 145.82H381.747L381.715 145.891C381.489 146.398 380.786 146.938 379.645 146.938C378.145 146.938 377.184 145.922 377.145 144.18H383.208V143.648C383.208 141.133 381.817 139.43 379.528 139.43C377.239 139.43 375.754 141.211 375.754 143.812V143.82C375.754 146.461 377.208 148.148 379.614 148.148ZM379.52 140.641C380.762 140.641 381.684 141.43 381.825 143.094H377.168C377.317 141.492 378.27 140.641 379.52 140.641Z" fill="black"/>
</g>
<g filter="url(#filter32_d)">
<path d="M190 131C190 128.239 192.239 126 195 126H235C237.761 126 240 128.239 240 131V154C240 156.761 237.761 159 235 159H195C192.239 159 190 156.761 190 154V131Z" fill="#AEB3BE"/>
<path fill-rule="evenodd" clip-rule="evenodd" d="M214.998 133C213.23 133 211.79 134.436 211.79 136.207V143.633C211.79 145.404 213.226 146.839 214.998 146.839C216.767 146.839 218.207 145.404 218.207 143.633V136.207C218.207 134.435 216.77 133 214.998 133ZM213.165 136.202V143.637C213.165 144.638 213.986 145.464 214.998 145.464C216.018 145.464 216.832 144.646 216.832 143.637V136.202C216.832 135.201 216.011 134.376 214.998 134.376C213.979 134.376 213.165 135.193 213.165 136.202Z" fill="black"/>
<path d="M215.75 150.624V148.707C219.25 148.507 220.75 145.636 220.75 142.831V141.537C220.751 141.527 220.75 141.517 220.75 141.507L220.75 141.491C220.75 141.111 220.44 140.803 220.06 140.803C219.68 140.803 219.38 141.111 219.38 141.491V142.83C219.38 145.636 218.25 147.556 215.05 147.556C212.25 147.556 210.625 145.636 210.625 142.83V141.537C210.625 141.157 210.317 140.849 209.938 140.849C209.558 140.849 209.25 141.157 209.25 141.537V142.831C209.25 145.639 211.25 148.507 214.35 148.707V150.624H211.773C211.398 150.624 211.083 150.932 211.083 151.312C211.083 151.695 211.392 152 211.773 152H218.25C218.625 152 218.95 151.692 218.95 151.312C218.95 150.93 218.631 150.624 218.25 150.624H215.75Z" fill="black"/>
</g>
<g filter="url(#filter33_d)">
<path d="M484 131C484 128.239 486.239 126 489 126H586C588.761 126 591 128.239 591 131V154C591 156.761 588.761 159 586 159H489C486.239 159 484 156.761 484 154V131Z" fill="#0F77F0"/>
<path d="M516.851 148H518.21V142.781C518.21 141.547 519.132 140.727 520.429 140.727C520.726 140.727 520.983 140.758 521.265 140.805V139.484C521.132 139.461 520.843 139.43 520.585 139.43C519.444 139.43 518.655 139.945 518.335 140.828H518.21V139.578H516.851V148ZM525.827 148.148C527.812 148.148 529.015 147.023 529.304 145.883L529.32 145.82H527.96L527.929 145.891C527.702 146.398 526.999 146.938 525.859 146.938C524.359 146.938 523.398 145.922 523.359 144.18H529.421V143.648C529.421 141.133 528.031 139.43 525.742 139.43C523.452 139.43 521.968 141.211 521.968 143.812V143.82C521.968 146.461 523.421 148.148 525.827 148.148ZM525.734 140.641C526.976 140.641 527.898 141.43 528.038 143.094H523.382C523.531 141.492 524.484 140.641 525.734 140.641ZM534.203 148.062C534.468 148.062 534.726 148.031 534.992 147.984V146.828C534.742 146.852 534.609 146.859 534.367 146.859C533.492 146.859 533.148 146.461 533.148 145.469V140.703H534.992V139.578H533.148V137.398H531.742V139.578H530.414V140.703H531.742V145.812C531.742 147.422 532.468 148.062 534.203 148.062ZM539.523 148.148C540.758 148.148 541.609 147.641 542.023 146.742H542.148V148H543.508V139.578H542.148V144.562C542.148 146.039 541.359 146.945 539.875 146.945C538.531 146.945 537.984 146.219 537.984 144.703V139.578H536.625V145.031C536.625 147.023 537.609 148.148 539.523 148.148ZM545.727 148H547.086V142.781C547.086 141.547 548.008 140.727 549.305 140.727C549.602 140.727 549.86 140.758 550.141 140.805V139.484C550.008 139.461 549.719 139.43 549.461 139.43C548.321 139.43 547.532 139.945 547.211 140.828H547.086V139.578H545.727V148ZM551.657 148H553.016V143.016C553.016 141.539 553.868 140.633 555.212 140.633C556.555 140.633 557.18 141.359 557.18 142.875V148H558.54V142.547C558.54 140.547 557.485 139.43 555.594 139.43C554.352 139.43 553.563 139.953 553.141 140.844H553.016V139.578H551.657V148Z" fill="white"/>
</g>
<g filter="url(#filter34_d)">
<path d="M76 131C76 128.239 78.2386 126 81 126H121C123.761 126 126 128.239 126 131V154C126 156.761 123.761 159 121 159H81C78.2386 159 76 156.761 76 154V131Z" fill="#AEB3BE"/>
<path d="M91.9409 148H93.3472V136.727H91.9487L88.9487 138.883V140.367L91.8159 138.289H91.9409V148ZM96.285 148H103.582V146.734H98.2381V146.609L100.801 143.961C102.84 141.859 103.394 140.922 103.394 139.633V139.617C103.394 137.797 101.887 136.461 99.9178 136.461C97.7616 136.461 96.2147 137.898 96.2069 139.898L96.2225 139.906L97.5662 139.914L97.5741 139.898C97.5741 138.57 98.4725 137.688 99.8241 137.688C101.152 137.688 101.957 138.578 101.957 139.766V139.781C101.957 140.766 101.535 141.352 100.097 142.906L96.285 147.031V148ZM109.457 148.188C111.715 148.188 113.371 146.797 113.371 144.914V144.898C113.371 143.297 112.254 142.273 110.613 142.133V142.102C112.02 141.805 113.004 140.852 113.004 139.461V139.445C113.004 137.734 111.59 136.539 109.442 136.539C107.332 136.539 105.879 137.766 105.699 139.602L105.692 139.68H107.043L107.051 139.602C107.168 138.461 108.113 137.758 109.442 137.758C110.817 137.758 111.59 138.438 111.59 139.617V139.633C111.59 140.758 110.653 141.586 109.309 141.586H107.957V142.773H109.371C110.949 142.773 111.942 143.547 111.942 144.93V144.945C111.942 146.141 110.934 146.969 109.457 146.969C107.957 146.969 106.934 146.203 106.824 145.094L106.817 145.016H105.465L105.473 145.109C105.621 146.891 107.129 148.188 109.457 148.188Z" fill="black"/>
</g>
</g>
<defs>
<filter id="filter0_b" x="-70" y="-70" width="807" height="302" filterUnits="userSpaceOnUse" color-interpolation-filters="sRGB">
<feFlood flood-opacity="0" result="BackgroundImageFix"/>
<feGaussianBlur in="BackgroundImage" stdDeviation="35"/>
<feComposite in2="SourceAlpha" operator="in" result="effect1_backgroundBlur"/>
<feBlend mode="normal" in="SourceGraphic" in2="effect1_backgroundBlur" result="shape"/>
</filter>
<filter id="filter1_b" x="3" y="-70" width="661" height="263" filterUnits="userSpaceOnUse" color-interpolation-filters="sRGB">
<feFlood flood-opacity="0" result="BackgroundImageFix"/>
<feGaussianBlur in="BackgroundImage" stdDeviation="35"/>
<feComposite in2="SourceAlpha" operator="in" result="effect1_backgroundBlur"/>
<feBlend mode="normal" in="SourceGraphic" in2="effect1_backgroundBlur" result="shape"/>
</filter>
<filter id="filter2_d" x="155" y="86" width="46" height="34" filterUnits="userSpaceOnUse" color-interpolation-filters="sRGB">
<feFlood flood-opacity="0" result="BackgroundImageFix"/>
<feColorMatrix in="SourceAlpha" type="matrix" values="0 0 0 0 0 0 0 0 0 0 0 0 0 0 0 0 0 0 127 0" result="hardAlpha"/>
<feOffset dy="1"/>
<feColorMatrix type="matrix" values="0 0 0 0 0 0 0 0 0 0 0 0 0 0 0 0 0 0 0.3 0"/>
<feBlend mode="normal" in2="BackgroundImageFix" result="effect1_dropShadow"/>
<feBlend mode="normal" in="SourceGraphic" in2="effect1_dropShadow" result="shape"/>
</filter>
<filter id="filter3_d" x="207" y="86" width="46" height="34" filterUnits="userSpaceOnUse" color-interpolation-filters="sRGB">
<feFlood flood-opacity="0" result="BackgroundImageFix"/>
<feColorMatrix in="SourceAlpha" type="matrix" values="0 0 0 0 0 0 0 0 0 0 0 0 0 0 0 0 0 0 127 0" result="hardAlpha"/>
<feOffset dy="1"/>
<feColorMatrix type="matrix" values="0 0 0 0 0 0 0 0 0 0 0 0 0 0 0 0 0 0 0.3 0"/>
<feBlend mode="normal" in2="BackgroundImageFix" result="effect1_dropShadow"/>
<feBlend mode="normal" in="SourceGraphic" in2="effect1_dropShadow" result="shape"/>
</filter>
<filter id="filter4_d" x="259" y="86" width="46" height="34" filterUnits="userSpaceOnUse" color-interpolation-filters="sRGB">
<feFlood flood-opacity="0" result="BackgroundImageFix"/>
<feColorMatrix in="SourceAlpha" type="matrix" values="0 0 0 0 0 0 0 0 0 0 0 0 0 0 0 0 0 0 127 0" result="hardAlpha"/>
<feOffset dy="1"/>
<feColorMatrix type="matrix" values="0 0 0 0 0 0 0 0 0 0 0 0 0 0 0 0 0 0 0.3 0"/>
<feBlend mode="normal" in2="BackgroundImageFix" result="effect1_dropShadow"/>
<feBlend mode="normal" in="SourceGraphic" in2="effect1_dropShadow" result="shape"/>
</filter>
<filter id="filter5_d" x="311" y="86" width="46" height="34" filterUnits="userSpaceOnUse" color-interpolation-filters="sRGB">
<feFlood flood-opacity="0" result="BackgroundImageFix"/>
<feColorMatrix in="SourceAlpha" type="matrix" values="0 0 0 0 0 0 0 0 0 0 0 0 0 0 0 0 0 0 127 0" result="hardAlpha"/>
<feOffset dy="1"/>
<feColorMatrix type="matrix" values="0 0 0 0 0 0 0 0 0 0 0 0 0 0 0 0 0 0 0.3 0"/>
<feBlend mode="normal" in2="BackgroundImageFix" result="effect1_dropShadow"/>
<feBlend mode="normal" in="SourceGraphic" in2="effect1_dropShadow" result="shape"/>
</filter>
<filter id="filter6_d" x="363" y="86" width="46" height="34" filterUnits="userSpaceOnUse" color-interpolation-filters="sRGB">
<feFlood flood-opacity="0" result="BackgroundImageFix"/>
<feColorMatrix in="SourceAlpha" type="matrix" values="0 0 0 0 0 0 0 0 0 0 0 0 0 0 0 0 0 0 127 0" result="hardAlpha"/>
<feOffset dy="1"/>
<feColorMatrix type="matrix" values="0 0 0 0 0 0 0 0 0 0 0 0 0 0 0 0 0 0 0.3 0"/>
<feBlend mode="normal" in2="BackgroundImageFix" result="effect1_dropShadow"/>
<feBlend mode="normal" in="SourceGraphic" in2="effect1_dropShadow" result="shape"/>
</filter>
<filter id="filter7_d" x="415" y="86" width="46" height="34" filterUnits="userSpaceOnUse" color-interpolation-filters="sRGB">
<feFlood flood-opacity="0" result="BackgroundImageFix"/>
<feColorMatrix in="SourceAlpha" type="matrix" values="0 0 0 0 0 0 0 0 0 0 0 0 0 0 0 0 0 0 127 0" result="hardAlpha"/>
<feOffset dy="1"/>
<feColorMatrix type="matrix" values="0 0 0 0 0 0 0 0 0 0 0 0 0 0 0 0 0 0 0.3 0"/>
<feBlend mode="normal" in2="BackgroundImageFix" result="effect1_dropShadow"/>
<feBlend mode="normal" in="SourceGraphic" in2="effect1_dropShadow" result="shape"/>
</filter>
<filter id="filter8_d" x="467" y="86" width="46" height="34" filterUnits="userSpaceOnUse" color-interpolation-filters="sRGB">
<feFlood flood-opacity="0" result="BackgroundImageFix"/>
<feColorMatrix in="SourceAlpha" type="matrix" values="0 0 0 0 0 0 0 0 0 0 0 0 0 0 0 0 0 0 127 0" result="hardAlpha"/>
<feOffset dy="1"/>
<feColorMatrix type="matrix" values="0 0 0 0 0 0 0 0 0 0 0 0 0 0 0 0 0 0 0.3 0"/>
<feBlend mode="normal" in2="BackgroundImageFix" result="effect1_dropShadow"/>
<feBlend mode="normal" in="SourceGraphic" in2="effect1_dropShadow" result="shape"/>
</filter>
<filter id="filter9_d" x="102" y="46" width="47" height="34" filterUnits="userSpaceOnUse" color-interpolation-filters="sRGB">
<feFlood flood-opacity="0" result="BackgroundImageFix"/>
<feColorMatrix in="SourceAlpha" type="matrix" values="0 0 0 0 0 0 0 0 0 0 0 0 0 0 0 0 0 0 127 0" result="hardAlpha"/>
<feOffset dy="1"/>
<feColorMatrix type="matrix" values="0 0 0 0 0 0 0 0 0 0 0 0 0 0 0 0 0 0 0.3 0"/>
<feBlend mode="normal" in2="BackgroundImageFix" result="effect1_dropShadow"/>
<feBlend mode="normal" in="SourceGraphic" in2="effect1_dropShadow" result="shape"/>
</filter>
<filter id="filter10_d" x="155" y="46" width="45" height="34" filterUnits="userSpaceOnUse" color-interpolation-filters="sRGB">
<feFlood flood-opacity="0" result="BackgroundImageFix"/>
<feColorMatrix in="SourceAlpha" type="matrix" values="0 0 0 0 0 0 0 0 0 0 0 0 0 0 0 0 0 0 127 0" result="hardAlpha"/>
<feOffset dy="1"/>
<feColorMatrix type="matrix" values="0 0 0 0 0 0 0 0 0 0 0 0 0 0 0 0 0 0 0.3 0"/>
<feBlend mode="normal" in2="BackgroundImageFix" result="effect1_dropShadow"/>
<feBlend mode="normal" in="SourceGraphic" in2="effect1_dropShadow" result="shape"/>
</filter>
<filter id="filter11_d" x="206" y="46" width="47" height="34" filterUnits="userSpaceOnUse" color-interpolation-filters="sRGB">
<feFlood flood-opacity="0" result="BackgroundImageFix"/>
<feColorMatrix in="SourceAlpha" type="matrix" values="0 0 0 0 0 0 0 0 0 0 0 0 0 0 0 0 0 0 127 0" result="hardAlpha"/>
<feOffset dy="1"/>
<feColorMatrix type="matrix" values="0 0 0 0 0 0 0 0 0 0 0 0 0 0 0 0 0 0 0.3 0"/>
<feBlend mode="normal" in2="BackgroundImageFix" result="effect1_dropShadow"/>
<feBlend mode="normal" in="SourceGraphic" in2="effect1_dropShadow" result="shape"/>
</filter>
<filter id="filter12_d" x="259" y="46" width="46" height="34" filterUnits="userSpaceOnUse" color-interpolation-filters="sRGB">
<feFlood flood-opacity="0" result="BackgroundImageFix"/>
<feColorMatrix in="SourceAlpha" type="matrix" values="0 0 0 0 0 0 0 0 0 0 0 0 0 0 0 0 0 0 127 0" result="hardAlpha"/>
<feOffset dy="1"/>
<feColorMatrix type="matrix" values="0 0 0 0 0 0 0 0 0 0 0 0 0 0 0 0 0 0 0.3 0"/>
<feBlend mode="normal" in2="BackgroundImageFix" result="effect1_dropShadow"/>
<feBlend mode="normal" in="SourceGraphic" in2="effect1_dropShadow" result="shape"/>
</filter>
<filter id="filter13_d" x="311" y="46" width="46" height="34" filterUnits="userSpaceOnUse" color-interpolation-filters="sRGB">
<feFlood flood-opacity="0" result="BackgroundImageFix"/>
<feColorMatrix in="SourceAlpha" type="matrix" values="0 0 0 0 0 0 0 0 0 0 0 0 0 0 0 0 0 0 127 0" result="hardAlpha"/>
<feOffset dy="1"/>
<feColorMatrix type="matrix" values="0 0 0 0 0 0 0 0 0 0 0 0 0 0 0 0 0 0 0.3 0"/>
<feBlend mode="normal" in2="BackgroundImageFix" result="effect1_dropShadow"/>
<feBlend mode="normal" in="SourceGraphic" in2="effect1_dropShadow" result="shape"/>
</filter>
<filter id="filter14_d" x="363" y="46" width="46" height="34" filterUnits="userSpaceOnUse" color-interpolation-filters="sRGB">
<feFlood flood-opacity="0" result="BackgroundImageFix"/>
<feColorMatrix in="SourceAlpha" type="matrix" values="0 0 0 0 0 0 0 0 0 0 0 0 0 0 0 0 0 0 127 0" result="hardAlpha"/>
<feOffset dy="1"/>
<feColorMatrix type="matrix" values="0 0 0 0 0 0 0 0 0 0 0 0 0 0 0 0 0 0 0.3 0"/>
<feBlend mode="normal" in2="BackgroundImageFix" result="effect1_dropShadow"/>
<feBlend mode="normal" in="SourceGraphic" in2="effect1_dropShadow" result="shape"/>
</filter>
<filter id="filter15_d" x="415" y="46" width="47" height="34" filterUnits="userSpaceOnUse" color-interpolation-filters="sRGB">
<feFlood flood-opacity="0" result="BackgroundImageFix"/>
<feColorMatrix in="SourceAlpha" type="matrix" values="0 0 0 0 0 0 0 0 0 0 0 0 0 0 0 0 0 0 127 0" result="hardAlpha"/>
<feOffset dy="1"/>
<feColorMatrix type="matrix" values="0 0 0 0 0 0 0 0 0 0 0 0 0 0 0 0 0 0 0.3 0"/>
<feBlend mode="normal" in2="BackgroundImageFix" result="effect1_dropShadow"/>
<feBlend mode="normal" in="SourceGraphic" in2="effect1_dropShadow" result="shape"/>
</filter>
<filter id="filter16_d" x="468" y="46" width="45" height="34" filterUnits="userSpaceOnUse" color-interpolation-filters="sRGB">
<feFlood flood-opacity="0" result="BackgroundImageFix"/>
<feColorMatrix in="SourceAlpha" type="matrix" values="0 0 0 0 0 0 0 0 0 0 0 0 0 0 0 0 0 0 127 0" result="hardAlpha"/>
<feOffset dy="1"/>
<feColorMatrix type="matrix" values="0 0 0 0 0 0 0 0 0 0 0 0 0 0 0 0 0 0 0.3 0"/>
<feBlend mode="normal" in2="BackgroundImageFix" result="effect1_dropShadow"/>
<feBlend mode="normal" in="SourceGraphic" in2="effect1_dropShadow" result="shape"/>
</filter>
<filter id="filter17_d" x="519" y="46" width="47" height="34" filterUnits="userSpaceOnUse" color-interpolation-filters="sRGB">
<feFlood flood-opacity="0" result="BackgroundImageFix"/>
<feColorMatrix in="SourceAlpha" type="matrix" values="0 0 0 0 0 0 0 0 0 0 0 0 0 0 0 0 0 0 127 0" result="hardAlpha"/>
<feOffset dy="1"/>
<feColorMatrix type="matrix" values="0 0 0 0 0 0 0 0 0 0 0 0 0 0 0 0 0 0 0.3 0"/>
<feBlend mode="normal" in2="BackgroundImageFix" result="effect1_dropShadow"/>
<feBlend mode="normal" in="SourceGraphic" in2="effect1_dropShadow" result="shape"/>
</filter>
<filter id="filter18_d" x="76" y="6" width="46" height="34" filterUnits="userSpaceOnUse" color-interpolation-filters="sRGB">
<feFlood flood-opacity="0" result="BackgroundImageFix"/>
<feColorMatrix in="SourceAlpha" type="matrix" values="0 0 0 0 0 0 0 0 0 0 0 0 0 0 0 0 0 0 127 0" result="hardAlpha"/>
<feOffset dy="1"/>
<feColorMatrix type="matrix" values="0 0 0 0 0 0 0 0 0 0 0 0 0 0 0 0 0 0 0.3 0"/>
<feBlend mode="normal" in2="BackgroundImageFix" result="effect1_dropShadow"/>
<feBlend mode="normal" in="SourceGraphic" in2="effect1_dropShadow" result="shape"/>
</filter>
<filter id="filter19_d" x="129" y="6" width="44" height="34" filterUnits="userSpaceOnUse" color-interpolation-filters="sRGB">
<feFlood flood-opacity="0" result="BackgroundImageFix"/>
<feColorMatrix in="SourceAlpha" type="matrix" values="0 0 0 0 0 0 0 0 0 0 0 0 0 0 0 0 0 0 127 0" result="hardAlpha"/>
<feOffset dy="1"/>
<feColorMatrix type="matrix" values="0 0 0 0 0 0 0 0 0 0 0 0 0 0 0 0 0 0 0.3 0"/>
<feBlend mode="normal" in2="BackgroundImageFix" result="effect1_dropShadow"/>
<feBlend mode="normal" in="SourceGraphic" in2="effect1_dropShadow" result="shape"/>
</filter>
<filter id="filter20_d" x="180" y="6" width="46" height="34" filterUnits="userSpaceOnUse" color-interpolation-filters="sRGB">
<feFlood flood-opacity="0" result="BackgroundImageFix"/>
<feColorMatrix in="SourceAlpha" type="matrix" values="0 0 0 0 0 0 0 0 0 0 0 0 0 0 0 0 0 0 127 0" result="hardAlpha"/>
<feOffset dy="1"/>
<feColorMatrix type="matrix" values="0 0 0 0 0 0 0 0 0 0 0 0 0 0 0 0 0 0 0.3 0"/>
<feBlend mode="normal" in2="BackgroundImageFix" result="effect1_dropShadow"/>
<feBlend mode="normal" in="SourceGraphic" in2="effect1_dropShadow" result="shape"/>
</filter>
<filter id="filter21_d" x="233" y="6" width="45" height="34" filterUnits="userSpaceOnUse" color-interpolation-filters="sRGB">
<feFlood flood-opacity="0" result="BackgroundImageFix"/>
<feColorMatrix in="SourceAlpha" type="matrix" values="0 0 0 0 0 0 0 0 0 0 0 0 0 0 0 0 0 0 127 0" result="hardAlpha"/>
<feOffset dy="1"/>
<feColorMatrix type="matrix" values="0 0 0 0 0 0 0 0 0 0 0 0 0 0 0 0 0 0 0.3 0"/>
<feBlend mode="normal" in2="BackgroundImageFix" result="effect1_dropShadow"/>
<feBlend mode="normal" in="SourceGraphic" in2="effect1_dropShadow" result="shape"/>
</filter>
<filter id="filter22_d" x="285" y="6" width="45" height="34" filterUnits="userSpaceOnUse" color-interpolation-filters="sRGB">
<feFlood flood-opacity="0" result="BackgroundImageFix"/>
<feColorMatrix in="SourceAlpha" type="matrix" values="0 0 0 0 0 0 0 0 0 0 0 0 0 0 0 0 0 0 127 0" result="hardAlpha"/>
<feOffset dy="1"/>
<feColorMatrix type="matrix" values="0 0 0 0 0 0 0 0 0 0 0 0 0 0 0 0 0 0 0.3 0"/>
<feBlend mode="normal" in2="BackgroundImageFix" result="effect1_dropShadow"/>
<feBlend mode="normal" in="SourceGraphic" in2="effect1_dropShadow" result="shape"/>
</filter>
<filter id="filter23_d" x="337" y="6" width="46" height="34" filterUnits="userSpaceOnUse" color-interpolation-filters="sRGB">
<feFlood flood-opacity="0" result="BackgroundImageFix"/>
<feColorMatrix in="SourceAlpha" type="matrix" values="0 0 0 0 0 0 0 0 0 0 0 0 0 0 0 0 0 0 127 0" result="hardAlpha"/>
<feOffset dy="1"/>
<feColorMatrix type="matrix" values="0 0 0 0 0 0 0 0 0 0 0 0 0 0 0 0 0 0 0.3 0"/>
<feBlend mode="normal" in2="BackgroundImageFix" result="effect1_dropShadow"/>
<feBlend mode="normal" in="SourceGraphic" in2="effect1_dropShadow" result="shape"/>
</filter>
<filter id="filter24_d" x="390" y="6" width="45" height="34" filterUnits="userSpaceOnUse" color-interpolation-filters="sRGB">
<feFlood flood-opacity="0" result="BackgroundImageFix"/>
<feColorMatrix in="SourceAlpha" type="matrix" values="0 0 0 0 0 0 0 0 0 0 0 0 0 0 0 0 0 0 127 0" result="hardAlpha"/>
<feOffset dy="1"/>
<feColorMatrix type="matrix" values="0 0 0 0 0 0 0 0 0 0 0 0 0 0 0 0 0 0 0.3 0"/>
<feBlend mode="normal" in2="BackgroundImageFix" result="effect1_dropShadow"/>
<feBlend mode="normal" in="SourceGraphic" in2="effect1_dropShadow" result="shape"/>
</filter>
<filter id="filter25_d" x="442" y="6" width="46" height="34" filterUnits="userSpaceOnUse" color-interpolation-filters="sRGB">
<feFlood flood-opacity="0" result="BackgroundImageFix"/>
<feColorMatrix in="SourceAlpha" type="matrix" values="0 0 0 0 0 0 0 0 0 0 0 0 0 0 0 0 0 0 127 0" result="hardAlpha"/>
<feOffset dy="1"/>
<feColorMatrix type="matrix" values="0 0 0 0 0 0 0 0 0 0 0 0 0 0 0 0 0 0 0.3 0"/>
<feBlend mode="normal" in2="BackgroundImageFix" result="effect1_dropShadow"/>
<feBlend mode="normal" in="SourceGraphic" in2="effect1_dropShadow" result="shape"/>
</filter>
<filter id="filter26_d" x="495" y="6" width="44" height="34" filterUnits="userSpaceOnUse" color-interpolation-filters="sRGB">
<feFlood flood-opacity="0" result="BackgroundImageFix"/>
<feColorMatrix in="SourceAlpha" type="matrix" values="0 0 0 0 0 0 0 0 0 0 0 0 0 0 0 0 0 0 127 0" result="hardAlpha"/>
<feOffset dy="1"/>
<feColorMatrix type="matrix" values="0 0 0 0 0 0 0 0 0 0 0 0 0 0 0 0 0 0 0.3 0"/>
<feBlend mode="normal" in2="BackgroundImageFix" result="effect1_dropShadow"/>
<feBlend mode="normal" in="SourceGraphic" in2="effect1_dropShadow" result="shape"/>
</filter>
<filter id="filter27_d" x="546" y="6" width="46" height="34" filterUnits="userSpaceOnUse" color-interpolation-filters="sRGB">
<feFlood flood-opacity="0" result="BackgroundImageFix"/>
<feColorMatrix in="SourceAlpha" type="matrix" values="0 0 0 0 0 0 0 0 0 0 0 0 0 0 0 0 0 0 127 0" result="hardAlpha"/>
<feOffset dy="1"/>
<feColorMatrix type="matrix" values="0 0 0 0 0 0 0 0 0 0 0 0 0 0 0 0 0 0 0.3 0"/>
<feBlend mode="normal" in2="BackgroundImageFix" result="effect1_dropShadow"/>
<feBlend mode="normal" in="SourceGraphic" in2="effect1_dropShadow" result="shape"/>
</filter>
<filter id="filter28_d" x="528" y="86" width="63" height="33" filterUnits="userSpaceOnUse" color-interpolation-filters="sRGB">
<feFlood flood-opacity="0" result="BackgroundImageFix"/>
<feColorMatrix in="SourceAlpha" type="matrix" values="0 0 0 0 0 0 0 0 0 0 0 0 0 0 0 0 0 0 127 0" result="hardAlpha"/>
<feOffset dy="1"/>
<feColorMatrix type="matrix" values="0 0 0 0 0 0 0 0 0 0 0 0 0 0 0 0 0 0 0.3 0"/>
<feBlend mode="normal" in2="BackgroundImageFix" result="effect1_dropShadow"/>
<feBlend mode="normal" in="SourceGraphic" in2="effect1_dropShadow" result="shape"/>
</filter>
<filter id="filter29_d" x="76" y="86" width="63" height="34" filterUnits="userSpaceOnUse" color-interpolation-filters="sRGB">
<feFlood flood-opacity="0" result="BackgroundImageFix"/>
<feColorMatrix in="SourceAlpha" type="matrix" values="0 0 0 0 0 0 0 0 0 0 0 0 0 0 0 0 0 0 127 0" result="hardAlpha"/>
<feOffset dy="1"/>
<feColorMatrix type="matrix" values="0 0 0 0 0 0 0 0 0 0 0 0 0 0 0 0 0 0 0.3 0"/>
<feBlend mode="normal" in2="BackgroundImageFix" result="effect1_dropShadow"/>
<feBlend mode="normal" in="SourceGraphic" in2="effect1_dropShadow" result="shape"/>
</filter>
<filter id="filter30_d" x="133" y="126" width="50" height="34" filterUnits="userSpaceOnUse" color-interpolation-filters="sRGB">
<feFlood flood-opacity="0" result="BackgroundImageFix"/>
<feColorMatrix in="SourceAlpha" type="matrix" values="0 0 0 0 0 0 0 0 0 0 0 0 0 0 0 0 0 0 127 0" result="hardAlpha"/>
<feOffset dy="1"/>
<feColorMatrix type="matrix" values="0 0 0 0 0 0 0 0 0 0 0 0 0 0 0 0 0 0 0.3 0"/>
<feBlend mode="normal" in2="BackgroundImageFix" result="effect1_dropShadow"/>
<feBlend mode="normal" in="SourceGraphic" in2="effect1_dropShadow" result="shape"/>
</filter>
<filter id="filter31_d" x="247" y="126" width="230" height="34" filterUnits="userSpaceOnUse" color-interpolation-filters="sRGB">
<feFlood flood-opacity="0" result="BackgroundImageFix"/>
<feColorMatrix in="SourceAlpha" type="matrix" values="0 0 0 0 0 0 0 0 0 0 0 0 0 0 0 0 0 0 127 0" result="hardAlpha"/>
<feOffset dy="1"/>
<feColorMatrix type="matrix" values="0 0 0 0 0 0 0 0 0 0 0 0 0 0 0 0 0 0 0.3 0"/>
<feBlend mode="normal" in2="BackgroundImageFix" result="effect1_dropShadow"/>
<feBlend mode="normal" in="SourceGraphic" in2="effect1_dropShadow" result="shape"/>
</filter>
<filter id="filter32_d" x="190" y="126" width="50" height="34" filterUnits="userSpaceOnUse" color-interpolation-filters="sRGB">
<feFlood flood-opacity="0" result="BackgroundImageFix"/>
<feColorMatrix in="SourceAlpha" type="matrix" values="0 0 0 0 0 0 0 0 0 0 0 0 0 0 0 0 0 0 127 0" result="hardAlpha"/>
<feOffset dy="1"/>
<feColorMatrix type="matrix" values="0 0 0 0 0 0 0 0 0 0 0 0 0 0 0 0 0 0 0.3 0"/>
<feBlend mode="normal" in2="BackgroundImageFix" result="effect1_dropShadow"/>
<feBlend mode="normal" in="SourceGraphic" in2="effect1_dropShadow" result="shape"/>
</filter>
<filter id="filter33_d" x="484" y="126" width="107" height="34" filterUnits="userSpaceOnUse" color-interpolation-filters="sRGB">
<feFlood flood-opacity="0" result="BackgroundImageFix"/>
<feColorMatrix in="SourceAlpha" type="matrix" values="0 0 0 0 0 0 0 0 0 0 0 0 0 0 0 0 0 0 127 0" result="hardAlpha"/>
<feOffset dy="1"/>
<feColorMatrix type="matrix" values="0 0 0 0 0 0 0 0 0 0 0 0 0 0 0 0 0 0 0.3 0"/>
<feBlend mode="normal" in2="BackgroundImageFix" result="effect1_dropShadow"/>
<feBlend mode="normal" in="SourceGraphic" in2="effect1_dropShadow" result="shape"/>
</filter>
<filter id="filter34_d" x="76" y="126" width="50" height="34" filterUnits="userSpaceOnUse" color-interpolation-filters="sRGB">
<feFlood flood-opacity="0" result="BackgroundImageFix"/>
<feColorMatrix in="SourceAlpha" type="matrix" values="0 0 0 0 0 0 0 0 0 0 0 0 0 0 0 0 0 0 127 0" result="hardAlpha"/>
<feOffset dy="1"/>
<feColorMatrix type="matrix" values="0 0 0 0 0 0 0 0 0 0 0 0 0 0 0 0 0 0 0.3 0"/>
<feBlend mode="normal" in2="BackgroundImageFix" result="effect1_dropShadow"/>
<feBlend mode="normal" in="SourceGraphic" in2="effect1_dropShadow" result="shape"/>
</filter>
</defs>
</svg>
