<svg width="375" height="218" viewBox="0 0 375 218" fill="none" xmlns="http://www.w3.org/2000/svg">
<g filter="url(#filter0_b)">
<rect width="375" height="218" fill="#CED2D9" fill-opacity="0.9"/>
<g filter="url(#filter1_b)">
<g filter="url(#filter2_d)">
<path d="M58 121C58 118.239 60.2386 116 63 116H85C87.7614 116 90 118.239 90 121V154C90 156.761 87.7614 159 85 159H63C60.2386 159 58 156.761 58 154V121Z" fill="white"/>
<path d="M69.1953 145H78.793V143.699H71.0586V143.559L78.7695 133.562V132.379H69.207V133.68H76.9297V133.82L69.1953 143.828V145Z" fill="black"/>
</g>
<g filter="url(#filter3_d)">
<path d="M96 121C96 118.239 98.2386 116 101 116H123C125.761 116 128 118.239 128 121V154C128 156.761 125.761 159 123 159H101C98.2386 159 96 156.761 96 154V121Z" fill="white"/>
<path d="M106.703 145H108.461L111.906 139.844H112.047L115.48 145H117.32L112.844 138.59L117.273 132.379H115.504L112.105 137.418H111.953L108.52 132.379H106.68L111.156 138.648L106.703 145Z" fill="black"/>
</g>
<g filter="url(#filter4_d)">
<path d="M134 121C134 118.239 136.239 116 139 116H161C163.761 116 166 118.239 166 121V154C166 156.761 163.761 159 161 159H139C136.239 159 134 156.761 134 154V121Z" fill="white"/>
<path d="M150.328 145.211C153.211 145.211 154.969 143.676 155.461 141.449L155.484 141.355L153.938 141.367L153.914 141.426C153.469 142.949 152.18 143.828 150.316 143.828C147.82 143.828 146.215 141.801 146.215 138.66V138.637C146.215 135.531 147.809 133.551 150.316 133.551C152.25 133.551 153.562 134.617 153.938 136.07L153.949 136.105L155.484 136.094V136.047C155.098 133.832 153.211 132.168 150.316 132.168C146.836 132.168 144.633 134.699 144.633 138.637V138.66C144.633 142.656 146.848 145.211 150.328 145.211Z" fill="black"/>
</g>
<g filter="url(#filter5_d)">
<path d="M172 121C172 118.239 174.239 116 177 116H199C201.761 116 204 118.239 204 121V154C204 156.761 201.761 159 199 159H177C174.239 159 172 156.761 172 154V121Z" fill="white"/>
<path d="M187.18 145H188.82L193.531 132.379H191.879L188.07 143.324H187.93L184.109 132.379H182.469L187.18 145Z" fill="black"/>
</g>
<g filter="url(#filter6_d)">
<path d="M210 121C210 118.239 212.239 116 215 116H237C239.761 116 242 118.239 242 121V154C242 156.761 239.761 159 237 159H215C212.239 159 210 156.761 210 154V121Z" fill="white"/>
<path d="M226.691 145.211C229.879 145.211 232 142.598 232 138.695V138.672C232 134.746 229.891 132.168 226.691 132.168C224.781 132.168 223.152 133.199 222.461 134.828H222.309V127.352H220.762V145H222.309V142.48H222.461C223.188 144.18 224.758 145.211 226.691 145.211ZM226.375 143.828C223.891 143.828 222.285 141.801 222.285 138.695V138.672C222.285 135.566 223.891 133.551 226.375 133.551C228.859 133.551 230.418 135.531 230.418 138.66V138.684C230.418 141.824 228.859 143.828 226.375 143.828Z" fill="black"/>
</g>
<g filter="url(#filter7_d)">
<path d="M248 121C248 118.239 250.239 116 253 116H275C277.761 116 280 118.239 280 121V154C280 156.761 277.761 159 275 159H253C250.239 159 248 156.761 248 154V121Z" fill="white"/>
<path d="M258.996 145H260.543V137.5C260.543 135.121 262.055 133.551 264.281 133.551C266.473 133.551 267.562 134.781 267.562 137.184V145H269.109V136.797C269.109 133.855 267.504 132.168 264.691 132.168C262.723 132.168 261.363 133.07 260.695 134.594H260.543V132.379H258.996V145Z" fill="black"/>
</g>
<g filter="url(#filter8_d)">
<path d="M286 121C286 118.239 288.239 116 291 116H313C315.761 116 318 118.239 318 121V154C318 156.761 315.761 159 313 159H291C288.239 159 286 156.761 286 154V121Z" fill="white"/>
<path d="M293.598 145H295.145V137.254C295.145 135.191 296.551 133.551 298.379 133.551C300.125 133.551 301.273 134.734 301.273 136.551V145H302.82V136.996C302.82 135.039 304.121 133.551 306.066 133.551C307.965 133.551 308.961 134.652 308.961 136.715V145H310.52V136.363C310.52 133.691 309.055 132.168 306.523 132.168C304.707 132.168 303.23 133.141 302.586 134.652H302.434C301.895 133.141 300.629 132.168 298.859 132.168C297.137 132.168 295.836 133.094 295.297 134.605H295.145V132.379H293.598V145Z" fill="black"/>
</g>
<g filter="url(#filter9_d)">
<path d="M21.75 67C21.75 64.2386 23.9886 62 26.75 62H48.75C51.5114 62 53.75 64.2386 53.75 67V100C53.75 102.761 51.5114 105 48.75 105H26.75C23.9886 105 21.75 102.761 21.75 100V67Z" fill="white"/>
<path d="M36.6133 91.2109C38.4766 91.2109 39.9883 90.332 40.7383 88.832H40.8789V91H42.4375V82.375C42.4375 79.7148 40.7148 78.168 37.7617 78.168C35.1484 78.168 33.2383 79.457 32.9102 81.4727L32.8984 81.5195H34.457L34.4688 81.4961C34.7969 80.2422 36.0039 79.5508 37.7148 79.5508C39.7539 79.5508 40.8789 80.5352 40.8789 82.3867V83.5703L36.9414 83.8281C34.0234 84.0273 32.3945 85.3047 32.3945 87.4961V87.5195C32.3945 89.7695 34.1758 91.2109 36.6133 91.2109ZM33.9766 87.4961V87.4727C33.9766 86.043 35.0078 85.2344 37.1523 85.0938L40.8789 84.8359V86.3008C40.8789 88.3047 39.168 89.8516 36.9062 89.8516C35.207 89.8516 33.9766 88.9375 33.9766 87.4961Z" fill="black"/>
</g>
<g filter="url(#filter10_d)">
<path d="M59.75 67C59.75 64.2386 61.9886 62 64.75 62H86.75C89.5114 62 91.75 64.2386 91.75 67V100C91.75 102.761 89.5114 105 86.75 105H64.75C61.9886 105 59.75 102.761 59.75 100V67Z" fill="white"/>
<path d="M75.7734 91.2109C78.5273 91.2109 80.6484 89.6875 80.6484 87.5195V87.4961C80.6484 85.6797 79.4648 84.6953 77.0273 84.1094L75.2812 83.6992C73.6055 83.3008 72.832 82.7031 72.832 81.6719V81.6484C72.832 80.3945 74.1328 79.4688 75.7852 79.4688C77.4609 79.4688 78.6328 80.2656 78.9141 81.4375H80.4375C80.1445 79.4453 78.3398 78.168 75.7969 78.168C73.2539 78.168 71.25 79.6797 71.25 81.7188V81.7305C71.25 83.5 72.3398 84.4727 74.6836 85.0234L76.4414 85.4453C78.2812 85.8789 79.0664 86.5234 79.0664 87.6133V87.6367C79.0664 88.9492 77.6719 89.8984 75.8203 89.8984C73.9922 89.8984 72.7852 89.0898 72.4453 87.8359H70.8516C71.1094 89.8984 73.0195 91.2109 75.7734 91.2109Z" fill="black"/>
</g>
<g filter="url(#filter11_d)">
<path d="M97.75 67C97.75 64.2386 99.9886 62 102.75 62H124.75C127.511 62 129.75 64.2386 129.75 67V100C129.75 102.761 127.511 105 124.75 105H102.75C99.9886 105 97.75 102.761 97.75 100V67Z" fill="white"/>
<path d="M113.07 91.2109C115.016 91.2109 116.574 90.1797 117.312 88.4805H117.453V91H119.012V73.3516H117.453V80.8398H117.312C116.609 79.2109 114.98 78.168 113.07 78.168C109.871 78.168 107.738 80.7695 107.738 84.6836V84.707C107.738 88.5977 109.883 91.2109 113.07 91.2109ZM113.398 89.8281C110.902 89.8281 109.32 87.8242 109.32 84.6953V84.6719C109.32 81.5547 110.902 79.5508 113.398 79.5508C115.883 79.5508 117.488 81.5664 117.488 84.6719V84.6953C117.488 87.8125 115.883 89.8281 113.398 89.8281Z" fill="black"/>
</g>
<g filter="url(#filter12_d)">
<path d="M135.75 67C135.75 64.2386 137.989 62 140.75 62H162.75C165.511 62 167.75 64.2386 167.75 67V100C167.75 102.761 165.511 105 162.75 105H140.75C137.989 105 135.75 102.761 135.75 100V67Z" fill="white"/>
<path d="M150.367 91H151.926V79.6797H154.879V78.3789H151.926V76.7969C151.926 75.332 152.594 74.5352 154.047 74.5352C154.41 74.5352 154.762 74.5586 154.996 74.5938V73.3398C154.609 73.2695 154.223 73.2344 153.766 73.2344C151.562 73.2344 150.367 74.418 150.367 76.7617V78.3789H148.27V79.6797H150.367V91Z" fill="black"/>
</g>
<g filter="url(#filter13_d)">
<path d="M173.75 67C173.75 64.2386 175.989 62 178.75 62H200.75C203.511 62 205.75 64.2386 205.75 67V100C205.75 102.761 203.511 105 200.75 105H178.75C175.989 105 173.75 102.761 173.75 100V67Z" fill="white"/>
<path d="M189.574 95.4062C192.891 95.4062 195.059 93.6016 195.059 90.8477V78.3789H193.5V80.9336H193.395C192.668 79.2461 191.109 78.168 189.164 78.168C185.906 78.168 183.82 80.7461 183.82 84.3555V84.3789C183.82 88 185.895 90.543 189.141 90.543C191.074 90.543 192.621 89.582 193.371 87.918H193.523V90.7422C193.523 92.7812 192.012 94.0234 189.574 94.0234C187.652 94.0234 186.34 93.2617 186.059 92.1602L186.047 92.1484H184.441L184.43 92.1602C184.758 94.1172 186.68 95.4062 189.574 95.4062ZM189.445 89.1602C186.926 89.1602 185.402 87.2031 185.402 84.3789V84.3555C185.402 81.5312 186.926 79.5508 189.445 79.5508C191.941 79.5508 193.547 81.5547 193.547 84.3789V84.4023C193.547 87.2266 191.977 89.1602 189.445 89.1602Z" fill="black"/>
</g>
<g filter="url(#filter14_d)">
<path d="M211.75 67C211.75 64.2386 213.989 62 216.75 62H238.75C241.511 62 243.75 64.2386 243.75 67V100C243.75 102.761 241.511 105 238.75 105H216.75C213.989 105 211.75 102.761 211.75 100V67Z" fill="white"/>
<path d="M222.805 91H224.352V83.5C224.352 81.1211 225.863 79.5508 228.09 79.5508C230.27 79.5508 231.371 80.7812 231.371 83.1836V91H232.918V82.7969C232.918 79.8555 231.312 78.168 228.5 78.168C226.531 78.168 225.172 79.0586 224.504 80.5938H224.352V73.3516H222.805V91Z" fill="black"/>
</g>
<g filter="url(#filter15_d)">
<path d="M249.75 67C249.75 64.2386 251.989 62 254.75 62H276.75C279.511 62 281.75 64.2386 281.75 67V100C281.75 102.761 279.511 105 276.75 105H254.75C251.989 105 249.75 102.761 249.75 100V67Z" fill="white"/>
<path d="M265.738 75.7539C266.371 75.7539 266.887 75.25 266.887 74.6172C266.887 73.9844 266.371 73.4805 265.738 73.4805C265.117 73.4805 264.602 73.9844 264.602 74.6172C264.602 75.25 265.117 75.7539 265.738 75.7539ZM262.961 95.3008C265.34 95.3008 266.512 94.2695 266.512 91.7969V78.3789H264.965V91.832C264.965 93.3438 264.367 93.918 262.926 93.918H262.68V95.3008H262.961Z" fill="black"/>
</g>
<g filter="url(#filter16_d)">
<path d="M287.75 67C287.75 64.2386 289.989 62 292.75 62H314.75C317.511 62 319.75 64.2386 319.75 67V100C319.75 102.761 317.511 105 314.75 105H292.75C289.989 105 287.75 102.761 287.75 100V67Z" fill="white"/>
<path d="M299.449 91H300.996V86.1016L302.414 84.7656L307.5 91H309.469L303.527 83.7227L309.211 78.3789H307.289L301.148 84.2852H300.996V73.3516H299.449V91Z" fill="black"/>
</g>
<g filter="url(#filter17_d)">
<path d="M325.75 67C325.75 64.2386 327.989 62 330.75 62H352.75C355.511 62 357.75 64.2386 357.75 67V100C357.75 102.761 355.511 105 352.75 105H330.75C327.989 105 325.75 102.761 325.75 100V67Z" fill="white"/>
<path d="M340.977 91H342.523V73.3516H340.977V91Z" fill="black"/>
</g>
<g filter="url(#filter18_d)">
<path d="M5 13C5 10.2386 7.23858 8 10 8H31C33.7614 8 36 10.2386 36 13V46C36 48.7614 33.7614 51 31 51H10C7.23858 51 5 48.7614 5 46V13Z" fill="white"/>
<path d="M24.2734 41.1836H25.8203V24.3789H24.2734V26.957H24.1562C23.3828 25.2461 21.7773 24.168 19.8789 24.168C16.6797 24.168 14.5703 26.7578 14.5703 30.6719V30.6953C14.5703 34.6094 16.6914 37.2109 19.8789 37.2109C21.8359 37.2109 23.4297 36.2266 24.1211 34.5977H24.2734V41.1836ZM20.207 35.8281C17.7227 35.8281 16.1523 33.8359 16.1523 30.707V30.6836C16.1523 27.543 17.7227 25.5508 20.1953 25.5508C22.6797 25.5508 24.3086 27.5781 24.3086 30.6836V30.6953C24.3086 33.7891 22.6797 35.8281 20.207 35.8281Z" fill="black"/>
</g>
<g filter="url(#filter19_d)">
<path d="M42 13C42 10.2386 44.2386 8 47 8H68C70.7614 8 73 10.2386 73 13V46C73 48.7614 70.7614 51 68 51H47C44.2386 51 42 48.7614 42 46V13Z" fill="white"/>
<path d="M52.6836 37H54.3008L57.4062 26.5234H57.5586L60.6641 37H62.293L65.8906 24.3789H64.3438L61.5195 35.0898H61.3789L58.2617 24.3789H56.7266L53.6094 35.0898H53.4688L50.668 24.3789H49.1094L52.6836 37Z" fill="black"/>
</g>
<g filter="url(#filter20_d)">
<path d="M79 13C79 10.2386 81.2386 8 84 8H105C107.761 8 110 10.2386 110 13V46C110 48.7614 107.761 51 105 51H84C81.2386 51 79 48.7614 79 46V13Z" fill="white"/>
<path d="M94.6875 37.2109C97.4766 37.2109 99.3164 35.6875 99.8086 33.9766L99.8438 33.8828H98.2852L98.2383 33.9648C97.8281 34.9492 96.5625 35.8164 94.7227 35.8164C92.2148 35.8164 90.5977 34.0469 90.5508 31.0938H100.031V30.4375C100.031 26.6992 97.9453 24.168 94.5586 24.168C91.1719 24.168 88.9688 26.7695 88.9688 30.707V30.7305C88.9688 34.6914 91.1484 37.2109 94.6875 37.2109ZM94.5586 25.5508C96.7266 25.5508 98.2852 27.0273 98.4609 29.8281H90.5625C90.7617 27.0977 92.3789 25.5508 94.5586 25.5508Z" fill="black"/>
</g>
<g filter="url(#filter21_d)">
<path d="M116 13C116 10.2386 118.239 8 121 8H142C144.761 8 147 10.2386 147 13V46C147 48.7614 144.761 51 142 51H121C118.239 51 116 48.7614 116 46V13Z" fill="white"/>
<path d="M129.004 37H130.551V29.125C130.551 27.0859 132.004 25.6445 133.973 25.6445C134.453 25.6445 134.863 25.6914 135.32 25.8086V24.2852C135.016 24.2148 134.594 24.168 134.137 24.168C132.426 24.168 131.195 25.0117 130.703 26.4531H130.551V24.3789H129.004V37Z" fill="black"/>
</g>
<g filter="url(#filter22_d)">
<path d="M153 13C153 10.2386 155.239 8 158 8H179C181.761 8 184 10.2386 184 13V46C184 48.7614 181.761 51 179 51H158C155.239 51 153 48.7614 153 46V13Z" fill="white"/>
<path d="M170.41 37.082C170.785 37.082 171.137 37.0469 171.488 36.9883V35.6523C171.172 35.6875 170.938 35.6992 170.586 35.6992C169.156 35.6992 168.605 35.0547 168.605 33.5078V25.6797H171.488V24.3789H168.605V21.0977H167V24.3789H164.973V25.6797H167V33.8594C167 36.1562 167.996 37.082 170.41 37.082Z" fill="black"/>
</g>
<g filter="url(#filter23_d)">
<path d="M190 13C190 10.2386 192.239 8 195 8H216C218.761 8 221 10.2386 221 13V46C221 48.7614 218.761 51 216 51H195C192.239 51 190 48.7614 190 46V13Z" fill="white"/>
<path d="M202.02 41.3594C204.047 41.3594 205.008 40.5742 205.934 38.1016L211.031 24.3789H209.391L205.594 35.3242H205.43L201.621 24.3789H199.957L204.691 37.082L204.375 38.0312C203.859 39.543 203.145 40.0586 201.973 40.0586C201.762 40.0586 201.516 40.0586 201.328 40.0234V41.3125C201.551 41.3477 201.809 41.3594 202.02 41.3594Z" fill="black"/>
</g>
<g filter="url(#filter24_d)">
<path d="M227 13C227 10.2386 229.239 8 232 8H253C255.761 8 258 10.2386 258 13V46C258 48.7614 255.761 51 253 51H232C229.239 51 227 48.7614 227 46V13Z" fill="white"/>
<path d="M241.82 37.2109C243.777 37.2109 245.195 36.3203 245.816 34.7969H245.957V37H247.504V24.3789H245.957V31.8789C245.957 34.2695 244.551 35.8281 242.195 35.8281C240.027 35.8281 238.938 34.5508 238.938 32.1953V24.3789H237.391V32.582C237.391 35.4766 238.984 37.2109 241.82 37.2109Z" fill="black"/>
</g>
<g filter="url(#filter25_d)">
<path d="M264 13C264 10.2386 266.239 8 269 8H290C292.761 8 295 10.2386 295 13V46C295 48.7614 292.761 51 290 51H269C266.239 51 264 48.7614 264 46V13Z" fill="white"/>
<path d="M279.512 21.7539C280.133 21.7539 280.648 21.25 280.648 20.6172C280.648 19.9844 280.133 19.4805 279.512 19.4805C278.879 19.4805 278.363 19.9844 278.363 20.6172C278.363 21.25 278.879 21.7539 279.512 21.7539ZM278.727 37H280.273V24.3789H278.727V37Z" fill="black"/>
</g>
<g filter="url(#filter26_d)">
<path d="M301 13C301 10.2386 303.239 8 306 8H327C329.761 8 332 10.2386 332 13V46C332 48.7614 329.761 51 327 51H306C303.239 51 301 48.7614 301 46V13Z" fill="white"/>
<path d="M316.5 37.2109C320.027 37.2109 322.242 34.7148 322.242 30.6953V30.6719C322.242 26.6523 320.027 24.168 316.5 24.168C312.973 24.168 310.77 26.6523 310.77 30.6719V30.6953C310.77 34.7148 312.973 37.2109 316.5 37.2109ZM316.5 35.8281C313.898 35.8281 312.352 33.8828 312.352 30.6953V30.6719C312.352 27.4844 313.898 25.5508 316.5 25.5508C319.102 25.5508 320.648 27.4844 320.648 30.6719V30.6953C320.648 33.8828 319.102 35.8281 316.5 35.8281Z" fill="black"/>
</g>
<g filter="url(#filter27_d)">
<path d="M338 13C338 10.2386 340.239 8 343 8H364C366.761 8 369 10.2386 369 13V46C369 48.7614 366.761 51 364 51H343C340.239 51 338 48.7614 338 46V13Z" fill="white"/>
<path d="M348.191 41.1836H349.738V34.5391H349.891C350.582 36.168 352.211 37.2109 354.121 37.2109C357.32 37.2109 359.465 34.6094 359.465 30.6953V30.6719C359.465 26.7812 357.32 24.168 354.121 24.168C352.188 24.168 350.629 25.1992 349.891 26.8867H349.738V24.3789H348.191V41.1836ZM353.805 35.8281C351.32 35.8281 349.715 33.8125 349.715 30.6953V30.6719C349.715 27.5664 351.32 25.5508 353.805 25.5508C356.301 25.5508 357.883 27.5547 357.883 30.6719V30.6953C357.883 33.8242 356.301 35.8281 353.805 35.8281Z" fill="black"/>
</g>
<g filter="url(#filter28_d)">
<path d="M3 121C3 118.239 5.23858 116 8 116H40C42.7614 116 45 118.239 45 121V154C45 156.761 42.7614 159 40 159H8C5.23858 159 3 156.761 3 154V121Z" fill="#AEB3BE"/>
<path fill-rule="evenodd" clip-rule="evenodd" d="M21.0362 138.242V144.249H26.9631V138.242H30.8741L23.9999 131.144L17.1259 138.242H21.0362ZM23.6411 129.502C23.8375 129.299 24.1625 129.299 24.3588 129.502L33.358 138.795C33.6654 139.112 33.4408 139.643 32.9992 139.643H28.3624V145.15C28.3624 145.426 28.1387 145.65 27.8627 145.65H20.1366C19.8606 145.65 19.6368 145.426 19.6368 145.15V139.643H15.0007C14.5592 139.643 14.3346 139.112 14.642 138.795L23.6411 129.502Z" fill="black"/>
</g>
<g filter="url(#filter29_d)">
<path d="M330 121C330 118.239 332.239 116 335 116H367C369.761 116 372 118.239 372 121V153C372 155.761 369.761 158 367 158H335C332.239 158 330 155.761 330 153V121Z" fill="#AEB3BE"/>
<path d="M350.214 134.525C349.922 134.232 349.922 133.757 350.214 133.464C350.507 133.172 350.982 133.172 351.275 133.464L353.75 135.939L356.225 133.464C356.518 133.172 356.993 133.172 357.286 133.464C357.578 133.757 357.578 134.232 357.286 134.525L354.811 137L357.286 139.475C357.578 139.768 357.578 140.243 357.286 140.536C356.993 140.828 356.518 140.828 356.225 140.536L353.75 138.061L351.275 140.536C350.982 140.828 350.507 140.828 350.214 140.536C349.922 140.243 349.922 139.768 350.214 139.475L352.689 137L350.214 134.525Z" fill="black"/>
<path fill-rule="evenodd" clip-rule="evenodd" d="M347.121 129.379L339.5 137L347.121 144.621C347.684 145.184 348.447 145.5 349.243 145.5H359.5C361.157 145.5 362.5 144.157 362.5 142.5V131.5C362.5 129.843 361.157 128.5 359.5 128.5H349.243C348.447 128.5 347.684 128.816 347.121 129.379ZM359.5 144.2H349.243C348.792 144.2 348.359 144.021 348.041 143.702L341.339 137L348.041 130.298C348.359 129.979 348.792 129.8 349.243 129.8H359.5C360.439 129.8 361.2 130.561 361.2 131.5V142.5C361.2 143.439 360.439 144.2 359.5 144.2Z" fill="black"/>
</g>
</g>
<g filter="url(#filter30_d)">
<path d="M3 177C3 174.239 5.23858 172 8 172H38C40.7614 172 43 174.239 43 177V210C43 212.761 40.7614 215 38 215H8C5.23858 215 3 212.761 3 210V177Z" fill="#AEB3BE"/>
<path d="M13.9409 199H15.3472V187.727H13.9487L10.9487 189.883V191.367L13.8159 189.289H13.9409V199ZM18.285 199H25.5819V197.734H20.2381V197.609L22.8006 194.961C24.8397 192.859 25.3944 191.922 25.3944 190.633V190.617C25.3944 188.797 23.8866 187.461 21.9178 187.461C19.7616 187.461 18.2147 188.898 18.2069 190.898L18.2225 190.906L19.5662 190.914L19.5741 190.898C19.5741 189.57 20.4725 188.688 21.8241 188.688C23.1522 188.688 23.9569 189.578 23.9569 190.766V190.781C23.9569 191.766 23.535 192.352 22.0975 193.906L18.285 198.031V199ZM31.4572 199.188C33.715 199.188 35.3713 197.797 35.3713 195.914V195.898C35.3713 194.297 34.2541 193.273 32.6134 193.133V193.102C34.0197 192.805 35.0041 191.852 35.0041 190.461V190.445C35.0041 188.734 33.59 187.539 31.4416 187.539C29.3322 187.539 27.8791 188.766 27.6994 190.602L27.6916 190.68H29.0431L29.0509 190.602C29.1681 189.461 30.1134 188.758 31.4416 188.758C32.8166 188.758 33.59 189.438 33.59 190.617V190.633C33.59 191.758 32.6525 192.586 31.3088 192.586H29.9572V193.773H31.3713C32.9494 193.773 33.9416 194.547 33.9416 195.93V195.945C33.9416 197.141 32.9338 197.969 31.4572 197.969C29.9572 197.969 28.9338 197.203 28.8244 196.094L28.8166 196.016H27.465L27.4728 196.109C27.6213 197.891 29.1291 199.188 31.4572 199.188Z" fill="black"/>
</g>
<g filter="url(#filter31_d)">
<path d="M97 177C97 174.239 99.2386 172 102 172H123C125.761 172 128 174.239 128 177V209C128 211.761 125.761 214 123 214H102C99.2386 214 97 211.761 97 209V177Z" fill="#AEB3BE"/>
<path fill-rule="evenodd" clip-rule="evenodd" d="M112.998 183C111.23 183 109.79 184.436 109.79 186.207V193.633C109.79 195.404 111.226 196.839 112.998 196.839C114.767 196.839 116.207 195.404 116.207 193.633V186.207C116.207 184.435 114.77 183 112.998 183ZM111.165 186.202V193.637C111.165 194.638 111.986 195.464 112.998 195.464C114.018 195.464 114.832 194.646 114.832 193.637V186.202C114.832 185.201 114.011 184.376 112.998 184.376C111.979 184.376 111.165 185.193 111.165 186.202Z" fill="black"/>
<path d="M113.75 200.624V198.707C117.25 198.507 118.75 195.636 118.75 192.831V191.537C118.751 191.527 118.75 191.517 118.75 191.507L118.75 191.491C118.75 191.111 118.44 190.803 118.06 190.803C117.68 190.803 117.38 191.111 117.38 191.491V192.83C117.38 195.636 116.25 197.556 113.05 197.556C110.25 197.556 108.625 195.636 108.625 192.83V191.537C108.625 191.157 108.317 190.849 107.938 190.849C107.558 190.849 107.25 191.157 107.25 191.537V192.831C107.25 195.639 109.25 198.507 112.35 198.707V200.624H109.773C109.398 200.624 109.083 200.932 109.083 201.312C109.083 201.695 109.392 202 109.773 202H116.25C116.625 202 116.95 201.692 116.95 201.312C116.95 200.93 116.631 200.624 116.25 200.624H113.75Z" fill="black"/>
</g>
<g filter="url(#filter32_d)">
<path d="M50 177C50 174.239 52.2386 172 55 172H85C87.7614 172 90 174.239 90 177V210C90 212.761 87.7614 215 85 215H55C52.2386 215 50 212.761 50 210V177Z" fill="#AEB3BE"/>
<path fill-rule="evenodd" clip-rule="evenodd" d="M70 204C64.4772 204 60 199.523 60 194C60 188.477 64.4772 184 70 184C75.5228 184 80 188.477 80 194C80 199.523 75.5228 204 70 204ZM70 203C74.9706 203 79 198.971 79 194C79 189.029 74.9706 185 70 185C65.0294 185 61 189.029 61 194C61 198.971 65.0294 203 70 203ZM69.9882 201C66.4242 201 63.0417 197.582 63.0417 195.111C63.0417 193.694 66.1222 195.4 69.9882 195.4C73.8542 195.4 76.9686 193.696 76.9583 195.111C76.9408 197.505 73.5521 201 69.9882 201ZM69.9882 197.85C73.3019 197.85 75.5942 196.569 75.5942 195.645C75.5942 194.721 73.3019 196.196 69.9882 196.196C66.6745 196.196 64.4202 194.898 64.4202 195.645C64.4202 196.392 66.6745 197.85 69.9882 197.85ZM66.9875 192.225C66.3317 192.225 65.8 191.693 65.8 191.037C65.8 190.382 66.3317 189.85 66.9875 189.85C67.6433 189.85 68.175 190.382 68.175 191.037C68.175 191.693 67.6433 192.225 66.9875 192.225ZM72.9875 192.225C72.3317 192.225 71.8 191.693 71.8 191.037C71.8 190.382 72.3317 189.85 72.9875 189.85C73.6433 189.85 74.175 190.382 74.175 191.037C74.175 191.693 73.6433 192.225 72.9875 192.225Z" fill="black"/>
</g>
<g filter="url(#filter33_d)">
<path d="M135 177C135 174.239 137.239 172 140 172H273C275.761 172 278 174.239 278 177V210C278 212.761 275.761 215 273 215H140C137.239 215 135 212.761 135 210V177Z" fill="white"/>
<path d="M188.925 199.148C190.839 199.148 192.3 198.109 192.3 196.609V196.594C192.3 195.391 191.534 194.703 189.948 194.32L188.652 194.008C187.659 193.766 187.237 193.406 187.237 192.836V192.82C187.237 192.078 187.972 191.562 188.972 191.562C189.987 191.562 190.644 192.023 190.823 192.688H192.159C191.972 191.312 190.745 190.43 188.98 190.43C187.191 190.43 185.847 191.484 185.847 192.883V192.891C185.847 194.102 186.558 194.789 188.136 195.164L189.441 195.477C190.48 195.727 190.909 196.125 190.909 196.695V196.711C190.909 197.477 190.105 198.016 188.972 198.016C187.894 198.016 187.222 197.555 186.995 196.852H185.605C185.761 198.242 187.05 199.148 188.925 199.148ZM194.089 201.812H195.449V197.672H195.574C196.035 198.57 197.042 199.148 198.199 199.148C200.339 199.148 201.73 197.438 201.73 194.797V194.781C201.73 192.156 200.332 190.43 198.199 190.43C197.027 190.43 196.089 190.984 195.574 191.922H195.449V190.578H194.089V201.812ZM197.886 197.945C196.355 197.945 195.417 196.742 195.417 194.797V194.781C195.417 192.836 196.355 191.633 197.886 191.633C199.425 191.633 200.339 192.82 200.339 194.781V194.797C200.339 196.758 199.425 197.945 197.886 197.945ZM205.848 199.148C206.98 199.148 207.863 198.656 208.394 197.758H208.519V199H209.879V193.234C209.879 191.484 208.73 190.43 206.676 190.43C204.879 190.43 203.598 191.32 203.379 192.641L203.371 192.688H204.73L204.738 192.664C204.957 192.008 205.621 191.633 206.629 191.633C207.887 191.633 208.519 192.195 208.519 193.234V194L206.105 194.148C204.144 194.266 203.035 195.133 203.035 196.633V196.648C203.035 198.18 204.246 199.148 205.848 199.148ZM204.426 196.617V196.602C204.426 195.766 204.988 195.312 206.269 195.234L208.519 195.094V195.859C208.519 197.062 207.512 197.969 206.129 197.969C205.152 197.969 204.426 197.469 204.426 196.617ZM215.488 199.148C217.512 199.148 218.645 198.062 218.988 196.539L219.004 196.453L217.66 196.461L217.645 196.508C217.332 197.445 216.613 197.945 215.481 197.945C213.981 197.945 213.012 196.703 213.012 194.766V194.75C213.012 192.852 213.965 191.633 215.481 191.633C216.692 191.633 217.442 192.305 217.652 193.133L217.66 193.156H219.012L219.004 193.109C218.754 191.609 217.527 190.43 215.481 190.43C213.121 190.43 211.621 192.133 211.621 194.75V194.766C211.621 197.438 213.129 199.148 215.488 199.148ZM224.114 199.148C226.098 199.148 227.301 198.023 227.59 196.883L227.606 196.82H226.247L226.215 196.891C225.989 197.398 225.286 197.938 224.145 197.938C222.645 197.938 221.684 196.922 221.645 195.18H227.708V194.648C227.708 192.133 226.317 190.43 224.028 190.43C221.739 190.43 220.254 192.211 220.254 194.812V194.82C220.254 197.461 221.708 199.148 224.114 199.148ZM224.02 191.641C225.262 191.641 226.184 192.43 226.325 194.094H221.668C221.817 192.492 222.77 191.641 224.02 191.641Z" fill="black"/>
</g>
<g filter="url(#filter34_d)">
<path d="M285 177C285 174.239 287.239 172 290 172H367C369.761 172 372 174.239 372 177V210C372 212.761 369.761 215 367 215H290C287.239 215 285 212.761 285 210V177Z" fill="#0F77F0"/>
<path d="M307.851 199H309.21V193.781C309.21 192.547 310.132 191.727 311.429 191.727C311.726 191.727 311.983 191.758 312.265 191.805V190.484C312.132 190.461 311.843 190.43 311.585 190.43C310.444 190.43 309.655 190.945 309.335 191.828H309.21V190.578H307.851V199ZM316.827 199.148C318.812 199.148 320.015 198.023 320.304 196.883L320.32 196.82H318.96L318.929 196.891C318.702 197.398 317.999 197.938 316.859 197.938C315.359 197.938 314.398 196.922 314.359 195.18H320.421V194.648C320.421 192.133 319.031 190.43 316.742 190.43C314.452 190.43 312.968 192.211 312.968 194.812V194.82C312.968 197.461 314.421 199.148 316.827 199.148ZM316.734 191.641C317.976 191.641 318.898 192.43 319.038 194.094H314.382C314.531 192.492 315.484 191.641 316.734 191.641ZM325.203 199.062C325.468 199.062 325.726 199.031 325.992 198.984V197.828C325.742 197.852 325.609 197.859 325.367 197.859C324.492 197.859 324.148 197.461 324.148 196.469V191.703H325.992V190.578H324.148V188.398H322.742V190.578H321.414V191.703H322.742V196.812C322.742 198.422 323.468 199.062 325.203 199.062ZM330.523 199.148C331.758 199.148 332.609 198.641 333.023 197.742H333.148V199H334.508V190.578H333.148V195.562C333.148 197.039 332.359 197.945 330.875 197.945C329.531 197.945 328.984 197.219 328.984 195.703V190.578H327.625V196.031C327.625 198.023 328.609 199.148 330.523 199.148ZM336.727 199H338.086V193.781C338.086 192.547 339.008 191.727 340.305 191.727C340.602 191.727 340.86 191.758 341.141 191.805V190.484C341.008 190.461 340.719 190.43 340.461 190.43C339.321 190.43 338.532 190.945 338.211 191.828H338.086V190.578H336.727V199ZM342.657 199H344.016V194.016C344.016 192.539 344.868 191.633 346.212 191.633C347.555 191.633 348.18 192.359 348.18 193.875V199H349.54V193.547C349.54 191.547 348.485 190.43 346.594 190.43C345.352 190.43 344.563 190.953 344.141 191.844H344.016V190.578H342.657V199Z" fill="white"/>
</g>
</g>
<defs>
<filter id="filter0_b" x="-70" y="-70" width="515" height="358" filterUnits="userSpaceOnUse" color-interpolation-filters="sRGB">
<feFlood flood-opacity="0" result="BackgroundImageFix"/>
<feGaussianBlur in="BackgroundImage" stdDeviation="35"/>
<feComposite in2="SourceAlpha" operator="in" result="effect1_backgroundBlur"/>
<feBlend mode="normal" in="SourceGraphic" in2="effect1_backgroundBlur" result="shape"/>
</filter>
<filter id="filter1_b" x="-70" y="-70" width="515" height="309" filterUnits="userSpaceOnUse" color-interpolation-filters="sRGB">
<feFlood flood-opacity="0" result="BackgroundImageFix"/>
<feGaussianBlur in="BackgroundImage" stdDeviation="35"/>
<feComposite in2="SourceAlpha" operator="in" result="effect1_backgroundBlur"/>
<feBlend mode="normal" in="SourceGraphic" in2="effect1_backgroundBlur" result="shape"/>
</filter>
<filter id="filter2_d" x="58" y="116" width="32" height="44" filterUnits="userSpaceOnUse" color-interpolation-filters="sRGB">
<feFlood flood-opacity="0" result="BackgroundImageFix"/>
<feColorMatrix in="SourceAlpha" type="matrix" values="0 0 0 0 0 0 0 0 0 0 0 0 0 0 0 0 0 0 127 0" result="hardAlpha"/>
<feOffset dy="1"/>
<feColorMatrix type="matrix" values="0 0 0 0 0 0 0 0 0 0 0 0 0 0 0 0 0 0 0.3 0"/>
<feBlend mode="normal" in2="BackgroundImageFix" result="effect1_dropShadow"/>
<feBlend mode="normal" in="SourceGraphic" in2="effect1_dropShadow" result="shape"/>
</filter>
<filter id="filter3_d" x="96" y="116" width="32" height="44" filterUnits="userSpaceOnUse" color-interpolation-filters="sRGB">
<feFlood flood-opacity="0" result="BackgroundImageFix"/>
<feColorMatrix in="SourceAlpha" type="matrix" values="0 0 0 0 0 0 0 0 0 0 0 0 0 0 0 0 0 0 127 0" result="hardAlpha"/>
<feOffset dy="1"/>
<feColorMatrix type="matrix" values="0 0 0 0 0 0 0 0 0 0 0 0 0 0 0 0 0 0 0.3 0"/>
<feBlend mode="normal" in2="BackgroundImageFix" result="effect1_dropShadow"/>
<feBlend mode="normal" in="SourceGraphic" in2="effect1_dropShadow" result="shape"/>
</filter>
<filter id="filter4_d" x="134" y="116" width="32" height="44" filterUnits="userSpaceOnUse" color-interpolation-filters="sRGB">
<feFlood flood-opacity="0" result="BackgroundImageFix"/>
<feColorMatrix in="SourceAlpha" type="matrix" values="0 0 0 0 0 0 0 0 0 0 0 0 0 0 0 0 0 0 127 0" result="hardAlpha"/>
<feOffset dy="1"/>
<feColorMatrix type="matrix" values="0 0 0 0 0 0 0 0 0 0 0 0 0 0 0 0 0 0 0.3 0"/>
<feBlend mode="normal" in2="BackgroundImageFix" result="effect1_dropShadow"/>
<feBlend mode="normal" in="SourceGraphic" in2="effect1_dropShadow" result="shape"/>
</filter>
<filter id="filter5_d" x="172" y="116" width="32" height="44" filterUnits="userSpaceOnUse" color-interpolation-filters="sRGB">
<feFlood flood-opacity="0" result="BackgroundImageFix"/>
<feColorMatrix in="SourceAlpha" type="matrix" values="0 0 0 0 0 0 0 0 0 0 0 0 0 0 0 0 0 0 127 0" result="hardAlpha"/>
<feOffset dy="1"/>
<feColorMatrix type="matrix" values="0 0 0 0 0 0 0 0 0 0 0 0 0 0 0 0 0 0 0.3 0"/>
<feBlend mode="normal" in2="BackgroundImageFix" result="effect1_dropShadow"/>
<feBlend mode="normal" in="SourceGraphic" in2="effect1_dropShadow" result="shape"/>
</filter>
<filter id="filter6_d" x="210" y="116" width="32" height="44" filterUnits="userSpaceOnUse" color-interpolation-filters="sRGB">
<feFlood flood-opacity="0" result="BackgroundImageFix"/>
<feColorMatrix in="SourceAlpha" type="matrix" values="0 0 0 0 0 0 0 0 0 0 0 0 0 0 0 0 0 0 127 0" result="hardAlpha"/>
<feOffset dy="1"/>
<feColorMatrix type="matrix" values="0 0 0 0 0 0 0 0 0 0 0 0 0 0 0 0 0 0 0.3 0"/>
<feBlend mode="normal" in2="BackgroundImageFix" result="effect1_dropShadow"/>
<feBlend mode="normal" in="SourceGraphic" in2="effect1_dropShadow" result="shape"/>
</filter>
<filter id="filter7_d" x="248" y="116" width="32" height="44" filterUnits="userSpaceOnUse" color-interpolation-filters="sRGB">
<feFlood flood-opacity="0" result="BackgroundImageFix"/>
<feColorMatrix in="SourceAlpha" type="matrix" values="0 0 0 0 0 0 0 0 0 0 0 0 0 0 0 0 0 0 127 0" result="hardAlpha"/>
<feOffset dy="1"/>
<feColorMatrix type="matrix" values="0 0 0 0 0 0 0 0 0 0 0 0 0 0 0 0 0 0 0.3 0"/>
<feBlend mode="normal" in2="BackgroundImageFix" result="effect1_dropShadow"/>
<feBlend mode="normal" in="SourceGraphic" in2="effect1_dropShadow" result="shape"/>
</filter>
<filter id="filter8_d" x="286" y="116" width="32" height="44" filterUnits="userSpaceOnUse" color-interpolation-filters="sRGB">
<feFlood flood-opacity="0" result="BackgroundImageFix"/>
<feColorMatrix in="SourceAlpha" type="matrix" values="0 0 0 0 0 0 0 0 0 0 0 0 0 0 0 0 0 0 127 0" result="hardAlpha"/>
<feOffset dy="1"/>
<feColorMatrix type="matrix" values="0 0 0 0 0 0 0 0 0 0 0 0 0 0 0 0 0 0 0.3 0"/>
<feBlend mode="normal" in2="BackgroundImageFix" result="effect1_dropShadow"/>
<feBlend mode="normal" in="SourceGraphic" in2="effect1_dropShadow" result="shape"/>
</filter>
<filter id="filter9_d" x="21.75" y="62" width="32" height="44" filterUnits="userSpaceOnUse" color-interpolation-filters="sRGB">
<feFlood flood-opacity="0" result="BackgroundImageFix"/>
<feColorMatrix in="SourceAlpha" type="matrix" values="0 0 0 0 0 0 0 0 0 0 0 0 0 0 0 0 0 0 127 0" result="hardAlpha"/>
<feOffset dy="1"/>
<feColorMatrix type="matrix" values="0 0 0 0 0 0 0 0 0 0 0 0 0 0 0 0 0 0 0.3 0"/>
<feBlend mode="normal" in2="BackgroundImageFix" result="effect1_dropShadow"/>
<feBlend mode="normal" in="SourceGraphic" in2="effect1_dropShadow" result="shape"/>
</filter>
<filter id="filter10_d" x="59.75" y="62" width="32" height="44" filterUnits="userSpaceOnUse" color-interpolation-filters="sRGB">
<feFlood flood-opacity="0" result="BackgroundImageFix"/>
<feColorMatrix in="SourceAlpha" type="matrix" values="0 0 0 0 0 0 0 0 0 0 0 0 0 0 0 0 0 0 127 0" result="hardAlpha"/>
<feOffset dy="1"/>
<feColorMatrix type="matrix" values="0 0 0 0 0 0 0 0 0 0 0 0 0 0 0 0 0 0 0.3 0"/>
<feBlend mode="normal" in2="BackgroundImageFix" result="effect1_dropShadow"/>
<feBlend mode="normal" in="SourceGraphic" in2="effect1_dropShadow" result="shape"/>
</filter>
<filter id="filter11_d" x="97.75" y="62" width="32" height="44" filterUnits="userSpaceOnUse" color-interpolation-filters="sRGB">
<feFlood flood-opacity="0" result="BackgroundImageFix"/>
<feColorMatrix in="SourceAlpha" type="matrix" values="0 0 0 0 0 0 0 0 0 0 0 0 0 0 0 0 0 0 127 0" result="hardAlpha"/>
<feOffset dy="1"/>
<feColorMatrix type="matrix" values="0 0 0 0 0 0 0 0 0 0 0 0 0 0 0 0 0 0 0.3 0"/>
<feBlend mode="normal" in2="BackgroundImageFix" result="effect1_dropShadow"/>
<feBlend mode="normal" in="SourceGraphic" in2="effect1_dropShadow" result="shape"/>
</filter>
<filter id="filter12_d" x="135.75" y="62" width="32" height="44" filterUnits="userSpaceOnUse" color-interpolation-filters="sRGB">
<feFlood flood-opacity="0" result="BackgroundImageFix"/>
<feColorMatrix in="SourceAlpha" type="matrix" values="0 0 0 0 0 0 0 0 0 0 0 0 0 0 0 0 0 0 127 0" result="hardAlpha"/>
<feOffset dy="1"/>
<feColorMatrix type="matrix" values="0 0 0 0 0 0 0 0 0 0 0 0 0 0 0 0 0 0 0.3 0"/>
<feBlend mode="normal" in2="BackgroundImageFix" result="effect1_dropShadow"/>
<feBlend mode="normal" in="SourceGraphic" in2="effect1_dropShadow" result="shape"/>
</filter>
<filter id="filter13_d" x="173.75" y="62" width="32" height="44" filterUnits="userSpaceOnUse" color-interpolation-filters="sRGB">
<feFlood flood-opacity="0" result="BackgroundImageFix"/>
<feColorMatrix in="SourceAlpha" type="matrix" values="0 0 0 0 0 0 0 0 0 0 0 0 0 0 0 0 0 0 127 0" result="hardAlpha"/>
<feOffset dy="1"/>
<feColorMatrix type="matrix" values="0 0 0 0 0 0 0 0 0 0 0 0 0 0 0 0 0 0 0.3 0"/>
<feBlend mode="normal" in2="BackgroundImageFix" result="effect1_dropShadow"/>
<feBlend mode="normal" in="SourceGraphic" in2="effect1_dropShadow" result="shape"/>
</filter>
<filter id="filter14_d" x="211.75" y="62" width="32" height="44" filterUnits="userSpaceOnUse" color-interpolation-filters="sRGB">
<feFlood flood-opacity="0" result="BackgroundImageFix"/>
<feColorMatrix in="SourceAlpha" type="matrix" values="0 0 0 0 0 0 0 0 0 0 0 0 0 0 0 0 0 0 127 0" result="hardAlpha"/>
<feOffset dy="1"/>
<feColorMatrix type="matrix" values="0 0 0 0 0 0 0 0 0 0 0 0 0 0 0 0 0 0 0.3 0"/>
<feBlend mode="normal" in2="BackgroundImageFix" result="effect1_dropShadow"/>
<feBlend mode="normal" in="SourceGraphic" in2="effect1_dropShadow" result="shape"/>
</filter>
<filter id="filter15_d" x="249.75" y="62" width="32" height="44" filterUnits="userSpaceOnUse" color-interpolation-filters="sRGB">
<feFlood flood-opacity="0" result="BackgroundImageFix"/>
<feColorMatrix in="SourceAlpha" type="matrix" values="0 0 0 0 0 0 0 0 0 0 0 0 0 0 0 0 0 0 127 0" result="hardAlpha"/>
<feOffset dy="1"/>
<feColorMatrix type="matrix" values="0 0 0 0 0 0 0 0 0 0 0 0 0 0 0 0 0 0 0.3 0"/>
<feBlend mode="normal" in2="BackgroundImageFix" result="effect1_dropShadow"/>
<feBlend mode="normal" in="SourceGraphic" in2="effect1_dropShadow" result="shape"/>
</filter>
<filter id="filter16_d" x="287.75" y="62" width="32" height="44" filterUnits="userSpaceOnUse" color-interpolation-filters="sRGB">
<feFlood flood-opacity="0" result="BackgroundImageFix"/>
<feColorMatrix in="SourceAlpha" type="matrix" values="0 0 0 0 0 0 0 0 0 0 0 0 0 0 0 0 0 0 127 0" result="hardAlpha"/>
<feOffset dy="1"/>
<feColorMatrix type="matrix" values="0 0 0 0 0 0 0 0 0 0 0 0 0 0 0 0 0 0 0.3 0"/>
<feBlend mode="normal" in2="BackgroundImageFix" result="effect1_dropShadow"/>
<feBlend mode="normal" in="SourceGraphic" in2="effect1_dropShadow" result="shape"/>
</filter>
<filter id="filter17_d" x="325.75" y="62" width="32" height="44" filterUnits="userSpaceOnUse" color-interpolation-filters="sRGB">
<feFlood flood-opacity="0" result="BackgroundImageFix"/>
<feColorMatrix in="SourceAlpha" type="matrix" values="0 0 0 0 0 0 0 0 0 0 0 0 0 0 0 0 0 0 127 0" result="hardAlpha"/>
<feOffset dy="1"/>
<feColorMatrix type="matrix" values="0 0 0 0 0 0 0 0 0 0 0 0 0 0 0 0 0 0 0.3 0"/>
<feBlend mode="normal" in2="BackgroundImageFix" result="effect1_dropShadow"/>
<feBlend mode="normal" in="SourceGraphic" in2="effect1_dropShadow" result="shape"/>
</filter>
<filter id="filter18_d" x="5" y="8" width="31" height="44" filterUnits="userSpaceOnUse" color-interpolation-filters="sRGB">
<feFlood flood-opacity="0" result="BackgroundImageFix"/>
<feColorMatrix in="SourceAlpha" type="matrix" values="0 0 0 0 0 0 0 0 0 0 0 0 0 0 0 0 0 0 127 0" result="hardAlpha"/>
<feOffset dy="1"/>
<feColorMatrix type="matrix" values="0 0 0 0 0 0 0 0 0 0 0 0 0 0 0 0 0 0 0.3 0"/>
<feBlend mode="normal" in2="BackgroundImageFix" result="effect1_dropShadow"/>
<feBlend mode="normal" in="SourceGraphic" in2="effect1_dropShadow" result="shape"/>
</filter>
<filter id="filter19_d" x="42" y="8" width="31" height="44" filterUnits="userSpaceOnUse" color-interpolation-filters="sRGB">
<feFlood flood-opacity="0" result="BackgroundImageFix"/>
<feColorMatrix in="SourceAlpha" type="matrix" values="0 0 0 0 0 0 0 0 0 0 0 0 0 0 0 0 0 0 127 0" result="hardAlpha"/>
<feOffset dy="1"/>
<feColorMatrix type="matrix" values="0 0 0 0 0 0 0 0 0 0 0 0 0 0 0 0 0 0 0.3 0"/>
<feBlend mode="normal" in2="BackgroundImageFix" result="effect1_dropShadow"/>
<feBlend mode="normal" in="SourceGraphic" in2="effect1_dropShadow" result="shape"/>
</filter>
<filter id="filter20_d" x="79" y="8" width="31" height="44" filterUnits="userSpaceOnUse" color-interpolation-filters="sRGB">
<feFlood flood-opacity="0" result="BackgroundImageFix"/>
<feColorMatrix in="SourceAlpha" type="matrix" values="0 0 0 0 0 0 0 0 0 0 0 0 0 0 0 0 0 0 127 0" result="hardAlpha"/>
<feOffset dy="1"/>
<feColorMatrix type="matrix" values="0 0 0 0 0 0 0 0 0 0 0 0 0 0 0 0 0 0 0.3 0"/>
<feBlend mode="normal" in2="BackgroundImageFix" result="effect1_dropShadow"/>
<feBlend mode="normal" in="SourceGraphic" in2="effect1_dropShadow" result="shape"/>
</filter>
<filter id="filter21_d" x="116" y="8" width="31" height="44" filterUnits="userSpaceOnUse" color-interpolation-filters="sRGB">
<feFlood flood-opacity="0" result="BackgroundImageFix"/>
<feColorMatrix in="SourceAlpha" type="matrix" values="0 0 0 0 0 0 0 0 0 0 0 0 0 0 0 0 0 0 127 0" result="hardAlpha"/>
<feOffset dy="1"/>
<feColorMatrix type="matrix" values="0 0 0 0 0 0 0 0 0 0 0 0 0 0 0 0 0 0 0.3 0"/>
<feBlend mode="normal" in2="BackgroundImageFix" result="effect1_dropShadow"/>
<feBlend mode="normal" in="SourceGraphic" in2="effect1_dropShadow" result="shape"/>
</filter>
<filter id="filter22_d" x="153" y="8" width="31" height="44" filterUnits="userSpaceOnUse" color-interpolation-filters="sRGB">
<feFlood flood-opacity="0" result="BackgroundImageFix"/>
<feColorMatrix in="SourceAlpha" type="matrix" values="0 0 0 0 0 0 0 0 0 0 0 0 0 0 0 0 0 0 127 0" result="hardAlpha"/>
<feOffset dy="1"/>
<feColorMatrix type="matrix" values="0 0 0 0 0 0 0 0 0 0 0 0 0 0 0 0 0 0 0.3 0"/>
<feBlend mode="normal" in2="BackgroundImageFix" result="effect1_dropShadow"/>
<feBlend mode="normal" in="SourceGraphic" in2="effect1_dropShadow" result="shape"/>
</filter>
<filter id="filter23_d" x="190" y="8" width="31" height="44" filterUnits="userSpaceOnUse" color-interpolation-filters="sRGB">
<feFlood flood-opacity="0" result="BackgroundImageFix"/>
<feColorMatrix in="SourceAlpha" type="matrix" values="0 0 0 0 0 0 0 0 0 0 0 0 0 0 0 0 0 0 127 0" result="hardAlpha"/>
<feOffset dy="1"/>
<feColorMatrix type="matrix" values="0 0 0 0 0 0 0 0 0 0 0 0 0 0 0 0 0 0 0.3 0"/>
<feBlend mode="normal" in2="BackgroundImageFix" result="effect1_dropShadow"/>
<feBlend mode="normal" in="SourceGraphic" in2="effect1_dropShadow" result="shape"/>
</filter>
<filter id="filter24_d" x="227" y="8" width="31" height="44" filterUnits="userSpaceOnUse" color-interpolation-filters="sRGB">
<feFlood flood-opacity="0" result="BackgroundImageFix"/>
<feColorMatrix in="SourceAlpha" type="matrix" values="0 0 0 0 0 0 0 0 0 0 0 0 0 0 0 0 0 0 127 0" result="hardAlpha"/>
<feOffset dy="1"/>
<feColorMatrix type="matrix" values="0 0 0 0 0 0 0 0 0 0 0 0 0 0 0 0 0 0 0.3 0"/>
<feBlend mode="normal" in2="BackgroundImageFix" result="effect1_dropShadow"/>
<feBlend mode="normal" in="SourceGraphic" in2="effect1_dropShadow" result="shape"/>
</filter>
<filter id="filter25_d" x="264" y="8" width="31" height="44" filterUnits="userSpaceOnUse" color-interpolation-filters="sRGB">
<feFlood flood-opacity="0" result="BackgroundImageFix"/>
<feColorMatrix in="SourceAlpha" type="matrix" values="0 0 0 0 0 0 0 0 0 0 0 0 0 0 0 0 0 0 127 0" result="hardAlpha"/>
<feOffset dy="1"/>
<feColorMatrix type="matrix" values="0 0 0 0 0 0 0 0 0 0 0 0 0 0 0 0 0 0 0.3 0"/>
<feBlend mode="normal" in2="BackgroundImageFix" result="effect1_dropShadow"/>
<feBlend mode="normal" in="SourceGraphic" in2="effect1_dropShadow" result="shape"/>
</filter>
<filter id="filter26_d" x="301" y="8" width="31" height="44" filterUnits="userSpaceOnUse" color-interpolation-filters="sRGB">
<feFlood flood-opacity="0" result="BackgroundImageFix"/>
<feColorMatrix in="SourceAlpha" type="matrix" values="0 0 0 0 0 0 0 0 0 0 0 0 0 0 0 0 0 0 127 0" result="hardAlpha"/>
<feOffset dy="1"/>
<feColorMatrix type="matrix" values="0 0 0 0 0 0 0 0 0 0 0 0 0 0 0 0 0 0 0.3 0"/>
<feBlend mode="normal" in2="BackgroundImageFix" result="effect1_dropShadow"/>
<feBlend mode="normal" in="SourceGraphic" in2="effect1_dropShadow" result="shape"/>
</filter>
<filter id="filter27_d" x="338" y="8" width="31" height="44" filterUnits="userSpaceOnUse" color-interpolation-filters="sRGB">
<feFlood flood-opacity="0" result="BackgroundImageFix"/>
<feColorMatrix in="SourceAlpha" type="matrix" values="0 0 0 0 0 0 0 0 0 0 0 0 0 0 0 0 0 0 127 0" result="hardAlpha"/>
<feOffset dy="1"/>
<feColorMatrix type="matrix" values="0 0 0 0 0 0 0 0 0 0 0 0 0 0 0 0 0 0 0.3 0"/>
<feBlend mode="normal" in2="BackgroundImageFix" result="effect1_dropShadow"/>
<feBlend mode="normal" in="SourceGraphic" in2="effect1_dropShadow" result="shape"/>
</filter>
<filter id="filter28_d" x="3" y="116" width="42" height="44" filterUnits="userSpaceOnUse" color-interpolation-filters="sRGB">
<feFlood flood-opacity="0" result="BackgroundImageFix"/>
<feColorMatrix in="SourceAlpha" type="matrix" values="0 0 0 0 0 0 0 0 0 0 0 0 0 0 0 0 0 0 127 0" result="hardAlpha"/>
<feOffset dy="1"/>
<feColorMatrix type="matrix" values="0 0 0 0 0 0 0 0 0 0 0 0 0 0 0 0 0 0 0.3 0"/>
<feBlend mode="normal" in2="BackgroundImageFix" result="effect1_dropShadow"/>
<feBlend mode="normal" in="SourceGraphic" in2="effect1_dropShadow" result="shape"/>
</filter>
<filter id="filter29_d" x="330" y="116" width="42" height="43" filterUnits="userSpaceOnUse" color-interpolation-filters="sRGB">
<feFlood flood-opacity="0" result="BackgroundImageFix"/>
<feColorMatrix in="SourceAlpha" type="matrix" values="0 0 0 0 0 0 0 0 0 0 0 0 0 0 0 0 0 0 127 0" result="hardAlpha"/>
<feOffset dy="1"/>
<feColorMatrix type="matrix" values="0 0 0 0 0 0 0 0 0 0 0 0 0 0 0 0 0 0 0.3 0"/>
<feBlend mode="normal" in2="BackgroundImageFix" result="effect1_dropShadow"/>
<feBlend mode="normal" in="SourceGraphic" in2="effect1_dropShadow" result="shape"/>
</filter>
<filter id="filter30_d" x="3" y="172" width="40" height="44" filterUnits="userSpaceOnUse" color-interpolation-filters="sRGB">
<feFlood flood-opacity="0" result="BackgroundImageFix"/>
<feColorMatrix in="SourceAlpha" type="matrix" values="0 0 0 0 0 0 0 0 0 0 0 0 0 0 0 0 0 0 127 0" result="hardAlpha"/>
<feOffset dy="1"/>
<feColorMatrix type="matrix" values="0 0 0 0 0 0 0 0 0 0 0 0 0 0 0 0 0 0 0.3 0"/>
<feBlend mode="normal" in2="BackgroundImageFix" result="effect1_dropShadow"/>
<feBlend mode="normal" in="SourceGraphic" in2="effect1_dropShadow" result="shape"/>
</filter>
<filter id="filter31_d" x="97" y="172" width="32" height="43" filterUnits="userSpaceOnUse" color-interpolation-filters="sRGB">
<feFlood flood-opacity="0" result="BackgroundImageFix"/>
<feColorMatrix in="SourceAlpha" type="matrix" values="0 0 0 0 0 0 0 0 0 0 0 0 0 0 0 0 0 0 127 0" result="hardAlpha"/>
<feOffset dy="1"/>
<feColorMatrix type="matrix" values="0 0 0 0 0 0 0 0 0 0 0 0 0 0 0 0 0 0 0.3 0"/>
<feBlend mode="normal" in2="BackgroundImageFix" result="effect1_dropShadow"/>
<feBlend mode="normal" in="SourceGraphic" in2="effect1_dropShadow" result="shape"/>
</filter>
<filter id="filter32_d" x="50" y="172" width="40" height="44" filterUnits="userSpaceOnUse" color-interpolation-filters="sRGB">
<feFlood flood-opacity="0" result="BackgroundImageFix"/>
<feColorMatrix in="SourceAlpha" type="matrix" values="0 0 0 0 0 0 0 0 0 0 0 0 0 0 0 0 0 0 127 0" result="hardAlpha"/>
<feOffset dy="1"/>
<feColorMatrix type="matrix" values="0 0 0 0 0 0 0 0 0 0 0 0 0 0 0 0 0 0 0.3 0"/>
<feBlend mode="normal" in2="BackgroundImageFix" result="effect1_dropShadow"/>
<feBlend mode="normal" in="SourceGraphic" in2="effect1_dropShadow" result="shape"/>
</filter>
<filter id="filter33_d" x="135" y="172" width="143" height="44" filterUnits="userSpaceOnUse" color-interpolation-filters="sRGB">
<feFlood flood-opacity="0" result="BackgroundImageFix"/>
<feColorMatrix in="SourceAlpha" type="matrix" values="0 0 0 0 0 0 0 0 0 0 0 0 0 0 0 0 0 0 127 0" result="hardAlpha"/>
<feOffset dy="1"/>
<feColorMatrix type="matrix" values="0 0 0 0 0 0 0 0 0 0 0 0 0 0 0 0 0 0 0.3 0"/>
<feBlend mode="normal" in2="BackgroundImageFix" result="effect1_dropShadow"/>
<feBlend mode="normal" in="SourceGraphic" in2="effect1_dropShadow" result="shape"/>
</filter>
<filter id="filter34_d" x="285" y="172" width="87" height="44" filterUnits="userSpaceOnUse" color-interpolation-filters="sRGB">
<feFlood flood-opacity="0" result="BackgroundImageFix"/>
<feColorMatrix in="SourceAlpha" type="matrix" values="0 0 0 0 0 0 0 0 0 0 0 0 0 0 0 0 0 0 127 0" result="hardAlpha"/>
<feOffset dy="1"/>
<feColorMatrix type="matrix" values="0 0 0 0 0 0 0 0 0 0 0 0 0 0 0 0 0 0 0.3 0"/>
<feBlend mode="normal" in2="BackgroundImageFix" result="effect1_dropShadow"/>
<feBlend mode="normal" in="SourceGraphic" in2="effect1_dropShadow" result="shape"/>
</filter>
</defs>
</svg>
