<svg width="528" height="123" viewBox="0 0 528 123" fill="none" xmlns="http://www.w3.org/2000/svg">
<g filter="url(#filter0_b)">
<g filter="url(#filter1_d)">
<path d="M82 91C82 88.2386 84.2386 86 87 86H124C126.761 86 129 88.2386 129 91V114C129 116.761 126.761 119 124 119H87C84.2386 119 82 116.761 82 114V91Z" fill="white"/>
<path d="M99.3359 111H111.664V109.547H101.445V109.406L111.523 95.2617V94.0898H99.6758V95.543H109.449V95.6836L99.3359 109.84V111Z" fill="black"/>
</g>
<g filter="url(#filter2_d)">
<path d="M135 91C135 88.2386 137.239 86 140 86H177C179.761 86 182 88.2386 182 91V114C182 116.761 179.761 119 177 119H140C137.239 119 135 116.761 135 114V91Z" fill="white"/>
<path d="M151.598 111H153.426L158.383 103.852H158.453L163.375 111H165.297L159.449 102.586V102.551L165.379 94.0898H163.551L158.582 101.285H158.512L153.578 94.0898H151.645L157.48 102.48V102.527L151.598 111Z" fill="black"/>
</g>
<g filter="url(#filter3_d)">
<path d="M188 91C188 88.2386 190.239 86 193 86H230C232.761 86 235 88.2386 235 91V114C235 116.761 232.761 119 230 119H193C190.239 119 188 116.761 188 114V91Z" fill="white"/>
<path d="M211.91 111.352C215.496 111.352 218.168 109.289 218.648 106.195L218.637 106.172L217.031 106.184L217.02 106.195C216.551 108.41 214.523 109.863 211.91 109.863C208.348 109.863 206.098 107.027 206.098 102.562V102.539C206.098 98.0742 208.359 95.2266 211.898 95.2266C214.441 95.2266 216.527 96.8672 217.02 99.2461L217.031 99.2578H218.637L218.648 99.2461C218.191 96.0469 215.379 93.7383 211.898 93.7383C207.316 93.7383 204.457 97.125 204.457 102.539V102.562C204.457 107.977 207.316 111.352 211.91 111.352Z" fill="black"/>
</g>
<g filter="url(#filter4_d)">
<path d="M241 91C241 88.2386 243.239 86 246 86H283C285.761 86 288 88.2386 288 91V114C288 116.761 285.761 119 283 119H246C243.239 119 241 116.761 241 114V91Z" fill="white"/>
<path d="M263.703 111H265.297L271.613 94.0898H269.926L264.57 108.902H264.418L259.062 94.0898H257.375L263.703 111Z" fill="black"/>
</g>
<g filter="url(#filter5_d)">
<path d="M294 91C294 88.2386 296.239 86 299 86H336C338.761 86 341 88.2386 341 91V114C341 116.761 338.761 119 336 119H299C296.239 119 294 116.761 294 114V91Z" fill="white"/>
<path d="M311.934 111H318.098C321.848 111 323.91 109.242 323.91 106.383V106.359C323.91 104.027 322.258 102.48 319.949 102.188V102.047C321.742 101.719 323.043 100.137 323.043 98.2852V98.2617C323.043 95.7305 321.121 94.0898 318.004 94.0898H311.934V111ZM317.688 95.5078C320.031 95.5078 321.426 96.6562 321.426 98.5078V98.5312C321.426 100.488 319.938 101.602 317.324 101.602H313.539V95.5078H317.688ZM317.734 102.984C320.605 102.984 322.27 104.168 322.27 106.277V106.301C322.27 108.387 320.805 109.582 317.863 109.582H313.539V102.984H317.734Z" fill="black"/>
</g>
<g filter="url(#filter6_d)">
<path d="M347 91C347 88.2386 349.239 86 352 86H389C391.761 86 394 88.2386 394 91V114C394 116.761 391.761 119 389 119H352C349.239 119 347 116.761 347 114V91Z" fill="white"/>
<path d="M363.914 111H365.496V96.9492H365.648L375.539 111H377.086V94.0898H375.504V108.129H375.352L365.496 94.0898H363.914V111Z" fill="black"/>
</g>
<g filter="url(#filter7_d)">
<path d="M400 91C400 88.2386 402.239 86 405 86H442C444.761 86 447 88.2386 447 91V114C447 116.761 444.761 119 442 119H405C402.239 119 400 116.761 400 114V91Z" fill="white"/>
<path d="M415.355 111H416.855V97.207H416.973L422.797 111H424.191L430.027 97.207H430.145V111H431.645V94.0898H429.793L423.57 108.891H423.43L417.195 94.0898H415.355V111Z" fill="black"/>
</g>
<g filter="url(#filter8_d)">
<path d="M29 51C29 48.2386 31.2386 46 34 46H71C73.7614 46 76 48.2386 76 51V74C76 76.7614 73.7614 79 71 79H34C31.2386 79 29 76.7614 29 74V51Z" fill="white"/>
<path d="M45.375 71H47.0625L48.9375 65.8203H56.0508L57.9258 71H59.6133L53.2852 54.0898H51.6914L45.375 71ZM52.418 56.1875H52.5586L55.5469 64.4375H49.4297L52.418 56.1875Z" fill="black"/>
</g>
<g filter="url(#filter9_d)">
<path d="M82 51C82 48.2386 84.2386 46 87 46H124C126.761 46 129 48.2386 129 51V74C129 76.7614 126.761 79 124 79H87C84.2386 79 82 76.7614 82 74V51Z" fill="white"/>
<path d="M105.582 71.3516C109.227 71.3516 111.664 69.3711 111.664 66.3828V66.3711C111.664 64.0156 110.246 62.5977 106.73 61.8008L104.996 61.4023C102.43 60.8164 101.387 59.8672 101.387 58.3789V58.3672C101.387 56.4805 103.156 55.2266 105.488 55.2266C107.891 55.2148 109.484 56.4688 109.73 58.0977L109.742 58.2383H111.348L111.336 58.0859C111.137 55.6602 108.84 53.7383 105.535 53.7383C102.16 53.7383 99.7578 55.7188 99.7578 58.4023V58.4141C99.7578 60.7461 101.188 62.1875 104.586 62.9609L106.32 63.3477C108.922 63.9336 110.035 65 110.035 66.5586V66.582C110.035 68.4805 108.207 69.8633 105.664 69.8633C103.062 69.8633 101.117 68.5859 100.941 66.7227L100.93 66.5938H99.3242L99.3359 66.7227C99.582 69.4297 102.008 71.3516 105.582 71.3516Z" fill="black"/>
</g>
<g filter="url(#filter10_d)">
<path d="M135 51C135 48.2386 137.239 46 140 46H177C179.761 46 182 48.2386 182 51V74C182 76.7614 179.761 79 177 79H140C137.239 79 135 76.7614 135 74V51Z" fill="white"/>
<path d="M152.043 71H157.609C162.777 71 165.637 67.8008 165.637 62.5508V62.5273C165.637 57.2891 162.766 54.0898 157.609 54.0898H152.043V71ZM153.648 69.5469V55.543H157.516C161.641 55.543 163.996 58.1797 163.996 62.5391V62.5625C163.996 66.9219 161.652 69.5469 157.516 69.5469H153.648Z" fill="black"/>
</g>
<g filter="url(#filter11_d)">
<path d="M188 51C188 48.2386 190.239 46 193 46H230C232.761 46 235 48.2386 235 51V74C235 76.7614 232.761 79 230 79H193C190.239 79 188 76.7614 188 74V51Z" fill="white"/>
<path d="M206.895 71H208.5V63.3242H216.246V61.8945H208.5V55.543H216.926V54.0898H206.895V71Z" fill="black"/>
</g>
<g filter="url(#filter12_d)">
<path d="M241 51C241 48.2386 243.239 46 246 46H283C285.761 46 288 48.2386 288 51V74C288 76.7614 285.761 79 283 79H246C243.239 79 241 76.7614 241 74V51Z" fill="white"/>
<path d="M264.688 71.3516C268.941 71.3516 271.742 68.4922 271.742 64.2266V62.5742H264.91V63.9922H270.137V64.3672C270.137 67.6484 267.969 69.8633 264.688 69.8633C261.09 69.8633 258.805 67.0156 258.805 62.5156V62.4922C258.805 58.0508 261.102 55.2266 264.688 55.2266C267.348 55.2266 269.246 56.5273 269.949 58.918L269.984 59.0234H271.59L271.566 58.9062C270.898 55.7539 268.285 53.7383 264.688 53.7383C260.141 53.7383 257.164 57.1836 257.164 62.4922V62.5156C257.164 67.8945 260.117 71.3516 264.688 71.3516Z" fill="black"/>
</g>
<g filter="url(#filter13_d)">
<path d="M294 51C294 48.2386 296.239 46 299 46H336C338.761 46 341 48.2386 341 51V74C341 76.7614 338.761 79 336 79H299C296.239 79 294 76.7614 294 74V51Z" fill="white"/>
<path d="M310.949 71H312.555V63.0664H322.445V71H324.051V54.0898H322.445V61.6133H312.555V54.0898H310.949V71Z" fill="black"/>
</g>
<g filter="url(#filter14_d)">
<path d="M347 51C347 48.2386 349.239 46 352 46H389C391.761 46 394 48.2386 394 51V74C394 76.7614 391.761 79 389 79H352C349.239 79 347 76.7614 347 74V51Z" fill="white"/>
<path d="M369.855 71.3516C372.879 71.3516 374.707 69.4766 374.707 66.4062V54.0898H373.102V66.3359C373.102 68.5977 371.93 69.8633 369.855 69.8633C368.027 69.8633 366.938 68.6797 366.82 67.1797L366.809 67.0977H365.203L365.215 67.2148C365.355 69.582 367.066 71.3516 369.855 71.3516Z" fill="black"/>
</g>
<g filter="url(#filter15_d)">
<path d="M400 51C400 48.2386 402.239 46 405 46H442C444.761 46 447 48.2386 447 51V74C447 76.7614 444.761 79 442 79H405C402.239 79 400 76.7614 400 74V51Z" fill="white"/>
<path d="M417.98 71H419.586V64.9648L421.848 62.5039L428.352 71H430.426L422.961 61.3906L429.734 54.0898H427.73L419.727 62.832H419.586V54.0898H417.98V71Z" fill="black"/>
</g>
<g filter="url(#filter16_d)">
<path d="M453 51C453 48.2386 455.239 46 458 46H495C497.761 46 500 48.2386 500 51V74C500 76.7614 497.761 79 495 79H458C455.239 79 453 76.7614 453 74V51Z" fill="white"/>
<path d="M471.988 71H482.055V69.5469H473.594V54.0898H471.988V71Z" fill="black"/>
</g>
<g filter="url(#filter17_d)">
<path d="M3 11C3 8.23858 5.23858 6 8 6H44C46.7614 6 49 8.23858 49 11V34C49 36.7614 46.7614 39 44 39H8C5.23858 39 3 36.7614 3 34V11Z" fill="white"/>
<path d="M26 31.3516C27.1836 31.3516 28.2617 31.1406 29.1992 30.7305L30.8398 32.9922H32.6562L30.4766 30.0039C32.5039 28.5273 33.6523 25.9258 33.6523 22.5508V22.5273C33.6523 17.1602 30.7344 13.75 25.9883 13.75C21.2891 13.75 18.3359 17.1484 18.3359 22.5273V22.5508C18.3359 27.9297 21.2422 31.3516 26 31.3516ZM26 29.875C22.25 29.875 19.9766 26.9922 19.9766 22.5508V22.5273C19.9766 18.0625 22.2969 15.2266 25.9883 15.2266C29.6914 15.2266 32.0234 18.0625 32.0234 22.5273V22.5508C32.0234 25.3164 31.1211 27.4844 29.5508 28.7148L27.8398 26.3711H26.0234L28.2734 29.4531C27.5938 29.7227 26.832 29.875 26 29.875Z" fill="black"/>
</g>
<g filter="url(#filter18_d)">
<path d="M56 11C56 8.23858 58.2386 6 61 6H97C99.7614 6 102 8.23858 102 11V34C102 36.7614 99.7614 39 97 39H61C58.2386 39 56 36.7614 56 34V11Z" fill="white"/>
<path d="M73.3047 31H74.793L78.9414 16.8789H79.0586L83.207 31H84.6953L89.3477 14.0898H87.6836L83.9688 28.5039H83.8633L79.7969 14.0898H78.2031L74.1367 28.5039H74.0312L70.3164 14.0898H68.6523L73.3047 31Z" fill="black"/>
</g>
<g filter="url(#filter19_d)">
<path d="M109 11C109 8.23858 111.239 6 114 6H150C152.761 6 155 8.23858 155 11V34C155 36.7614 152.761 39 150 39H114C111.239 39 109 36.7614 109 34V11Z" fill="white"/>
<path d="M127.148 31H137.367V29.5469H128.754V23.0547H136.934V21.625H128.754V15.543H137.367V14.0898H127.148V31Z" fill="black"/>
</g>
<g filter="url(#filter20_d)">
<path d="M162 11C162 8.23858 164.239 6 167 6H203C205.761 6 208 8.23858 208 11V34C208 36.7614 205.761 39 203 39H167C164.239 39 162 36.7614 162 34V11Z" fill="white"/>
<path d="M179.492 31H181.098V24.0742H185.34C185.445 24.0742 185.562 24.0742 185.668 24.0742L189.559 31H191.434L187.332 23.8164C189.594 23.2188 190.953 21.4258 190.953 19.0469V19.0234C190.953 16.0117 188.844 14.0898 185.551 14.0898H179.492V31ZM181.098 22.6445V15.5195H185.352C187.812 15.5195 189.312 16.8555 189.312 19.0703V19.0938C189.312 21.3438 187.871 22.6445 185.422 22.6445H181.098Z" fill="black"/>
</g>
<g filter="url(#filter21_d)">
<path d="M215 11C215 8.23858 217.239 6 220 6H256C258.761 6 261 8.23858 261 11V34C261 36.7614 258.761 39 256 39H220C217.239 39 215 36.7614 215 34V11Z" fill="white"/>
<path d="M237.203 31H238.797V15.543H244.469V14.0898H231.531V15.543H237.203V31Z" fill="black"/>
</g>
<g filter="url(#filter22_d)">
<path d="M268 11C268 8.23858 270.239 6 273 6H309C311.761 6 314 8.23858 314 11V34C314 36.7614 311.761 39 309 39H273C270.239 39 268 36.7614 268 34V11Z" fill="white"/>
<path d="M290.203 31H291.797V23.6875L297.855 14.0898H296.027L291.07 22.0586H290.93L285.973 14.0898H284.133L290.203 23.6875V31Z" fill="black"/>
</g>
<g filter="url(#filter23_d)">
<path d="M321 11C321 8.23858 323.239 6 326 6H362C364.761 6 367 8.23858 367 11V34C367 36.7614 364.761 39 362 39H326C323.239 39 321 36.7614 321 34V11Z" fill="white"/>
<path d="M344 31.3516C348.066 31.3516 350.539 28.8672 350.539 25.1758V14.0898H348.934V25.082C348.934 27.9531 347.105 29.8633 344 29.8633C340.895 29.8633 339.043 27.9531 339.043 25.082V14.0898H337.449V25.1758C337.449 28.8672 339.934 31.3516 344 31.3516Z" fill="black"/>
</g>
<g filter="url(#filter24_d)">
<path d="M374 11C374 8.23858 376.239 6 379 6H415C417.761 6 420 8.23858 420 11V34C420 36.7614 417.761 39 415 39H379C376.239 39 374 36.7614 374 34V11Z" fill="white"/>
<path d="M396.191 31H397.797V14.0898H396.191V31Z" fill="black"/>
</g>
<g filter="url(#filter25_d)">
<path d="M427 11C427 8.23858 429.239 6 432 6H468C470.761 6 473 8.23858 473 11V34C473 36.7614 470.761 39 468 39H432C429.239 39 427 36.7614 427 34V11Z" fill="white"/>
<path d="M450 31.3516C454.758 31.3516 457.652 27.9297 457.652 22.5508V22.5273C457.652 17.1367 454.734 13.7383 450 13.7383C445.277 13.7383 442.336 17.125 442.336 22.5273V22.5508C442.336 27.9414 445.23 31.3516 450 31.3516ZM450 29.8633C446.262 29.8633 443.977 26.9922 443.977 22.5508V22.5273C443.977 18.0625 446.309 15.2266 450 15.2266C453.691 15.2266 456.023 18.0625 456.023 22.5273V22.5508C456.023 26.9922 453.703 29.8633 450 29.8633Z" fill="black"/>
</g>
<g filter="url(#filter26_d)">
<path d="M480 11C480 8.23858 482.239 6 485 6H521C523.761 6 526 8.23858 526 11V34C526 36.7614 523.761 39 521 39H485C482.239 39 480 36.7614 480 34V11Z" fill="white"/>
<path d="M497.715 31H499.32V24.625H503.715C506.938 24.625 509.141 22.4922 509.141 19.3516V19.3281C509.141 16.1875 506.938 14.0898 503.715 14.0898H497.715V31ZM503.34 15.5195C505.941 15.5195 507.512 16.9609 507.512 19.3398V19.3633C507.512 21.7539 505.941 23.1953 503.34 23.1953H499.32V15.5195H503.34Z" fill="black"/>
</g>
<g filter="url(#filter27_d)">
<path d="M462 91C462 88.2386 464.239 86 467 86H520C522.761 86 525 88.2386 525 91V113C525 115.761 522.761 118 520 118H467C464.239 118 462 115.761 462 113V91Z" fill="#AEB3BE"/>
<path d="M493.214 99.5251C492.922 99.2322 492.922 98.7574 493.214 98.4645C493.507 98.1716 493.982 98.1716 494.275 98.4645L496.75 100.939L499.225 98.4645C499.518 98.1716 499.993 98.1716 500.286 98.4645C500.578 98.7573 500.578 99.2322 500.286 99.5251L497.811 102L500.286 104.475C500.578 104.768 500.578 105.243 500.286 105.536C499.993 105.828 499.518 105.828 499.225 105.536L496.75 103.061L494.275 105.536C493.982 105.828 493.507 105.828 493.214 105.536C492.922 105.243 492.922 104.768 493.214 104.475L495.689 102L493.214 99.5251Z" fill="black"/>
<path fill-rule="evenodd" clip-rule="evenodd" d="M490.121 94.3787L482.5 102L490.121 109.621C490.684 110.184 491.447 110.5 492.243 110.5H502.5C504.157 110.5 505.5 109.157 505.5 107.5V96.5C505.5 94.8431 504.157 93.5 502.5 93.5H492.243C491.447 93.5 490.684 93.8161 490.121 94.3787ZM502.5 109.2H492.243C491.792 109.2 491.359 109.021 491.041 108.702L484.339 102L491.041 95.2979C491.359 94.9791 491.792 94.8 492.243 94.8H502.5C503.439 94.8 504.2 95.5611 504.2 96.5V107.5C504.2 108.439 503.439 109.2 502.5 109.2Z" fill="black"/>
</g>
<g filter="url(#filter28_d)">
<path d="M3 91C3 88.2386 5.23858 86 8 86H61C63.7614 86 66 88.2386 66 91V114C66 116.761 63.7614 119 61 119H8C5.23858 119 3 116.761 3 114V91Z" fill="white"/>
<path d="M30.6368 104.643H26.0007C25.5592 104.643 25.3346 104.112 25.642 103.795L34.6412 94.502C34.8375 94.2993 35.1625 94.2993 35.3588 94.502L44.358 103.795C44.6654 104.112 44.4408 104.643 43.9993 104.643H39.3625V110.15C39.3625 110.426 39.1388 110.65 38.8628 110.65H31.1366C30.8606 110.65 30.6368 110.426 30.6368 110.15V104.643Z" fill="black"/>
</g>
</g>
<defs>
<filter id="filter0_b" x="-70" y="-70" width="668" height="263" filterUnits="userSpaceOnUse" color-interpolation-filters="sRGB">
<feFlood flood-opacity="0" result="BackgroundImageFix"/>
<feGaussianBlur in="BackgroundImage" stdDeviation="35"/>
<feComposite in2="SourceAlpha" operator="in" result="effect1_backgroundBlur"/>
<feBlend mode="normal" in="SourceGraphic" in2="effect1_backgroundBlur" result="shape"/>
</filter>
<filter id="filter1_d" x="82" y="86" width="47" height="34" filterUnits="userSpaceOnUse" color-interpolation-filters="sRGB">
<feFlood flood-opacity="0" result="BackgroundImageFix"/>
<feColorMatrix in="SourceAlpha" type="matrix" values="0 0 0 0 0 0 0 0 0 0 0 0 0 0 0 0 0 0 127 0" result="hardAlpha"/>
<feOffset dy="1"/>
<feColorMatrix type="matrix" values="0 0 0 0 0 0 0 0 0 0 0 0 0 0 0 0 0 0 0.3 0"/>
<feBlend mode="normal" in2="BackgroundImageFix" result="effect1_dropShadow"/>
<feBlend mode="normal" in="SourceGraphic" in2="effect1_dropShadow" result="shape"/>
</filter>
<filter id="filter2_d" x="135" y="86" width="47" height="34" filterUnits="userSpaceOnUse" color-interpolation-filters="sRGB">
<feFlood flood-opacity="0" result="BackgroundImageFix"/>
<feColorMatrix in="SourceAlpha" type="matrix" values="0 0 0 0 0 0 0 0 0 0 0 0 0 0 0 0 0 0 127 0" result="hardAlpha"/>
<feOffset dy="1"/>
<feColorMatrix type="matrix" values="0 0 0 0 0 0 0 0 0 0 0 0 0 0 0 0 0 0 0.3 0"/>
<feBlend mode="normal" in2="BackgroundImageFix" result="effect1_dropShadow"/>
<feBlend mode="normal" in="SourceGraphic" in2="effect1_dropShadow" result="shape"/>
</filter>
<filter id="filter3_d" x="188" y="86" width="47" height="34" filterUnits="userSpaceOnUse" color-interpolation-filters="sRGB">
<feFlood flood-opacity="0" result="BackgroundImageFix"/>
<feColorMatrix in="SourceAlpha" type="matrix" values="0 0 0 0 0 0 0 0 0 0 0 0 0 0 0 0 0 0 127 0" result="hardAlpha"/>
<feOffset dy="1"/>
<feColorMatrix type="matrix" values="0 0 0 0 0 0 0 0 0 0 0 0 0 0 0 0 0 0 0.3 0"/>
<feBlend mode="normal" in2="BackgroundImageFix" result="effect1_dropShadow"/>
<feBlend mode="normal" in="SourceGraphic" in2="effect1_dropShadow" result="shape"/>
</filter>
<filter id="filter4_d" x="241" y="86" width="47" height="34" filterUnits="userSpaceOnUse" color-interpolation-filters="sRGB">
<feFlood flood-opacity="0" result="BackgroundImageFix"/>
<feColorMatrix in="SourceAlpha" type="matrix" values="0 0 0 0 0 0 0 0 0 0 0 0 0 0 0 0 0 0 127 0" result="hardAlpha"/>
<feOffset dy="1"/>
<feColorMatrix type="matrix" values="0 0 0 0 0 0 0 0 0 0 0 0 0 0 0 0 0 0 0.3 0"/>
<feBlend mode="normal" in2="BackgroundImageFix" result="effect1_dropShadow"/>
<feBlend mode="normal" in="SourceGraphic" in2="effect1_dropShadow" result="shape"/>
</filter>
<filter id="filter5_d" x="294" y="86" width="47" height="34" filterUnits="userSpaceOnUse" color-interpolation-filters="sRGB">
<feFlood flood-opacity="0" result="BackgroundImageFix"/>
<feColorMatrix in="SourceAlpha" type="matrix" values="0 0 0 0 0 0 0 0 0 0 0 0 0 0 0 0 0 0 127 0" result="hardAlpha"/>
<feOffset dy="1"/>
<feColorMatrix type="matrix" values="0 0 0 0 0 0 0 0 0 0 0 0 0 0 0 0 0 0 0.3 0"/>
<feBlend mode="normal" in2="BackgroundImageFix" result="effect1_dropShadow"/>
<feBlend mode="normal" in="SourceGraphic" in2="effect1_dropShadow" result="shape"/>
</filter>
<filter id="filter6_d" x="347" y="86" width="47" height="34" filterUnits="userSpaceOnUse" color-interpolation-filters="sRGB">
<feFlood flood-opacity="0" result="BackgroundImageFix"/>
<feColorMatrix in="SourceAlpha" type="matrix" values="0 0 0 0 0 0 0 0 0 0 0 0 0 0 0 0 0 0 127 0" result="hardAlpha"/>
<feOffset dy="1"/>
<feColorMatrix type="matrix" values="0 0 0 0 0 0 0 0 0 0 0 0 0 0 0 0 0 0 0.3 0"/>
<feBlend mode="normal" in2="BackgroundImageFix" result="effect1_dropShadow"/>
<feBlend mode="normal" in="SourceGraphic" in2="effect1_dropShadow" result="shape"/>
</filter>
<filter id="filter7_d" x="400" y="86" width="47" height="34" filterUnits="userSpaceOnUse" color-interpolation-filters="sRGB">
<feFlood flood-opacity="0" result="BackgroundImageFix"/>
<feColorMatrix in="SourceAlpha" type="matrix" values="0 0 0 0 0 0 0 0 0 0 0 0 0 0 0 0 0 0 127 0" result="hardAlpha"/>
<feOffset dy="1"/>
<feColorMatrix type="matrix" values="0 0 0 0 0 0 0 0 0 0 0 0 0 0 0 0 0 0 0.3 0"/>
<feBlend mode="normal" in2="BackgroundImageFix" result="effect1_dropShadow"/>
<feBlend mode="normal" in="SourceGraphic" in2="effect1_dropShadow" result="shape"/>
</filter>
<filter id="filter8_d" x="29" y="46" width="47" height="34" filterUnits="userSpaceOnUse" color-interpolation-filters="sRGB">
<feFlood flood-opacity="0" result="BackgroundImageFix"/>
<feColorMatrix in="SourceAlpha" type="matrix" values="0 0 0 0 0 0 0 0 0 0 0 0 0 0 0 0 0 0 127 0" result="hardAlpha"/>
<feOffset dy="1"/>
<feColorMatrix type="matrix" values="0 0 0 0 0 0 0 0 0 0 0 0 0 0 0 0 0 0 0.3 0"/>
<feBlend mode="normal" in2="BackgroundImageFix" result="effect1_dropShadow"/>
<feBlend mode="normal" in="SourceGraphic" in2="effect1_dropShadow" result="shape"/>
</filter>
<filter id="filter9_d" x="82" y="46" width="47" height="34" filterUnits="userSpaceOnUse" color-interpolation-filters="sRGB">
<feFlood flood-opacity="0" result="BackgroundImageFix"/>
<feColorMatrix in="SourceAlpha" type="matrix" values="0 0 0 0 0 0 0 0 0 0 0 0 0 0 0 0 0 0 127 0" result="hardAlpha"/>
<feOffset dy="1"/>
<feColorMatrix type="matrix" values="0 0 0 0 0 0 0 0 0 0 0 0 0 0 0 0 0 0 0.3 0"/>
<feBlend mode="normal" in2="BackgroundImageFix" result="effect1_dropShadow"/>
<feBlend mode="normal" in="SourceGraphic" in2="effect1_dropShadow" result="shape"/>
</filter>
<filter id="filter10_d" x="135" y="46" width="47" height="34" filterUnits="userSpaceOnUse" color-interpolation-filters="sRGB">
<feFlood flood-opacity="0" result="BackgroundImageFix"/>
<feColorMatrix in="SourceAlpha" type="matrix" values="0 0 0 0 0 0 0 0 0 0 0 0 0 0 0 0 0 0 127 0" result="hardAlpha"/>
<feOffset dy="1"/>
<feColorMatrix type="matrix" values="0 0 0 0 0 0 0 0 0 0 0 0 0 0 0 0 0 0 0.3 0"/>
<feBlend mode="normal" in2="BackgroundImageFix" result="effect1_dropShadow"/>
<feBlend mode="normal" in="SourceGraphic" in2="effect1_dropShadow" result="shape"/>
</filter>
<filter id="filter11_d" x="188" y="46" width="47" height="34" filterUnits="userSpaceOnUse" color-interpolation-filters="sRGB">
<feFlood flood-opacity="0" result="BackgroundImageFix"/>
<feColorMatrix in="SourceAlpha" type="matrix" values="0 0 0 0 0 0 0 0 0 0 0 0 0 0 0 0 0 0 127 0" result="hardAlpha"/>
<feOffset dy="1"/>
<feColorMatrix type="matrix" values="0 0 0 0 0 0 0 0 0 0 0 0 0 0 0 0 0 0 0.3 0"/>
<feBlend mode="normal" in2="BackgroundImageFix" result="effect1_dropShadow"/>
<feBlend mode="normal" in="SourceGraphic" in2="effect1_dropShadow" result="shape"/>
</filter>
<filter id="filter12_d" x="241" y="46" width="47" height="34" filterUnits="userSpaceOnUse" color-interpolation-filters="sRGB">
<feFlood flood-opacity="0" result="BackgroundImageFix"/>
<feColorMatrix in="SourceAlpha" type="matrix" values="0 0 0 0 0 0 0 0 0 0 0 0 0 0 0 0 0 0 127 0" result="hardAlpha"/>
<feOffset dy="1"/>
<feColorMatrix type="matrix" values="0 0 0 0 0 0 0 0 0 0 0 0 0 0 0 0 0 0 0.3 0"/>
<feBlend mode="normal" in2="BackgroundImageFix" result="effect1_dropShadow"/>
<feBlend mode="normal" in="SourceGraphic" in2="effect1_dropShadow" result="shape"/>
</filter>
<filter id="filter13_d" x="294" y="46" width="47" height="34" filterUnits="userSpaceOnUse" color-interpolation-filters="sRGB">
<feFlood flood-opacity="0" result="BackgroundImageFix"/>
<feColorMatrix in="SourceAlpha" type="matrix" values="0 0 0 0 0 0 0 0 0 0 0 0 0 0 0 0 0 0 127 0" result="hardAlpha"/>
<feOffset dy="1"/>
<feColorMatrix type="matrix" values="0 0 0 0 0 0 0 0 0 0 0 0 0 0 0 0 0 0 0.3 0"/>
<feBlend mode="normal" in2="BackgroundImageFix" result="effect1_dropShadow"/>
<feBlend mode="normal" in="SourceGraphic" in2="effect1_dropShadow" result="shape"/>
</filter>
<filter id="filter14_d" x="347" y="46" width="47" height="34" filterUnits="userSpaceOnUse" color-interpolation-filters="sRGB">
<feFlood flood-opacity="0" result="BackgroundImageFix"/>
<feColorMatrix in="SourceAlpha" type="matrix" values="0 0 0 0 0 0 0 0 0 0 0 0 0 0 0 0 0 0 127 0" result="hardAlpha"/>
<feOffset dy="1"/>
<feColorMatrix type="matrix" values="0 0 0 0 0 0 0 0 0 0 0 0 0 0 0 0 0 0 0.3 0"/>
<feBlend mode="normal" in2="BackgroundImageFix" result="effect1_dropShadow"/>
<feBlend mode="normal" in="SourceGraphic" in2="effect1_dropShadow" result="shape"/>
</filter>
<filter id="filter15_d" x="400" y="46" width="47" height="34" filterUnits="userSpaceOnUse" color-interpolation-filters="sRGB">
<feFlood flood-opacity="0" result="BackgroundImageFix"/>
<feColorMatrix in="SourceAlpha" type="matrix" values="0 0 0 0 0 0 0 0 0 0 0 0 0 0 0 0 0 0 127 0" result="hardAlpha"/>
<feOffset dy="1"/>
<feColorMatrix type="matrix" values="0 0 0 0 0 0 0 0 0 0 0 0 0 0 0 0 0 0 0.3 0"/>
<feBlend mode="normal" in2="BackgroundImageFix" result="effect1_dropShadow"/>
<feBlend mode="normal" in="SourceGraphic" in2="effect1_dropShadow" result="shape"/>
</filter>
<filter id="filter16_d" x="453" y="46" width="47" height="34" filterUnits="userSpaceOnUse" color-interpolation-filters="sRGB">
<feFlood flood-opacity="0" result="BackgroundImageFix"/>
<feColorMatrix in="SourceAlpha" type="matrix" values="0 0 0 0 0 0 0 0 0 0 0 0 0 0 0 0 0 0 127 0" result="hardAlpha"/>
<feOffset dy="1"/>
<feColorMatrix type="matrix" values="0 0 0 0 0 0 0 0 0 0 0 0 0 0 0 0 0 0 0.3 0"/>
<feBlend mode="normal" in2="BackgroundImageFix" result="effect1_dropShadow"/>
<feBlend mode="normal" in="SourceGraphic" in2="effect1_dropShadow" result="shape"/>
</filter>
<filter id="filter17_d" x="3" y="6" width="46" height="34" filterUnits="userSpaceOnUse" color-interpolation-filters="sRGB">
<feFlood flood-opacity="0" result="BackgroundImageFix"/>
<feColorMatrix in="SourceAlpha" type="matrix" values="0 0 0 0 0 0 0 0 0 0 0 0 0 0 0 0 0 0 127 0" result="hardAlpha"/>
<feOffset dy="1"/>
<feColorMatrix type="matrix" values="0 0 0 0 0 0 0 0 0 0 0 0 0 0 0 0 0 0 0.3 0"/>
<feBlend mode="normal" in2="BackgroundImageFix" result="effect1_dropShadow"/>
<feBlend mode="normal" in="SourceGraphic" in2="effect1_dropShadow" result="shape"/>
</filter>
<filter id="filter18_d" x="56" y="6" width="46" height="34" filterUnits="userSpaceOnUse" color-interpolation-filters="sRGB">
<feFlood flood-opacity="0" result="BackgroundImageFix"/>
<feColorMatrix in="SourceAlpha" type="matrix" values="0 0 0 0 0 0 0 0 0 0 0 0 0 0 0 0 0 0 127 0" result="hardAlpha"/>
<feOffset dy="1"/>
<feColorMatrix type="matrix" values="0 0 0 0 0 0 0 0 0 0 0 0 0 0 0 0 0 0 0.3 0"/>
<feBlend mode="normal" in2="BackgroundImageFix" result="effect1_dropShadow"/>
<feBlend mode="normal" in="SourceGraphic" in2="effect1_dropShadow" result="shape"/>
</filter>
<filter id="filter19_d" x="109" y="6" width="46" height="34" filterUnits="userSpaceOnUse" color-interpolation-filters="sRGB">
<feFlood flood-opacity="0" result="BackgroundImageFix"/>
<feColorMatrix in="SourceAlpha" type="matrix" values="0 0 0 0 0 0 0 0 0 0 0 0 0 0 0 0 0 0 127 0" result="hardAlpha"/>
<feOffset dy="1"/>
<feColorMatrix type="matrix" values="0 0 0 0 0 0 0 0 0 0 0 0 0 0 0 0 0 0 0.3 0"/>
<feBlend mode="normal" in2="BackgroundImageFix" result="effect1_dropShadow"/>
<feBlend mode="normal" in="SourceGraphic" in2="effect1_dropShadow" result="shape"/>
</filter>
<filter id="filter20_d" x="162" y="6" width="46" height="34" filterUnits="userSpaceOnUse" color-interpolation-filters="sRGB">
<feFlood flood-opacity="0" result="BackgroundImageFix"/>
<feColorMatrix in="SourceAlpha" type="matrix" values="0 0 0 0 0 0 0 0 0 0 0 0 0 0 0 0 0 0 127 0" result="hardAlpha"/>
<feOffset dy="1"/>
<feColorMatrix type="matrix" values="0 0 0 0 0 0 0 0 0 0 0 0 0 0 0 0 0 0 0.3 0"/>
<feBlend mode="normal" in2="BackgroundImageFix" result="effect1_dropShadow"/>
<feBlend mode="normal" in="SourceGraphic" in2="effect1_dropShadow" result="shape"/>
</filter>
<filter id="filter21_d" x="215" y="6" width="46" height="34" filterUnits="userSpaceOnUse" color-interpolation-filters="sRGB">
<feFlood flood-opacity="0" result="BackgroundImageFix"/>
<feColorMatrix in="SourceAlpha" type="matrix" values="0 0 0 0 0 0 0 0 0 0 0 0 0 0 0 0 0 0 127 0" result="hardAlpha"/>
<feOffset dy="1"/>
<feColorMatrix type="matrix" values="0 0 0 0 0 0 0 0 0 0 0 0 0 0 0 0 0 0 0.3 0"/>
<feBlend mode="normal" in2="BackgroundImageFix" result="effect1_dropShadow"/>
<feBlend mode="normal" in="SourceGraphic" in2="effect1_dropShadow" result="shape"/>
</filter>
<filter id="filter22_d" x="268" y="6" width="46" height="34" filterUnits="userSpaceOnUse" color-interpolation-filters="sRGB">
<feFlood flood-opacity="0" result="BackgroundImageFix"/>
<feColorMatrix in="SourceAlpha" type="matrix" values="0 0 0 0 0 0 0 0 0 0 0 0 0 0 0 0 0 0 127 0" result="hardAlpha"/>
<feOffset dy="1"/>
<feColorMatrix type="matrix" values="0 0 0 0 0 0 0 0 0 0 0 0 0 0 0 0 0 0 0.3 0"/>
<feBlend mode="normal" in2="BackgroundImageFix" result="effect1_dropShadow"/>
<feBlend mode="normal" in="SourceGraphic" in2="effect1_dropShadow" result="shape"/>
</filter>
<filter id="filter23_d" x="321" y="6" width="46" height="34" filterUnits="userSpaceOnUse" color-interpolation-filters="sRGB">
<feFlood flood-opacity="0" result="BackgroundImageFix"/>
<feColorMatrix in="SourceAlpha" type="matrix" values="0 0 0 0 0 0 0 0 0 0 0 0 0 0 0 0 0 0 127 0" result="hardAlpha"/>
<feOffset dy="1"/>
<feColorMatrix type="matrix" values="0 0 0 0 0 0 0 0 0 0 0 0 0 0 0 0 0 0 0.3 0"/>
<feBlend mode="normal" in2="BackgroundImageFix" result="effect1_dropShadow"/>
<feBlend mode="normal" in="SourceGraphic" in2="effect1_dropShadow" result="shape"/>
</filter>
<filter id="filter24_d" x="374" y="6" width="46" height="34" filterUnits="userSpaceOnUse" color-interpolation-filters="sRGB">
<feFlood flood-opacity="0" result="BackgroundImageFix"/>
<feColorMatrix in="SourceAlpha" type="matrix" values="0 0 0 0 0 0 0 0 0 0 0 0 0 0 0 0 0 0 127 0" result="hardAlpha"/>
<feOffset dy="1"/>
<feColorMatrix type="matrix" values="0 0 0 0 0 0 0 0 0 0 0 0 0 0 0 0 0 0 0.3 0"/>
<feBlend mode="normal" in2="BackgroundImageFix" result="effect1_dropShadow"/>
<feBlend mode="normal" in="SourceGraphic" in2="effect1_dropShadow" result="shape"/>
</filter>
<filter id="filter25_d" x="427" y="6" width="46" height="34" filterUnits="userSpaceOnUse" color-interpolation-filters="sRGB">
<feFlood flood-opacity="0" result="BackgroundImageFix"/>
<feColorMatrix in="SourceAlpha" type="matrix" values="0 0 0 0 0 0 0 0 0 0 0 0 0 0 0 0 0 0 127 0" result="hardAlpha"/>
<feOffset dy="1"/>
<feColorMatrix type="matrix" values="0 0 0 0 0 0 0 0 0 0 0 0 0 0 0 0 0 0 0.3 0"/>
<feBlend mode="normal" in2="BackgroundImageFix" result="effect1_dropShadow"/>
<feBlend mode="normal" in="SourceGraphic" in2="effect1_dropShadow" result="shape"/>
</filter>
<filter id="filter26_d" x="480" y="6" width="46" height="34" filterUnits="userSpaceOnUse" color-interpolation-filters="sRGB">
<feFlood flood-opacity="0" result="BackgroundImageFix"/>
<feColorMatrix in="SourceAlpha" type="matrix" values="0 0 0 0 0 0 0 0 0 0 0 0 0 0 0 0 0 0 127 0" result="hardAlpha"/>
<feOffset dy="1"/>
<feColorMatrix type="matrix" values="0 0 0 0 0 0 0 0 0 0 0 0 0 0 0 0 0 0 0.3 0"/>
<feBlend mode="normal" in2="BackgroundImageFix" result="effect1_dropShadow"/>
<feBlend mode="normal" in="SourceGraphic" in2="effect1_dropShadow" result="shape"/>
</filter>
<filter id="filter27_d" x="462" y="86" width="63" height="33" filterUnits="userSpaceOnUse" color-interpolation-filters="sRGB">
<feFlood flood-opacity="0" result="BackgroundImageFix"/>
<feColorMatrix in="SourceAlpha" type="matrix" values="0 0 0 0 0 0 0 0 0 0 0 0 0 0 0 0 0 0 127 0" result="hardAlpha"/>
<feOffset dy="1"/>
<feColorMatrix type="matrix" values="0 0 0 0 0 0 0 0 0 0 0 0 0 0 0 0 0 0 0.3 0"/>
<feBlend mode="normal" in2="BackgroundImageFix" result="effect1_dropShadow"/>
<feBlend mode="normal" in="SourceGraphic" in2="effect1_dropShadow" result="shape"/>
</filter>
<filter id="filter28_d" x="3" y="86" width="63" height="34" filterUnits="userSpaceOnUse" color-interpolation-filters="sRGB">
<feFlood flood-opacity="0" result="BackgroundImageFix"/>
<feColorMatrix in="SourceAlpha" type="matrix" values="0 0 0 0 0 0 0 0 0 0 0 0 0 0 0 0 0 0 127 0" result="hardAlpha"/>
<feOffset dy="1"/>
<feColorMatrix type="matrix" values="0 0 0 0 0 0 0 0 0 0 0 0 0 0 0 0 0 0 0.3 0"/>
<feBlend mode="normal" in2="BackgroundImageFix" result="effect1_dropShadow"/>
<feBlend mode="normal" in="SourceGraphic" in2="effect1_dropShadow" result="shape"/>
</filter>
</defs>
</svg>
